M48
; DRILL file {KiCad 9.0.8} date 2026-04-17T23:09:55-0400
; FORMAT={-:-/ absolute / metric / decimal}
; #@! TF.CreationDate,2026-04-17T23:09:55-04:00
; #@! TF.GenerationSoftware,Kicad,Pcbnew,9.0.8
; #@! TF.FileFunction,Plated,1,2,PTH
FMAT,2
METRIC
; #@! TA.AperFunction,Plated,PTH,ViaDrill
T1C0.300
; #@! TA.AperFunction,Plated,PTH,ComponentDrill
T2C1.000
%
G90
G05
T1
X9.042Y-9.411
X16.485Y-30.881
X20.455Y-63.831
X25.366Y-7.337
X25.366Y-37.389
X33.684Y-84.462
X36.716Y-78.976
X40.084Y-25.286
X40.215Y-46.707
X40.215Y-58.384
X45.458Y-7.396
X45.692Y-6.562
X50.165Y-87.127
X51.291Y-67.465
X51.855Y-63.831
X52.46Y-61.315
X56.292Y-31.738
X57.078Y-3.531
X57.364Y-85.34
X58.428Y-46.268
X58.78Y-25.626
X61.141Y-23.09
X61.447Y-21.54
X61.761Y-11.26
X63.714Y-18.891
X66.646Y-8.194
X69.022Y-47.22
X69.022Y-60.549
X69.85Y-46.386
X69.85Y-64.379
X76.037Y-28.188
X76.037Y-35.566
X78.78Y-44.187
X83.856Y-8.162
X87.71Y-31.39
X87.71Y-42.587
X87.71Y-65.23
X93.085Y-22.581
X93.326Y-35.142
X99.616Y-40.388
X99.983Y-46.386
X102.593Y-69.157
X102.593Y-82.378
X104.749Y-8.194
X104.912Y-39.729
X105.569Y-49.739
X107.338Y-32.19
X107.338Y-55.384
X108.546Y-64.273
X108.736Y-44.588
X112.142Y-32.021
X114.136Y-27.684
X114.318Y-43.386
X120.793Y-8.162
X120.793Y-31.711
X127.608Y-63.834
X129.382Y-1.453
X129.382Y-34.882
X131.107Y-32.637
X131.481Y-27.695
X131.948Y-68.087
X132.359Y-49.805
X132.359Y-76.379
X133.433Y-25.315
X135.335Y-39.837
X135.812Y-45.757
X136.503Y-44.567
X144.524Y-65.212
X144.75Y-10.11
X144.75Y-62.274
X147.242Y-79.379
X153.974Y-60.681
X159.148Y-34.882
X159.596Y-28.384
X161.216Y-9.424
X162.369Y-25.067
X162.864Y-64.435
X168.582Y-11.018
X168.801Y-5.044
X168.885Y-1.44
X171.054Y-21.687
X172.26Y-32.656
X173.235Y-62.103
X174.031Y-22.392
X176.187Y-46.386
X179.984Y-39.287
X180.874Y-8.262
X182.961Y-40.388
X182.961Y-63.593
X182.961Y-65.23
X185.731Y-63.171
X185.938Y-25.391
X188.12Y-26.785
X191.927Y-42.785
X192.318Y-46.683
X194.867Y-23.192
X197.561Y-9.861
X197.561Y-85.377
X199.191Y-34.798
X202.919Y-65.23
X205.13Y-26.617
X207.226Y-64.144
X207.361Y-84.323
X209.521Y-27.521
X210.531Y-46.251
X212.727Y-70.381
X212.753Y-62.799
X215.56Y-16.216
X215.703Y-30.689
X215.75Y-44.187
X217.632Y-9.433
X218.68Y-23.087
X221.374Y-65.23
X230.7Y-45.956
X235.959Y-8.161
X235.959Y-85.34
X236.54Y-79.379
X245.156Y-37.075
X246.208Y-65.191
X257.146Y-85.073
X257.148Y-67.382
X257.376Y-34.798
X264.166Y-47.107
X265.604Y-9.409
X266.306Y-62.806
X269.176Y-27.568
X269.277Y-29.364
X269.282Y-37.389
X270.909Y-64.328
X271.164Y-40.4
X271.236Y-49.739
X271.437Y-26.785
X272.259Y-64.42
X274.357Y-85.073
X274.886Y-73.38
X276.125Y-82.354
X295.25Y-8.194
X295.25Y-65.627
X295.386Y-47.536
X296.072Y-25.286
X296.566Y-32.495
X296.913Y-39.729
X297.018Y-8.14
X297.214Y-46.51
X297.255Y-45.68
X297.381Y-32.47
X298.182Y-64.898
X298.422Y-31.809
X298.66Y-6.996
X298.674Y-28.391
X298.679Y-22.046
X299.677Y-34.563
X300.378Y-35.719
X301.246Y-41.073
X301.559Y-48.713
X302.025Y-76.379
X302.472Y-47.983
X302.962Y-32.73
X305.001Y-39.729
X305.001Y-82.378
X307.184Y-68.181
X310.615Y-82.069
X310.955Y-43.387
X311.504Y-87.443
X312.388Y-81.446
X313.4Y-73.38
X314.0Y-85.919
X314.412Y-82.126
X314.66Y-30.768
X314.71Y-86.377
X314.896Y-63.313
X314.91Y-45.446
X315.215Y-51.629
X315.492Y-69.945
X315.905Y-31.419
X316.436Y-67.865
X316.571Y-35.74
X316.908Y-64.014
X316.983Y-48.829
X317.376Y-49.606
X317.5Y-69.571
X319.885Y-40.469
T2
X307.26Y-2.0
X307.26Y-4.54
X307.26Y-7.08
X307.26Y-9.62
X307.26Y-12.16
X307.26Y-14.7
X307.26Y-17.24
X307.26Y-19.78
X307.26Y-22.32
X309.8Y-22.32
X312.34Y-22.32
X314.88Y-22.32
X317.42Y-22.32
X319.96Y-22.32
X322.5Y-2.0
X322.5Y-4.54
X322.5Y-7.08
X322.5Y-9.62
X322.5Y-12.16
X322.5Y-14.7
X322.5Y-17.24
X322.5Y-19.78
X322.5Y-22.32
M30
