%TF.GenerationSoftware,KiCad,Pcbnew,9.0.8*%
%TF.CreationDate,2026-04-17T23:09:53-04:00*%
%TF.ProjectId,routed,726f7574-6564-42e6-9b69-6361645f7063,rev?*%
%TF.SameCoordinates,Original*%
%TF.FileFunction,Soldermask,Bot*%
%TF.FilePolarity,Negative*%
%FSLAX46Y46*%
G04 Gerber Fmt 4.6, Leading zero omitted, Abs format (unit mm)*
G04 Created by KiCad (PCBNEW 9.0.8) date 2026-04-17 23:09:53*
%MOMM*%
%LPD*%
G01*
G04 APERTURE LIST*
%ADD10O,2.500000X1.500000*%
%ADD11O,1.500000X2.500000*%
%ADD12C,1.700000*%
G04 APERTURE END LIST*
D10*
%TO.C,R0*%
X323000000Y-2000000D03*
X323000000Y-4540000D03*
X323000000Y-7080000D03*
X323000000Y-9620000D03*
X323000000Y-12160000D03*
X323000000Y-14700000D03*
X323000000Y-17240000D03*
X323000000Y-19780000D03*
X323000000Y-22320000D03*
D11*
X319960000Y-22820000D03*
X317420000Y-22820000D03*
X314880000Y-22820000D03*
X312340000Y-22820000D03*
X309800000Y-22820000D03*
D10*
X306760000Y-22320000D03*
X306760000Y-19780000D03*
X306760000Y-17240000D03*
X306760000Y-14700000D03*
X306760000Y-12160000D03*
X306760000Y-9620000D03*
X306760000Y-7080000D03*
X306760000Y-4540000D03*
X306760000Y-2000000D03*
%TD*%
D12*
%TO.C,R1*%
X14580000Y-9525000D03*
X4420000Y-9525000D03*
%TD*%
%TO.C,R2*%
X33630000Y-9525000D03*
X23470000Y-9525000D03*
%TD*%
%TO.C,R3*%
X52680000Y-9525000D03*
X42520000Y-9525000D03*
%TD*%
%TO.C,R4*%
X71730000Y-9525000D03*
X61570000Y-9525000D03*
%TD*%
%TO.C,R5*%
X90780000Y-9525000D03*
X80620000Y-9525000D03*
%TD*%
%TO.C,R6*%
X109830000Y-9525000D03*
X99670000Y-9525000D03*
%TD*%
%TO.C,R7*%
X128880000Y-9525000D03*
X118720000Y-9525000D03*
%TD*%
%TO.C,R8*%
X147930000Y-9525000D03*
X137770000Y-9525000D03*
%TD*%
%TO.C,R9*%
X166980000Y-9525000D03*
X156820000Y-9525000D03*
%TD*%
%TO.C,R10*%
X186030000Y-9525000D03*
X175870000Y-9525000D03*
%TD*%
%TO.C,R11*%
X205080000Y-9525000D03*
X194920000Y-9525000D03*
%TD*%
%TO.C,R12*%
X224130000Y-9525000D03*
X213970000Y-9525000D03*
%TD*%
%TO.C,R13*%
X243180000Y-9525000D03*
X233020000Y-9525000D03*
%TD*%
%TO.C,R14*%
X271755000Y-9525000D03*
X261595000Y-9525000D03*
%TD*%
%TO.C,R15*%
X19342500Y-28575000D03*
X9182500Y-28575000D03*
%TD*%
%TO.C,R16*%
X43155000Y-28575000D03*
X32995000Y-28575000D03*
%TD*%
%TO.C,R17*%
X62205000Y-28575000D03*
X52045000Y-28575000D03*
%TD*%
%TO.C,R18*%
X81255000Y-28575000D03*
X71095000Y-28575000D03*
%TD*%
%TO.C,R19*%
X100305000Y-28575000D03*
X90145000Y-28575000D03*
%TD*%
%TO.C,R20*%
X119355000Y-28575000D03*
X109195000Y-28575000D03*
%TD*%
%TO.C,R21*%
X138405000Y-28575000D03*
X128245000Y-28575000D03*
%TD*%
%TO.C,R22*%
X157455000Y-28575000D03*
X147295000Y-28575000D03*
%TD*%
%TO.C,R23*%
X176505000Y-28575000D03*
X166345000Y-28575000D03*
%TD*%
%TO.C,R24*%
X195555000Y-28575000D03*
X185395000Y-28575000D03*
%TD*%
%TO.C,R25*%
X214605000Y-28575000D03*
X204445000Y-28575000D03*
%TD*%
%TO.C,R26*%
X233655000Y-28575000D03*
X223495000Y-28575000D03*
%TD*%
%TO.C,R27*%
X252705000Y-28575000D03*
X242545000Y-28575000D03*
%TD*%
%TO.C,R28*%
X276517500Y-28575000D03*
X266357500Y-28575000D03*
%TD*%
%TO.C,R29*%
X21723800Y-47625000D03*
X11563800Y-47625000D03*
%TD*%
%TO.C,R30*%
X47917500Y-47625000D03*
X37757500Y-47625000D03*
%TD*%
%TO.C,R31*%
X66967500Y-47625000D03*
X56807500Y-47625000D03*
%TD*%
%TO.C,R32*%
X86017500Y-47625000D03*
X75857500Y-47625000D03*
%TD*%
%TO.C,R33*%
X105067500Y-47625000D03*
X94907500Y-47625000D03*
%TD*%
%TO.C,R34*%
X124117500Y-47625000D03*
X113957500Y-47625000D03*
%TD*%
%TO.C,R35*%
X143167500Y-47625000D03*
X133007500Y-47625000D03*
%TD*%
%TO.C,R36*%
X162217500Y-47625000D03*
X152057500Y-47625000D03*
%TD*%
%TO.C,R37*%
X181267500Y-47625000D03*
X171107500Y-47625000D03*
%TD*%
%TO.C,R38*%
X200317500Y-47625000D03*
X190157500Y-47625000D03*
%TD*%
%TO.C,R39*%
X219367500Y-47625000D03*
X209207500Y-47625000D03*
%TD*%
%TO.C,R40*%
X238417500Y-47625000D03*
X228257500Y-47625000D03*
%TD*%
%TO.C,R41*%
X269373800Y-47625000D03*
X259213800Y-47625000D03*
%TD*%
%TO.C,R42*%
X26486300Y-66675000D03*
X16326300Y-66675000D03*
%TD*%
%TO.C,R43*%
X57442500Y-66675000D03*
X47282500Y-66675000D03*
%TD*%
%TO.C,R44*%
X76492500Y-66675000D03*
X66332500Y-66675000D03*
%TD*%
%TO.C,R45*%
X95542500Y-66675000D03*
X85382500Y-66675000D03*
%TD*%
%TO.C,R46*%
X114592500Y-66675000D03*
X104432500Y-66675000D03*
%TD*%
%TO.C,R47*%
X133642500Y-66675000D03*
X123482500Y-66675000D03*
%TD*%
%TO.C,R48*%
X152692500Y-66675000D03*
X142532500Y-66675000D03*
%TD*%
%TO.C,R49*%
X171742500Y-66675000D03*
X161582500Y-66675000D03*
%TD*%
%TO.C,R50*%
X190792500Y-66675000D03*
X180632500Y-66675000D03*
%TD*%
%TO.C,R51*%
X209842500Y-66675000D03*
X199682500Y-66675000D03*
%TD*%
%TO.C,R52*%
X228892500Y-66675000D03*
X218732500Y-66675000D03*
%TD*%
%TO.C,R53*%
X255086300Y-66675000D03*
X244926300Y-66675000D03*
%TD*%
%TO.C,R54*%
X16961300Y-85725000D03*
X6801300Y-85725000D03*
%TD*%
%TO.C,R55*%
X40773800Y-85725000D03*
X30613800Y-85725000D03*
%TD*%
%TO.C,R56*%
X64586300Y-85725000D03*
X54426300Y-85725000D03*
%TD*%
%TO.C,R57*%
X86017500Y-85725000D03*
X75857500Y-85725000D03*
%TD*%
%TO.C,R58*%
X186030000Y-85725000D03*
X175870000Y-85725000D03*
%TD*%
%TO.C,R59*%
X136023800Y-85725000D03*
X125863800Y-85725000D03*
%TD*%
%TO.C,R60*%
X205080000Y-85725000D03*
X194920000Y-85725000D03*
%TD*%
%TO.C,R61*%
X224130000Y-85725000D03*
X213970000Y-85725000D03*
%TD*%
%TO.C,R62*%
X243180000Y-85725000D03*
X233020000Y-85725000D03*
%TD*%
%TO.C,R63*%
X281280000Y-66675000D03*
X271120000Y-66675000D03*
%TD*%
%TO.C,R64*%
X262230000Y-85725000D03*
X252070000Y-85725000D03*
%TD*%
%TO.C,R65*%
X281280000Y-85725000D03*
X271120000Y-85725000D03*
%TD*%
%TO.C,R66*%
X300330000Y-85725000D03*
X290170000Y-85725000D03*
%TD*%
%TO.C,R69*%
X300330000Y-47625000D03*
X290170000Y-47625000D03*
%TD*%
%TO.C,R70*%
X300330000Y-66675000D03*
X290170000Y-66675000D03*
%TD*%
%TO.C,R71*%
X300330000Y-9525000D03*
X290170000Y-9525000D03*
%TD*%
%TO.C,R72*%
X300330000Y-28575000D03*
X290170000Y-28575000D03*
%TD*%
M02*
