M48
; DRILL file {KiCad 9.0.8} date 2026-04-17T23:09:55-0400
; FORMAT={-:-/ absolute / metric / decimal}
; #@! TF.CreationDate,2026-04-17T23:09:55-04:00
; #@! TF.GenerationSoftware,Kicad,Pcbnew,9.0.8
; #@! TF.FileFunction,NonPlated,1,2,NPTH
FMAT,2
METRIC
; #@! TA.AperFunction,NonPlated,NPTH,ComponentDrill
T1C1.700
%
G90
G05
T1
X4.42Y-9.525
X6.801Y-85.725
X9.182Y-28.575
X11.564Y-47.625
X14.58Y-9.525
X16.326Y-66.675
X16.961Y-85.725
X19.342Y-28.575
X21.724Y-47.625
X23.47Y-9.525
X26.486Y-66.675
X30.614Y-85.725
X32.995Y-28.575
X33.63Y-9.525
X37.758Y-47.625
X40.774Y-85.725
X42.52Y-9.525
X43.155Y-28.575
X47.282Y-66.675
X47.917Y-47.625
X52.045Y-28.575
X52.68Y-9.525
X54.426Y-85.725
X56.807Y-47.625
X57.442Y-66.675
X61.57Y-9.525
X62.205Y-28.575
X64.586Y-85.725
X66.332Y-66.675
X66.968Y-47.625
X71.095Y-28.575
X71.73Y-9.525
X75.858Y-47.625
X75.858Y-85.725
X76.492Y-66.675
X80.62Y-9.525
X81.255Y-28.575
X85.382Y-66.675
X86.017Y-47.625
X86.017Y-85.725
X90.145Y-28.575
X90.78Y-9.525
X94.907Y-47.625
X95.542Y-66.675
X99.67Y-9.525
X100.305Y-28.575
X104.432Y-66.675
X105.067Y-47.625
X109.195Y-28.575
X109.83Y-9.525
X113.957Y-47.625
X114.593Y-66.675
X118.72Y-9.525
X119.355Y-28.575
X123.482Y-66.675
X124.117Y-47.625
X125.864Y-85.725
X128.245Y-28.575
X128.88Y-9.525
X133.007Y-47.625
X133.642Y-66.675
X136.024Y-85.725
X137.77Y-9.525
X138.405Y-28.575
X142.532Y-66.675
X143.167Y-47.625
X147.295Y-28.575
X147.93Y-9.525
X152.058Y-47.625
X152.692Y-66.675
X156.82Y-9.525
X157.455Y-28.575
X161.582Y-66.675
X162.218Y-47.625
X166.345Y-28.575
X166.98Y-9.525
X171.107Y-47.625
X171.742Y-66.675
X175.87Y-9.525
X175.87Y-85.725
X176.505Y-28.575
X180.632Y-66.675
X181.267Y-47.625
X185.395Y-28.575
X186.03Y-9.525
X186.03Y-85.725
X190.157Y-47.625
X190.792Y-66.675
X194.92Y-9.525
X194.92Y-85.725
X195.555Y-28.575
X199.683Y-66.675
X200.317Y-47.625
X204.445Y-28.575
X205.08Y-9.525
X205.08Y-85.725
X209.207Y-47.625
X209.843Y-66.675
X213.97Y-9.525
X213.97Y-85.725
X214.605Y-28.575
X218.732Y-66.675
X219.367Y-47.625
X223.495Y-28.575
X224.13Y-9.525
X224.13Y-85.725
X228.257Y-47.625
X228.892Y-66.675
X233.02Y-9.525
X233.02Y-85.725
X233.655Y-28.575
X238.417Y-47.625
X242.545Y-28.575
X243.18Y-9.525
X243.18Y-85.725
X244.926Y-66.675
X252.07Y-85.725
X252.705Y-28.575
X255.086Y-66.675
X259.214Y-47.625
X261.595Y-9.525
X262.23Y-85.725
X266.358Y-28.575
X269.374Y-47.625
X271.12Y-66.675
X271.12Y-85.725
X271.755Y-9.525
X276.517Y-28.575
X281.28Y-66.675
X281.28Y-85.725
X290.17Y-9.525
X290.17Y-28.575
X290.17Y-47.625
X290.17Y-66.675
X290.17Y-85.725
X300.33Y-9.525
X300.33Y-28.575
X300.33Y-47.625
X300.33Y-66.675
X300.33Y-85.725
M30
