%TF.GenerationSoftware,KiCad,Pcbnew,9.0.8*%
%TF.CreationDate,2026-04-17T23:09:52-04:00*%
%TF.ProjectId,routed,726f7574-6564-42e6-9b69-6361645f7063,rev?*%
%TF.SameCoordinates,Original*%
%TF.FileFunction,Copper,L2,Bot*%
%TF.FilePolarity,Positive*%
%FSLAX46Y46*%
G04 Gerber Fmt 4.6, Leading zero omitted, Abs format (unit mm)*
G04 Created by KiCad (PCBNEW 9.0.8) date 2026-04-17 23:09:52*
%MOMM*%
%LPD*%
G01*
G04 APERTURE LIST*
%TA.AperFunction,ComponentPad*%
%ADD10O,2.500000X1.500000*%
%TD*%
%TA.AperFunction,ViaPad*%
%ADD11C,0.600000*%
%TD*%
%TA.AperFunction,Conductor*%
%ADD12C,0.200000*%
%TD*%
G04 APERTURE END LIST*
D10*
%TO.P,R0,1*%
%TO.N,SDA*%
X323000000Y-2000000D03*
%TO.P,R0,2*%
%TO.N,SCL*%
X323000000Y-4540000D03*
%TO.P,R0,21*%
%TO.N,+3.3v*%
X306760000Y-7080000D03*
%TO.P,R0,22*%
%TO.N,GND*%
X306760000Y-4540000D03*
%TD*%
D11*
%TO.N,m1r0MOS*%
X296071700Y-25285600D03*
X297017700Y-8139700D03*
X297214200Y-46510400D03*
X298182100Y-64897600D03*
%TO.N,m1r0*%
X310615100Y-82068700D03*
X305001500Y-39728600D03*
%TO.N,m1c3*%
X298673900Y-28390700D03*
X302471600Y-47983400D03*
%TO.N,m1c2*%
X295386400Y-47536500D03*
X295250000Y-8193700D03*
%TO.N,m1c1*%
X297255300Y-45679800D03*
X295250000Y-65627500D03*
%TO.N,m0r7MOS*%
X272258900Y-64420400D03*
X276124600Y-82353900D03*
%TO.N,m0r3MOS*%
X112142200Y-32021000D03*
X108736200Y-44588500D03*
%TO.N,m0r1MOS*%
X40084100Y-25285600D03*
X45691900Y-6561700D03*
%TO.N,m0r7*%
X300378300Y-35719300D03*
X302024900Y-76379500D03*
%TO.N,m0r5*%
X299676900Y-34562800D03*
X296912800Y-39728600D03*
%TO.N,m0r3*%
X298679000Y-22045500D03*
X302961700Y-32729900D03*
%TO.N,m0r2*%
X297381200Y-32470100D03*
X296566000Y-32495400D03*
X172260200Y-32656000D03*
X171054500Y-21686700D03*
%TO.N,m0r1*%
X298659700Y-6995700D03*
X298421900Y-31809000D03*
%TO.N,m0r0*%
X129382100Y-1453300D03*
X131107200Y-32637300D03*
%TO.N,m0c7*%
X191926700Y-42785400D03*
X305001500Y-82378100D03*
X307184000Y-68181400D03*
X236539700Y-79378800D03*
X230700200Y-45955500D03*
X69021900Y-47220400D03*
X57364200Y-85340300D03*
X185731400Y-63170800D03*
X61446700Y-21540400D03*
X144750000Y-10109700D03*
X144524300Y-65212200D03*
X144750000Y-62274300D03*
X69021900Y-60549100D03*
X188120400Y-26785200D03*
%TO.N,m0c6*%
X120793300Y-8161500D03*
X56292500Y-31737900D03*
X58428100Y-46268000D03*
X33684300Y-84461800D03*
X127608500Y-63834000D03*
X52460000Y-61314800D03*
X120793300Y-31710700D03*
X274885900Y-73380200D03*
X274356900Y-85072800D03*
X205129900Y-26617100D03*
X210531400Y-46250800D03*
X212726900Y-70380900D03*
%TO.N,m0c5*%
X108545900Y-64272800D03*
X104748800Y-8193700D03*
X265604500Y-9408500D03*
X257146000Y-85072800D03*
X257147600Y-67381600D03*
X107338200Y-32189800D03*
X36715700Y-78975700D03*
X40215000Y-46706900D03*
X257375900Y-34797600D03*
X199190800Y-34797600D03*
X192318300Y-46683200D03*
X159595700Y-28383900D03*
X159148100Y-34882000D03*
X40215000Y-58383700D03*
X107338200Y-55384400D03*
%TO.N,m0c4*%
X87709700Y-65229800D03*
X83855700Y-8161500D03*
X87709700Y-31390000D03*
X246208300Y-65191500D03*
X235959000Y-8161300D03*
X245155700Y-37074900D03*
X179984300Y-39287200D03*
X176186800Y-46386500D03*
X129382100Y-34882000D03*
X131481000Y-27695500D03*
X87709700Y-42586800D03*
%TO.N,m0c3*%
X69850100Y-64379400D03*
X66646000Y-8193700D03*
X114135600Y-27684400D03*
X217631700Y-9433100D03*
X221373800Y-65229800D03*
X114318100Y-43386000D03*
X69850100Y-46386500D03*
X235959000Y-85340300D03*
X215750200Y-44187000D03*
X218680100Y-23087400D03*
X270908700Y-64328300D03*
X271437400Y-26785200D03*
X136503400Y-44566700D03*
X135335300Y-39837500D03*
%TO.N,m0c2*%
X51855400Y-63831000D03*
X45457800Y-7395600D03*
X58779900Y-25625600D03*
X133433200Y-25314600D03*
X135812100Y-45756700D03*
X194867300Y-23191900D03*
X197561100Y-9861000D03*
X202919000Y-65229800D03*
X207361300Y-84323300D03*
X207226300Y-64143700D03*
%TO.N,m0c1*%
X185937500Y-25391400D03*
X180874000Y-8262300D03*
X182960900Y-65229800D03*
X20454600Y-63831000D03*
X25366300Y-7336900D03*
X182960900Y-63592700D03*
X182960900Y-40387900D03*
X197561100Y-85377400D03*
X76037200Y-28187700D03*
X25366300Y-37388600D03*
X76037200Y-35565700D03*
X78779900Y-44187000D03*
%TO.N,m0c0*%
X102592700Y-82378100D03*
X99983500Y-46386500D03*
X161216200Y-9424300D03*
X162864000Y-64435000D03*
X93326300Y-35142400D03*
X266305700Y-62806300D03*
X264165800Y-47106800D03*
X102592700Y-69157300D03*
X162369500Y-25067000D03*
X212752700Y-62798600D03*
X209521000Y-27521100D03*
X9042000Y-9410600D03*
X16485100Y-30880800D03*
%TO.N,SCL*%
X314411700Y-82125700D03*
X316907900Y-64013700D03*
X315905200Y-31419100D03*
X314909800Y-45446100D03*
%TO.N,SDA*%
X310954700Y-43387200D03*
X314659600Y-30767900D03*
X314896100Y-63313200D03*
X312387900Y-81445600D03*
%TO.N,GND*%
X50165000Y-87126700D03*
X51290700Y-67465300D03*
X132358700Y-76379500D03*
X131948100Y-68086500D03*
X132358700Y-49805200D03*
X313399800Y-73380200D03*
X314000000Y-85919400D03*
X61761500Y-11259800D03*
X63713600Y-18890900D03*
X215560000Y-16215700D03*
X215703500Y-30689500D03*
X319884500Y-40469200D03*
X317376300Y-49606200D03*
X316570700Y-35740300D03*
X316436100Y-67865300D03*
X168885000Y-1440300D03*
X168581500Y-11018200D03*
X311504300Y-87442600D03*
X269277100Y-29364100D03*
X269282300Y-37388600D03*
X271235800Y-49739500D03*
X105569300Y-49739500D03*
X104912100Y-39728600D03*
%TO.N,+3.3v*%
X153973600Y-60681000D03*
X147241700Y-79378800D03*
X174031100Y-22392100D03*
X168800600Y-5043700D03*
X93084900Y-22581000D03*
X99616100Y-40387900D03*
X57078400Y-3531000D03*
X61141400Y-23089600D03*
X173234900Y-62103000D03*
X269176100Y-27568000D03*
X271164400Y-40399600D03*
X301246100Y-41073500D03*
X301558900Y-48713000D03*
X317500000Y-69570700D03*
X314709600Y-86377500D03*
X315491800Y-69945200D03*
X316983000Y-48829300D03*
X315214700Y-51629000D03*
%TD*%
D12*
%TO.N,m1r0MOS*%
X296071700Y-9085700D02*
X297017700Y-8139700D01*
X296071700Y-25285600D02*
X296071700Y-9085700D01*
X295964300Y-45260500D02*
X297214200Y-46510400D01*
X295964300Y-25393000D02*
X295964300Y-45260500D01*
X296071700Y-25285600D02*
X295964300Y-25393000D01*
X297214200Y-63929700D02*
X298182100Y-64897600D01*
X297214200Y-46510400D02*
X297214200Y-63929700D01*
%TO.N,m1r0*%
X310615100Y-65599100D02*
X310615100Y-82068700D01*
X305001500Y-59985500D02*
X310615100Y-65599100D01*
X305001500Y-39728600D02*
X305001500Y-59985500D01*
%TO.N,m1c3*%
X302471600Y-33092500D02*
X302471600Y-47983400D01*
X298673900Y-29294800D02*
X302471600Y-33092500D01*
X298673900Y-28390700D02*
X298673900Y-29294800D01*
%TO.N,m1c2*%
X295386400Y-8330100D02*
X295386400Y-47536500D01*
X295250000Y-8193700D02*
X295386400Y-8330100D01*
%TO.N,m1c1*%
X298369900Y-65627500D02*
X295250000Y-65627500D01*
X298804000Y-65193400D02*
X298369900Y-65627500D01*
X298804000Y-49772900D02*
X298804000Y-65193400D01*
X298402300Y-49371200D02*
X298804000Y-49772900D01*
X298402300Y-46826800D02*
X298402300Y-49371200D01*
X297255300Y-45679800D02*
X298402300Y-46826800D01*
%TO.N,m0r7MOS*%
X276124600Y-68286100D02*
X276124600Y-82353900D01*
X272258900Y-64420400D02*
X276124600Y-68286100D01*
%TO.N,m0r3MOS*%
X112142200Y-41182500D02*
X108736200Y-44588500D01*
X112142200Y-32021000D02*
X112142200Y-41182500D01*
%TO.N,m0r1MOS*%
X44357500Y-21012200D02*
X40084100Y-25285600D01*
X44357500Y-7644700D02*
X44357500Y-21012200D01*
X45440500Y-6561700D02*
X44357500Y-7644700D01*
X45691900Y-6561700D02*
X45440500Y-6561700D01*
%TO.N,m0r7*%
X298905900Y-37191700D02*
X300378300Y-35719300D01*
X298905900Y-49062500D02*
X298905900Y-37191700D01*
X302024900Y-52181500D02*
X298905900Y-49062500D01*
X302024900Y-76379500D02*
X302024900Y-52181500D01*
%TO.N,m0r5*%
X296912800Y-37326900D02*
X299676900Y-34562800D01*
X296912800Y-39728600D02*
X296912800Y-37326900D01*
%TO.N,m0r3*%
X302961700Y-26328200D02*
X298679000Y-22045500D01*
X302961700Y-32729900D02*
X302961700Y-26328200D01*
%TO.N,m0r2*%
X296591300Y-32470100D02*
X296566000Y-32495400D01*
X297381200Y-32470100D02*
X296591300Y-32470100D01*
X171054500Y-31450300D02*
X171054500Y-21686700D01*
X172260200Y-32656000D02*
X171054500Y-31450300D01*
%TO.N,m0r1*%
X297670400Y-31057500D02*
X298421900Y-31809000D01*
X297670400Y-7985000D02*
X297670400Y-31057500D01*
X298659700Y-6995700D02*
X297670400Y-7985000D01*
%TO.N,m0r0*%
X130324900Y-31855000D02*
X131107200Y-32637300D01*
X130324900Y-2396100D02*
X130324900Y-31855000D01*
X129382100Y-1453300D02*
X130324900Y-2396100D01*
%TO.N,m0c7*%
X307184000Y-80195600D02*
X307184000Y-68181400D01*
X305001500Y-82378100D02*
X307184000Y-80195600D01*
X230700200Y-73539300D02*
X230700200Y-45955500D01*
X236539700Y-79378800D02*
X230700200Y-73539300D01*
X185731400Y-48980700D02*
X185731400Y-63170800D01*
X191926700Y-42785400D02*
X185731400Y-48980700D01*
X63910100Y-42108600D02*
X69021900Y-47220400D01*
X63910100Y-24003800D02*
X63910100Y-42108600D01*
X61446700Y-21540400D02*
X63910100Y-24003800D01*
X69021900Y-47220400D02*
X69021900Y-60549100D01*
X69021900Y-73682600D02*
X57364200Y-85340300D01*
X69021900Y-60549100D02*
X69021900Y-73682600D01*
X144750000Y-10109700D02*
X144750000Y-62274300D01*
X144750000Y-64986500D02*
X144524300Y-65212200D01*
X144750000Y-62274300D02*
X144750000Y-64986500D01*
X191926700Y-30591500D02*
X191926700Y-42785400D01*
X188120400Y-26785200D02*
X191926700Y-30591500D01*
%TO.N,m0c6*%
X56292500Y-44132400D02*
X57293600Y-45133400D01*
X56292500Y-31737900D02*
X56292500Y-44132400D01*
X57293600Y-45133400D02*
X58428100Y-46268000D01*
X53128700Y-60646100D02*
X52460000Y-61314800D01*
X53128700Y-49298300D02*
X53128700Y-60646100D01*
X57293600Y-45133400D02*
X53128700Y-49298300D01*
X33684300Y-82879600D02*
X33684300Y-84461800D01*
X52460000Y-64103900D02*
X33684300Y-82879600D01*
X52460000Y-61314800D02*
X52460000Y-64103900D01*
X120793300Y-57018800D02*
X120793300Y-31710700D01*
X127608500Y-63834000D02*
X120793300Y-57018800D01*
X120793300Y-31710700D02*
X120793300Y-8161500D01*
X274885900Y-84543800D02*
X274356900Y-85072800D01*
X274885900Y-73380200D02*
X274885900Y-84543800D01*
X210531400Y-32018600D02*
X210531400Y-46250800D01*
X205129900Y-26617100D02*
X210531400Y-32018600D01*
X211314500Y-68968500D02*
X212726900Y-70380900D01*
X211314500Y-47033900D02*
X211314500Y-68968500D01*
X210531400Y-46250800D02*
X211314500Y-47033900D01*
%TO.N,m0c5*%
X107338200Y-10783100D02*
X107338200Y-32189800D01*
X104748800Y-8193700D02*
X107338200Y-10783100D01*
X257146000Y-67383200D02*
X257147600Y-67381600D01*
X257146000Y-85072800D02*
X257146000Y-67383200D01*
X257147600Y-35025900D02*
X257147600Y-67381600D01*
X257375900Y-34797600D02*
X257147600Y-35025900D01*
X257375900Y-17637100D02*
X257375900Y-34797600D01*
X265604500Y-9408500D02*
X257375900Y-17637100D01*
X199190800Y-39810700D02*
X192318300Y-46683200D01*
X199190800Y-34797600D02*
X199190800Y-39810700D01*
X159595700Y-34434400D02*
X159148100Y-34882000D01*
X159595700Y-28383900D02*
X159595700Y-34434400D01*
X40215000Y-75476400D02*
X40215000Y-58383700D01*
X36715700Y-78975700D02*
X40215000Y-75476400D01*
X107338200Y-63065100D02*
X107338200Y-55384400D01*
X108545900Y-64272800D02*
X107338200Y-63065100D01*
X107338200Y-55384400D02*
X107338200Y-32189800D01*
X40215000Y-58383700D02*
X40215000Y-46706900D01*
%TO.N,m0c4*%
X87709700Y-12015500D02*
X83855700Y-8161500D01*
X87709700Y-31390000D02*
X87709700Y-12015500D01*
X176186800Y-43084700D02*
X176186800Y-46386500D01*
X179984300Y-39287200D02*
X176186800Y-43084700D01*
X245155700Y-17358000D02*
X235959000Y-8161300D01*
X245155700Y-37074900D02*
X245155700Y-17358000D01*
X246208300Y-38127500D02*
X245155700Y-37074900D01*
X246208300Y-65191500D02*
X246208300Y-38127500D01*
X131708900Y-27923400D02*
X131481000Y-27695500D01*
X131708900Y-32886500D02*
X131708900Y-27923400D01*
X129713400Y-34882000D02*
X131708900Y-32886500D01*
X129382100Y-34882000D02*
X129713400Y-34882000D01*
X87709700Y-65229800D02*
X87709700Y-42586800D01*
X87709700Y-42586800D02*
X87709700Y-31390000D01*
%TO.N,m0c3*%
X69850100Y-64379400D02*
X69850100Y-46386500D01*
X221373800Y-70755100D02*
X235959000Y-85340300D01*
X221373800Y-65229800D02*
X221373800Y-70755100D01*
X215750200Y-44187000D02*
X217631700Y-44187000D01*
X217631700Y-61487700D02*
X221373800Y-65229800D01*
X217631700Y-44187000D02*
X217631700Y-61487700D01*
X66646000Y-43182400D02*
X66646000Y-8193700D01*
X69850100Y-46386500D02*
X66646000Y-43182400D01*
X217631700Y-23087400D02*
X217631700Y-44187000D01*
X217631700Y-9433100D02*
X217631700Y-23087400D01*
X217631700Y-23087400D02*
X218680100Y-23087400D01*
X135335300Y-43398600D02*
X135335300Y-39837500D01*
X136503400Y-44566700D02*
X135335300Y-43398600D01*
X114318100Y-27866900D02*
X114318100Y-43386000D01*
X114135600Y-27684400D02*
X114318100Y-27866900D01*
X271837500Y-27185300D02*
X271437400Y-26785200D01*
X271837500Y-63399500D02*
X271837500Y-27185300D01*
X270908700Y-64328300D02*
X271837500Y-63399500D01*
%TO.N,m0c2*%
X46457400Y-58433000D02*
X51855400Y-63831000D01*
X46457400Y-25625600D02*
X46457400Y-58433000D01*
X46457400Y-25625600D02*
X58779900Y-25625600D01*
X46457400Y-8395200D02*
X45457800Y-7395600D01*
X46457400Y-25625600D02*
X46457400Y-8395200D01*
X133433200Y-43377800D02*
X135812100Y-45756700D01*
X133433200Y-25314600D02*
X133433200Y-43377800D01*
X197561100Y-20498100D02*
X197561100Y-9861000D01*
X194867300Y-23191900D02*
X197561100Y-20498100D01*
X202919000Y-79881000D02*
X207361300Y-84323300D01*
X202919000Y-65229800D02*
X202919000Y-79881000D01*
X202919000Y-31243600D02*
X202919000Y-64143700D01*
X194867300Y-23191900D02*
X202919000Y-31243600D01*
X202919000Y-64143700D02*
X207226300Y-64143700D01*
X202919000Y-64143700D02*
X202919000Y-65229800D01*
%TO.N,m0c1*%
X180874000Y-20327900D02*
X180874000Y-8262300D01*
X185937500Y-25391400D02*
X180874000Y-20327900D01*
X182960900Y-65229800D02*
X182960900Y-63592700D01*
X182960900Y-63592700D02*
X182960900Y-40387900D01*
X182960900Y-28368000D02*
X185937500Y-25391400D01*
X182960900Y-40387900D02*
X182960900Y-28368000D01*
X197561100Y-79830000D02*
X197561100Y-85377400D01*
X182960900Y-65229800D02*
X197561100Y-79830000D01*
X25366300Y-58919300D02*
X25366300Y-37388600D01*
X20454600Y-63831000D02*
X25366300Y-58919300D01*
X76037200Y-35565700D02*
X76037200Y-28187700D01*
X25366300Y-37388600D02*
X25366300Y-7336900D01*
X76037200Y-41444300D02*
X76037200Y-35565700D01*
X78779900Y-44187000D02*
X76037200Y-41444300D01*
%TO.N,m0c0*%
X93326300Y-39729300D02*
X99983500Y-46386500D01*
X93326300Y-35142400D02*
X93326300Y-39729300D01*
X102592700Y-82378100D02*
X102592700Y-69157300D01*
X102592700Y-48995700D02*
X99983500Y-46386500D01*
X102592700Y-69157300D02*
X102592700Y-48995700D01*
X163645900Y-63653100D02*
X162864000Y-64435000D01*
X163645900Y-26343400D02*
X163645900Y-63653100D01*
X162369500Y-25067000D02*
X163645900Y-26343400D01*
X162369500Y-10577600D02*
X162369500Y-25067000D01*
X161216200Y-9424300D02*
X162369500Y-10577600D01*
X212752700Y-30752800D02*
X209521000Y-27521100D01*
X212752700Y-62798600D02*
X212752700Y-30752800D01*
X266305700Y-49246700D02*
X266305700Y-62806300D01*
X264165800Y-47106800D02*
X266305700Y-49246700D01*
X16485100Y-16853700D02*
X9042000Y-9410600D01*
X16485100Y-30880800D02*
X16485100Y-16853700D01*
%TO.N,SCL*%
X314411700Y-66509900D02*
X316907900Y-64013700D01*
X314411700Y-82125700D02*
X314411700Y-66509900D01*
X315905200Y-44450700D02*
X315905200Y-31419100D01*
X314909800Y-45446100D02*
X315905200Y-44450700D01*
X314613000Y-61718800D02*
X316907900Y-64013700D01*
X314613000Y-45742900D02*
X314613000Y-61718800D01*
X314909800Y-45446100D02*
X314613000Y-45742900D01*
X321442500Y-25881800D02*
X315905200Y-31419100D01*
X321442500Y-21857300D02*
X321442500Y-25881800D01*
X322468100Y-20831700D02*
X321442500Y-21857300D01*
X323958900Y-20831700D02*
X322468100Y-20831700D01*
X324986100Y-19804500D02*
X323958900Y-20831700D01*
X324986100Y-1836200D02*
X324986100Y-19804500D01*
X324044500Y-894600D02*
X324986100Y-1836200D01*
X322053600Y-894600D02*
X324044500Y-894600D01*
X321448300Y-1499900D02*
X322053600Y-894600D01*
X321448300Y-4540000D02*
X321448300Y-1499900D01*
X322500000Y-4540000D02*
X321448300Y-4540000D01*
%TO.N,SDA*%
X314659600Y-39682300D02*
X314659600Y-30767900D01*
X310954700Y-43387200D02*
X314659600Y-39682300D01*
X310954700Y-59371800D02*
X310954700Y-43387200D01*
X314896100Y-63313200D02*
X310954700Y-59371800D01*
X312387900Y-65821400D02*
X314896100Y-63313200D01*
X312387900Y-81445600D02*
X312387900Y-65821400D01*
X322500000Y-2000000D02*
X324385400Y-2000000D01*
X318763600Y-26663900D02*
X314659600Y-30767900D01*
X318763600Y-21960000D02*
X318763600Y-26663900D01*
X319750200Y-20973400D02*
X318763600Y-21960000D01*
X320999200Y-20973400D02*
X319750200Y-20973400D01*
X321389900Y-20582700D02*
X320999200Y-20973400D01*
X321389900Y-6684400D02*
X321389900Y-20582700D01*
X322482600Y-5591700D02*
X321389900Y-6684400D01*
X323935700Y-5591700D02*
X322482600Y-5591700D01*
X324551700Y-4975700D02*
X323935700Y-5591700D01*
X324551700Y-2166300D02*
X324551700Y-4975700D01*
X324385400Y-2000000D02*
X324551700Y-2166300D01*
%TO.N,GND*%
X51290700Y-86001000D02*
X51290700Y-67465300D01*
X50165000Y-87126700D02*
X51290700Y-86001000D01*
X132358700Y-68497100D02*
X131948100Y-68086500D01*
X132358700Y-76379500D02*
X132358700Y-68497100D01*
X131948100Y-50215800D02*
X131948100Y-68086500D01*
X132358700Y-49805200D02*
X131948100Y-50215800D01*
X63713600Y-13211900D02*
X63713600Y-18890900D01*
X61761500Y-11259800D02*
X63713600Y-13211900D01*
X216033700Y-30359300D02*
X215703500Y-30689500D01*
X216033700Y-16689400D02*
X216033700Y-30359300D01*
X215560000Y-16215700D02*
X216033700Y-16689400D01*
X319884500Y-47098000D02*
X317376300Y-49606200D01*
X319884500Y-40469200D02*
X319884500Y-47098000D01*
X316570700Y-37155400D02*
X319884500Y-40469200D01*
X316570700Y-35740300D02*
X316570700Y-37155400D01*
X168581500Y-5845200D02*
X168581500Y-11018200D01*
X168197700Y-5461400D02*
X168581500Y-5845200D01*
X168197700Y-2127600D02*
X168197700Y-5461400D01*
X168885000Y-1440300D02*
X168197700Y-2127600D01*
X313627700Y-85547100D02*
X314000000Y-85919400D01*
X313399800Y-85547100D02*
X313627700Y-85547100D01*
X313399800Y-73380200D02*
X313399800Y-85547100D01*
X313399800Y-85547100D02*
X311504300Y-87442600D01*
X269282300Y-29369300D02*
X269282300Y-37388600D01*
X269277100Y-29364100D02*
X269282300Y-29369300D01*
X317948500Y-66352900D02*
X316542500Y-67758900D01*
X317948500Y-50178400D02*
X317948500Y-66352900D01*
X317376300Y-49606200D02*
X317948500Y-50178400D01*
X314000000Y-86543500D02*
X314000000Y-85919400D01*
X314492500Y-87036000D02*
X314000000Y-86543500D01*
X314985100Y-87036000D02*
X314492500Y-87036000D01*
X318103800Y-83917300D02*
X314985100Y-87036000D01*
X318103800Y-69320300D02*
X318103800Y-83917300D01*
X316542500Y-67758900D02*
X318103800Y-69320300D01*
X316436100Y-67865300D02*
X316542500Y-67758900D01*
X271235800Y-43386500D02*
X271235800Y-49739500D01*
X269282300Y-41433000D02*
X271235800Y-43386500D01*
X269282300Y-37388600D02*
X269282300Y-41433000D01*
X106525600Y-41342100D02*
X104912100Y-39728600D01*
X106525600Y-48783200D02*
X106525600Y-41342100D01*
X105569300Y-49739500D02*
X106525600Y-48783200D01*
%TO.N,+3.3v*%
X147241700Y-67412900D02*
X147241700Y-79378800D01*
X153973600Y-60681000D02*
X147241700Y-67412900D01*
X93084900Y-33856700D02*
X93084900Y-22581000D01*
X99616100Y-40387900D02*
X93084900Y-33856700D01*
X57078400Y-19026600D02*
X61141400Y-23089600D01*
X57078400Y-3531000D02*
X57078400Y-19026600D01*
X173486000Y-9729100D02*
X168800600Y-5043700D01*
X173486000Y-22392100D02*
X173486000Y-9729100D01*
X174031100Y-22392100D02*
X173486000Y-22392100D01*
X173486000Y-61851900D02*
X173234900Y-62103000D01*
X173486000Y-22392100D02*
X173486000Y-61851900D01*
X271164400Y-29556300D02*
X271164400Y-40399600D01*
X269176100Y-27568000D02*
X271164400Y-29556300D01*
X307260000Y-7080000D02*
X305208300Y-7080000D01*
X301731700Y-48540200D02*
X301558900Y-48713000D01*
X301731700Y-41559100D02*
X301731700Y-48540200D01*
X301246100Y-41073500D02*
X301731700Y-41559100D01*
X317500000Y-83587100D02*
X314709600Y-86377500D01*
X317500000Y-69570700D02*
X317500000Y-83587100D01*
X317125500Y-69945200D02*
X317500000Y-69570700D01*
X315491800Y-69945200D02*
X317125500Y-69945200D01*
X315214700Y-51629000D02*
X316774500Y-51629000D01*
X316774500Y-49037800D02*
X316774500Y-51629000D01*
X316983000Y-48829300D02*
X316774500Y-49037800D01*
X315491800Y-66370300D02*
X315491800Y-69945200D01*
X317546800Y-64315300D02*
X315491800Y-66370300D01*
X317546800Y-52401300D02*
X317546800Y-64315300D01*
X316774500Y-51629000D02*
X317546800Y-52401300D01*
X298072100Y-14216200D02*
X305208300Y-7080000D01*
X298072100Y-30224100D02*
X298072100Y-14216200D01*
X301246100Y-33398100D02*
X298072100Y-30224100D01*
X301246100Y-41073500D02*
X301246100Y-33398100D01*
%TD*%
%TA.AperFunction,Conductor*%
%TO.N,GND*%
G36*
X58280039Y-60745185D02*
G01*
X58325794Y-60797989D01*
X58337000Y-60849500D01*
X58337000Y-65721236D01*
X58317315Y-65788275D01*
X58264511Y-65834030D01*
X58195353Y-65843974D01*
X58140115Y-65821554D01*
X58019288Y-65733768D01*
X57864945Y-65655127D01*
X57700201Y-65601598D01*
X57700199Y-65601597D01*
X57700198Y-65601597D01*
X57568771Y-65580781D01*
X57529111Y-65574500D01*
X57355889Y-65574500D01*
X57316228Y-65580781D01*
X57184802Y-65601597D01*
X57184799Y-65601598D01*
X57055107Y-65643738D01*
X57020052Y-65655128D01*
X56865711Y-65733768D01*
X56827710Y-65761378D01*
X56725572Y-65835586D01*
X56725570Y-65835588D01*
X56725569Y-65835588D01*
X56603088Y-65958069D01*
X56603088Y-65958070D01*
X56603086Y-65958072D01*
X56563397Y-66012699D01*
X56501268Y-66098211D01*
X56422628Y-66252552D01*
X56369097Y-66417302D01*
X56342000Y-66588389D01*
X56342000Y-66761610D01*
X56369046Y-66932378D01*
X56369098Y-66932701D01*
X56422627Y-67097445D01*
X56501268Y-67251788D01*
X56603086Y-67391928D01*
X56725572Y-67514414D01*
X56865712Y-67616232D01*
X57020055Y-67694873D01*
X57184799Y-67748402D01*
X57355889Y-67775500D01*
X57355890Y-67775500D01*
X57529110Y-67775500D01*
X57529111Y-67775500D01*
X57700201Y-67748402D01*
X57864945Y-67694873D01*
X58019288Y-67616232D01*
X58140115Y-67528445D01*
X58205920Y-67504965D01*
X58273974Y-67520790D01*
X58322669Y-67570895D01*
X58337000Y-67628763D01*
X58337000Y-72500500D01*
X58317315Y-72567539D01*
X58264511Y-72613294D01*
X58213000Y-72624500D01*
X46562000Y-72624500D01*
X46494961Y-72604815D01*
X46449206Y-72552011D01*
X46438000Y-72500500D01*
X46438000Y-71026497D01*
X46457685Y-70959458D01*
X46474319Y-70938816D01*
X49676109Y-67737026D01*
X52940520Y-64472616D01*
X53019577Y-64335684D01*
X53060501Y-64182957D01*
X53060501Y-64024842D01*
X53060501Y-64017247D01*
X53060500Y-64017229D01*
X53060500Y-61894565D01*
X53080185Y-61827526D01*
X53081398Y-61825674D01*
X53121774Y-61765248D01*
X53169394Y-61693979D01*
X53229737Y-61548297D01*
X53258491Y-61403741D01*
X53260638Y-61392950D01*
X53293023Y-61331039D01*
X53294461Y-61329573D01*
X53609220Y-61014816D01*
X53688277Y-60877884D01*
X53704482Y-60817404D01*
X53740848Y-60757745D01*
X53803695Y-60727217D01*
X53824257Y-60725500D01*
X58213000Y-60725500D01*
X58280039Y-60745185D01*
G37*
%TD.AperFunction*%
%TA.AperFunction,Conductor*%
G36*
X72567539Y-3595185D02*
G01*
X72613294Y-3647989D01*
X72624500Y-3699500D01*
X72624500Y-8571236D01*
X72604815Y-8638275D01*
X72552011Y-8684030D01*
X72482853Y-8693974D01*
X72427615Y-8671554D01*
X72306788Y-8583768D01*
X72152445Y-8505127D01*
X71987701Y-8451598D01*
X71987699Y-8451597D01*
X71987698Y-8451597D01*
X71833639Y-8427197D01*
X71816611Y-8424500D01*
X71643389Y-8424500D01*
X71626361Y-8427197D01*
X71472302Y-8451597D01*
X71307552Y-8505128D01*
X71153211Y-8583768D01*
X71116969Y-8610100D01*
X71013072Y-8685586D01*
X71013070Y-8685588D01*
X71013069Y-8685588D01*
X70890588Y-8808069D01*
X70890588Y-8808070D01*
X70890586Y-8808072D01*
X70867497Y-8839851D01*
X70788768Y-8948211D01*
X70710128Y-9102552D01*
X70656597Y-9267302D01*
X70629500Y-9438389D01*
X70629500Y-9611610D01*
X70656511Y-9782155D01*
X70656598Y-9782701D01*
X70708999Y-9943974D01*
X70710128Y-9947447D01*
X70752336Y-10030286D01*
X70788768Y-10101788D01*
X70890586Y-10241928D01*
X71013072Y-10364414D01*
X71153212Y-10466232D01*
X71307555Y-10544873D01*
X71472299Y-10598402D01*
X71643389Y-10625500D01*
X71643390Y-10625500D01*
X71816610Y-10625500D01*
X71816611Y-10625500D01*
X71987701Y-10598402D01*
X72152445Y-10544873D01*
X72306788Y-10466232D01*
X72427615Y-10378445D01*
X72493420Y-10354965D01*
X72561474Y-10370790D01*
X72610169Y-10420895D01*
X72624500Y-10478763D01*
X72624500Y-15350500D01*
X72604815Y-15417539D01*
X72552011Y-15463294D01*
X72500500Y-15474500D01*
X67370500Y-15474500D01*
X67303461Y-15454815D01*
X67257706Y-15402011D01*
X67246500Y-15350500D01*
X67246500Y-8773465D01*
X67266185Y-8706426D01*
X67267398Y-8704574D01*
X67269647Y-8701209D01*
X67355394Y-8572879D01*
X67415737Y-8427197D01*
X67446500Y-8272542D01*
X67446500Y-8114858D01*
X67446500Y-8114855D01*
X67446499Y-8114853D01*
X67442994Y-8097231D01*
X67415737Y-7960203D01*
X67415735Y-7960198D01*
X67355397Y-7814527D01*
X67355390Y-7814514D01*
X67267789Y-7683411D01*
X67267786Y-7683407D01*
X67156292Y-7571913D01*
X67156288Y-7571910D01*
X67025185Y-7484309D01*
X67025172Y-7484302D01*
X66879501Y-7423964D01*
X66879489Y-7423961D01*
X66724845Y-7393200D01*
X66724842Y-7393200D01*
X66567158Y-7393200D01*
X66567155Y-7393200D01*
X66412510Y-7423961D01*
X66412498Y-7423964D01*
X66266827Y-7484302D01*
X66266814Y-7484309D01*
X66135711Y-7571910D01*
X66135707Y-7571913D01*
X66024213Y-7683407D01*
X66024210Y-7683411D01*
X65936609Y-7814514D01*
X65936602Y-7814527D01*
X65876264Y-7960198D01*
X65876261Y-7960210D01*
X65845500Y-8114853D01*
X65845500Y-8272546D01*
X65876261Y-8427189D01*
X65876264Y-8427201D01*
X65936602Y-8572872D01*
X65936609Y-8572885D01*
X66004324Y-8674226D01*
X66022353Y-8701209D01*
X66024602Y-8704574D01*
X66045480Y-8771251D01*
X66045500Y-8773465D01*
X66045500Y-15350500D01*
X66025815Y-15417539D01*
X65973011Y-15463294D01*
X65921500Y-15474500D01*
X60849500Y-15474500D01*
X60782461Y-15454815D01*
X60736706Y-15402011D01*
X60725500Y-15350500D01*
X60725500Y-10515091D01*
X60745185Y-10448052D01*
X60797989Y-10402297D01*
X60867147Y-10392353D01*
X60922383Y-10414772D01*
X60993212Y-10466232D01*
X61147555Y-10544873D01*
X61312299Y-10598402D01*
X61483389Y-10625500D01*
X61483390Y-10625500D01*
X61656610Y-10625500D01*
X61656611Y-10625500D01*
X61827701Y-10598402D01*
X61992445Y-10544873D01*
X62146788Y-10466232D01*
X62286928Y-10364414D01*
X62409414Y-10241928D01*
X62511232Y-10101788D01*
X62589873Y-9947445D01*
X62643402Y-9782701D01*
X62670500Y-9611611D01*
X62670500Y-9438389D01*
X62643402Y-9267299D01*
X62589873Y-9102555D01*
X62511232Y-8948212D01*
X62409414Y-8808072D01*
X62286928Y-8685586D01*
X62146788Y-8583768D01*
X61992445Y-8505127D01*
X61827701Y-8451598D01*
X61827699Y-8451597D01*
X61827698Y-8451597D01*
X61673639Y-8427197D01*
X61656611Y-8424500D01*
X61483389Y-8424500D01*
X61466361Y-8427197D01*
X61312302Y-8451597D01*
X61147552Y-8505128D01*
X60993208Y-8583770D01*
X60922385Y-8635226D01*
X60856579Y-8658706D01*
X60788525Y-8642880D01*
X60739830Y-8592775D01*
X60725500Y-8534908D01*
X60725500Y-3699500D01*
X60745185Y-3632461D01*
X60797989Y-3586706D01*
X60849500Y-3575500D01*
X72500500Y-3575500D01*
X72567539Y-3595185D01*
G37*
%TD.AperFunction*%
%TA.AperFunction,Conductor*%
G36*
X270506939Y-39195185D02*
G01*
X270552694Y-39247989D01*
X270563900Y-39299500D01*
X270563900Y-39819834D01*
X270544215Y-39886873D01*
X270543002Y-39888725D01*
X270455009Y-40020414D01*
X270455002Y-40020427D01*
X270394664Y-40166098D01*
X270394661Y-40166110D01*
X270363900Y-40320753D01*
X270363900Y-40478446D01*
X270394661Y-40633089D01*
X270394664Y-40633101D01*
X270455002Y-40778772D01*
X270455009Y-40778785D01*
X270542610Y-40909888D01*
X270542613Y-40909892D01*
X270654107Y-41021386D01*
X270654111Y-41021389D01*
X270785214Y-41108990D01*
X270785227Y-41108997D01*
X270902656Y-41157637D01*
X270930903Y-41169337D01*
X271026739Y-41188400D01*
X271085553Y-41200099D01*
X271085556Y-41200100D01*
X271085558Y-41200100D01*
X271113000Y-41200100D01*
X271180039Y-41219785D01*
X271225794Y-41272589D01*
X271237000Y-41324100D01*
X271237000Y-53450500D01*
X271217315Y-53517539D01*
X271164511Y-53563294D01*
X271113000Y-53574500D01*
X267030200Y-53574500D01*
X266963161Y-53554815D01*
X266917406Y-53502011D01*
X266906200Y-53450500D01*
X266906200Y-49335760D01*
X266906201Y-49335747D01*
X266906201Y-49167644D01*
X266892593Y-49116860D01*
X266865277Y-49014916D01*
X266807916Y-48915563D01*
X266786224Y-48877990D01*
X266786218Y-48877982D01*
X265446625Y-47538389D01*
X268273300Y-47538389D01*
X268273300Y-47711610D01*
X268299421Y-47876537D01*
X268300398Y-47882701D01*
X268353927Y-48047445D01*
X268432568Y-48201788D01*
X268534386Y-48341928D01*
X268656872Y-48464414D01*
X268797012Y-48566232D01*
X268951355Y-48644873D01*
X269116099Y-48698402D01*
X269287189Y-48725500D01*
X269287190Y-48725500D01*
X269460410Y-48725500D01*
X269460411Y-48725500D01*
X269631501Y-48698402D01*
X269796245Y-48644873D01*
X269950588Y-48566232D01*
X270090728Y-48464414D01*
X270213214Y-48341928D01*
X270315032Y-48201788D01*
X270393673Y-48047445D01*
X270447202Y-47882701D01*
X270474300Y-47711611D01*
X270474300Y-47538389D01*
X270447202Y-47367299D01*
X270393673Y-47202555D01*
X270315032Y-47048212D01*
X270213214Y-46908072D01*
X270090728Y-46785586D01*
X269950588Y-46683768D01*
X269825429Y-46619997D01*
X269796247Y-46605128D01*
X269796246Y-46605127D01*
X269796245Y-46605127D01*
X269631501Y-46551598D01*
X269631499Y-46551597D01*
X269631498Y-46551597D01*
X269500071Y-46530781D01*
X269460411Y-46524500D01*
X269287189Y-46524500D01*
X269247528Y-46530781D01*
X269116102Y-46551597D01*
X268951352Y-46605128D01*
X268797011Y-46683768D01*
X268736645Y-46727627D01*
X268656872Y-46785586D01*
X268656870Y-46785588D01*
X268656869Y-46785588D01*
X268534388Y-46908069D01*
X268534388Y-46908070D01*
X268534386Y-46908072D01*
X268510898Y-46940401D01*
X268432568Y-47048211D01*
X268353928Y-47202552D01*
X268300397Y-47367302D01*
X268273300Y-47538389D01*
X265446625Y-47538389D01*
X265000373Y-47092137D01*
X264966888Y-47030814D01*
X264966437Y-47028647D01*
X264965836Y-47025625D01*
X264935537Y-46873303D01*
X264900390Y-46788450D01*
X264875197Y-46727627D01*
X264875190Y-46727614D01*
X264787589Y-46596511D01*
X264787586Y-46596507D01*
X264676092Y-46485013D01*
X264676088Y-46485010D01*
X264544985Y-46397409D01*
X264544972Y-46397402D01*
X264399301Y-46337064D01*
X264399289Y-46337061D01*
X264244645Y-46306300D01*
X264244642Y-46306300D01*
X264086958Y-46306300D01*
X264086955Y-46306300D01*
X263932310Y-46337061D01*
X263932298Y-46337064D01*
X263786627Y-46397402D01*
X263786614Y-46397409D01*
X263655511Y-46485010D01*
X263655507Y-46485013D01*
X263544013Y-46596507D01*
X263544010Y-46596511D01*
X263456409Y-46727614D01*
X263456402Y-46727627D01*
X263396064Y-46873298D01*
X263396061Y-46873310D01*
X263365300Y-47027953D01*
X263365300Y-47185646D01*
X263396061Y-47340289D01*
X263396064Y-47340301D01*
X263456402Y-47485972D01*
X263456409Y-47485985D01*
X263544010Y-47617088D01*
X263544013Y-47617092D01*
X263655507Y-47728586D01*
X263655511Y-47728589D01*
X263786614Y-47816190D01*
X263786627Y-47816197D01*
X263932298Y-47876535D01*
X263932303Y-47876537D01*
X263996947Y-47889395D01*
X264087649Y-47907438D01*
X264149560Y-47939823D01*
X264151139Y-47941374D01*
X265668881Y-49459116D01*
X265702366Y-49520439D01*
X265705200Y-49546797D01*
X265705200Y-53450500D01*
X265685515Y-53517539D01*
X265632711Y-53563294D01*
X265581200Y-53574500D01*
X258493300Y-53574500D01*
X258426261Y-53554815D01*
X258380506Y-53502011D01*
X258369300Y-53450500D01*
X258369300Y-48615091D01*
X258388985Y-48548052D01*
X258441789Y-48502297D01*
X258510947Y-48492353D01*
X258566183Y-48514772D01*
X258637012Y-48566232D01*
X258791355Y-48644873D01*
X258956099Y-48698402D01*
X259127189Y-48725500D01*
X259127190Y-48725500D01*
X259300410Y-48725500D01*
X259300411Y-48725500D01*
X259471501Y-48698402D01*
X259636245Y-48644873D01*
X259790588Y-48566232D01*
X259930728Y-48464414D01*
X260053214Y-48341928D01*
X260155032Y-48201788D01*
X260233673Y-48047445D01*
X260287202Y-47882701D01*
X260314300Y-47711611D01*
X260314300Y-47538389D01*
X260287202Y-47367299D01*
X260233673Y-47202555D01*
X260155032Y-47048212D01*
X260053214Y-46908072D01*
X259930728Y-46785586D01*
X259790588Y-46683768D01*
X259665429Y-46619997D01*
X259636247Y-46605128D01*
X259636246Y-46605127D01*
X259636245Y-46605127D01*
X259471501Y-46551598D01*
X259471499Y-46551597D01*
X259471498Y-46551597D01*
X259340071Y-46530781D01*
X259300411Y-46524500D01*
X259127189Y-46524500D01*
X259087528Y-46530781D01*
X258956102Y-46551597D01*
X258791352Y-46605128D01*
X258637008Y-46683770D01*
X258566185Y-46735226D01*
X258500379Y-46758706D01*
X258432325Y-46742880D01*
X258383630Y-46692775D01*
X258369300Y-46634908D01*
X258369300Y-39299500D01*
X258388985Y-39232461D01*
X258441789Y-39186706D01*
X258493300Y-39175500D01*
X270439900Y-39175500D01*
X270506939Y-39195185D01*
G37*
%TD.AperFunction*%
%TA.AperFunction,Conductor*%
G36*
X277355039Y-22645185D02*
G01*
X277400794Y-22697989D01*
X277412000Y-22749500D01*
X277412000Y-27621236D01*
X277392315Y-27688275D01*
X277339511Y-27734030D01*
X277270353Y-27743974D01*
X277215115Y-27721554D01*
X277094288Y-27633768D01*
X276956800Y-27563715D01*
X276939947Y-27555128D01*
X276939946Y-27555127D01*
X276939945Y-27555127D01*
X276775201Y-27501598D01*
X276775199Y-27501597D01*
X276775198Y-27501597D01*
X276628141Y-27478306D01*
X276604111Y-27474500D01*
X276430889Y-27474500D01*
X276406859Y-27478306D01*
X276259802Y-27501597D01*
X276095052Y-27555128D01*
X275940711Y-27633768D01*
X275869886Y-27685226D01*
X275800572Y-27735586D01*
X275800570Y-27735588D01*
X275800569Y-27735588D01*
X275678088Y-27858069D01*
X275678088Y-27858070D01*
X275678086Y-27858072D01*
X275641466Y-27908475D01*
X275576268Y-27998211D01*
X275497628Y-28152552D01*
X275444097Y-28317302D01*
X275417000Y-28488389D01*
X275417000Y-28661610D01*
X275433765Y-28767465D01*
X275444098Y-28832701D01*
X275497627Y-28997445D01*
X275576268Y-29151788D01*
X275678086Y-29291928D01*
X275800572Y-29414414D01*
X275940712Y-29516232D01*
X276095055Y-29594873D01*
X276259799Y-29648402D01*
X276430889Y-29675500D01*
X276430890Y-29675500D01*
X276604110Y-29675500D01*
X276604111Y-29675500D01*
X276775201Y-29648402D01*
X276939945Y-29594873D01*
X277094288Y-29516232D01*
X277215115Y-29428445D01*
X277280920Y-29404965D01*
X277348974Y-29420790D01*
X277397669Y-29470895D01*
X277412000Y-29528763D01*
X277412000Y-34400500D01*
X277392315Y-34467539D01*
X277339511Y-34513294D01*
X277288000Y-34524500D01*
X272562000Y-34524500D01*
X272494961Y-34504815D01*
X272449206Y-34452011D01*
X272438000Y-34400500D01*
X272438000Y-27274359D01*
X272438001Y-27274346D01*
X272438001Y-27106245D01*
X272438001Y-27106243D01*
X272397077Y-26953515D01*
X272397075Y-26953512D01*
X272397075Y-26953510D01*
X272397074Y-26953509D01*
X272369204Y-26905238D01*
X272369203Y-26905237D01*
X272365782Y-26899311D01*
X272318020Y-26816584D01*
X272265311Y-26763875D01*
X272259736Y-26756289D01*
X272250898Y-26731942D01*
X272238488Y-26709214D01*
X272238037Y-26707047D01*
X272220153Y-26617139D01*
X272207137Y-26551703D01*
X272201566Y-26538253D01*
X272146797Y-26406027D01*
X272146790Y-26406014D01*
X272059189Y-26274911D01*
X272059186Y-26274907D01*
X271947692Y-26163413D01*
X271947688Y-26163410D01*
X271816585Y-26075809D01*
X271816572Y-26075802D01*
X271670901Y-26015464D01*
X271670889Y-26015461D01*
X271516245Y-25984700D01*
X271516242Y-25984700D01*
X271358558Y-25984700D01*
X271358555Y-25984700D01*
X271203910Y-26015461D01*
X271203898Y-26015464D01*
X271058227Y-26075802D01*
X271058214Y-26075809D01*
X270927111Y-26163410D01*
X270927107Y-26163413D01*
X270815613Y-26274907D01*
X270815610Y-26274911D01*
X270728009Y-26406014D01*
X270728002Y-26406027D01*
X270667664Y-26551698D01*
X270667661Y-26551710D01*
X270636900Y-26706353D01*
X270636900Y-26864046D01*
X270667661Y-27018689D01*
X270667664Y-27018701D01*
X270728002Y-27164372D01*
X270728009Y-27164385D01*
X270815610Y-27295488D01*
X270815613Y-27295492D01*
X270927107Y-27406986D01*
X270927111Y-27406989D01*
X271058214Y-27494590D01*
X271058226Y-27494597D01*
X271160452Y-27536939D01*
X271214856Y-27580779D01*
X271236921Y-27647073D01*
X271237000Y-27651500D01*
X271237000Y-28480303D01*
X271217315Y-28547342D01*
X271164511Y-28593097D01*
X271095353Y-28603041D01*
X271031797Y-28574016D01*
X271025319Y-28567984D01*
X270010674Y-27553339D01*
X269977189Y-27492016D01*
X269976738Y-27489849D01*
X269945838Y-27334510D01*
X269945837Y-27334503D01*
X269929677Y-27295488D01*
X269885497Y-27188827D01*
X269885490Y-27188814D01*
X269797889Y-27057711D01*
X269797886Y-27057707D01*
X269686392Y-26946213D01*
X269686388Y-26946210D01*
X269555285Y-26858609D01*
X269555272Y-26858602D01*
X269409601Y-26798264D01*
X269409589Y-26798261D01*
X269254945Y-26767500D01*
X269254942Y-26767500D01*
X269097258Y-26767500D01*
X269097255Y-26767500D01*
X268942610Y-26798261D01*
X268942598Y-26798264D01*
X268796927Y-26858602D01*
X268796914Y-26858609D01*
X268665811Y-26946210D01*
X268665807Y-26946213D01*
X268554313Y-27057707D01*
X268554310Y-27057711D01*
X268466709Y-27188814D01*
X268466702Y-27188827D01*
X268406364Y-27334498D01*
X268406361Y-27334510D01*
X268375600Y-27489153D01*
X268375600Y-27646846D01*
X268406361Y-27801489D01*
X268406364Y-27801501D01*
X268466702Y-27947172D01*
X268466709Y-27947185D01*
X268554310Y-28078288D01*
X268554313Y-28078292D01*
X268665807Y-28189786D01*
X268665811Y-28189789D01*
X268796914Y-28277390D01*
X268796927Y-28277397D01*
X268942598Y-28337735D01*
X268942603Y-28337737D01*
X269007247Y-28350595D01*
X269097949Y-28368638D01*
X269159860Y-28401023D01*
X269161439Y-28402574D01*
X270527581Y-29768716D01*
X270561066Y-29830039D01*
X270563900Y-29856397D01*
X270563900Y-34400500D01*
X270544215Y-34467539D01*
X270491411Y-34513294D01*
X270439900Y-34524500D01*
X265637000Y-34524500D01*
X265569961Y-34504815D01*
X265524206Y-34452011D01*
X265513000Y-34400500D01*
X265513000Y-29565091D01*
X265532685Y-29498052D01*
X265585489Y-29452297D01*
X265654647Y-29442353D01*
X265709883Y-29464772D01*
X265780712Y-29516232D01*
X265935055Y-29594873D01*
X266099799Y-29648402D01*
X266270889Y-29675500D01*
X266270890Y-29675500D01*
X266444110Y-29675500D01*
X266444111Y-29675500D01*
X266615201Y-29648402D01*
X266779945Y-29594873D01*
X266934288Y-29516232D01*
X267074428Y-29414414D01*
X267196914Y-29291928D01*
X267298732Y-29151788D01*
X267377373Y-28997445D01*
X267430902Y-28832701D01*
X267458000Y-28661611D01*
X267458000Y-28488389D01*
X267430902Y-28317299D01*
X267377373Y-28152555D01*
X267298732Y-27998212D01*
X267196914Y-27858072D01*
X267074428Y-27735586D01*
X266934288Y-27633768D01*
X266796800Y-27563715D01*
X266779947Y-27555128D01*
X266779946Y-27555127D01*
X266779945Y-27555127D01*
X266615201Y-27501598D01*
X266615199Y-27501597D01*
X266615198Y-27501597D01*
X266468141Y-27478306D01*
X266444111Y-27474500D01*
X266270889Y-27474500D01*
X266246859Y-27478306D01*
X266099802Y-27501597D01*
X265935052Y-27555128D01*
X265780708Y-27633770D01*
X265709885Y-27685226D01*
X265644079Y-27708706D01*
X265576025Y-27692880D01*
X265527330Y-27642775D01*
X265513000Y-27584908D01*
X265513000Y-22749500D01*
X265532685Y-22682461D01*
X265585489Y-22636706D01*
X265637000Y-22625500D01*
X277288000Y-22625500D01*
X277355039Y-22645185D01*
G37*
%TD.AperFunction*%
%TA.AperFunction,Conductor*%
G36*
X2417539Y-520185D02*
G01*
X2463294Y-572989D01*
X2474500Y-624500D01*
X2474500Y-16097475D01*
X2505519Y-16213237D01*
X2512017Y-16237488D01*
X2584488Y-16363011D01*
X2584490Y-16363013D01*
X2584491Y-16363015D01*
X2686985Y-16465509D01*
X2686986Y-16465510D01*
X2686988Y-16465511D01*
X2812511Y-16537982D01*
X2812512Y-16537982D01*
X2812515Y-16537984D01*
X2952525Y-16575500D01*
X3097475Y-16575500D01*
X15306303Y-16575500D01*
X15373342Y-16595185D01*
X15393984Y-16611819D01*
X15848281Y-17066116D01*
X15881766Y-17127439D01*
X15884600Y-17153797D01*
X15884600Y-21400500D01*
X15864915Y-21467539D01*
X15812111Y-21513294D01*
X15760600Y-21524500D01*
X7859975Y-21524500D01*
X7715025Y-21524500D01*
X7586493Y-21558940D01*
X7575011Y-21562017D01*
X7449488Y-21634488D01*
X7449482Y-21634493D01*
X7346993Y-21736982D01*
X7346988Y-21736988D01*
X7274517Y-21862511D01*
X7274516Y-21862515D01*
X7237000Y-22002525D01*
X7237000Y-35147475D01*
X7267469Y-35261185D01*
X7274517Y-35287488D01*
X7346988Y-35413011D01*
X7346990Y-35413013D01*
X7346991Y-35413015D01*
X7449485Y-35515509D01*
X7449486Y-35515510D01*
X7449488Y-35515511D01*
X7575011Y-35587982D01*
X7575012Y-35587982D01*
X7575015Y-35587984D01*
X7715025Y-35625500D01*
X7715028Y-35625500D01*
X20859972Y-35625500D01*
X20859975Y-35625500D01*
X20999985Y-35587984D01*
X21125515Y-35515509D01*
X21228009Y-35413015D01*
X21300484Y-35287485D01*
X21338000Y-35147475D01*
X21338000Y-22002525D01*
X21300484Y-21862515D01*
X21286995Y-21839152D01*
X21228011Y-21736988D01*
X21228006Y-21736982D01*
X21125517Y-21634493D01*
X21125511Y-21634488D01*
X20999988Y-21562017D01*
X20999989Y-21562017D01*
X20988506Y-21558940D01*
X20859975Y-21524500D01*
X20859972Y-21524500D01*
X17209600Y-21524500D01*
X17142561Y-21504815D01*
X17096806Y-21452011D01*
X17085600Y-21400500D01*
X17085600Y-16946778D01*
X17085600Y-16932760D01*
X17085601Y-16932757D01*
X17085601Y-16774643D01*
X17070891Y-16719746D01*
X17070099Y-16707517D01*
X17075176Y-16684907D01*
X17075728Y-16661745D01*
X17082687Y-16651461D01*
X17085409Y-16639345D01*
X17101903Y-16623070D01*
X17114890Y-16603882D01*
X17126304Y-16598993D01*
X17135144Y-16590272D01*
X17157818Y-16585498D01*
X17179118Y-16576377D01*
X17193840Y-16575500D01*
X18597472Y-16575500D01*
X18597475Y-16575500D01*
X18737485Y-16537984D01*
X18863015Y-16465509D01*
X18965509Y-16363015D01*
X19037984Y-16237485D01*
X19075500Y-16097475D01*
X19075500Y-624500D01*
X19095185Y-557461D01*
X19147989Y-511706D01*
X19199500Y-500500D01*
X128967165Y-500500D01*
X129034204Y-520185D01*
X129079959Y-572989D01*
X129089903Y-642147D01*
X129060878Y-705703D01*
X129014616Y-739062D01*
X129002921Y-743905D01*
X129002914Y-743909D01*
X128871811Y-831510D01*
X128871807Y-831513D01*
X128760313Y-943007D01*
X128760310Y-943011D01*
X128672709Y-1074114D01*
X128672702Y-1074127D01*
X128612364Y-1219798D01*
X128612361Y-1219810D01*
X128581600Y-1374453D01*
X128581600Y-1532146D01*
X128612361Y-1686789D01*
X128612364Y-1686801D01*
X128672702Y-1832472D01*
X128672709Y-1832485D01*
X128760310Y-1963588D01*
X128760313Y-1963592D01*
X128871807Y-2075086D01*
X128871811Y-2075089D01*
X129002914Y-2162690D01*
X129002927Y-2162697D01*
X129148598Y-2223035D01*
X129148603Y-2223037D01*
X129161207Y-2225544D01*
X129177990Y-2228883D01*
X129239901Y-2261268D01*
X129274475Y-2321984D01*
X129270736Y-2391753D01*
X129229869Y-2448425D01*
X129164851Y-2474006D01*
X129153799Y-2474500D01*
X117397475Y-2474500D01*
X117252525Y-2474500D01*
X117123993Y-2508940D01*
X117112511Y-2512017D01*
X116986988Y-2584488D01*
X116986982Y-2584493D01*
X116884493Y-2686982D01*
X116884488Y-2686988D01*
X116812017Y-2812511D01*
X116812016Y-2812515D01*
X116774500Y-2952525D01*
X116774500Y-16097475D01*
X116805519Y-16213237D01*
X116812017Y-16237488D01*
X116884488Y-16363011D01*
X116884490Y-16363013D01*
X116884491Y-16363015D01*
X116986985Y-16465509D01*
X116986986Y-16465510D01*
X116986988Y-16465511D01*
X117112511Y-16537982D01*
X117112512Y-16537982D01*
X117112515Y-16537984D01*
X117252525Y-16575500D01*
X117397475Y-16575500D01*
X120068800Y-16575500D01*
X120135839Y-16595185D01*
X120181594Y-16647989D01*
X120192800Y-16699500D01*
X120192800Y-21400500D01*
X120173115Y-21467539D01*
X120120311Y-21513294D01*
X120068800Y-21524500D01*
X108062700Y-21524500D01*
X107995661Y-21504815D01*
X107949906Y-21452011D01*
X107938700Y-21400500D01*
X107938700Y-16699500D01*
X107958385Y-16632461D01*
X108011189Y-16586706D01*
X108062700Y-16575500D01*
X111347472Y-16575500D01*
X111347475Y-16575500D01*
X111487485Y-16537984D01*
X111613015Y-16465509D01*
X111715509Y-16363015D01*
X111787984Y-16237485D01*
X111825500Y-16097475D01*
X111825500Y-2952525D01*
X111787984Y-2812515D01*
X111758392Y-2761261D01*
X111715511Y-2686988D01*
X111715506Y-2686982D01*
X111613017Y-2584493D01*
X111613011Y-2584488D01*
X111487488Y-2512017D01*
X111487489Y-2512017D01*
X111476006Y-2508940D01*
X111347475Y-2474500D01*
X98347475Y-2474500D01*
X98202525Y-2474500D01*
X98073993Y-2508940D01*
X98062511Y-2512017D01*
X97936988Y-2584488D01*
X97936982Y-2584493D01*
X97834493Y-2686982D01*
X97834488Y-2686988D01*
X97762017Y-2812511D01*
X97762016Y-2812515D01*
X97724500Y-2952525D01*
X97724500Y-16097475D01*
X97755519Y-16213237D01*
X97762017Y-16237488D01*
X97834488Y-16363011D01*
X97834490Y-16363013D01*
X97834491Y-16363015D01*
X97936985Y-16465509D01*
X97936986Y-16465510D01*
X97936988Y-16465511D01*
X98062511Y-16537982D01*
X98062512Y-16537982D01*
X98062515Y-16537984D01*
X98202525Y-16575500D01*
X98347475Y-16575500D01*
X106613700Y-16575500D01*
X106680739Y-16595185D01*
X106726494Y-16647989D01*
X106737700Y-16699500D01*
X106737700Y-31610034D01*
X106718015Y-31677073D01*
X106716802Y-31678925D01*
X106628809Y-31810614D01*
X106628802Y-31810627D01*
X106568464Y-31956298D01*
X106568461Y-31956310D01*
X106537700Y-32110953D01*
X106537700Y-32268646D01*
X106568461Y-32423289D01*
X106568464Y-32423301D01*
X106628802Y-32568972D01*
X106628809Y-32568985D01*
X106716802Y-32700674D01*
X106737680Y-32767351D01*
X106737700Y-32769565D01*
X106737700Y-37950500D01*
X106718015Y-38017539D01*
X106665211Y-38063294D01*
X106613700Y-38074500D01*
X98203298Y-38074500D01*
X98136259Y-38054815D01*
X98115617Y-38038181D01*
X97033139Y-36955703D01*
X95914615Y-35837180D01*
X95881131Y-35775858D01*
X95886115Y-35706166D01*
X95927987Y-35650233D01*
X95993451Y-35625816D01*
X96002297Y-35625500D01*
X101822472Y-35625500D01*
X101822475Y-35625500D01*
X101962485Y-35587984D01*
X102088015Y-35515509D01*
X102190509Y-35413015D01*
X102262984Y-35287485D01*
X102300500Y-35147475D01*
X102300500Y-22002525D01*
X102262984Y-21862515D01*
X102249495Y-21839152D01*
X102190511Y-21736988D01*
X102190506Y-21736982D01*
X102088017Y-21634493D01*
X102088011Y-21634488D01*
X101962488Y-21562017D01*
X101962489Y-21562017D01*
X101951006Y-21558940D01*
X101822475Y-21524500D01*
X88822475Y-21524500D01*
X88677525Y-21524500D01*
X88537515Y-21562016D01*
X88537514Y-21562016D01*
X88537512Y-21562017D01*
X88496199Y-21585869D01*
X88428299Y-21602340D01*
X88362272Y-21579488D01*
X88319082Y-21524566D01*
X88310200Y-21478481D01*
X88310200Y-16699500D01*
X88329885Y-16632461D01*
X88382689Y-16586706D01*
X88434200Y-16575500D01*
X92297472Y-16575500D01*
X92297475Y-16575500D01*
X92437485Y-16537984D01*
X92563015Y-16465509D01*
X92665509Y-16363015D01*
X92737984Y-16237485D01*
X92775500Y-16097475D01*
X92775500Y-2952525D01*
X92737984Y-2812515D01*
X92708392Y-2761261D01*
X92665511Y-2686988D01*
X92665506Y-2686982D01*
X92563017Y-2584493D01*
X92563011Y-2584488D01*
X92437488Y-2512017D01*
X92437489Y-2512017D01*
X92426006Y-2508940D01*
X92297475Y-2474500D01*
X79297475Y-2474500D01*
X79152525Y-2474500D01*
X79023993Y-2508940D01*
X79012511Y-2512017D01*
X78886988Y-2584488D01*
X78886982Y-2584493D01*
X78784493Y-2686982D01*
X78784488Y-2686988D01*
X78712017Y-2812511D01*
X78712016Y-2812515D01*
X78674500Y-2952525D01*
X78674500Y-16097475D01*
X78705519Y-16213237D01*
X78712017Y-16237488D01*
X78784488Y-16363011D01*
X78784490Y-16363013D01*
X78784491Y-16363015D01*
X78886985Y-16465509D01*
X78886986Y-16465510D01*
X78886988Y-16465511D01*
X79012511Y-16537982D01*
X79012512Y-16537982D01*
X79012515Y-16537984D01*
X79152525Y-16575500D01*
X79297475Y-16575500D01*
X86985200Y-16575500D01*
X87052239Y-16595185D01*
X87097994Y-16647989D01*
X87109200Y-16699500D01*
X87109200Y-30810234D01*
X87089515Y-30877273D01*
X87088302Y-30879125D01*
X87000309Y-31010814D01*
X87000302Y-31010827D01*
X86939964Y-31156498D01*
X86939961Y-31156510D01*
X86909200Y-31311153D01*
X86909200Y-31468846D01*
X86939961Y-31623489D01*
X86939964Y-31623501D01*
X87000302Y-31769172D01*
X87000309Y-31769185D01*
X87088302Y-31900874D01*
X87109180Y-31967551D01*
X87109200Y-31969765D01*
X87109200Y-40450500D01*
X87089515Y-40517539D01*
X87036711Y-40563294D01*
X86985200Y-40574500D01*
X76761700Y-40574500D01*
X76694661Y-40554815D01*
X76648906Y-40502011D01*
X76637700Y-40450500D01*
X76637700Y-36145465D01*
X76657385Y-36078426D01*
X76658598Y-36076574D01*
X76746590Y-35944885D01*
X76746590Y-35944884D01*
X76746594Y-35944879D01*
X76806937Y-35799197D01*
X76816030Y-35753484D01*
X76821635Y-35725308D01*
X76854020Y-35663397D01*
X76914736Y-35628823D01*
X76943252Y-35625500D01*
X82772472Y-35625500D01*
X82772475Y-35625500D01*
X82912485Y-35587984D01*
X83038015Y-35515509D01*
X83140509Y-35413015D01*
X83212984Y-35287485D01*
X83250500Y-35147475D01*
X83250500Y-22002525D01*
X83212984Y-21862515D01*
X83199495Y-21839152D01*
X83140511Y-21736988D01*
X83140506Y-21736982D01*
X83038017Y-21634493D01*
X83038011Y-21634488D01*
X82912488Y-21562017D01*
X82912489Y-21562017D01*
X82901006Y-21558940D01*
X82772475Y-21524500D01*
X69772475Y-21524500D01*
X69627525Y-21524500D01*
X69498993Y-21558940D01*
X69487511Y-21562017D01*
X69361988Y-21634488D01*
X69361982Y-21634493D01*
X69259493Y-21736982D01*
X69259488Y-21736988D01*
X69187017Y-21862511D01*
X69187016Y-21862515D01*
X69149500Y-22002525D01*
X69149500Y-35147475D01*
X69179969Y-35261185D01*
X69187017Y-35287488D01*
X69259488Y-35413011D01*
X69259490Y-35413013D01*
X69259491Y-35413015D01*
X69361985Y-35515509D01*
X69361986Y-35515510D01*
X69361988Y-35515511D01*
X69487511Y-35587982D01*
X69487512Y-35587982D01*
X69487515Y-35587984D01*
X69627525Y-35625500D01*
X69772475Y-35625500D01*
X75131148Y-35625500D01*
X75198187Y-35645185D01*
X75243942Y-35697989D01*
X75252765Y-35725308D01*
X75267461Y-35799191D01*
X75267464Y-35799201D01*
X75327802Y-35944872D01*
X75327809Y-35944885D01*
X75415802Y-36076574D01*
X75436680Y-36143251D01*
X75436700Y-36145465D01*
X75436700Y-40450500D01*
X75417015Y-40517539D01*
X75364211Y-40563294D01*
X75312700Y-40574500D01*
X74534975Y-40574500D01*
X74390025Y-40574500D01*
X74261493Y-40608940D01*
X74250011Y-40612017D01*
X74124488Y-40684488D01*
X74124482Y-40684493D01*
X74021993Y-40786982D01*
X74021988Y-40786988D01*
X73949517Y-40912511D01*
X73949516Y-40912515D01*
X73912000Y-41052525D01*
X73912000Y-54197475D01*
X73949516Y-54337485D01*
X73949517Y-54337488D01*
X74021988Y-54463011D01*
X74021990Y-54463013D01*
X74021991Y-54463015D01*
X74124485Y-54565509D01*
X74124486Y-54565510D01*
X74124488Y-54565511D01*
X74250011Y-54637982D01*
X74250012Y-54637982D01*
X74250015Y-54637984D01*
X74390025Y-54675500D01*
X74534975Y-54675500D01*
X86985200Y-54675500D01*
X87052239Y-54695185D01*
X87097994Y-54747989D01*
X87109200Y-54799500D01*
X87109200Y-59500500D01*
X87089515Y-59567539D01*
X87036711Y-59613294D01*
X86985200Y-59624500D01*
X84059975Y-59624500D01*
X83915025Y-59624500D01*
X83786493Y-59658940D01*
X83775011Y-59662017D01*
X83649488Y-59734488D01*
X83649482Y-59734493D01*
X83546993Y-59836982D01*
X83546988Y-59836988D01*
X83474517Y-59962511D01*
X83474516Y-59962515D01*
X83437000Y-60102525D01*
X83437000Y-73247475D01*
X83458278Y-73326884D01*
X83474517Y-73387488D01*
X83546988Y-73513011D01*
X83546990Y-73513013D01*
X83546991Y-73513015D01*
X83649485Y-73615509D01*
X83649486Y-73615510D01*
X83649488Y-73615511D01*
X83775011Y-73687982D01*
X83775012Y-73687982D01*
X83775015Y-73687984D01*
X83915025Y-73725500D01*
X83915028Y-73725500D01*
X97059972Y-73725500D01*
X97059975Y-73725500D01*
X97199985Y-73687984D01*
X97325515Y-73615509D01*
X97428009Y-73513015D01*
X97500484Y-73387485D01*
X97538000Y-73247475D01*
X97538000Y-60102525D01*
X97500484Y-59962515D01*
X97468108Y-59906439D01*
X97428011Y-59836988D01*
X97428006Y-59836982D01*
X97325517Y-59734493D01*
X97325511Y-59734488D01*
X97199988Y-59662017D01*
X97199989Y-59662017D01*
X97188506Y-59658940D01*
X97059975Y-59624500D01*
X97059972Y-59624500D01*
X88434200Y-59624500D01*
X88367161Y-59604815D01*
X88321406Y-59552011D01*
X88310200Y-59500500D01*
X88310200Y-43166565D01*
X88329885Y-43099526D01*
X88331098Y-43097674D01*
X88332616Y-43095403D01*
X88419094Y-42965979D01*
X88479437Y-42820297D01*
X88510200Y-42665642D01*
X88510200Y-42507958D01*
X88510200Y-42507955D01*
X88510199Y-42507953D01*
X88489963Y-42406221D01*
X88479437Y-42353303D01*
X88479435Y-42353298D01*
X88419097Y-42207627D01*
X88419090Y-42207614D01*
X88331098Y-42075925D01*
X88310220Y-42009247D01*
X88310200Y-42007034D01*
X88310200Y-35671518D01*
X88329885Y-35604479D01*
X88382689Y-35558724D01*
X88451847Y-35548780D01*
X88496199Y-35564130D01*
X88537515Y-35587984D01*
X88677525Y-35625500D01*
X88822475Y-35625500D01*
X92601800Y-35625500D01*
X92668839Y-35645185D01*
X92714594Y-35697989D01*
X92725800Y-35749500D01*
X92725800Y-39642630D01*
X92725799Y-39642648D01*
X92725799Y-39808354D01*
X92725798Y-39808354D01*
X92744199Y-39877025D01*
X92766723Y-39961085D01*
X92794226Y-40008721D01*
X92845780Y-40098016D01*
X92931196Y-40183432D01*
X92935979Y-40189598D01*
X92946010Y-40215147D01*
X92959166Y-40239240D01*
X92960559Y-40252203D01*
X92961514Y-40254634D01*
X92961063Y-40256889D01*
X92962000Y-40265598D01*
X92962000Y-54197475D01*
X92999516Y-54337485D01*
X92999517Y-54337488D01*
X93071988Y-54463011D01*
X93071990Y-54463013D01*
X93071991Y-54463015D01*
X93174485Y-54565509D01*
X93174486Y-54565510D01*
X93174488Y-54565511D01*
X93300011Y-54637982D01*
X93300012Y-54637982D01*
X93300015Y-54637984D01*
X93440025Y-54675500D01*
X93584975Y-54675500D01*
X101868200Y-54675500D01*
X101935239Y-54695185D01*
X101980994Y-54747989D01*
X101992200Y-54799500D01*
X101992200Y-68577534D01*
X101972515Y-68644573D01*
X101971302Y-68646425D01*
X101883309Y-68778114D01*
X101883302Y-68778127D01*
X101822964Y-68923798D01*
X101822961Y-68923810D01*
X101792200Y-69078453D01*
X101792200Y-69236146D01*
X101822961Y-69390789D01*
X101822964Y-69390801D01*
X101883302Y-69536472D01*
X101883309Y-69536485D01*
X101971302Y-69668174D01*
X101992180Y-69734851D01*
X101992200Y-69737065D01*
X101992200Y-81798334D01*
X101972515Y-81865373D01*
X101971302Y-81867225D01*
X101883309Y-81998914D01*
X101883302Y-81998927D01*
X101822964Y-82144598D01*
X101822961Y-82144610D01*
X101792200Y-82299253D01*
X101792200Y-82456946D01*
X101822961Y-82611589D01*
X101822964Y-82611601D01*
X101883302Y-82757272D01*
X101883309Y-82757285D01*
X101970910Y-82888388D01*
X101970913Y-82888392D01*
X102082407Y-82999886D01*
X102082411Y-82999889D01*
X102213514Y-83087490D01*
X102213527Y-83087497D01*
X102359198Y-83147835D01*
X102359203Y-83147837D01*
X102513853Y-83178599D01*
X102513856Y-83178600D01*
X102513858Y-83178600D01*
X102671544Y-83178600D01*
X102671545Y-83178599D01*
X102826197Y-83147837D01*
X102971879Y-83087494D01*
X103102989Y-82999889D01*
X103214489Y-82888389D01*
X103302094Y-82757279D01*
X103362437Y-82611597D01*
X103393200Y-82456942D01*
X103393200Y-82299258D01*
X103393200Y-82299255D01*
X103393199Y-82299253D01*
X103362438Y-82144610D01*
X103362437Y-82144603D01*
X103338687Y-82087265D01*
X103302097Y-81998927D01*
X103302090Y-81998914D01*
X103214098Y-81867225D01*
X103193220Y-81800547D01*
X103193200Y-81798334D01*
X103193200Y-76652525D01*
X123918300Y-76652525D01*
X123918300Y-92297475D01*
X123955816Y-92437485D01*
X123955817Y-92437488D01*
X124028288Y-92563011D01*
X124028290Y-92563013D01*
X124028291Y-92563015D01*
X124130785Y-92665509D01*
X124130786Y-92665510D01*
X124130788Y-92665511D01*
X124256311Y-92737982D01*
X124256312Y-92737982D01*
X124256315Y-92737984D01*
X124396325Y-92775500D01*
X124396328Y-92775500D01*
X140041272Y-92775500D01*
X140041275Y-92775500D01*
X140181285Y-92737984D01*
X140306815Y-92665509D01*
X140409309Y-92563015D01*
X140481784Y-92437485D01*
X140519300Y-92297475D01*
X140519300Y-76652525D01*
X140481784Y-76512515D01*
X140450509Y-76458346D01*
X140409311Y-76386988D01*
X140409306Y-76386982D01*
X140306817Y-76284493D01*
X140306811Y-76284488D01*
X140181288Y-76212017D01*
X140181289Y-76212017D01*
X140169806Y-76208940D01*
X140041275Y-76174500D01*
X124541275Y-76174500D01*
X124396325Y-76174500D01*
X124267793Y-76208940D01*
X124256311Y-76212017D01*
X124130788Y-76284488D01*
X124130782Y-76284493D01*
X124028293Y-76386982D01*
X124028288Y-76386988D01*
X123955817Y-76512511D01*
X123955816Y-76512515D01*
X123918300Y-76652525D01*
X103193200Y-76652525D01*
X103193200Y-73849500D01*
X103212885Y-73782461D01*
X103265689Y-73736706D01*
X103317200Y-73725500D01*
X116109972Y-73725500D01*
X116109975Y-73725500D01*
X116249985Y-73687984D01*
X116375515Y-73615509D01*
X116478009Y-73513015D01*
X116550484Y-73387485D01*
X116588000Y-73247475D01*
X116588000Y-60102525D01*
X116550484Y-59962515D01*
X116518108Y-59906439D01*
X116478011Y-59836988D01*
X116478006Y-59836982D01*
X116375517Y-59734493D01*
X116375511Y-59734488D01*
X116249988Y-59662017D01*
X116249989Y-59662017D01*
X116238506Y-59658940D01*
X116109975Y-59624500D01*
X116109972Y-59624500D01*
X108062700Y-59624500D01*
X107995661Y-59604815D01*
X107949906Y-59552011D01*
X107938700Y-59500500D01*
X107938700Y-55964165D01*
X107958385Y-55897126D01*
X107959598Y-55895274D01*
X108047590Y-55763585D01*
X108047590Y-55763584D01*
X108047594Y-55763579D01*
X108107937Y-55617897D01*
X108137891Y-55467311D01*
X108138700Y-55463245D01*
X108138700Y-55305555D01*
X108138699Y-55305553D01*
X108107938Y-55150910D01*
X108107937Y-55150903D01*
X108086551Y-55099272D01*
X108047597Y-55005227D01*
X108047590Y-55005214D01*
X107959598Y-54873525D01*
X107953947Y-54855478D01*
X107943723Y-54839569D01*
X107939271Y-54808607D01*
X107938720Y-54806847D01*
X107938700Y-54804634D01*
X107938700Y-54799500D01*
X107958385Y-54732461D01*
X108011189Y-54686706D01*
X108062700Y-54675500D01*
X109084972Y-54675500D01*
X109084975Y-54675500D01*
X109224985Y-54637984D01*
X109350515Y-54565509D01*
X109453009Y-54463015D01*
X109525484Y-54337485D01*
X109563000Y-54197475D01*
X109563000Y-44662297D01*
X109582685Y-44595258D01*
X109599319Y-44574616D01*
X111800319Y-42373616D01*
X111861642Y-42340131D01*
X111931334Y-42345115D01*
X111987267Y-42386987D01*
X112011684Y-42452451D01*
X112012000Y-42461297D01*
X112012000Y-54197475D01*
X112049516Y-54337485D01*
X112049517Y-54337488D01*
X112121988Y-54463011D01*
X112121990Y-54463013D01*
X112121991Y-54463015D01*
X112224485Y-54565509D01*
X112224486Y-54565510D01*
X112224488Y-54565511D01*
X112350011Y-54637982D01*
X112350012Y-54637982D01*
X112350015Y-54637984D01*
X112490025Y-54675500D01*
X112634975Y-54675500D01*
X120068800Y-54675500D01*
X120135839Y-54695185D01*
X120181594Y-54747989D01*
X120192800Y-54799500D01*
X120192800Y-56932130D01*
X120192799Y-56932148D01*
X120192799Y-57097854D01*
X120192798Y-57097854D01*
X120233723Y-57250585D01*
X120262658Y-57300700D01*
X120262659Y-57300704D01*
X120262660Y-57300704D01*
X120283606Y-57336985D01*
X120312779Y-57387514D01*
X120312781Y-57387517D01*
X120431649Y-57506385D01*
X120431655Y-57506390D01*
X122338084Y-59412819D01*
X122371569Y-59474142D01*
X122366585Y-59543834D01*
X122324713Y-59599767D01*
X122259249Y-59624184D01*
X122250403Y-59624500D01*
X122159975Y-59624500D01*
X122015025Y-59624500D01*
X121886493Y-59658940D01*
X121875011Y-59662017D01*
X121749488Y-59734488D01*
X121749482Y-59734493D01*
X121646993Y-59836982D01*
X121646988Y-59836988D01*
X121574517Y-59962511D01*
X121574516Y-59962515D01*
X121537000Y-60102525D01*
X121537000Y-73247475D01*
X121558278Y-73326884D01*
X121574517Y-73387488D01*
X121646988Y-73513011D01*
X121646990Y-73513013D01*
X121646991Y-73513015D01*
X121749485Y-73615509D01*
X121749486Y-73615510D01*
X121749488Y-73615511D01*
X121875011Y-73687982D01*
X121875012Y-73687982D01*
X121875015Y-73687984D01*
X122015025Y-73725500D01*
X122015028Y-73725500D01*
X135159972Y-73725500D01*
X135159975Y-73725500D01*
X135299985Y-73687984D01*
X135425515Y-73615509D01*
X135528009Y-73513015D01*
X135600484Y-73387485D01*
X135638000Y-73247475D01*
X135638000Y-60102525D01*
X135600484Y-59962515D01*
X135568108Y-59906439D01*
X135528011Y-59836988D01*
X135528006Y-59836982D01*
X135425517Y-59734493D01*
X135425511Y-59734488D01*
X135299988Y-59662017D01*
X135299989Y-59662017D01*
X135288506Y-59658940D01*
X135159975Y-59624500D01*
X135159972Y-59624500D01*
X124299597Y-59624500D01*
X124232558Y-59604815D01*
X124211916Y-59588181D01*
X121430119Y-56806384D01*
X121396634Y-56745061D01*
X121393800Y-56718703D01*
X121393800Y-54799500D01*
X121413485Y-54732461D01*
X121466289Y-54686706D01*
X121517800Y-54675500D01*
X125634972Y-54675500D01*
X125634975Y-54675500D01*
X125774985Y-54637984D01*
X125900515Y-54565509D01*
X126003009Y-54463015D01*
X126075484Y-54337485D01*
X126113000Y-54197475D01*
X126113000Y-41052525D01*
X126075484Y-40912515D01*
X126073967Y-40909888D01*
X126003011Y-40786988D01*
X126003006Y-40786982D01*
X125900517Y-40684493D01*
X125900511Y-40684488D01*
X125774988Y-40612017D01*
X125774989Y-40612017D01*
X125763506Y-40608940D01*
X125634975Y-40574500D01*
X125634972Y-40574500D01*
X121517800Y-40574500D01*
X121450761Y-40554815D01*
X121405006Y-40502011D01*
X121393800Y-40450500D01*
X121393800Y-32290465D01*
X121413485Y-32223426D01*
X121414698Y-32221574D01*
X121484516Y-32117085D01*
X121502694Y-32089879D01*
X121503974Y-32086790D01*
X121552446Y-31969765D01*
X121563037Y-31944197D01*
X121593800Y-31789542D01*
X121593800Y-31631858D01*
X121593800Y-31631855D01*
X121593799Y-31631853D01*
X121584819Y-31586706D01*
X121563037Y-31477203D01*
X121563035Y-31477198D01*
X121502697Y-31331527D01*
X121502690Y-31331514D01*
X121414698Y-31199825D01*
X121393820Y-31133147D01*
X121393800Y-31130934D01*
X121393800Y-16699500D01*
X121413485Y-16632461D01*
X121466289Y-16586706D01*
X121517800Y-16575500D01*
X129600400Y-16575500D01*
X129667439Y-16595185D01*
X129713194Y-16647989D01*
X129724400Y-16699500D01*
X129724400Y-21400500D01*
X129704715Y-21467539D01*
X129651911Y-21513294D01*
X129600400Y-21524500D01*
X126922475Y-21524500D01*
X126777525Y-21524500D01*
X126648993Y-21558940D01*
X126637511Y-21562017D01*
X126511988Y-21634488D01*
X126511982Y-21634493D01*
X126409493Y-21736982D01*
X126409488Y-21736988D01*
X126337017Y-21862511D01*
X126337016Y-21862515D01*
X126299500Y-22002525D01*
X126299500Y-35147475D01*
X126329969Y-35261185D01*
X126337017Y-35287488D01*
X126409488Y-35413011D01*
X126409490Y-35413013D01*
X126409491Y-35413015D01*
X126511985Y-35515509D01*
X126511986Y-35515510D01*
X126511988Y-35515511D01*
X126637511Y-35587982D01*
X126637512Y-35587982D01*
X126637515Y-35587984D01*
X126777525Y-35625500D01*
X126922475Y-35625500D01*
X129060596Y-35625500D01*
X129108048Y-35634939D01*
X129132785Y-35645185D01*
X129148603Y-35651737D01*
X129303062Y-35682461D01*
X129303253Y-35682499D01*
X129303256Y-35682500D01*
X129303258Y-35682500D01*
X129460944Y-35682500D01*
X129460945Y-35682499D01*
X129615597Y-35651737D01*
X129642827Y-35640458D01*
X129656152Y-35634939D01*
X129703604Y-35625500D01*
X132708700Y-35625500D01*
X132775739Y-35645185D01*
X132821494Y-35697989D01*
X132832700Y-35749500D01*
X132832700Y-40450500D01*
X132813015Y-40517539D01*
X132760211Y-40563294D01*
X132708700Y-40574500D01*
X131684975Y-40574500D01*
X131540025Y-40574500D01*
X131411493Y-40608940D01*
X131400011Y-40612017D01*
X131274488Y-40684488D01*
X131274482Y-40684493D01*
X131171993Y-40786982D01*
X131171988Y-40786988D01*
X131099517Y-40912511D01*
X131099516Y-40912515D01*
X131062000Y-41052525D01*
X131062000Y-54197475D01*
X131099516Y-54337485D01*
X131099517Y-54337488D01*
X131171988Y-54463011D01*
X131171990Y-54463013D01*
X131171991Y-54463015D01*
X131274485Y-54565509D01*
X131274486Y-54565510D01*
X131274488Y-54565511D01*
X131400011Y-54637982D01*
X131400012Y-54637982D01*
X131400015Y-54637984D01*
X131540025Y-54675500D01*
X131684975Y-54675500D01*
X144025500Y-54675500D01*
X144092539Y-54695185D01*
X144138294Y-54747989D01*
X144149500Y-54799500D01*
X144149500Y-59500500D01*
X144129815Y-59567539D01*
X144077011Y-59613294D01*
X144025500Y-59624500D01*
X141209975Y-59624500D01*
X141065025Y-59624500D01*
X140936493Y-59658940D01*
X140925011Y-59662017D01*
X140799488Y-59734488D01*
X140799482Y-59734493D01*
X140696993Y-59836982D01*
X140696988Y-59836988D01*
X140624517Y-59962511D01*
X140624516Y-59962515D01*
X140587000Y-60102525D01*
X140587000Y-73247475D01*
X140608278Y-73326884D01*
X140624517Y-73387488D01*
X140696988Y-73513011D01*
X140696990Y-73513013D01*
X140696991Y-73513015D01*
X140799485Y-73615509D01*
X140799486Y-73615510D01*
X140799488Y-73615511D01*
X140925011Y-73687982D01*
X140925012Y-73687982D01*
X140925015Y-73687984D01*
X141065025Y-73725500D01*
X141209975Y-73725500D01*
X146517200Y-73725500D01*
X146584239Y-73745185D01*
X146629994Y-73797989D01*
X146641200Y-73849500D01*
X146641200Y-78799034D01*
X146621515Y-78866073D01*
X146620302Y-78867925D01*
X146532309Y-78999614D01*
X146532302Y-78999627D01*
X146471964Y-79145298D01*
X146471961Y-79145310D01*
X146441200Y-79299953D01*
X146441200Y-79457646D01*
X146471961Y-79612289D01*
X146471964Y-79612301D01*
X146532302Y-79757972D01*
X146532309Y-79757985D01*
X146619910Y-79889088D01*
X146619913Y-79889092D01*
X146731407Y-80000586D01*
X146731411Y-80000589D01*
X146862514Y-80088190D01*
X146862527Y-80088197D01*
X147008198Y-80148535D01*
X147008203Y-80148537D01*
X147162853Y-80179299D01*
X147162856Y-80179300D01*
X147162858Y-80179300D01*
X147320544Y-80179300D01*
X147320545Y-80179299D01*
X147475197Y-80148537D01*
X147620879Y-80088194D01*
X147751989Y-80000589D01*
X147863489Y-79889089D01*
X147951094Y-79757979D01*
X148011437Y-79612297D01*
X148042200Y-79457642D01*
X148042200Y-79299958D01*
X148042200Y-79299955D01*
X148016069Y-79168590D01*
X148012874Y-79152525D01*
X173924500Y-79152525D01*
X173924500Y-92297475D01*
X173962016Y-92437485D01*
X173962017Y-92437488D01*
X174034488Y-92563011D01*
X174034490Y-92563013D01*
X174034491Y-92563015D01*
X174136985Y-92665509D01*
X174136986Y-92665510D01*
X174136988Y-92665511D01*
X174262511Y-92737982D01*
X174262512Y-92737982D01*
X174262515Y-92737984D01*
X174402525Y-92775500D01*
X174402528Y-92775500D01*
X187547472Y-92775500D01*
X187547475Y-92775500D01*
X187687485Y-92737984D01*
X187813015Y-92665509D01*
X187915509Y-92563015D01*
X187987984Y-92437485D01*
X188025500Y-92297475D01*
X188025500Y-79152525D01*
X187987984Y-79012515D01*
X187915509Y-78886985D01*
X187813015Y-78784491D01*
X187813013Y-78784490D01*
X187813011Y-78784488D01*
X187687488Y-78712017D01*
X187687489Y-78712017D01*
X187676006Y-78708940D01*
X187547475Y-78674500D01*
X174547475Y-78674500D01*
X174402525Y-78674500D01*
X174273993Y-78708940D01*
X174262511Y-78712017D01*
X174136988Y-78784488D01*
X174136982Y-78784493D01*
X174034493Y-78886982D01*
X174034488Y-78886988D01*
X173962017Y-79012511D01*
X173962016Y-79012515D01*
X173924500Y-79152525D01*
X148012874Y-79152525D01*
X148011437Y-79145303D01*
X147956435Y-79012515D01*
X147951097Y-78999627D01*
X147951090Y-78999614D01*
X147863098Y-78867925D01*
X147842220Y-78801247D01*
X147842200Y-78799034D01*
X147842200Y-73849500D01*
X147861885Y-73782461D01*
X147914689Y-73736706D01*
X147966200Y-73725500D01*
X154209972Y-73725500D01*
X154209975Y-73725500D01*
X154349985Y-73687984D01*
X154475515Y-73615509D01*
X154578009Y-73513015D01*
X154650484Y-73387485D01*
X154688000Y-73247475D01*
X154688000Y-61072758D01*
X154697439Y-61025306D01*
X154743335Y-60914501D01*
X154743337Y-60914497D01*
X154774100Y-60759842D01*
X154774100Y-60602158D01*
X154774100Y-60602155D01*
X154774099Y-60602153D01*
X154743339Y-60447511D01*
X154743336Y-60447501D01*
X154697439Y-60336694D01*
X154688000Y-60289242D01*
X154688000Y-60102527D01*
X154688000Y-60102525D01*
X154650484Y-59962515D01*
X154618108Y-59906439D01*
X154578011Y-59836988D01*
X154578006Y-59836982D01*
X154475517Y-59734493D01*
X154475511Y-59734488D01*
X154349988Y-59662017D01*
X154349989Y-59662017D01*
X154338506Y-59658940D01*
X154209975Y-59624500D01*
X154209972Y-59624500D01*
X145474500Y-59624500D01*
X145407461Y-59604815D01*
X145361706Y-59552011D01*
X145350500Y-59500500D01*
X145350500Y-35603386D01*
X145370185Y-35536347D01*
X145422989Y-35490592D01*
X145492147Y-35480648D01*
X145555703Y-35509673D01*
X145561898Y-35515442D01*
X145561988Y-35515511D01*
X145687511Y-35587982D01*
X145687512Y-35587982D01*
X145687515Y-35587984D01*
X145827525Y-35625500D01*
X145972475Y-35625500D01*
X158826596Y-35625500D01*
X158874048Y-35634939D01*
X158898785Y-35645185D01*
X158914603Y-35651737D01*
X159069062Y-35682461D01*
X159069253Y-35682499D01*
X159069256Y-35682500D01*
X159069258Y-35682500D01*
X159226944Y-35682500D01*
X159226945Y-35682499D01*
X159381597Y-35651737D01*
X159527279Y-35591394D01*
X159658389Y-35503789D01*
X159769889Y-35392289D01*
X159857494Y-35261179D01*
X159917837Y-35115497D01*
X159948600Y-34960842D01*
X159948600Y-34960840D01*
X159948737Y-34960152D01*
X159981121Y-34898241D01*
X159982616Y-34896719D01*
X160076220Y-34803116D01*
X160126339Y-34716304D01*
X160155277Y-34666185D01*
X160196201Y-34513457D01*
X160196201Y-34355343D01*
X160196201Y-34347748D01*
X160196200Y-34347730D01*
X160196200Y-28963665D01*
X160215885Y-28896626D01*
X160217098Y-28894774D01*
X160305090Y-28763085D01*
X160305090Y-28763084D01*
X160305094Y-28763079D01*
X160365437Y-28617397D01*
X160396200Y-28462742D01*
X160396200Y-28305058D01*
X160396200Y-28305055D01*
X160396199Y-28305053D01*
X160392995Y-28288945D01*
X160365437Y-28150403D01*
X160359560Y-28136214D01*
X160305097Y-28004727D01*
X160305090Y-28004714D01*
X160217489Y-27873611D01*
X160217486Y-27873607D01*
X160105992Y-27762113D01*
X160105988Y-27762110D01*
X159974885Y-27674509D01*
X159974872Y-27674502D01*
X159829201Y-27614164D01*
X159829189Y-27614161D01*
X159674545Y-27583400D01*
X159674542Y-27583400D01*
X159574500Y-27583400D01*
X159507461Y-27563715D01*
X159461706Y-27510911D01*
X159450500Y-27459400D01*
X159450500Y-22002527D01*
X159450500Y-22002525D01*
X159412984Y-21862515D01*
X159399495Y-21839152D01*
X159340511Y-21736988D01*
X159340506Y-21736982D01*
X159238017Y-21634493D01*
X159238011Y-21634488D01*
X159112488Y-21562017D01*
X159112489Y-21562017D01*
X159101006Y-21558940D01*
X158972475Y-21524500D01*
X145972475Y-21524500D01*
X145827525Y-21524500D01*
X145698993Y-21558940D01*
X145687511Y-21562017D01*
X145561988Y-21634488D01*
X145555539Y-21639438D01*
X145554719Y-21638369D01*
X145500858Y-21667780D01*
X145431166Y-21662796D01*
X145375233Y-21620924D01*
X145350816Y-21555460D01*
X145350500Y-21546614D01*
X145350500Y-16699500D01*
X145370185Y-16632461D01*
X145422989Y-16586706D01*
X145474500Y-16575500D01*
X149447472Y-16575500D01*
X149447475Y-16575500D01*
X149587485Y-16537984D01*
X149713015Y-16465509D01*
X149815509Y-16363015D01*
X149887984Y-16237485D01*
X149925500Y-16097475D01*
X149925500Y-2952525D01*
X149887984Y-2812515D01*
X149858392Y-2761261D01*
X149815511Y-2686988D01*
X149815506Y-2686982D01*
X149713017Y-2584493D01*
X149713011Y-2584488D01*
X149587488Y-2512017D01*
X149587489Y-2512017D01*
X149576006Y-2508940D01*
X149447475Y-2474500D01*
X136447475Y-2474500D01*
X136302525Y-2474500D01*
X136173993Y-2508940D01*
X136162511Y-2512017D01*
X136036988Y-2584488D01*
X136036982Y-2584493D01*
X135934493Y-2686982D01*
X135934488Y-2686988D01*
X135862017Y-2812511D01*
X135862016Y-2812515D01*
X135824500Y-2952525D01*
X135824500Y-16097475D01*
X135855519Y-16213237D01*
X135862017Y-16237488D01*
X135934488Y-16363011D01*
X135934490Y-16363013D01*
X135934491Y-16363015D01*
X136036985Y-16465509D01*
X136036986Y-16465510D01*
X136036988Y-16465511D01*
X136162511Y-16537982D01*
X136162512Y-16537982D01*
X136162515Y-16537984D01*
X136302525Y-16575500D01*
X136447475Y-16575500D01*
X144025500Y-16575500D01*
X144092539Y-16595185D01*
X144138294Y-16647989D01*
X144149500Y-16699500D01*
X144149500Y-40450500D01*
X144129815Y-40517539D01*
X144077011Y-40563294D01*
X144025500Y-40574500D01*
X136059800Y-40574500D01*
X136051114Y-40571949D01*
X136042153Y-40573238D01*
X136018112Y-40562259D01*
X135992761Y-40554815D01*
X135986833Y-40547974D01*
X135978597Y-40544213D01*
X135964307Y-40521978D01*
X135947006Y-40502011D01*
X135944718Y-40491496D01*
X135940823Y-40485435D01*
X135935800Y-40450500D01*
X135935800Y-40417265D01*
X135955485Y-40350226D01*
X135956698Y-40348374D01*
X135975151Y-40320758D01*
X136044694Y-40216679D01*
X136105037Y-40070997D01*
X136135800Y-39916342D01*
X136135800Y-39758658D01*
X136135800Y-39758655D01*
X136135799Y-39758653D01*
X136119857Y-39678509D01*
X136105037Y-39604003D01*
X136085043Y-39555732D01*
X136044697Y-39458327D01*
X136044690Y-39458314D01*
X135957089Y-39327211D01*
X135957086Y-39327207D01*
X135845592Y-39215713D01*
X135845588Y-39215710D01*
X135714485Y-39128109D01*
X135714472Y-39128102D01*
X135568801Y-39067764D01*
X135568789Y-39067761D01*
X135414145Y-39037000D01*
X135414142Y-39037000D01*
X135256458Y-39037000D01*
X135256455Y-39037000D01*
X135101810Y-39067761D01*
X135101798Y-39067764D01*
X134956127Y-39128102D01*
X134956114Y-39128109D01*
X134825011Y-39215710D01*
X134825007Y-39215713D01*
X134713513Y-39327207D01*
X134713510Y-39327211D01*
X134625909Y-39458314D01*
X134625902Y-39458327D01*
X134565564Y-39603998D01*
X134565561Y-39604010D01*
X134534800Y-39758653D01*
X134534800Y-39916346D01*
X134565561Y-40070989D01*
X134565564Y-40071001D01*
X134625902Y-40216672D01*
X134625909Y-40216685D01*
X134713902Y-40348374D01*
X134719552Y-40366420D01*
X134729777Y-40382330D01*
X134734228Y-40413289D01*
X134734780Y-40415051D01*
X134734800Y-40417265D01*
X134734800Y-40450500D01*
X134715115Y-40517539D01*
X134662311Y-40563294D01*
X134610800Y-40574500D01*
X134157700Y-40574500D01*
X134090661Y-40554815D01*
X134044906Y-40502011D01*
X134033700Y-40450500D01*
X134033700Y-35749500D01*
X134053385Y-35682461D01*
X134106189Y-35636706D01*
X134157700Y-35625500D01*
X139922472Y-35625500D01*
X139922475Y-35625500D01*
X140062485Y-35587984D01*
X140188015Y-35515509D01*
X140290509Y-35413015D01*
X140362984Y-35287485D01*
X140400500Y-35147475D01*
X140400500Y-22002525D01*
X140362984Y-21862515D01*
X140349495Y-21839152D01*
X140290511Y-21736988D01*
X140290506Y-21736982D01*
X140188017Y-21634493D01*
X140188011Y-21634488D01*
X140062488Y-21562017D01*
X140062489Y-21562017D01*
X140051006Y-21558940D01*
X139922475Y-21524500D01*
X139922472Y-21524500D01*
X131049400Y-21524500D01*
X130982361Y-21504815D01*
X130936606Y-21452011D01*
X130925400Y-21400500D01*
X130925400Y-2485160D01*
X130925401Y-2485147D01*
X130925401Y-2317044D01*
X130918646Y-2291835D01*
X130884477Y-2164316D01*
X130883538Y-2162690D01*
X130805424Y-2027390D01*
X130805418Y-2027382D01*
X130216673Y-1438637D01*
X130183188Y-1377314D01*
X130182737Y-1375147D01*
X130180165Y-1362218D01*
X130151837Y-1219803D01*
X130096707Y-1086706D01*
X130091497Y-1074127D01*
X130091490Y-1074114D01*
X130003889Y-943011D01*
X130003886Y-943007D01*
X129892392Y-831513D01*
X129892388Y-831510D01*
X129761285Y-743909D01*
X129761278Y-743905D01*
X129749584Y-739062D01*
X129695180Y-695221D01*
X129673114Y-628927D01*
X129690392Y-561228D01*
X129741529Y-513617D01*
X129797035Y-500500D01*
X154750500Y-500500D01*
X154817539Y-520185D01*
X154863294Y-572989D01*
X154874500Y-624500D01*
X154874500Y-16097475D01*
X154905519Y-16213237D01*
X154912017Y-16237488D01*
X154984488Y-16363011D01*
X154984490Y-16363013D01*
X154984491Y-16363015D01*
X155086985Y-16465509D01*
X155086986Y-16465510D01*
X155086988Y-16465511D01*
X155212511Y-16537982D01*
X155212512Y-16537982D01*
X155212515Y-16537984D01*
X155352525Y-16575500D01*
X155497475Y-16575500D01*
X161645000Y-16575500D01*
X161712039Y-16595185D01*
X161757794Y-16647989D01*
X161769000Y-16699500D01*
X161769000Y-24487234D01*
X161749315Y-24554273D01*
X161748102Y-24556125D01*
X161660109Y-24687814D01*
X161660102Y-24687827D01*
X161599764Y-24833498D01*
X161599761Y-24833510D01*
X161569000Y-24988153D01*
X161569000Y-25145846D01*
X161599761Y-25300489D01*
X161599764Y-25300501D01*
X161660102Y-25446172D01*
X161660109Y-25446185D01*
X161747710Y-25577288D01*
X161747713Y-25577292D01*
X161859207Y-25688786D01*
X161859211Y-25688789D01*
X161990314Y-25776390D01*
X161990327Y-25776397D01*
X162135998Y-25836735D01*
X162136003Y-25836737D01*
X162191007Y-25847678D01*
X162291349Y-25867638D01*
X162353260Y-25900023D01*
X162354839Y-25901574D01*
X163009081Y-26555816D01*
X163042566Y-26617139D01*
X163045400Y-26643497D01*
X163045400Y-40450500D01*
X163025715Y-40517539D01*
X162972911Y-40563294D01*
X162921400Y-40574500D01*
X150734975Y-40574500D01*
X150590025Y-40574500D01*
X150461493Y-40608940D01*
X150450011Y-40612017D01*
X150324488Y-40684488D01*
X150324482Y-40684493D01*
X150221993Y-40786982D01*
X150221988Y-40786988D01*
X150149517Y-40912511D01*
X150149516Y-40912515D01*
X150112000Y-41052525D01*
X150112000Y-54197475D01*
X150149516Y-54337485D01*
X150149517Y-54337488D01*
X150221988Y-54463011D01*
X150221990Y-54463013D01*
X150221991Y-54463015D01*
X150324485Y-54565509D01*
X150324486Y-54565510D01*
X150324488Y-54565511D01*
X150450011Y-54637982D01*
X150450012Y-54637982D01*
X150450015Y-54637984D01*
X150590025Y-54675500D01*
X150734975Y-54675500D01*
X162921400Y-54675500D01*
X162988439Y-54695185D01*
X163034194Y-54747989D01*
X163045400Y-54799500D01*
X163045400Y-57000500D01*
X163025715Y-57067539D01*
X162972911Y-57113294D01*
X162921400Y-57124500D01*
X160259975Y-57124500D01*
X160115025Y-57124500D01*
X159986493Y-57158940D01*
X159975011Y-57162017D01*
X159849488Y-57234488D01*
X159849482Y-57234493D01*
X159746993Y-57336982D01*
X159746988Y-57336988D01*
X159674517Y-57462511D01*
X159674516Y-57462515D01*
X159637000Y-57602525D01*
X159637000Y-73247475D01*
X159658278Y-73326884D01*
X159674517Y-73387488D01*
X159746988Y-73513011D01*
X159746990Y-73513013D01*
X159746991Y-73513015D01*
X159849485Y-73615509D01*
X159849486Y-73615510D01*
X159849488Y-73615511D01*
X159975011Y-73687982D01*
X159975012Y-73687982D01*
X159975015Y-73687984D01*
X160115025Y-73725500D01*
X160115028Y-73725500D01*
X175759972Y-73725500D01*
X175759975Y-73725500D01*
X175899985Y-73687984D01*
X176025515Y-73615509D01*
X176128009Y-73513015D01*
X176200484Y-73387485D01*
X176238000Y-73247475D01*
X176238000Y-57602525D01*
X176200484Y-57462515D01*
X176128009Y-57336985D01*
X176025515Y-57234491D01*
X176025513Y-57234490D01*
X176025511Y-57234488D01*
X175899988Y-57162017D01*
X175899989Y-57162017D01*
X175888506Y-57158940D01*
X175759975Y-57124500D01*
X175759972Y-57124500D01*
X174210500Y-57124500D01*
X174143461Y-57104815D01*
X174097706Y-57052011D01*
X174086500Y-57000500D01*
X174086500Y-54799500D01*
X174106185Y-54732461D01*
X174158989Y-54686706D01*
X174210500Y-54675500D01*
X182236400Y-54675500D01*
X182303439Y-54695185D01*
X182349194Y-54747989D01*
X182360400Y-54799500D01*
X182360400Y-59500500D01*
X182340715Y-59567539D01*
X182287911Y-59613294D01*
X182236400Y-59624500D01*
X179309975Y-59624500D01*
X179165025Y-59624500D01*
X179036493Y-59658940D01*
X179025011Y-59662017D01*
X178899488Y-59734488D01*
X178899482Y-59734493D01*
X178796993Y-59836982D01*
X178796988Y-59836988D01*
X178724517Y-59962511D01*
X178724516Y-59962515D01*
X178687000Y-60102525D01*
X178687000Y-73247475D01*
X178708278Y-73326884D01*
X178724517Y-73387488D01*
X178796988Y-73513011D01*
X178796990Y-73513013D01*
X178796991Y-73513015D01*
X178899485Y-73615509D01*
X178899486Y-73615510D01*
X178899488Y-73615511D01*
X179025011Y-73687982D01*
X179025012Y-73687982D01*
X179025015Y-73687984D01*
X179165025Y-73725500D01*
X179309975Y-73725500D01*
X190556003Y-73725500D01*
X190623042Y-73745185D01*
X190643684Y-73761819D01*
X195344684Y-78462819D01*
X195378169Y-78524142D01*
X195373185Y-78593834D01*
X195331313Y-78649767D01*
X195265849Y-78674184D01*
X195257003Y-78674500D01*
X193597475Y-78674500D01*
X193452525Y-78674500D01*
X193323993Y-78708940D01*
X193312511Y-78712017D01*
X193186988Y-78784488D01*
X193186982Y-78784493D01*
X193084493Y-78886982D01*
X193084488Y-78886988D01*
X193012017Y-79012511D01*
X193012016Y-79012515D01*
X192974500Y-79152525D01*
X192974500Y-92297475D01*
X193012016Y-92437485D01*
X193012017Y-92437488D01*
X193084488Y-92563011D01*
X193084490Y-92563013D01*
X193084491Y-92563015D01*
X193186985Y-92665509D01*
X193186986Y-92665510D01*
X193186988Y-92665511D01*
X193312511Y-92737982D01*
X193312512Y-92737982D01*
X193312515Y-92737984D01*
X193452525Y-92775500D01*
X193452528Y-92775500D01*
X206597472Y-92775500D01*
X206597475Y-92775500D01*
X206737485Y-92737984D01*
X206863015Y-92665509D01*
X206965509Y-92563015D01*
X207037984Y-92437485D01*
X207075500Y-92297475D01*
X207075500Y-85233728D01*
X207095185Y-85166689D01*
X207147989Y-85120934D01*
X207217147Y-85110990D01*
X207223692Y-85112111D01*
X207282455Y-85123800D01*
X207282458Y-85123800D01*
X207440144Y-85123800D01*
X207440145Y-85123799D01*
X207594797Y-85093037D01*
X207740479Y-85032694D01*
X207871589Y-84945089D01*
X207983089Y-84833589D01*
X208070694Y-84702479D01*
X208131037Y-84556797D01*
X208161800Y-84402142D01*
X208161800Y-84244458D01*
X208161800Y-84244455D01*
X208161799Y-84244453D01*
X208131038Y-84089810D01*
X208131037Y-84089803D01*
X208128059Y-84082614D01*
X208070697Y-83944127D01*
X208070690Y-83944114D01*
X207983089Y-83813011D01*
X207983086Y-83813007D01*
X207871592Y-83701513D01*
X207871588Y-83701510D01*
X207740485Y-83613909D01*
X207740472Y-83613902D01*
X207594801Y-83553564D01*
X207594791Y-83553561D01*
X207439449Y-83522661D01*
X207377538Y-83490276D01*
X207375960Y-83488725D01*
X207111819Y-83224584D01*
X207078334Y-83163261D01*
X207075500Y-83136903D01*
X207075500Y-79152527D01*
X207075500Y-79152525D01*
X212024500Y-79152525D01*
X212024500Y-92297475D01*
X212062016Y-92437485D01*
X212062017Y-92437488D01*
X212134488Y-92563011D01*
X212134490Y-92563013D01*
X212134491Y-92563015D01*
X212236985Y-92665509D01*
X212236986Y-92665510D01*
X212236988Y-92665511D01*
X212362511Y-92737982D01*
X212362512Y-92737982D01*
X212362515Y-92737984D01*
X212502525Y-92775500D01*
X212502528Y-92775500D01*
X225647472Y-92775500D01*
X225647475Y-92775500D01*
X225787485Y-92737984D01*
X225913015Y-92665509D01*
X226015509Y-92563015D01*
X226087984Y-92437485D01*
X226125500Y-92297475D01*
X226125500Y-79152525D01*
X226087984Y-79012515D01*
X226015509Y-78886985D01*
X225913015Y-78784491D01*
X225913013Y-78784490D01*
X225913011Y-78784488D01*
X225787488Y-78712017D01*
X225787489Y-78712017D01*
X225776006Y-78708940D01*
X225647475Y-78674500D01*
X212647475Y-78674500D01*
X212502525Y-78674500D01*
X212373993Y-78708940D01*
X212362511Y-78712017D01*
X212236988Y-78784488D01*
X212236982Y-78784493D01*
X212134493Y-78886982D01*
X212134488Y-78886988D01*
X212062017Y-79012511D01*
X212062016Y-79012515D01*
X212024500Y-79152525D01*
X207075500Y-79152525D01*
X207037984Y-79012515D01*
X206965509Y-78886985D01*
X206863015Y-78784491D01*
X206863013Y-78784490D01*
X206863011Y-78784488D01*
X206737488Y-78712017D01*
X206737489Y-78712017D01*
X206726006Y-78708940D01*
X206597475Y-78674500D01*
X206597472Y-78674500D01*
X203643500Y-78674500D01*
X203576461Y-78654815D01*
X203530706Y-78602011D01*
X203519500Y-78550500D01*
X203519500Y-73849500D01*
X203539185Y-73782461D01*
X203591989Y-73736706D01*
X203643500Y-73725500D01*
X211359972Y-73725500D01*
X211359975Y-73725500D01*
X211499985Y-73687984D01*
X211625515Y-73615509D01*
X211728009Y-73513015D01*
X211800484Y-73387485D01*
X211838000Y-73247475D01*
X211838000Y-70900203D01*
X211857685Y-70833164D01*
X211910489Y-70787409D01*
X211979647Y-70777465D01*
X212043203Y-70806490D01*
X212065102Y-70831312D01*
X212105110Y-70891188D01*
X212105113Y-70891192D01*
X212216607Y-71002686D01*
X212216611Y-71002689D01*
X212347714Y-71090290D01*
X212347727Y-71090297D01*
X212428653Y-71123817D01*
X212493403Y-71150637D01*
X212648053Y-71181399D01*
X212648056Y-71181400D01*
X212648058Y-71181400D01*
X212805744Y-71181400D01*
X212805745Y-71181399D01*
X212960397Y-71150637D01*
X213106079Y-71090294D01*
X213237189Y-71002689D01*
X213348689Y-70891189D01*
X213436294Y-70760079D01*
X213496637Y-70614397D01*
X213527400Y-70459742D01*
X213527400Y-70302058D01*
X213527400Y-70302055D01*
X213527399Y-70302053D01*
X213496638Y-70147410D01*
X213496637Y-70147403D01*
X213469128Y-70080989D01*
X213436297Y-70001727D01*
X213436290Y-70001714D01*
X213348689Y-69870611D01*
X213348686Y-69870607D01*
X213237192Y-69759113D01*
X213237188Y-69759110D01*
X213106085Y-69671509D01*
X213106072Y-69671502D01*
X212960401Y-69611164D01*
X212960391Y-69611161D01*
X212805049Y-69580261D01*
X212743138Y-69547876D01*
X212741560Y-69546325D01*
X211951319Y-68756084D01*
X211917834Y-68694761D01*
X211915000Y-68668403D01*
X211915000Y-63392341D01*
X211934685Y-63325302D01*
X211987489Y-63279547D01*
X212056647Y-63269603D01*
X212120203Y-63298628D01*
X212126681Y-63304660D01*
X212242407Y-63420386D01*
X212242411Y-63420389D01*
X212373514Y-63507990D01*
X212373527Y-63507997D01*
X212514640Y-63566447D01*
X212519203Y-63568337D01*
X212665865Y-63597510D01*
X212673853Y-63599099D01*
X212673856Y-63599100D01*
X212673858Y-63599100D01*
X212831544Y-63599100D01*
X212831545Y-63599099D01*
X212986197Y-63568337D01*
X213113282Y-63515697D01*
X213131872Y-63507997D01*
X213131872Y-63507996D01*
X213131879Y-63507994D01*
X213262989Y-63420389D01*
X213374489Y-63308889D01*
X213462094Y-63177779D01*
X213522437Y-63032097D01*
X213553200Y-62877442D01*
X213553200Y-62719758D01*
X213553200Y-62719755D01*
X213553199Y-62719753D01*
X213532022Y-62613289D01*
X213522437Y-62565103D01*
X213498702Y-62507801D01*
X213462097Y-62419427D01*
X213462090Y-62419414D01*
X213374098Y-62287725D01*
X213353220Y-62221047D01*
X213353200Y-62218834D01*
X213353200Y-54799500D01*
X213372885Y-54732461D01*
X213425689Y-54686706D01*
X213477200Y-54675500D01*
X216907200Y-54675500D01*
X216974239Y-54695185D01*
X217019994Y-54747989D01*
X217031200Y-54799500D01*
X217031200Y-59651414D01*
X217011515Y-59718453D01*
X216994881Y-59739095D01*
X216896993Y-59836982D01*
X216896988Y-59836988D01*
X216824517Y-59962511D01*
X216824516Y-59962515D01*
X216787000Y-60102525D01*
X216787000Y-73247475D01*
X216808278Y-73326884D01*
X216824517Y-73387488D01*
X216896988Y-73513011D01*
X216896990Y-73513013D01*
X216896991Y-73513015D01*
X216999485Y-73615509D01*
X216999486Y-73615510D01*
X216999488Y-73615511D01*
X217125011Y-73687982D01*
X217125012Y-73687982D01*
X217125015Y-73687984D01*
X217265025Y-73725500D01*
X217409975Y-73725500D01*
X223443603Y-73725500D01*
X223510642Y-73745185D01*
X223531284Y-73761819D01*
X231038181Y-81268716D01*
X231071666Y-81330039D01*
X231074500Y-81356397D01*
X231074500Y-92297475D01*
X231112016Y-92437485D01*
X231112017Y-92437488D01*
X231184488Y-92563011D01*
X231184490Y-92563013D01*
X231184491Y-92563015D01*
X231286985Y-92665509D01*
X231286986Y-92665510D01*
X231286988Y-92665511D01*
X231412511Y-92737982D01*
X231412512Y-92737982D01*
X231412515Y-92737984D01*
X231552525Y-92775500D01*
X231552528Y-92775500D01*
X244697472Y-92775500D01*
X244697475Y-92775500D01*
X244837485Y-92737984D01*
X244963015Y-92665509D01*
X245065509Y-92563015D01*
X245137984Y-92437485D01*
X245175500Y-92297475D01*
X245175500Y-79152525D01*
X245137984Y-79012515D01*
X245065509Y-78886985D01*
X244963015Y-78784491D01*
X244963013Y-78784490D01*
X244963011Y-78784488D01*
X244837488Y-78712017D01*
X244837489Y-78712017D01*
X244826006Y-78708940D01*
X244697475Y-78674500D01*
X244697472Y-78674500D01*
X236955842Y-78674500D01*
X236908390Y-78665061D01*
X236773201Y-78609064D01*
X236773191Y-78609061D01*
X236617849Y-78578161D01*
X236555938Y-78545776D01*
X236554360Y-78544225D01*
X231337019Y-73326884D01*
X231303534Y-73265561D01*
X231300700Y-73239203D01*
X231300700Y-54799500D01*
X231320385Y-54732461D01*
X231373189Y-54686706D01*
X231424700Y-54675500D01*
X239934972Y-54675500D01*
X239934975Y-54675500D01*
X240074985Y-54637984D01*
X240200515Y-54565509D01*
X240303009Y-54463015D01*
X240375484Y-54337485D01*
X240413000Y-54197475D01*
X240413000Y-41052525D01*
X240375484Y-40912515D01*
X240373967Y-40909888D01*
X240303011Y-40786988D01*
X240303006Y-40786982D01*
X240200517Y-40684493D01*
X240200511Y-40684488D01*
X240074988Y-40612017D01*
X240074989Y-40612017D01*
X240063506Y-40608940D01*
X239934975Y-40574500D01*
X226934975Y-40574500D01*
X226790025Y-40574500D01*
X226661493Y-40608940D01*
X226650011Y-40612017D01*
X226524488Y-40684488D01*
X226524482Y-40684493D01*
X226421993Y-40786982D01*
X226421988Y-40786988D01*
X226349517Y-40912511D01*
X226349516Y-40912515D01*
X226312000Y-41052525D01*
X226312000Y-54197475D01*
X226349516Y-54337485D01*
X226349517Y-54337488D01*
X226421988Y-54463011D01*
X226421990Y-54463013D01*
X226421991Y-54463015D01*
X226524485Y-54565509D01*
X226524486Y-54565510D01*
X226524488Y-54565511D01*
X226650011Y-54637982D01*
X226650012Y-54637982D01*
X226650015Y-54637984D01*
X226790025Y-54675500D01*
X226934975Y-54675500D01*
X229975700Y-54675500D01*
X230042739Y-54695185D01*
X230088494Y-54747989D01*
X230099700Y-54799500D01*
X230099700Y-59500500D01*
X230080015Y-59567539D01*
X230027211Y-59613294D01*
X229975700Y-59624500D01*
X218356200Y-59624500D01*
X218289161Y-59604815D01*
X218243406Y-59552011D01*
X218232200Y-59500500D01*
X218232200Y-54799500D01*
X218251885Y-54732461D01*
X218304689Y-54686706D01*
X218356200Y-54675500D01*
X220884972Y-54675500D01*
X220884975Y-54675500D01*
X221024985Y-54637984D01*
X221150515Y-54565509D01*
X221253009Y-54463015D01*
X221325484Y-54337485D01*
X221363000Y-54197475D01*
X221363000Y-41052525D01*
X221325484Y-40912515D01*
X221323967Y-40909888D01*
X221253011Y-40786988D01*
X221253006Y-40786982D01*
X221150517Y-40684493D01*
X221150511Y-40684488D01*
X221024988Y-40612017D01*
X221024989Y-40612017D01*
X221013506Y-40608940D01*
X220884975Y-40574500D01*
X220884972Y-40574500D01*
X218356200Y-40574500D01*
X218289161Y-40554815D01*
X218243406Y-40502011D01*
X218232200Y-40450500D01*
X218232200Y-35749500D01*
X218251885Y-35682461D01*
X218304689Y-35636706D01*
X218356200Y-35625500D01*
X218622472Y-35625500D01*
X218622475Y-35625500D01*
X218762485Y-35587984D01*
X218888015Y-35515509D01*
X218990509Y-35413015D01*
X219062984Y-35287485D01*
X219100500Y-35147475D01*
X219100500Y-23835529D01*
X219120185Y-23768490D01*
X219155609Y-23732427D01*
X219190389Y-23709189D01*
X219301889Y-23597689D01*
X219389494Y-23466579D01*
X219449837Y-23320897D01*
X219480600Y-23166242D01*
X219480600Y-23008558D01*
X219480600Y-23008555D01*
X219480599Y-23008553D01*
X219470622Y-22958398D01*
X219449837Y-22853903D01*
X219433515Y-22814497D01*
X219389497Y-22708227D01*
X219389490Y-22708214D01*
X219301889Y-22577111D01*
X219301886Y-22577107D01*
X219190392Y-22465613D01*
X219190388Y-22465610D01*
X219155609Y-22442371D01*
X219110804Y-22388758D01*
X219100500Y-22339269D01*
X219100500Y-22002525D01*
X221549500Y-22002525D01*
X221549500Y-35147475D01*
X221579969Y-35261185D01*
X221587017Y-35287488D01*
X221659488Y-35413011D01*
X221659490Y-35413013D01*
X221659491Y-35413015D01*
X221761985Y-35515509D01*
X221761986Y-35515510D01*
X221761988Y-35515511D01*
X221887511Y-35587982D01*
X221887512Y-35587982D01*
X221887515Y-35587984D01*
X222027525Y-35625500D01*
X222027528Y-35625500D01*
X235172472Y-35625500D01*
X235172475Y-35625500D01*
X235312485Y-35587984D01*
X235438015Y-35515509D01*
X235540509Y-35413015D01*
X235612984Y-35287485D01*
X235650500Y-35147475D01*
X235650500Y-22002525D01*
X235612984Y-21862515D01*
X235599495Y-21839152D01*
X235540511Y-21736988D01*
X235540506Y-21736982D01*
X235438017Y-21634493D01*
X235438011Y-21634488D01*
X235312488Y-21562017D01*
X235312489Y-21562017D01*
X235301006Y-21558940D01*
X235172475Y-21524500D01*
X222172475Y-21524500D01*
X222027525Y-21524500D01*
X221898993Y-21558940D01*
X221887511Y-21562017D01*
X221761988Y-21634488D01*
X221761982Y-21634493D01*
X221659493Y-21736982D01*
X221659488Y-21736988D01*
X221587017Y-21862511D01*
X221587016Y-21862515D01*
X221549500Y-22002525D01*
X219100500Y-22002525D01*
X219100500Y-19502527D01*
X219100500Y-19502525D01*
X219062984Y-19362515D01*
X219050231Y-19340427D01*
X218990511Y-19236988D01*
X218990506Y-19236982D01*
X218888017Y-19134493D01*
X218888011Y-19134488D01*
X218762488Y-19062017D01*
X218762489Y-19062017D01*
X218751006Y-19058940D01*
X218622475Y-19024500D01*
X218622472Y-19024500D01*
X218356200Y-19024500D01*
X218289161Y-19004815D01*
X218243406Y-18952011D01*
X218232200Y-18900500D01*
X218232200Y-16699500D01*
X218251885Y-16632461D01*
X218304689Y-16586706D01*
X218356200Y-16575500D01*
X225647472Y-16575500D01*
X225647475Y-16575500D01*
X225787485Y-16537984D01*
X225913015Y-16465509D01*
X226015509Y-16363015D01*
X226087984Y-16237485D01*
X226125500Y-16097475D01*
X226125500Y-2952525D01*
X231074500Y-2952525D01*
X231074500Y-16097475D01*
X231105519Y-16213237D01*
X231112017Y-16237488D01*
X231184488Y-16363011D01*
X231184490Y-16363013D01*
X231184491Y-16363015D01*
X231286985Y-16465509D01*
X231286986Y-16465510D01*
X231286988Y-16465511D01*
X231412511Y-16537982D01*
X231412512Y-16537982D01*
X231412515Y-16537984D01*
X231552525Y-16575500D01*
X231697475Y-16575500D01*
X243472603Y-16575500D01*
X243539642Y-16595185D01*
X243560284Y-16611819D01*
X244518881Y-17570416D01*
X244552366Y-17631739D01*
X244555200Y-17658097D01*
X244555200Y-21400500D01*
X244535515Y-21467539D01*
X244482711Y-21513294D01*
X244431200Y-21524500D01*
X241222475Y-21524500D01*
X241077525Y-21524500D01*
X240948993Y-21558940D01*
X240937511Y-21562017D01*
X240811988Y-21634488D01*
X240811982Y-21634493D01*
X240709493Y-21736982D01*
X240709488Y-21736988D01*
X240637017Y-21862511D01*
X240637016Y-21862515D01*
X240599500Y-22002525D01*
X240599500Y-35147475D01*
X240629969Y-35261185D01*
X240637017Y-35287488D01*
X240709488Y-35413011D01*
X240709490Y-35413013D01*
X240709491Y-35413015D01*
X240811985Y-35515509D01*
X240811986Y-35515510D01*
X240811988Y-35515511D01*
X240937511Y-35587982D01*
X240937512Y-35587982D01*
X240937515Y-35587984D01*
X241077525Y-35625500D01*
X241222475Y-35625500D01*
X244431200Y-35625500D01*
X244498239Y-35645185D01*
X244543994Y-35697989D01*
X244555200Y-35749500D01*
X244555200Y-36495134D01*
X244535515Y-36562173D01*
X244534302Y-36564025D01*
X244446309Y-36695714D01*
X244446302Y-36695727D01*
X244385964Y-36841398D01*
X244385961Y-36841410D01*
X244355200Y-36996053D01*
X244355200Y-37153746D01*
X244385961Y-37308389D01*
X244385964Y-37308401D01*
X244446302Y-37454072D01*
X244446309Y-37454085D01*
X244533910Y-37585188D01*
X244533913Y-37585192D01*
X244645407Y-37696686D01*
X244645411Y-37696689D01*
X244776514Y-37784290D01*
X244776527Y-37784297D01*
X244821756Y-37803031D01*
X244922203Y-37844637D01*
X244986847Y-37857495D01*
X245077549Y-37875538D01*
X245139460Y-37907923D01*
X245141039Y-37909474D01*
X245571481Y-38339916D01*
X245604966Y-38401239D01*
X245607800Y-38427597D01*
X245607800Y-59500500D01*
X245588115Y-59567539D01*
X245535311Y-59613294D01*
X245483800Y-59624500D01*
X243603775Y-59624500D01*
X243458825Y-59624500D01*
X243330293Y-59658940D01*
X243318811Y-59662017D01*
X243193288Y-59734488D01*
X243193282Y-59734493D01*
X243090793Y-59836982D01*
X243090788Y-59836988D01*
X243018317Y-59962511D01*
X243018316Y-59962515D01*
X242980800Y-60102525D01*
X242980800Y-73247475D01*
X243002078Y-73326884D01*
X243018317Y-73387488D01*
X243090788Y-73513011D01*
X243090790Y-73513013D01*
X243090791Y-73513015D01*
X243193285Y-73615509D01*
X243193286Y-73615510D01*
X243193288Y-73615511D01*
X243318811Y-73687982D01*
X243318812Y-73687982D01*
X243318815Y-73687984D01*
X243458825Y-73725500D01*
X243603775Y-73725500D01*
X256421500Y-73725500D01*
X256488539Y-73745185D01*
X256534294Y-73797989D01*
X256545500Y-73849500D01*
X256545500Y-78550500D01*
X256525815Y-78617539D01*
X256473011Y-78663294D01*
X256421500Y-78674500D01*
X250747475Y-78674500D01*
X250602525Y-78674500D01*
X250473993Y-78708940D01*
X250462511Y-78712017D01*
X250336988Y-78784488D01*
X250336982Y-78784493D01*
X250234493Y-78886982D01*
X250234488Y-78886988D01*
X250162017Y-79012511D01*
X250162016Y-79012515D01*
X250124500Y-79152525D01*
X250124500Y-92297475D01*
X250162016Y-92437485D01*
X250162017Y-92437488D01*
X250234488Y-92563011D01*
X250234490Y-92563013D01*
X250234491Y-92563015D01*
X250336985Y-92665509D01*
X250336986Y-92665510D01*
X250336988Y-92665511D01*
X250462511Y-92737982D01*
X250462512Y-92737982D01*
X250462515Y-92737984D01*
X250602525Y-92775500D01*
X250602528Y-92775500D01*
X263747472Y-92775500D01*
X263747475Y-92775500D01*
X263887485Y-92737984D01*
X264013015Y-92665509D01*
X264115509Y-92563015D01*
X264187984Y-92437485D01*
X264225500Y-92297475D01*
X264225500Y-79152525D01*
X264187984Y-79012515D01*
X264115509Y-78886985D01*
X264013015Y-78784491D01*
X264013013Y-78784490D01*
X264013011Y-78784488D01*
X263887488Y-78712017D01*
X263887489Y-78712017D01*
X263876006Y-78708940D01*
X263747475Y-78674500D01*
X263747472Y-78674500D01*
X257870500Y-78674500D01*
X257803461Y-78654815D01*
X257757706Y-78602011D01*
X257746500Y-78550500D01*
X257746500Y-67963760D01*
X257766185Y-67896721D01*
X257767398Y-67894869D01*
X257856990Y-67760785D01*
X257856990Y-67760784D01*
X257856994Y-67760779D01*
X257917337Y-67615097D01*
X257948100Y-67460442D01*
X257948100Y-67302758D01*
X257948100Y-67302755D01*
X257948099Y-67302753D01*
X257933053Y-67227111D01*
X257917337Y-67148103D01*
X257896355Y-67097447D01*
X257856997Y-67002427D01*
X257856990Y-67002414D01*
X257768998Y-66870725D01*
X257748120Y-66804047D01*
X257748100Y-66801834D01*
X257748100Y-54799500D01*
X257767785Y-54732461D01*
X257820589Y-54686706D01*
X257872100Y-54675500D01*
X257891275Y-54675500D01*
X265581200Y-54675500D01*
X265648239Y-54695185D01*
X265693994Y-54747989D01*
X265705200Y-54799500D01*
X265705200Y-62226534D01*
X265685515Y-62293573D01*
X265684302Y-62295425D01*
X265596309Y-62427114D01*
X265596302Y-62427127D01*
X265535964Y-62572798D01*
X265535961Y-62572810D01*
X265505200Y-62727453D01*
X265505200Y-62885146D01*
X265535961Y-63039789D01*
X265535964Y-63039801D01*
X265596302Y-63185472D01*
X265596309Y-63185485D01*
X265683910Y-63316588D01*
X265683913Y-63316592D01*
X265795407Y-63428086D01*
X265795411Y-63428089D01*
X265926514Y-63515690D01*
X265926527Y-63515697D01*
X266072198Y-63576035D01*
X266072203Y-63576037D01*
X266226853Y-63606799D01*
X266226856Y-63606800D01*
X266226858Y-63606800D01*
X266384544Y-63606800D01*
X266384545Y-63606799D01*
X266539197Y-63576037D01*
X266684879Y-63515694D01*
X266815989Y-63428089D01*
X266927489Y-63316589D01*
X267015094Y-63185479D01*
X267075437Y-63039797D01*
X267106200Y-62885142D01*
X267106200Y-62727458D01*
X267106200Y-62727455D01*
X267106199Y-62727453D01*
X267105669Y-62724789D01*
X267075437Y-62572803D01*
X267075435Y-62572798D01*
X267015097Y-62427127D01*
X267015090Y-62427114D01*
X266927098Y-62295425D01*
X266906220Y-62228747D01*
X266906200Y-62226534D01*
X266906200Y-54799500D01*
X266925885Y-54732461D01*
X266978689Y-54686706D01*
X267030200Y-54675500D01*
X271113000Y-54675500D01*
X271180039Y-54695185D01*
X271225794Y-54747989D01*
X271237000Y-54799500D01*
X271237000Y-59500500D01*
X271217315Y-59567539D01*
X271164511Y-59613294D01*
X271113000Y-59624500D01*
X269797475Y-59624500D01*
X269652525Y-59624500D01*
X269523993Y-59658940D01*
X269512511Y-59662017D01*
X269386988Y-59734488D01*
X269386982Y-59734493D01*
X269284493Y-59836982D01*
X269284488Y-59836988D01*
X269212017Y-59962511D01*
X269212016Y-59962515D01*
X269174500Y-60102525D01*
X269174500Y-73247475D01*
X269195778Y-73326884D01*
X269212017Y-73387488D01*
X269284488Y-73513011D01*
X269284490Y-73513013D01*
X269284491Y-73513015D01*
X269386985Y-73615509D01*
X269386986Y-73615510D01*
X269386988Y-73615511D01*
X269512511Y-73687982D01*
X269512512Y-73687982D01*
X269512515Y-73687984D01*
X269652525Y-73725500D01*
X269797475Y-73725500D01*
X274087589Y-73725500D01*
X274095206Y-73727736D01*
X274103042Y-73726467D01*
X274128251Y-73737440D01*
X274154628Y-73745185D01*
X274161457Y-73751893D01*
X274167106Y-73754352D01*
X274190691Y-73780609D01*
X274264502Y-73891074D01*
X274285380Y-73957751D01*
X274285400Y-73959965D01*
X274285400Y-78550500D01*
X274265715Y-78617539D01*
X274212911Y-78663294D01*
X274161400Y-78674500D01*
X269797475Y-78674500D01*
X269652525Y-78674500D01*
X269523993Y-78708940D01*
X269512511Y-78712017D01*
X269386988Y-78784488D01*
X269386982Y-78784493D01*
X269284493Y-78886982D01*
X269284488Y-78886988D01*
X269212017Y-79012511D01*
X269212016Y-79012515D01*
X269174500Y-79152525D01*
X269174500Y-92297475D01*
X269212016Y-92437485D01*
X269212017Y-92437488D01*
X269284488Y-92563011D01*
X269284490Y-92563013D01*
X269284491Y-92563015D01*
X269386985Y-92665509D01*
X269386986Y-92665510D01*
X269386988Y-92665511D01*
X269512511Y-92737982D01*
X269512512Y-92737982D01*
X269512515Y-92737984D01*
X269652525Y-92775500D01*
X269652528Y-92775500D01*
X282797472Y-92775500D01*
X282797475Y-92775500D01*
X282937485Y-92737984D01*
X283063015Y-92665509D01*
X283165509Y-92563015D01*
X283237984Y-92437485D01*
X283275500Y-92297475D01*
X283275500Y-79152525D01*
X288224500Y-79152525D01*
X288224500Y-92297475D01*
X288262016Y-92437485D01*
X288262017Y-92437488D01*
X288334488Y-92563011D01*
X288334490Y-92563013D01*
X288334491Y-92563015D01*
X288436985Y-92665509D01*
X288436986Y-92665510D01*
X288436988Y-92665511D01*
X288562511Y-92737982D01*
X288562512Y-92737982D01*
X288562515Y-92737984D01*
X288702525Y-92775500D01*
X288702528Y-92775500D01*
X301847472Y-92775500D01*
X301847475Y-92775500D01*
X301987485Y-92737984D01*
X302113015Y-92665509D01*
X302215509Y-92563015D01*
X302287984Y-92437485D01*
X302325500Y-92297475D01*
X302325500Y-82299253D01*
X304201000Y-82299253D01*
X304201000Y-82456946D01*
X304231761Y-82611589D01*
X304231764Y-82611601D01*
X304292102Y-82757272D01*
X304292109Y-82757285D01*
X304379710Y-82888388D01*
X304379713Y-82888392D01*
X304491207Y-82999886D01*
X304491211Y-82999889D01*
X304622314Y-83087490D01*
X304622327Y-83087497D01*
X304767998Y-83147835D01*
X304768003Y-83147837D01*
X304922653Y-83178599D01*
X304922656Y-83178600D01*
X304922658Y-83178600D01*
X305080344Y-83178600D01*
X305080345Y-83178599D01*
X305234997Y-83147837D01*
X305380679Y-83087494D01*
X305511789Y-82999889D01*
X305623289Y-82888389D01*
X305710894Y-82757279D01*
X305771237Y-82611597D01*
X305791271Y-82510882D01*
X305802138Y-82456250D01*
X305834523Y-82394339D01*
X305836019Y-82392815D01*
X307552713Y-80676121D01*
X307552716Y-80676120D01*
X307664520Y-80564316D01*
X307714639Y-80477504D01*
X307743577Y-80427385D01*
X307784500Y-80274657D01*
X307784500Y-80116543D01*
X307784500Y-68761165D01*
X307804185Y-68694126D01*
X307805398Y-68692274D01*
X307893390Y-68560585D01*
X307893390Y-68560584D01*
X307893394Y-68560579D01*
X307953737Y-68414897D01*
X307984500Y-68260242D01*
X307984500Y-68102558D01*
X307984500Y-68102555D01*
X307984499Y-68102553D01*
X307974904Y-68054316D01*
X307953737Y-67947903D01*
X307931770Y-67894869D01*
X307893397Y-67802227D01*
X307893390Y-67802214D01*
X307805789Y-67671111D01*
X307805786Y-67671107D01*
X307694292Y-67559613D01*
X307694288Y-67559610D01*
X307563185Y-67472009D01*
X307563172Y-67472002D01*
X307417501Y-67411664D01*
X307417489Y-67411661D01*
X307262845Y-67380900D01*
X307262842Y-67380900D01*
X307105158Y-67380900D01*
X307105155Y-67380900D01*
X306950510Y-67411661D01*
X306950498Y-67411664D01*
X306804827Y-67472002D01*
X306804814Y-67472009D01*
X306673711Y-67559610D01*
X306673707Y-67559613D01*
X306562213Y-67671107D01*
X306562210Y-67671111D01*
X306474609Y-67802214D01*
X306474602Y-67802227D01*
X306414264Y-67947898D01*
X306414261Y-67947910D01*
X306383500Y-68102553D01*
X306383500Y-68260246D01*
X306414261Y-68414889D01*
X306414264Y-68414901D01*
X306474602Y-68560572D01*
X306474609Y-68560585D01*
X306562602Y-68692274D01*
X306583480Y-68758951D01*
X306583500Y-68761165D01*
X306583500Y-79895503D01*
X306563815Y-79962542D01*
X306547181Y-79983184D01*
X304986839Y-81543525D01*
X304925516Y-81577010D01*
X304923350Y-81577461D01*
X304768008Y-81608361D01*
X304767998Y-81608364D01*
X304622327Y-81668702D01*
X304622314Y-81668709D01*
X304491211Y-81756310D01*
X304491207Y-81756313D01*
X304379713Y-81867807D01*
X304379710Y-81867811D01*
X304292109Y-81998914D01*
X304292102Y-81998927D01*
X304231764Y-82144598D01*
X304231761Y-82144610D01*
X304201000Y-82299253D01*
X302325500Y-82299253D01*
X302325500Y-79152525D01*
X302287984Y-79012515D01*
X302215509Y-78886985D01*
X302113015Y-78784491D01*
X302113013Y-78784490D01*
X302113011Y-78784488D01*
X301987488Y-78712017D01*
X301987489Y-78712017D01*
X301976006Y-78708940D01*
X301847475Y-78674500D01*
X288847475Y-78674500D01*
X288702525Y-78674500D01*
X288573993Y-78708940D01*
X288562511Y-78712017D01*
X288436988Y-78784488D01*
X288436982Y-78784493D01*
X288334493Y-78886982D01*
X288334488Y-78886988D01*
X288262017Y-79012511D01*
X288262016Y-79012515D01*
X288224500Y-79152525D01*
X283275500Y-79152525D01*
X283237984Y-79012515D01*
X283165509Y-78886985D01*
X283063015Y-78784491D01*
X283063013Y-78784490D01*
X283063011Y-78784488D01*
X282937488Y-78712017D01*
X282937489Y-78712017D01*
X282926006Y-78708940D01*
X282797475Y-78674500D01*
X282797472Y-78674500D01*
X276849100Y-78674500D01*
X276782061Y-78654815D01*
X276736306Y-78602011D01*
X276725100Y-78550500D01*
X276725100Y-73849500D01*
X276744785Y-73782461D01*
X276797589Y-73736706D01*
X276849100Y-73725500D01*
X282797472Y-73725500D01*
X282797475Y-73725500D01*
X282937485Y-73687984D01*
X283063015Y-73615509D01*
X283165509Y-73513015D01*
X283237984Y-73387485D01*
X283275500Y-73247475D01*
X283275500Y-60102525D01*
X283237984Y-59962515D01*
X283205608Y-59906439D01*
X283165511Y-59836988D01*
X283165506Y-59836982D01*
X283063017Y-59734493D01*
X283063011Y-59734488D01*
X282937488Y-59662017D01*
X282937489Y-59662017D01*
X282926006Y-59658940D01*
X282797475Y-59624500D01*
X282797472Y-59624500D01*
X272562000Y-59624500D01*
X272494961Y-59604815D01*
X272449206Y-59552011D01*
X272438000Y-59500500D01*
X272438000Y-54799500D01*
X272457685Y-54732461D01*
X272510489Y-54686706D01*
X272562000Y-54675500D01*
X273391272Y-54675500D01*
X273391275Y-54675500D01*
X273531285Y-54637984D01*
X273656815Y-54565509D01*
X273759309Y-54463015D01*
X273831784Y-54337485D01*
X273869300Y-54197475D01*
X273869300Y-38552525D01*
X273831784Y-38412515D01*
X273759309Y-38286985D01*
X273656815Y-38184491D01*
X273656813Y-38184490D01*
X273656811Y-38184488D01*
X273531288Y-38112017D01*
X273531289Y-38112017D01*
X273519806Y-38108940D01*
X273391275Y-38074500D01*
X273391272Y-38074500D01*
X272562000Y-38074500D01*
X272494961Y-38054815D01*
X272449206Y-38002011D01*
X272438000Y-37950500D01*
X272438000Y-35749500D01*
X272457685Y-35682461D01*
X272510489Y-35636706D01*
X272562000Y-35625500D01*
X278034972Y-35625500D01*
X278034975Y-35625500D01*
X278174985Y-35587984D01*
X278300515Y-35515509D01*
X278403009Y-35413015D01*
X278475484Y-35287485D01*
X278513000Y-35147475D01*
X278513000Y-22002525D01*
X278475484Y-21862515D01*
X278461995Y-21839152D01*
X278403011Y-21736988D01*
X278403006Y-21736982D01*
X278300517Y-21634493D01*
X278300511Y-21634488D01*
X278174988Y-21562017D01*
X278174989Y-21562017D01*
X278163506Y-21558940D01*
X278034975Y-21524500D01*
X265034975Y-21524500D01*
X264890025Y-21524500D01*
X264761493Y-21558940D01*
X264750011Y-21562017D01*
X264624488Y-21634488D01*
X264624482Y-21634493D01*
X264521993Y-21736982D01*
X264521988Y-21736988D01*
X264449517Y-21862511D01*
X264449516Y-21862515D01*
X264412000Y-22002525D01*
X264412000Y-35147475D01*
X264442469Y-35261185D01*
X264449517Y-35287488D01*
X264521988Y-35413011D01*
X264521990Y-35413013D01*
X264521991Y-35413015D01*
X264624485Y-35515509D01*
X264624486Y-35515510D01*
X264624488Y-35515511D01*
X264750011Y-35587982D01*
X264750012Y-35587982D01*
X264750015Y-35587984D01*
X264890025Y-35625500D01*
X265034975Y-35625500D01*
X270439900Y-35625500D01*
X270506939Y-35645185D01*
X270552694Y-35697989D01*
X270563900Y-35749500D01*
X270563900Y-37950500D01*
X270544215Y-38017539D01*
X270491411Y-38063294D01*
X270439900Y-38074500D01*
X257872100Y-38074500D01*
X257805061Y-38054815D01*
X257759306Y-38002011D01*
X257748100Y-37950500D01*
X257748100Y-35577936D01*
X257767785Y-35510897D01*
X257803207Y-35474835D01*
X257886189Y-35419389D01*
X257997689Y-35307889D01*
X258085294Y-35176779D01*
X258145637Y-35031097D01*
X258176400Y-34876442D01*
X258176400Y-34718758D01*
X258176400Y-34718755D01*
X258176399Y-34718753D01*
X258175910Y-34716295D01*
X258145637Y-34564103D01*
X258124965Y-34514196D01*
X258085297Y-34418427D01*
X258085290Y-34418414D01*
X257997298Y-34286725D01*
X257976420Y-34220047D01*
X257976400Y-34217834D01*
X257976400Y-17937196D01*
X257996085Y-17870157D01*
X258012714Y-17849520D01*
X259549958Y-16312275D01*
X259611279Y-16278792D01*
X259680971Y-16283776D01*
X259736904Y-16325648D01*
X259745021Y-16337953D01*
X259759491Y-16363015D01*
X259861985Y-16465509D01*
X259861986Y-16465510D01*
X259861988Y-16465511D01*
X259987511Y-16537982D01*
X259987512Y-16537982D01*
X259987515Y-16537984D01*
X260127525Y-16575500D01*
X260127528Y-16575500D01*
X273272472Y-16575500D01*
X273272475Y-16575500D01*
X273412485Y-16537984D01*
X273538015Y-16465509D01*
X273640509Y-16363015D01*
X273712984Y-16237485D01*
X273750500Y-16097475D01*
X273750500Y-2952525D01*
X273712984Y-2812515D01*
X273683392Y-2761261D01*
X273640511Y-2686988D01*
X273640506Y-2686982D01*
X273538017Y-2584493D01*
X273538011Y-2584488D01*
X273412488Y-2512017D01*
X273412489Y-2512017D01*
X273401006Y-2508940D01*
X273272475Y-2474500D01*
X260272475Y-2474500D01*
X260127525Y-2474500D01*
X259998993Y-2508940D01*
X259987511Y-2512017D01*
X259861988Y-2584488D01*
X259861982Y-2584493D01*
X259759493Y-2686982D01*
X259759488Y-2686988D01*
X259687017Y-2812511D01*
X259687016Y-2812515D01*
X259649500Y-2952525D01*
X259649500Y-2952527D01*
X259649500Y-14462902D01*
X259629815Y-14529941D01*
X259613181Y-14550583D01*
X256895381Y-17268382D01*
X256895375Y-17268390D01*
X256854875Y-17338540D01*
X256854875Y-17338541D01*
X256816323Y-17405315D01*
X256775399Y-17558043D01*
X256775399Y-17558045D01*
X256775399Y-17726146D01*
X256775400Y-17726159D01*
X256775400Y-34217834D01*
X256755715Y-34284873D01*
X256754502Y-34286725D01*
X256666509Y-34418414D01*
X256666502Y-34418427D01*
X256606164Y-34564098D01*
X256606161Y-34564110D01*
X256575400Y-34718753D01*
X256575400Y-34824897D01*
X256571175Y-34856990D01*
X256547099Y-34946843D01*
X256547099Y-35114946D01*
X256547100Y-35114959D01*
X256547100Y-59500500D01*
X256527415Y-59567539D01*
X256474611Y-59613294D01*
X256423100Y-59624500D01*
X246932800Y-59624500D01*
X246865761Y-59604815D01*
X246820006Y-59552011D01*
X246808800Y-59500500D01*
X246808800Y-38048443D01*
X246808799Y-38048440D01*
X246806050Y-38038181D01*
X246798604Y-38010389D01*
X246767877Y-37895715D01*
X246708113Y-37792201D01*
X246688820Y-37758784D01*
X246577016Y-37646980D01*
X246577013Y-37646978D01*
X245990274Y-37060239D01*
X245956789Y-36998916D01*
X245956338Y-36996749D01*
X245938295Y-36906047D01*
X245925437Y-36841403D01*
X245911947Y-36808834D01*
X245865097Y-36695727D01*
X245865090Y-36695714D01*
X245777098Y-36564025D01*
X245756220Y-36497347D01*
X245756200Y-36495134D01*
X245756200Y-35749500D01*
X245775885Y-35682461D01*
X245828689Y-35636706D01*
X245880200Y-35625500D01*
X254222472Y-35625500D01*
X254222475Y-35625500D01*
X254362485Y-35587984D01*
X254488015Y-35515509D01*
X254590509Y-35413015D01*
X254662984Y-35287485D01*
X254700500Y-35147475D01*
X254700500Y-22002525D01*
X254662984Y-21862515D01*
X254649495Y-21839152D01*
X254590511Y-21736988D01*
X254590506Y-21736982D01*
X254488017Y-21634493D01*
X254488011Y-21634488D01*
X254362488Y-21562017D01*
X254362489Y-21562017D01*
X254351006Y-21558940D01*
X254222475Y-21524500D01*
X254222472Y-21524500D01*
X245880200Y-21524500D01*
X245813161Y-21504815D01*
X245767406Y-21452011D01*
X245756200Y-21400500D01*
X245756200Y-17447059D01*
X245756201Y-17447046D01*
X245756201Y-17278945D01*
X245756201Y-17278943D01*
X245715277Y-17126215D01*
X245686339Y-17076095D01*
X245636220Y-16989284D01*
X245524416Y-16877480D01*
X245524415Y-16877479D01*
X245520085Y-16873149D01*
X245520074Y-16873139D01*
X245112453Y-16465518D01*
X245078968Y-16404195D01*
X245083952Y-16334503D01*
X245092743Y-16315844D01*
X245137984Y-16237485D01*
X245175500Y-16097475D01*
X245175500Y-2952525D01*
X245137984Y-2812515D01*
X245108392Y-2761261D01*
X245065511Y-2686988D01*
X245065506Y-2686982D01*
X244963017Y-2584493D01*
X244963011Y-2584488D01*
X244837488Y-2512017D01*
X244837489Y-2512017D01*
X244826006Y-2508940D01*
X244697475Y-2474500D01*
X231697475Y-2474500D01*
X231552525Y-2474500D01*
X231423993Y-2508940D01*
X231412511Y-2512017D01*
X231286988Y-2584488D01*
X231286982Y-2584493D01*
X231184493Y-2686982D01*
X231184488Y-2686988D01*
X231112017Y-2812511D01*
X231112016Y-2812515D01*
X231074500Y-2952525D01*
X226125500Y-2952525D01*
X226087984Y-2812515D01*
X226058392Y-2761261D01*
X226015511Y-2686988D01*
X226015506Y-2686982D01*
X225913017Y-2584493D01*
X225913011Y-2584488D01*
X225787488Y-2512017D01*
X225787489Y-2512017D01*
X225776006Y-2508940D01*
X225647475Y-2474500D01*
X212647475Y-2474500D01*
X212502525Y-2474500D01*
X212373993Y-2508940D01*
X212362511Y-2512017D01*
X212236988Y-2584488D01*
X212236982Y-2584493D01*
X212134493Y-2686982D01*
X212134488Y-2686988D01*
X212062017Y-2812511D01*
X212062016Y-2812515D01*
X212024500Y-2952525D01*
X212024500Y-16097475D01*
X212055519Y-16213237D01*
X212062017Y-16237488D01*
X212134488Y-16363011D01*
X212134490Y-16363013D01*
X212134491Y-16363015D01*
X212236985Y-16465509D01*
X212236986Y-16465510D01*
X212236988Y-16465511D01*
X212362511Y-16537982D01*
X212362512Y-16537982D01*
X212362515Y-16537984D01*
X212502525Y-16575500D01*
X212647475Y-16575500D01*
X216907200Y-16575500D01*
X216974239Y-16595185D01*
X217019994Y-16647989D01*
X217031200Y-16699500D01*
X217031200Y-18900500D01*
X217011515Y-18967539D01*
X216958711Y-19013294D01*
X216907200Y-19024500D01*
X203122475Y-19024500D01*
X202977525Y-19024500D01*
X202848993Y-19058940D01*
X202837511Y-19062017D01*
X202711988Y-19134488D01*
X202711982Y-19134493D01*
X202609493Y-19236982D01*
X202609488Y-19236988D01*
X202537017Y-19362511D01*
X202537016Y-19362515D01*
X202499500Y-19502525D01*
X202499500Y-19502527D01*
X202499500Y-29675503D01*
X202479815Y-29742542D01*
X202427011Y-29788297D01*
X202357853Y-29798241D01*
X202294297Y-29769216D01*
X202287819Y-29763184D01*
X197586819Y-25062184D01*
X197553334Y-25000861D01*
X197550500Y-24974503D01*
X197550500Y-22002527D01*
X197550500Y-22002525D01*
X197512984Y-21862515D01*
X197499495Y-21839152D01*
X197440511Y-21736988D01*
X197440506Y-21736982D01*
X197393660Y-21690136D01*
X197360175Y-21628813D01*
X197365159Y-21559121D01*
X197393660Y-21514774D01*
X197653877Y-21254557D01*
X197919606Y-20988828D01*
X197919611Y-20988824D01*
X197929814Y-20978620D01*
X197929816Y-20978620D01*
X198041620Y-20866816D01*
X198120677Y-20729884D01*
X198161600Y-20577157D01*
X198161600Y-16699500D01*
X198181285Y-16632461D01*
X198234089Y-16586706D01*
X198285600Y-16575500D01*
X206597472Y-16575500D01*
X206597475Y-16575500D01*
X206737485Y-16537984D01*
X206863015Y-16465509D01*
X206965509Y-16363015D01*
X207037984Y-16237485D01*
X207075500Y-16097475D01*
X207075500Y-2952525D01*
X207037984Y-2812515D01*
X207008392Y-2761261D01*
X206965511Y-2686988D01*
X206965506Y-2686982D01*
X206863017Y-2584493D01*
X206863011Y-2584488D01*
X206737488Y-2512017D01*
X206737489Y-2512017D01*
X206726006Y-2508940D01*
X206597475Y-2474500D01*
X193597475Y-2474500D01*
X193452525Y-2474500D01*
X193323993Y-2508940D01*
X193312511Y-2512017D01*
X193186988Y-2584488D01*
X193186982Y-2584493D01*
X193084493Y-2686982D01*
X193084488Y-2686988D01*
X193012017Y-2812511D01*
X193012016Y-2812515D01*
X192974500Y-2952525D01*
X192974500Y-16097475D01*
X193005519Y-16213237D01*
X193012017Y-16237488D01*
X193084488Y-16363011D01*
X193084490Y-16363013D01*
X193084491Y-16363015D01*
X193186985Y-16465509D01*
X193186986Y-16465510D01*
X193186988Y-16465511D01*
X193312511Y-16537982D01*
X193312512Y-16537982D01*
X193312515Y-16537984D01*
X193452525Y-16575500D01*
X193597475Y-16575500D01*
X196836600Y-16575500D01*
X196903639Y-16595185D01*
X196949394Y-16647989D01*
X196960600Y-16699500D01*
X196960600Y-20198003D01*
X196940915Y-20265042D01*
X196924281Y-20285684D01*
X195721784Y-21488181D01*
X195660461Y-21521666D01*
X195634103Y-21524500D01*
X184072475Y-21524500D01*
X183927525Y-21524500D01*
X183798993Y-21558940D01*
X183787511Y-21562017D01*
X183661988Y-21634488D01*
X183661982Y-21634493D01*
X183559493Y-21736982D01*
X183559487Y-21736991D01*
X183483933Y-21867851D01*
X183433366Y-21916066D01*
X183364759Y-21929288D01*
X183299894Y-21903320D01*
X183288866Y-21893531D01*
X181510819Y-20115484D01*
X181477334Y-20054161D01*
X181474500Y-20027803D01*
X181474500Y-16699500D01*
X181494185Y-16632461D01*
X181546989Y-16586706D01*
X181598500Y-16575500D01*
X187547472Y-16575500D01*
X187547475Y-16575500D01*
X187687485Y-16537984D01*
X187813015Y-16465509D01*
X187915509Y-16363015D01*
X187987984Y-16237485D01*
X188025500Y-16097475D01*
X188025500Y-2952525D01*
X187987984Y-2812515D01*
X187958392Y-2761261D01*
X187915511Y-2686988D01*
X187915506Y-2686982D01*
X187813017Y-2584493D01*
X187813011Y-2584488D01*
X187687488Y-2512017D01*
X187687489Y-2512017D01*
X187676006Y-2508940D01*
X187547475Y-2474500D01*
X174547475Y-2474500D01*
X174402525Y-2474500D01*
X174273993Y-2508940D01*
X174262511Y-2512017D01*
X174136988Y-2584488D01*
X174136982Y-2584493D01*
X174034493Y-2686982D01*
X174034488Y-2686988D01*
X173962017Y-2812511D01*
X173962016Y-2812515D01*
X173924500Y-2952525D01*
X173924500Y-2952527D01*
X173924500Y-9019003D01*
X173904815Y-9086042D01*
X173852011Y-9131797D01*
X173782853Y-9141741D01*
X173719297Y-9112716D01*
X173712819Y-9106684D01*
X171511819Y-6905684D01*
X171478334Y-6844361D01*
X171475500Y-6818003D01*
X171475500Y-624500D01*
X171495185Y-557461D01*
X171547989Y-511706D01*
X171599500Y-500500D01*
X304705500Y-500500D01*
X304772539Y-520185D01*
X304818294Y-572989D01*
X304829500Y-624500D01*
X304829500Y-6558202D01*
X304809815Y-6625241D01*
X304793181Y-6645883D01*
X302537181Y-8901883D01*
X302475858Y-8935368D01*
X302406166Y-8930384D01*
X302350233Y-8888512D01*
X302325816Y-8823048D01*
X302325500Y-8814202D01*
X302325500Y-2952527D01*
X302325500Y-2952525D01*
X302287984Y-2812515D01*
X302258392Y-2761261D01*
X302215511Y-2686988D01*
X302215506Y-2686982D01*
X302113017Y-2584493D01*
X302113011Y-2584488D01*
X301987488Y-2512017D01*
X301987489Y-2512017D01*
X301976006Y-2508940D01*
X301847475Y-2474500D01*
X288847475Y-2474500D01*
X288702525Y-2474500D01*
X288573993Y-2508940D01*
X288562511Y-2512017D01*
X288436988Y-2584488D01*
X288436982Y-2584493D01*
X288334493Y-2686982D01*
X288334488Y-2686988D01*
X288262017Y-2812511D01*
X288262016Y-2812515D01*
X288224500Y-2952525D01*
X288224500Y-16097475D01*
X288255519Y-16213237D01*
X288262017Y-16237488D01*
X288334488Y-16363011D01*
X288334490Y-16363013D01*
X288334491Y-16363015D01*
X288436985Y-16465509D01*
X288436986Y-16465510D01*
X288436988Y-16465511D01*
X288562511Y-16537982D01*
X288562512Y-16537982D01*
X288562515Y-16537984D01*
X288702525Y-16575500D01*
X288847475Y-16575500D01*
X294661900Y-16575500D01*
X294728939Y-16595185D01*
X294774694Y-16647989D01*
X294785900Y-16699500D01*
X294785900Y-21400500D01*
X294766215Y-21467539D01*
X294713411Y-21513294D01*
X294661900Y-21524500D01*
X288847475Y-21524500D01*
X288702525Y-21524500D01*
X288573993Y-21558940D01*
X288562511Y-21562017D01*
X288436988Y-21634488D01*
X288436982Y-21634493D01*
X288334493Y-21736982D01*
X288334488Y-21736988D01*
X288262017Y-21862511D01*
X288262016Y-21862515D01*
X288224500Y-22002525D01*
X288224500Y-35147475D01*
X288254969Y-35261185D01*
X288262017Y-35287488D01*
X288334488Y-35413011D01*
X288334490Y-35413013D01*
X288334491Y-35413015D01*
X288436985Y-35515509D01*
X288436986Y-35515510D01*
X288436988Y-35515511D01*
X288562511Y-35587982D01*
X288562512Y-35587982D01*
X288562515Y-35587984D01*
X288702525Y-35625500D01*
X288847475Y-35625500D01*
X294661900Y-35625500D01*
X294728939Y-35645185D01*
X294774694Y-35697989D01*
X294785900Y-35749500D01*
X294785900Y-37950500D01*
X294766215Y-38017539D01*
X294713411Y-38063294D01*
X294661900Y-38074500D01*
X288847475Y-38074500D01*
X288702525Y-38074500D01*
X288573993Y-38108940D01*
X288562511Y-38112017D01*
X288436988Y-38184488D01*
X288436982Y-38184493D01*
X288334493Y-38286982D01*
X288334488Y-38286988D01*
X288262017Y-38412511D01*
X288262016Y-38412515D01*
X288224500Y-38552525D01*
X288224500Y-54197475D01*
X288262016Y-54337485D01*
X288262017Y-54337488D01*
X288334488Y-54463011D01*
X288334490Y-54463013D01*
X288334491Y-54463015D01*
X288436985Y-54565509D01*
X288436986Y-54565510D01*
X288436988Y-54565511D01*
X288562511Y-54637982D01*
X288562512Y-54637982D01*
X288562515Y-54637984D01*
X288702525Y-54675500D01*
X288847475Y-54675500D01*
X296489700Y-54675500D01*
X296556739Y-54695185D01*
X296602494Y-54747989D01*
X296613700Y-54799500D01*
X296613700Y-59500500D01*
X296594015Y-59567539D01*
X296541211Y-59613294D01*
X296489700Y-59624500D01*
X288847475Y-59624500D01*
X288702525Y-59624500D01*
X288573993Y-59658940D01*
X288562511Y-59662017D01*
X288436988Y-59734488D01*
X288436982Y-59734493D01*
X288334493Y-59836982D01*
X288334488Y-59836988D01*
X288262017Y-59962511D01*
X288262016Y-59962515D01*
X288224500Y-60102525D01*
X288224500Y-73247475D01*
X288245778Y-73326884D01*
X288262017Y-73387488D01*
X288334488Y-73513011D01*
X288334490Y-73513013D01*
X288334491Y-73513015D01*
X288436985Y-73615509D01*
X288436986Y-73615510D01*
X288436988Y-73615511D01*
X288562511Y-73687982D01*
X288562512Y-73687982D01*
X288562515Y-73687984D01*
X288702525Y-73725500D01*
X288847475Y-73725500D01*
X301300400Y-73725500D01*
X301367439Y-73745185D01*
X301413194Y-73797989D01*
X301424400Y-73849500D01*
X301424400Y-75799734D01*
X301404715Y-75866773D01*
X301403502Y-75868625D01*
X301315509Y-76000314D01*
X301315502Y-76000327D01*
X301255164Y-76145998D01*
X301255161Y-76146010D01*
X301224400Y-76300653D01*
X301224400Y-76458346D01*
X301255161Y-76612989D01*
X301255164Y-76613001D01*
X301315502Y-76758672D01*
X301315509Y-76758685D01*
X301403110Y-76889788D01*
X301403113Y-76889792D01*
X301514607Y-77001286D01*
X301514611Y-77001289D01*
X301645714Y-77088890D01*
X301645727Y-77088897D01*
X301791398Y-77149235D01*
X301791403Y-77149237D01*
X301946053Y-77179999D01*
X301946056Y-77180000D01*
X301946058Y-77180000D01*
X302103744Y-77180000D01*
X302103745Y-77179999D01*
X302258397Y-77149237D01*
X302404079Y-77088894D01*
X302535189Y-77001289D01*
X302646689Y-76889789D01*
X302734294Y-76758679D01*
X302794637Y-76612997D01*
X302825400Y-76458342D01*
X302825400Y-76300658D01*
X302825400Y-76300655D01*
X302825399Y-76300653D01*
X302794638Y-76146010D01*
X302794637Y-76146003D01*
X302794635Y-76145998D01*
X302734297Y-76000327D01*
X302734290Y-76000314D01*
X302646298Y-75868625D01*
X302625420Y-75801947D01*
X302625400Y-75799734D01*
X302625400Y-54799500D01*
X302645085Y-54732461D01*
X302697889Y-54686706D01*
X302749400Y-54675500D01*
X304277000Y-54675500D01*
X304344039Y-54695185D01*
X304389794Y-54747989D01*
X304401000Y-54799500D01*
X304401000Y-59898830D01*
X304400999Y-59898848D01*
X304400999Y-60064554D01*
X304400998Y-60064554D01*
X304441924Y-60217289D01*
X304441925Y-60217290D01*
X304470239Y-60266330D01*
X304470241Y-60266332D01*
X304520979Y-60354214D01*
X304520981Y-60354217D01*
X304639849Y-60473085D01*
X304639855Y-60473090D01*
X309978281Y-65811516D01*
X310011766Y-65872839D01*
X310014600Y-65899197D01*
X310014600Y-81075500D01*
X309994915Y-81142539D01*
X309942111Y-81188294D01*
X309890600Y-81199500D01*
X309099275Y-81199500D01*
X308954325Y-81199500D01*
X308825793Y-81233940D01*
X308814311Y-81237017D01*
X308688788Y-81309488D01*
X308688782Y-81309493D01*
X308586293Y-81411982D01*
X308586288Y-81411988D01*
X308513817Y-81537511D01*
X308513816Y-81537515D01*
X308476300Y-81677525D01*
X308476300Y-90822475D01*
X308513816Y-90962485D01*
X308513817Y-90962488D01*
X308586288Y-91088011D01*
X308586290Y-91088013D01*
X308586291Y-91088015D01*
X308688785Y-91190509D01*
X308688786Y-91190510D01*
X308688788Y-91190511D01*
X308814311Y-91262982D01*
X308814312Y-91262982D01*
X308814315Y-91262984D01*
X308954325Y-91300500D01*
X308954328Y-91300500D01*
X318099272Y-91300500D01*
X318099275Y-91300500D01*
X318239285Y-91262984D01*
X318364815Y-91190509D01*
X318467309Y-91088015D01*
X318539784Y-90962485D01*
X318577300Y-90822475D01*
X318577300Y-81677525D01*
X318539784Y-81537515D01*
X318467309Y-81411985D01*
X318364815Y-81309491D01*
X318364813Y-81309490D01*
X318364811Y-81309488D01*
X318239288Y-81237017D01*
X318239285Y-81237015D01*
X318192404Y-81224453D01*
X318132744Y-81188087D01*
X318102216Y-81125239D01*
X318100500Y-81104679D01*
X318100500Y-73199500D01*
X318120185Y-73132461D01*
X318172989Y-73086706D01*
X318224500Y-73075500D01*
X320094972Y-73075500D01*
X320094975Y-73075500D01*
X320234985Y-73037984D01*
X320360515Y-72965509D01*
X320463009Y-72863015D01*
X320535484Y-72737485D01*
X320573000Y-72597475D01*
X320573000Y-63452525D01*
X320535484Y-63312515D01*
X320533392Y-63308892D01*
X320463011Y-63186988D01*
X320463006Y-63186982D01*
X320360517Y-63084493D01*
X320360511Y-63084488D01*
X320234988Y-63012017D01*
X320234989Y-63012017D01*
X320223506Y-63008940D01*
X320094975Y-62974500D01*
X320094972Y-62974500D01*
X318271300Y-62974500D01*
X318204261Y-62954815D01*
X318158506Y-62902011D01*
X318147300Y-62850500D01*
X318147300Y-55701300D01*
X318166985Y-55634261D01*
X318219789Y-55588506D01*
X318271300Y-55577300D01*
X319822472Y-55577300D01*
X319822475Y-55577300D01*
X319962485Y-55539784D01*
X320088015Y-55467309D01*
X320190509Y-55364815D01*
X320262984Y-55239285D01*
X320300500Y-55099275D01*
X320300500Y-45954325D01*
X320262984Y-45814315D01*
X320234344Y-45764710D01*
X320190511Y-45688788D01*
X320190506Y-45688782D01*
X320088017Y-45586293D01*
X320088011Y-45586288D01*
X319962488Y-45513817D01*
X319962489Y-45513817D01*
X319951006Y-45510740D01*
X319822475Y-45476300D01*
X319822472Y-45476300D01*
X316028197Y-45476300D01*
X315961158Y-45456615D01*
X315915403Y-45403811D01*
X315905459Y-45334653D01*
X315934484Y-45271097D01*
X315940506Y-45264627D01*
X316273913Y-44931221D01*
X316273916Y-44931220D01*
X316385720Y-44819416D01*
X316435839Y-44732604D01*
X316464777Y-44682485D01*
X316505700Y-44529757D01*
X316505700Y-44371643D01*
X316505700Y-40699500D01*
X316525385Y-40632461D01*
X316578189Y-40586706D01*
X316629700Y-40575500D01*
X320094972Y-40575500D01*
X320094975Y-40575500D01*
X320234985Y-40537984D01*
X320360515Y-40465509D01*
X320463009Y-40363015D01*
X320535484Y-40237485D01*
X320573000Y-40097475D01*
X320573000Y-30952525D01*
X320535484Y-30812515D01*
X320533799Y-30809597D01*
X320463011Y-30686988D01*
X320463006Y-30686982D01*
X320360517Y-30584493D01*
X320360511Y-30584488D01*
X320234988Y-30512017D01*
X320234989Y-30512017D01*
X320196213Y-30501627D01*
X320094975Y-30474500D01*
X320094972Y-30474500D01*
X317998397Y-30474500D01*
X317931358Y-30454815D01*
X317885603Y-30402011D01*
X317875659Y-30332853D01*
X317904684Y-30269297D01*
X317910716Y-30262819D01*
X319805681Y-28367854D01*
X321923020Y-26250516D01*
X322002077Y-26113584D01*
X322043001Y-25960857D01*
X322043001Y-25802742D01*
X322043001Y-25795147D01*
X322043000Y-25795129D01*
X322043000Y-24834500D01*
X322062685Y-24767461D01*
X322115489Y-24721706D01*
X322167000Y-24710500D01*
X324452472Y-24710500D01*
X324452475Y-24710500D01*
X324592485Y-24672984D01*
X324718015Y-24600509D01*
X324820509Y-24498015D01*
X324892984Y-24372485D01*
X324930500Y-24232475D01*
X324930500Y-20760696D01*
X324950185Y-20693657D01*
X324966815Y-20673019D01*
X325344606Y-20295227D01*
X325344611Y-20295224D01*
X325354814Y-20285020D01*
X325354816Y-20285020D01*
X325466620Y-20173216D01*
X325497385Y-20119930D01*
X325525152Y-20071836D01*
X325525153Y-20071833D01*
X325545676Y-20036287D01*
X325545677Y-20036285D01*
X325586600Y-19883557D01*
X325586600Y-19725443D01*
X325586600Y-1757143D01*
X325545677Y-1604416D01*
X325537038Y-1589452D01*
X325466624Y-1467490D01*
X325466621Y-1467486D01*
X325466620Y-1467484D01*
X325354816Y-1355680D01*
X325354815Y-1355679D01*
X325350485Y-1351349D01*
X325350474Y-1351339D01*
X324966819Y-967684D01*
X324933334Y-906361D01*
X324930500Y-880003D01*
X324930500Y-624500D01*
X324950185Y-557461D01*
X325002989Y-511706D01*
X325054500Y-500500D01*
X326600500Y-500500D01*
X326667539Y-520185D01*
X326713294Y-572989D01*
X326724500Y-624500D01*
X326724500Y-95150500D01*
X326704815Y-95217539D01*
X326652011Y-95263294D01*
X326600500Y-95274500D01*
X624500Y-95274500D01*
X557461Y-95254815D01*
X511706Y-95202011D01*
X500500Y-95150500D01*
X500500Y-79152525D01*
X4855800Y-79152525D01*
X4855800Y-92297475D01*
X4893316Y-92437485D01*
X4893317Y-92437488D01*
X4965788Y-92563011D01*
X4965790Y-92563013D01*
X4965791Y-92563015D01*
X5068285Y-92665509D01*
X5068286Y-92665510D01*
X5068288Y-92665511D01*
X5193811Y-92737982D01*
X5193812Y-92737982D01*
X5193815Y-92737984D01*
X5333825Y-92775500D01*
X5333828Y-92775500D01*
X18478772Y-92775500D01*
X18478775Y-92775500D01*
X18618785Y-92737984D01*
X18744315Y-92665509D01*
X18846809Y-92563015D01*
X18919284Y-92437485D01*
X18956800Y-92297475D01*
X18956800Y-79152525D01*
X28668300Y-79152525D01*
X28668300Y-92297475D01*
X28705816Y-92437485D01*
X28705817Y-92437488D01*
X28778288Y-92563011D01*
X28778290Y-92563013D01*
X28778291Y-92563015D01*
X28880785Y-92665509D01*
X28880786Y-92665510D01*
X28880788Y-92665511D01*
X29006311Y-92737982D01*
X29006312Y-92737982D01*
X29006315Y-92737984D01*
X29146325Y-92775500D01*
X29146328Y-92775500D01*
X42291272Y-92775500D01*
X42291275Y-92775500D01*
X42431285Y-92737984D01*
X42556815Y-92665509D01*
X42659309Y-92563015D01*
X42731784Y-92437485D01*
X42769300Y-92297475D01*
X42769300Y-79152525D01*
X42731784Y-79012515D01*
X42659309Y-78886985D01*
X42556815Y-78784491D01*
X42556813Y-78784490D01*
X42556811Y-78784488D01*
X42431288Y-78712017D01*
X42431289Y-78712017D01*
X42419806Y-78708940D01*
X42291275Y-78674500D01*
X42291272Y-78674500D01*
X39037997Y-78674500D01*
X38970958Y-78654815D01*
X38925203Y-78602011D01*
X38915259Y-78532853D01*
X38944284Y-78469297D01*
X38950316Y-78462819D01*
X45125319Y-72287816D01*
X45186642Y-72254331D01*
X45256334Y-72259315D01*
X45312267Y-72301187D01*
X45336684Y-72366651D01*
X45337000Y-72375497D01*
X45337000Y-73247475D01*
X45358278Y-73326884D01*
X45374517Y-73387488D01*
X45446988Y-73513011D01*
X45446990Y-73513013D01*
X45446991Y-73513015D01*
X45549485Y-73615509D01*
X45549486Y-73615510D01*
X45549488Y-73615511D01*
X45675011Y-73687982D01*
X45675012Y-73687982D01*
X45675015Y-73687984D01*
X45815025Y-73725500D01*
X45815028Y-73725500D01*
X58959972Y-73725500D01*
X58959975Y-73725500D01*
X59099985Y-73687984D01*
X59225515Y-73615509D01*
X59328009Y-73513015D01*
X59400484Y-73387485D01*
X59438000Y-73247475D01*
X59438000Y-60102525D01*
X59400484Y-59962515D01*
X59368108Y-59906439D01*
X59328011Y-59836988D01*
X59328006Y-59836982D01*
X59225517Y-59734493D01*
X59225511Y-59734488D01*
X59099988Y-59662017D01*
X59099989Y-59662017D01*
X59088506Y-59658940D01*
X58959975Y-59624500D01*
X58959972Y-59624500D01*
X53853200Y-59624500D01*
X53786161Y-59604815D01*
X53740406Y-59552011D01*
X53729200Y-59500500D01*
X53729200Y-49598397D01*
X53748885Y-49531358D01*
X53765519Y-49510716D01*
X54650319Y-48625916D01*
X54711642Y-48592431D01*
X54781334Y-48597415D01*
X54837267Y-48639287D01*
X54861684Y-48704751D01*
X54862000Y-48713597D01*
X54862000Y-54197475D01*
X54899516Y-54337485D01*
X54899517Y-54337488D01*
X54971988Y-54463011D01*
X54971990Y-54463013D01*
X54971991Y-54463015D01*
X55074485Y-54565509D01*
X55074486Y-54565510D01*
X55074488Y-54565511D01*
X55200011Y-54637982D01*
X55200012Y-54637982D01*
X55200015Y-54637984D01*
X55340025Y-54675500D01*
X55484975Y-54675500D01*
X68297400Y-54675500D01*
X68364439Y-54695185D01*
X68410194Y-54747989D01*
X68421400Y-54799500D01*
X68421400Y-59500500D01*
X68401715Y-59567539D01*
X68348911Y-59613294D01*
X68297400Y-59624500D01*
X65009975Y-59624500D01*
X64865025Y-59624500D01*
X64736493Y-59658940D01*
X64725011Y-59662017D01*
X64599488Y-59734488D01*
X64599482Y-59734493D01*
X64496993Y-59836982D01*
X64496988Y-59836988D01*
X64424517Y-59962511D01*
X64424516Y-59962515D01*
X64387000Y-60102525D01*
X64387000Y-73247475D01*
X64408278Y-73326884D01*
X64424517Y-73387488D01*
X64496988Y-73513011D01*
X64496990Y-73513013D01*
X64496991Y-73513015D01*
X64599485Y-73615509D01*
X64599486Y-73615510D01*
X64599488Y-73615511D01*
X64725011Y-73687982D01*
X64725012Y-73687982D01*
X64725015Y-73687984D01*
X64865025Y-73725500D01*
X65009975Y-73725500D01*
X67830403Y-73725500D01*
X67897442Y-73745185D01*
X67943197Y-73797989D01*
X67953141Y-73867147D01*
X67924116Y-73930703D01*
X67918084Y-73937181D01*
X63217084Y-78638181D01*
X63155761Y-78671666D01*
X63129403Y-78674500D01*
X53103775Y-78674500D01*
X52958825Y-78674500D01*
X52830293Y-78708940D01*
X52818811Y-78712017D01*
X52693288Y-78784488D01*
X52693282Y-78784493D01*
X52590793Y-78886982D01*
X52590788Y-78886988D01*
X52518317Y-79012511D01*
X52518316Y-79012515D01*
X52480800Y-79152525D01*
X52480800Y-92297475D01*
X52518316Y-92437485D01*
X52518317Y-92437488D01*
X52590788Y-92563011D01*
X52590790Y-92563013D01*
X52590791Y-92563015D01*
X52693285Y-92665509D01*
X52693286Y-92665510D01*
X52693288Y-92665511D01*
X52818811Y-92737982D01*
X52818812Y-92737982D01*
X52818815Y-92737984D01*
X52958825Y-92775500D01*
X52958828Y-92775500D01*
X66103772Y-92775500D01*
X66103775Y-92775500D01*
X66243785Y-92737984D01*
X66369315Y-92665509D01*
X66471809Y-92563015D01*
X66544284Y-92437485D01*
X66581800Y-92297475D01*
X66581800Y-79152525D01*
X73912000Y-79152525D01*
X73912000Y-92297475D01*
X73949516Y-92437485D01*
X73949517Y-92437488D01*
X74021988Y-92563011D01*
X74021990Y-92563013D01*
X74021991Y-92563015D01*
X74124485Y-92665509D01*
X74124486Y-92665510D01*
X74124488Y-92665511D01*
X74250011Y-92737982D01*
X74250012Y-92737982D01*
X74250015Y-92737984D01*
X74390025Y-92775500D01*
X74390028Y-92775500D01*
X87534972Y-92775500D01*
X87534975Y-92775500D01*
X87674985Y-92737984D01*
X87800515Y-92665509D01*
X87903009Y-92563015D01*
X87975484Y-92437485D01*
X88013000Y-92297475D01*
X88013000Y-79152525D01*
X87975484Y-79012515D01*
X87903009Y-78886985D01*
X87800515Y-78784491D01*
X87800513Y-78784490D01*
X87800511Y-78784488D01*
X87674988Y-78712017D01*
X87674989Y-78712017D01*
X87663506Y-78708940D01*
X87534975Y-78674500D01*
X74534975Y-78674500D01*
X74390025Y-78674500D01*
X74261493Y-78708940D01*
X74250011Y-78712017D01*
X74124488Y-78784488D01*
X74124482Y-78784493D01*
X74021993Y-78886982D01*
X74021988Y-78886988D01*
X73949517Y-79012511D01*
X73949516Y-79012515D01*
X73912000Y-79152525D01*
X66581800Y-79152525D01*
X66544284Y-79012515D01*
X66471809Y-78886985D01*
X66369315Y-78784491D01*
X66369313Y-78784490D01*
X66369311Y-78784488D01*
X66243788Y-78712017D01*
X66243789Y-78712017D01*
X66232306Y-78708940D01*
X66103775Y-78674500D01*
X66103772Y-78674500D01*
X65178597Y-78674500D01*
X65111558Y-78654815D01*
X65065803Y-78602011D01*
X65055859Y-78532853D01*
X65084884Y-78469297D01*
X65090916Y-78462819D01*
X66154235Y-77399500D01*
X69380406Y-74173327D01*
X69380411Y-74173324D01*
X69390614Y-74163120D01*
X69390616Y-74163120D01*
X69502420Y-74051316D01*
X69581477Y-73914384D01*
X69607462Y-73817404D01*
X69643826Y-73757746D01*
X69706672Y-73727217D01*
X69727236Y-73725500D01*
X78009972Y-73725500D01*
X78009975Y-73725500D01*
X78149985Y-73687984D01*
X78275515Y-73615509D01*
X78378009Y-73513015D01*
X78450484Y-73387485D01*
X78488000Y-73247475D01*
X78488000Y-60102525D01*
X78450484Y-59962515D01*
X78418108Y-59906439D01*
X78378011Y-59836988D01*
X78378006Y-59836982D01*
X78275517Y-59734493D01*
X78275511Y-59734488D01*
X78149988Y-59662017D01*
X78149989Y-59662017D01*
X78138506Y-59658940D01*
X78009975Y-59624500D01*
X78009972Y-59624500D01*
X70574600Y-59624500D01*
X70507561Y-59604815D01*
X70461806Y-59552011D01*
X70450600Y-59500500D01*
X70450600Y-46966265D01*
X70470285Y-46899226D01*
X70471498Y-46897374D01*
X70474917Y-46892258D01*
X70559494Y-46765679D01*
X70561001Y-46762042D01*
X70587585Y-46697860D01*
X70619837Y-46619997D01*
X70650600Y-46465342D01*
X70650600Y-46307658D01*
X70650600Y-46307655D01*
X70650599Y-46307653D01*
X70628510Y-46196607D01*
X70619837Y-46153003D01*
X70611276Y-46132335D01*
X70559497Y-46007327D01*
X70559490Y-46007314D01*
X70471889Y-45876211D01*
X70471886Y-45876207D01*
X70360392Y-45764713D01*
X70360388Y-45764710D01*
X70229285Y-45677109D01*
X70229272Y-45677102D01*
X70083601Y-45616764D01*
X70083591Y-45616761D01*
X69928251Y-45585862D01*
X69866341Y-45553477D01*
X69864762Y-45551926D01*
X68999319Y-44686483D01*
X68965834Y-44625160D01*
X68963000Y-44598802D01*
X68963000Y-41052527D01*
X68963000Y-41052525D01*
X68925484Y-40912515D01*
X68923967Y-40909888D01*
X68853011Y-40786988D01*
X68853006Y-40786982D01*
X68750517Y-40684493D01*
X68750511Y-40684488D01*
X68624988Y-40612017D01*
X68624989Y-40612017D01*
X68613506Y-40608940D01*
X68484975Y-40574500D01*
X68484972Y-40574500D01*
X67370500Y-40574500D01*
X67303461Y-40554815D01*
X67257706Y-40502011D01*
X67246500Y-40450500D01*
X67246500Y-16699500D01*
X67266185Y-16632461D01*
X67318989Y-16586706D01*
X67370500Y-16575500D01*
X73247472Y-16575500D01*
X73247475Y-16575500D01*
X73387485Y-16537984D01*
X73513015Y-16465509D01*
X73615509Y-16363015D01*
X73687984Y-16237485D01*
X73725500Y-16097475D01*
X73725500Y-2952525D01*
X73687984Y-2812515D01*
X73658392Y-2761261D01*
X73615511Y-2686988D01*
X73615506Y-2686982D01*
X73513017Y-2584493D01*
X73513011Y-2584488D01*
X73387488Y-2512017D01*
X73387489Y-2512017D01*
X73376006Y-2508940D01*
X73247475Y-2474500D01*
X60247475Y-2474500D01*
X60102525Y-2474500D01*
X59973993Y-2508940D01*
X59962511Y-2512017D01*
X59836988Y-2584488D01*
X59836982Y-2584493D01*
X59734493Y-2686982D01*
X59734488Y-2686988D01*
X59662017Y-2812511D01*
X59662016Y-2812515D01*
X59624500Y-2952525D01*
X59624500Y-16097475D01*
X59655519Y-16213237D01*
X59662017Y-16237488D01*
X59734488Y-16363011D01*
X59734490Y-16363013D01*
X59734491Y-16363015D01*
X59836985Y-16465509D01*
X59836986Y-16465510D01*
X59836988Y-16465511D01*
X59962511Y-16537982D01*
X59962512Y-16537982D01*
X59962515Y-16537984D01*
X60102525Y-16575500D01*
X60247475Y-16575500D01*
X65921500Y-16575500D01*
X65988539Y-16595185D01*
X66034294Y-16647989D01*
X66045500Y-16699500D01*
X66045500Y-18900500D01*
X66025815Y-18967539D01*
X65973011Y-19013294D01*
X65921500Y-19024500D01*
X57976897Y-19024500D01*
X57947456Y-19015855D01*
X57917470Y-19009332D01*
X57912454Y-19005577D01*
X57909858Y-19004815D01*
X57889216Y-18988181D01*
X57715219Y-18814183D01*
X57681734Y-18752860D01*
X57678900Y-18726502D01*
X57678900Y-4110765D01*
X57698585Y-4043726D01*
X57699798Y-4041874D01*
X57787790Y-3910185D01*
X57787790Y-3910184D01*
X57787794Y-3910179D01*
X57848137Y-3764497D01*
X57878900Y-3609842D01*
X57878900Y-3452158D01*
X57878900Y-3452155D01*
X57878899Y-3452153D01*
X57855040Y-3332207D01*
X57848137Y-3297503D01*
X57810978Y-3207792D01*
X57787797Y-3151827D01*
X57787790Y-3151814D01*
X57700189Y-3020711D01*
X57700186Y-3020707D01*
X57588692Y-2909213D01*
X57588688Y-2909210D01*
X57457585Y-2821609D01*
X57457572Y-2821602D01*
X57311901Y-2761264D01*
X57311889Y-2761261D01*
X57157245Y-2730500D01*
X57157242Y-2730500D01*
X56999558Y-2730500D01*
X56999555Y-2730500D01*
X56844910Y-2761261D01*
X56844898Y-2761264D01*
X56699227Y-2821602D01*
X56699214Y-2821609D01*
X56568111Y-2909210D01*
X56568107Y-2909213D01*
X56456613Y-3020707D01*
X56456610Y-3020711D01*
X56369009Y-3151814D01*
X56369002Y-3151827D01*
X56308664Y-3297498D01*
X56308661Y-3297510D01*
X56277900Y-3452153D01*
X56277900Y-3609846D01*
X56308661Y-3764489D01*
X56308664Y-3764501D01*
X56369002Y-3910172D01*
X56369009Y-3910185D01*
X56457002Y-4041874D01*
X56477880Y-4108551D01*
X56477900Y-4110765D01*
X56477900Y-18900500D01*
X56458215Y-18967539D01*
X56405411Y-19013294D01*
X56353900Y-19024500D01*
X50722475Y-19024500D01*
X50577525Y-19024500D01*
X50448993Y-19058940D01*
X50437511Y-19062017D01*
X50311988Y-19134488D01*
X50311982Y-19134493D01*
X50209493Y-19236982D01*
X50209488Y-19236988D01*
X50137017Y-19362511D01*
X50137016Y-19362515D01*
X50099500Y-19502525D01*
X50099500Y-19502527D01*
X50099500Y-24901100D01*
X50079815Y-24968139D01*
X50027011Y-25013894D01*
X49975500Y-25025100D01*
X47181900Y-25025100D01*
X47114861Y-25005415D01*
X47069106Y-24952611D01*
X47057900Y-24901100D01*
X47057900Y-16699500D01*
X47077585Y-16632461D01*
X47130389Y-16586706D01*
X47181900Y-16575500D01*
X54197472Y-16575500D01*
X54197475Y-16575500D01*
X54337485Y-16537984D01*
X54463015Y-16465509D01*
X54565509Y-16363015D01*
X54637984Y-16237485D01*
X54675500Y-16097475D01*
X54675500Y-2952525D01*
X54637984Y-2812515D01*
X54608392Y-2761261D01*
X54565511Y-2686988D01*
X54565506Y-2686982D01*
X54463017Y-2584493D01*
X54463011Y-2584488D01*
X54337488Y-2512017D01*
X54337489Y-2512017D01*
X54326006Y-2508940D01*
X54197475Y-2474500D01*
X41197475Y-2474500D01*
X41052525Y-2474500D01*
X40923993Y-2508940D01*
X40912511Y-2512017D01*
X40786988Y-2584488D01*
X40786982Y-2584493D01*
X40684493Y-2686982D01*
X40684488Y-2686988D01*
X40612017Y-2812511D01*
X40612016Y-2812515D01*
X40574500Y-2952525D01*
X40574500Y-16097475D01*
X40605519Y-16213237D01*
X40612017Y-16237488D01*
X40684488Y-16363011D01*
X40684490Y-16363013D01*
X40684491Y-16363015D01*
X40786985Y-16465509D01*
X40786986Y-16465510D01*
X40786988Y-16465511D01*
X40912511Y-16537982D01*
X40912512Y-16537982D01*
X40912515Y-16537984D01*
X41052525Y-16575500D01*
X41197475Y-16575500D01*
X43633000Y-16575500D01*
X43700039Y-16595185D01*
X43745794Y-16647989D01*
X43757000Y-16699500D01*
X43757000Y-20712103D01*
X43737315Y-20779142D01*
X43720681Y-20799784D01*
X43032284Y-21488181D01*
X42970961Y-21521666D01*
X42944603Y-21524500D01*
X31672475Y-21524500D01*
X31527525Y-21524500D01*
X31398993Y-21558940D01*
X31387511Y-21562017D01*
X31261988Y-21634488D01*
X31261982Y-21634493D01*
X31159493Y-21736982D01*
X31159488Y-21736988D01*
X31087017Y-21862511D01*
X31087016Y-21862515D01*
X31049500Y-22002525D01*
X31049500Y-35147475D01*
X31079969Y-35261185D01*
X31087017Y-35287488D01*
X31159488Y-35413011D01*
X31159490Y-35413013D01*
X31159491Y-35413015D01*
X31261985Y-35515509D01*
X31261986Y-35515510D01*
X31261988Y-35515511D01*
X31387511Y-35587982D01*
X31387512Y-35587982D01*
X31387515Y-35587984D01*
X31527525Y-35625500D01*
X31527528Y-35625500D01*
X44672472Y-35625500D01*
X44672475Y-35625500D01*
X44812485Y-35587984D01*
X44938015Y-35515509D01*
X45040509Y-35413015D01*
X45112984Y-35287485D01*
X45150500Y-35147475D01*
X45150500Y-22002525D01*
X45112984Y-21862515D01*
X45099495Y-21839152D01*
X45040511Y-21736988D01*
X45040506Y-21736982D01*
X44938017Y-21634493D01*
X44938015Y-21634491D01*
X44882328Y-21602340D01*
X44853809Y-21585874D01*
X44805594Y-21535306D01*
X44792372Y-21466699D01*
X44811088Y-21412084D01*
X44818428Y-21400507D01*
X44838020Y-21380916D01*
X44909678Y-21256800D01*
X44917077Y-21243985D01*
X44958000Y-21091258D01*
X44958000Y-20933143D01*
X44958000Y-16699500D01*
X44977685Y-16632461D01*
X45030489Y-16586706D01*
X45082000Y-16575500D01*
X45732900Y-16575500D01*
X45799939Y-16595185D01*
X45845694Y-16647989D01*
X45856900Y-16699500D01*
X45856900Y-40450500D01*
X45837215Y-40517539D01*
X45784411Y-40563294D01*
X45732900Y-40574500D01*
X36434975Y-40574500D01*
X36290025Y-40574500D01*
X36161493Y-40608940D01*
X36150011Y-40612017D01*
X36024488Y-40684488D01*
X36024482Y-40684493D01*
X35921993Y-40786982D01*
X35921988Y-40786988D01*
X35849517Y-40912511D01*
X35849516Y-40912515D01*
X35812000Y-41052525D01*
X35812000Y-54197475D01*
X35849516Y-54337485D01*
X35849517Y-54337488D01*
X35921988Y-54463011D01*
X35921990Y-54463013D01*
X35921991Y-54463015D01*
X36024485Y-54565509D01*
X36024486Y-54565510D01*
X36024488Y-54565511D01*
X36150011Y-54637982D01*
X36150012Y-54637982D01*
X36150015Y-54637984D01*
X36290025Y-54675500D01*
X36434975Y-54675500D01*
X39490500Y-54675500D01*
X39557539Y-54695185D01*
X39603294Y-54747989D01*
X39614500Y-54799500D01*
X39614500Y-57803934D01*
X39594815Y-57870973D01*
X39593602Y-57872825D01*
X39505609Y-58004514D01*
X39505602Y-58004527D01*
X39445264Y-58150198D01*
X39445261Y-58150210D01*
X39414500Y-58304853D01*
X39414500Y-58462546D01*
X39445261Y-58617189D01*
X39445264Y-58617201D01*
X39505602Y-58762872D01*
X39505609Y-58762885D01*
X39593602Y-58894574D01*
X39614480Y-58961251D01*
X39614500Y-58963465D01*
X39614500Y-75176302D01*
X39594815Y-75243341D01*
X39578181Y-75263983D01*
X36701039Y-78141125D01*
X36639716Y-78174610D01*
X36637550Y-78175061D01*
X36482208Y-78205961D01*
X36482198Y-78205964D01*
X36336527Y-78266302D01*
X36336514Y-78266309D01*
X36205411Y-78353910D01*
X36205407Y-78353913D01*
X36093913Y-78465407D01*
X36093910Y-78465411D01*
X36006309Y-78596514D01*
X36006305Y-78596522D01*
X36005715Y-78597948D01*
X36005205Y-78598580D01*
X36003436Y-78601891D01*
X36002808Y-78601555D01*
X35961876Y-78652353D01*
X35895583Y-78674421D01*
X35891152Y-78674500D01*
X29291275Y-78674500D01*
X29146325Y-78674500D01*
X29017793Y-78708940D01*
X29006311Y-78712017D01*
X28880788Y-78784488D01*
X28880782Y-78784493D01*
X28778293Y-78886982D01*
X28778288Y-78886988D01*
X28705817Y-79012511D01*
X28705816Y-79012515D01*
X28668300Y-79152525D01*
X18956800Y-79152525D01*
X18919284Y-79012515D01*
X18846809Y-78886985D01*
X18744315Y-78784491D01*
X18744313Y-78784490D01*
X18744311Y-78784488D01*
X18618788Y-78712017D01*
X18618789Y-78712017D01*
X18607306Y-78708940D01*
X18478775Y-78674500D01*
X5478775Y-78674500D01*
X5333825Y-78674500D01*
X5205293Y-78708940D01*
X5193811Y-78712017D01*
X5068288Y-78784488D01*
X5068282Y-78784493D01*
X4965793Y-78886982D01*
X4965788Y-78886988D01*
X4893317Y-79012511D01*
X4893316Y-79012515D01*
X4855800Y-79152525D01*
X500500Y-79152525D01*
X500500Y-60102525D01*
X14380800Y-60102525D01*
X14380800Y-73247475D01*
X14402078Y-73326884D01*
X14418317Y-73387488D01*
X14490788Y-73513011D01*
X14490790Y-73513013D01*
X14490791Y-73513015D01*
X14593285Y-73615509D01*
X14593286Y-73615510D01*
X14593288Y-73615511D01*
X14718811Y-73687982D01*
X14718812Y-73687982D01*
X14718815Y-73687984D01*
X14858825Y-73725500D01*
X14858828Y-73725500D01*
X28003772Y-73725500D01*
X28003775Y-73725500D01*
X28143785Y-73687984D01*
X28269315Y-73615509D01*
X28371809Y-73513015D01*
X28444284Y-73387485D01*
X28481800Y-73247475D01*
X28481800Y-60102525D01*
X28444284Y-59962515D01*
X28411908Y-59906439D01*
X28371811Y-59836988D01*
X28371806Y-59836982D01*
X28269317Y-59734493D01*
X28269311Y-59734488D01*
X28143788Y-59662017D01*
X28143789Y-59662017D01*
X28132306Y-59658940D01*
X28003775Y-59624500D01*
X28003772Y-59624500D01*
X25809698Y-59624500D01*
X25742659Y-59604815D01*
X25696904Y-59552011D01*
X25686960Y-59482853D01*
X25715985Y-59419297D01*
X25722017Y-59412819D01*
X25846820Y-59288016D01*
X25925877Y-59151084D01*
X25966801Y-58998357D01*
X25966801Y-58840242D01*
X25966801Y-58832647D01*
X25966800Y-58832629D01*
X25966800Y-37968365D01*
X25986485Y-37901326D01*
X25987698Y-37899474D01*
X26075690Y-37767785D01*
X26075690Y-37767784D01*
X26075694Y-37767779D01*
X26136037Y-37622097D01*
X26166800Y-37467442D01*
X26166800Y-37309758D01*
X26166800Y-37309755D01*
X26166799Y-37309753D01*
X26136038Y-37155110D01*
X26136037Y-37155103D01*
X26118450Y-37112643D01*
X26075697Y-37009427D01*
X26075690Y-37009414D01*
X25987698Y-36877725D01*
X25966820Y-36811047D01*
X25966800Y-36808834D01*
X25966800Y-16699500D01*
X25986485Y-16632461D01*
X26039289Y-16586706D01*
X26090800Y-16575500D01*
X35147472Y-16575500D01*
X35147475Y-16575500D01*
X35287485Y-16537984D01*
X35413015Y-16465509D01*
X35515509Y-16363015D01*
X35587984Y-16237485D01*
X35625500Y-16097475D01*
X35625500Y-2952525D01*
X35587984Y-2812515D01*
X35558392Y-2761261D01*
X35515511Y-2686988D01*
X35515506Y-2686982D01*
X35413017Y-2584493D01*
X35413011Y-2584488D01*
X35287488Y-2512017D01*
X35287489Y-2512017D01*
X35276006Y-2508940D01*
X35147475Y-2474500D01*
X22147475Y-2474500D01*
X22002525Y-2474500D01*
X21873993Y-2508940D01*
X21862511Y-2512017D01*
X21736988Y-2584488D01*
X21736982Y-2584493D01*
X21634493Y-2686982D01*
X21634488Y-2686988D01*
X21562017Y-2812511D01*
X21562016Y-2812515D01*
X21524500Y-2952525D01*
X21524500Y-16097475D01*
X21555519Y-16213237D01*
X21562017Y-16237488D01*
X21634488Y-16363011D01*
X21634490Y-16363013D01*
X21634491Y-16363015D01*
X21736985Y-16465509D01*
X21736986Y-16465510D01*
X21736988Y-16465511D01*
X21862511Y-16537982D01*
X21862512Y-16537982D01*
X21862515Y-16537984D01*
X22002525Y-16575500D01*
X22147475Y-16575500D01*
X24641800Y-16575500D01*
X24708839Y-16595185D01*
X24754594Y-16647989D01*
X24765800Y-16699500D01*
X24765800Y-36808834D01*
X24746115Y-36875873D01*
X24744902Y-36877725D01*
X24656909Y-37009414D01*
X24656902Y-37009427D01*
X24596564Y-37155098D01*
X24596561Y-37155110D01*
X24565800Y-37309753D01*
X24565800Y-37467446D01*
X24596561Y-37622089D01*
X24596564Y-37622101D01*
X24656902Y-37767772D01*
X24656909Y-37767785D01*
X24744902Y-37899474D01*
X24765780Y-37966151D01*
X24765800Y-37968365D01*
X24765800Y-58619202D01*
X24746115Y-58686241D01*
X24729481Y-58706883D01*
X23848183Y-59588181D01*
X23786860Y-59621666D01*
X23760502Y-59624500D01*
X15003775Y-59624500D01*
X14858825Y-59624500D01*
X14730293Y-59658940D01*
X14718811Y-59662017D01*
X14593288Y-59734488D01*
X14593282Y-59734493D01*
X14490793Y-59836982D01*
X14490788Y-59836988D01*
X14418317Y-59962511D01*
X14418316Y-59962515D01*
X14380800Y-60102525D01*
X500500Y-60102525D01*
X500500Y-41052525D01*
X9618300Y-41052525D01*
X9618300Y-54197475D01*
X9655816Y-54337485D01*
X9655817Y-54337488D01*
X9728288Y-54463011D01*
X9728290Y-54463013D01*
X9728291Y-54463015D01*
X9830785Y-54565509D01*
X9830786Y-54565510D01*
X9830788Y-54565511D01*
X9956311Y-54637982D01*
X9956312Y-54637982D01*
X9956315Y-54637984D01*
X10096325Y-54675500D01*
X10096328Y-54675500D01*
X23241272Y-54675500D01*
X23241275Y-54675500D01*
X23381285Y-54637984D01*
X23506815Y-54565509D01*
X23609309Y-54463015D01*
X23681784Y-54337485D01*
X23719300Y-54197475D01*
X23719300Y-41052525D01*
X23681784Y-40912515D01*
X23680267Y-40909888D01*
X23609311Y-40786988D01*
X23609306Y-40786982D01*
X23506817Y-40684493D01*
X23506811Y-40684488D01*
X23381288Y-40612017D01*
X23381289Y-40612017D01*
X23369806Y-40608940D01*
X23241275Y-40574500D01*
X10241275Y-40574500D01*
X10096325Y-40574500D01*
X9967793Y-40608940D01*
X9956311Y-40612017D01*
X9830788Y-40684488D01*
X9830782Y-40684493D01*
X9728293Y-40786982D01*
X9728288Y-40786988D01*
X9655817Y-40912511D01*
X9655816Y-40912515D01*
X9618300Y-41052525D01*
X500500Y-41052525D01*
X500500Y-624500D01*
X520185Y-557461D01*
X572989Y-511706D01*
X624500Y-500500D01*
X2350500Y-500500D01*
X2417539Y-520185D01*
G37*
%TD.AperFunction*%
%TA.AperFunction,Conductor*%
G36*
X309828845Y-82320185D02*
G01*
X309874600Y-82372989D01*
X309876367Y-82377048D01*
X309905702Y-82447873D01*
X309905709Y-82447885D01*
X309993310Y-82578988D01*
X309993313Y-82578992D01*
X310104807Y-82690486D01*
X310104811Y-82690489D01*
X310235914Y-82778090D01*
X310235927Y-82778097D01*
X310373532Y-82835094D01*
X310381603Y-82838437D01*
X310536253Y-82869199D01*
X310536256Y-82869200D01*
X310536258Y-82869200D01*
X310693944Y-82869200D01*
X310693945Y-82869199D01*
X310848597Y-82838437D01*
X310994279Y-82778094D01*
X311125389Y-82690489D01*
X311236889Y-82578989D01*
X311324494Y-82447879D01*
X311324495Y-82447876D01*
X311324497Y-82447873D01*
X311353833Y-82377048D01*
X311397673Y-82322644D01*
X311463967Y-82300579D01*
X311468394Y-82300500D01*
X313534796Y-82300500D01*
X313601835Y-82320185D01*
X313647590Y-82372989D01*
X313649357Y-82377048D01*
X313702302Y-82504872D01*
X313702309Y-82504885D01*
X313789910Y-82635988D01*
X313789913Y-82635992D01*
X313901407Y-82747486D01*
X313901411Y-82747489D01*
X314032514Y-82835090D01*
X314032527Y-82835097D01*
X314178198Y-82895435D01*
X314178203Y-82895437D01*
X314332853Y-82926199D01*
X314332856Y-82926200D01*
X314332858Y-82926200D01*
X314490544Y-82926200D01*
X314490545Y-82926199D01*
X314645197Y-82895437D01*
X314790879Y-82835094D01*
X314921989Y-82747489D01*
X315033489Y-82635989D01*
X315121094Y-82504879D01*
X315144707Y-82447873D01*
X315174043Y-82377048D01*
X315217883Y-82322644D01*
X315284177Y-82300579D01*
X315288604Y-82300500D01*
X316775500Y-82300500D01*
X316842539Y-82320185D01*
X316888294Y-82372989D01*
X316899500Y-82424500D01*
X316899500Y-83287002D01*
X316879815Y-83354041D01*
X316863181Y-83374683D01*
X314694939Y-85542925D01*
X314633616Y-85576410D01*
X314631450Y-85576861D01*
X314476108Y-85607761D01*
X314476098Y-85607764D01*
X314330427Y-85668102D01*
X314330414Y-85668109D01*
X314199311Y-85755710D01*
X314199307Y-85755713D01*
X314087813Y-85867207D01*
X314087810Y-85867211D01*
X314000209Y-85998314D01*
X314000202Y-85998327D01*
X313939864Y-86143998D01*
X313939861Y-86144010D01*
X313909100Y-86298653D01*
X313909100Y-86456346D01*
X313939861Y-86610989D01*
X313939864Y-86611001D01*
X314000202Y-86756672D01*
X314000209Y-86756685D01*
X314087810Y-86887788D01*
X314087813Y-86887792D01*
X314199307Y-86999286D01*
X314199311Y-86999289D01*
X314330414Y-87086890D01*
X314330427Y-87086897D01*
X314476098Y-87147235D01*
X314476103Y-87147237D01*
X314630753Y-87177999D01*
X314630756Y-87178000D01*
X314630758Y-87178000D01*
X314788444Y-87178000D01*
X314788445Y-87177999D01*
X314943097Y-87147237D01*
X315088779Y-87086894D01*
X315219889Y-86999289D01*
X315331389Y-86887789D01*
X315418994Y-86756679D01*
X315479337Y-86610997D01*
X315498713Y-86513585D01*
X315510238Y-86455650D01*
X315542623Y-86393739D01*
X315544118Y-86392216D01*
X317264619Y-84671716D01*
X317325942Y-84638231D01*
X317395634Y-84643215D01*
X317451567Y-84685087D01*
X317475984Y-84750551D01*
X317476300Y-84759397D01*
X317476300Y-90075500D01*
X317456615Y-90142539D01*
X317403811Y-90188294D01*
X317352300Y-90199500D01*
X309701300Y-90199500D01*
X309634261Y-90179815D01*
X309588506Y-90127011D01*
X309577300Y-90075500D01*
X309577300Y-82424500D01*
X309579850Y-82415814D01*
X309578562Y-82406853D01*
X309589540Y-82382812D01*
X309596985Y-82357461D01*
X309603825Y-82351533D01*
X309607587Y-82343297D01*
X309629821Y-82329007D01*
X309649789Y-82311706D01*
X309660303Y-82309418D01*
X309666365Y-82305523D01*
X309701300Y-82300500D01*
X309761806Y-82300500D01*
X309828845Y-82320185D01*
G37*
%TD.AperFunction*%
%TA.AperFunction,Conductor*%
G36*
X313754239Y-73095185D02*
G01*
X313799994Y-73147989D01*
X313811200Y-73199500D01*
X313811200Y-81075500D01*
X313791515Y-81142539D01*
X313738711Y-81188294D01*
X313687200Y-81199500D01*
X313235271Y-81199500D01*
X313224138Y-81196230D01*
X313212594Y-81197409D01*
X313191221Y-81186565D01*
X313168232Y-81179815D01*
X313159041Y-81170238D01*
X313150285Y-81165796D01*
X313138775Y-81149122D01*
X313128288Y-81138195D01*
X313123975Y-81130836D01*
X313097294Y-81066421D01*
X313009689Y-80935311D01*
X313008970Y-80934592D01*
X313005417Y-80928529D01*
X312997809Y-80898034D01*
X312988420Y-80868047D01*
X312988400Y-80865834D01*
X312988400Y-73199500D01*
X313008085Y-73132461D01*
X313060889Y-73086706D01*
X313112400Y-73075500D01*
X313687200Y-73075500D01*
X313754239Y-73095185D01*
G37*
%TD.AperFunction*%
%TA.AperFunction,Conductor*%
G36*
X123666442Y-60745185D02*
G01*
X123687084Y-60761819D01*
X126773925Y-63848660D01*
X126807410Y-63909983D01*
X126807861Y-63912149D01*
X126838761Y-64067491D01*
X126838764Y-64067501D01*
X126899102Y-64213172D01*
X126899109Y-64213185D01*
X126986710Y-64344288D01*
X126986713Y-64344292D01*
X127098207Y-64455786D01*
X127098211Y-64455789D01*
X127229314Y-64543390D01*
X127229327Y-64543397D01*
X127374998Y-64603735D01*
X127375003Y-64603737D01*
X127514571Y-64631499D01*
X127529653Y-64634499D01*
X127529656Y-64634500D01*
X127529658Y-64634500D01*
X127687344Y-64634500D01*
X127687345Y-64634499D01*
X127841997Y-64603737D01*
X127987679Y-64543394D01*
X128118789Y-64455789D01*
X128230289Y-64344289D01*
X128317894Y-64213179D01*
X128378237Y-64067497D01*
X128409000Y-63912842D01*
X128409000Y-63755158D01*
X128409000Y-63755155D01*
X128408999Y-63755153D01*
X128400218Y-63711009D01*
X128378237Y-63600503D01*
X128377656Y-63599100D01*
X128317897Y-63454827D01*
X128317890Y-63454814D01*
X128230289Y-63323711D01*
X128230286Y-63323707D01*
X128118792Y-63212213D01*
X128118788Y-63212210D01*
X127987685Y-63124609D01*
X127987672Y-63124602D01*
X127842001Y-63064264D01*
X127841991Y-63064261D01*
X127686649Y-63033361D01*
X127624738Y-63000976D01*
X127623160Y-62999425D01*
X125560916Y-60937181D01*
X125527431Y-60875858D01*
X125532415Y-60806166D01*
X125574287Y-60750233D01*
X125639751Y-60725816D01*
X125648597Y-60725500D01*
X134413000Y-60725500D01*
X134480039Y-60745185D01*
X134525794Y-60797989D01*
X134537000Y-60849500D01*
X134537000Y-65721236D01*
X134517315Y-65788275D01*
X134464511Y-65834030D01*
X134395353Y-65843974D01*
X134340115Y-65821554D01*
X134219288Y-65733768D01*
X134064945Y-65655127D01*
X133900201Y-65601598D01*
X133900199Y-65601597D01*
X133900198Y-65601597D01*
X133768771Y-65580781D01*
X133729111Y-65574500D01*
X133555889Y-65574500D01*
X133516228Y-65580781D01*
X133384802Y-65601597D01*
X133384799Y-65601598D01*
X133255107Y-65643738D01*
X133220052Y-65655128D01*
X133065711Y-65733768D01*
X133027710Y-65761378D01*
X132925572Y-65835586D01*
X132925570Y-65835588D01*
X132925569Y-65835588D01*
X132803088Y-65958069D01*
X132803088Y-65958070D01*
X132803086Y-65958072D01*
X132763397Y-66012699D01*
X132701268Y-66098211D01*
X132622628Y-66252552D01*
X132569097Y-66417302D01*
X132542000Y-66588389D01*
X132542000Y-66761610D01*
X132569046Y-66932378D01*
X132569098Y-66932701D01*
X132622627Y-67097445D01*
X132701268Y-67251788D01*
X132803086Y-67391928D01*
X132925572Y-67514414D01*
X133065712Y-67616232D01*
X133220055Y-67694873D01*
X133384799Y-67748402D01*
X133555889Y-67775500D01*
X133555890Y-67775500D01*
X133729110Y-67775500D01*
X133729111Y-67775500D01*
X133900201Y-67748402D01*
X134064945Y-67694873D01*
X134219288Y-67616232D01*
X134340115Y-67528445D01*
X134405920Y-67504965D01*
X134473974Y-67520790D01*
X134522669Y-67570895D01*
X134537000Y-67628763D01*
X134537000Y-72500500D01*
X134517315Y-72567539D01*
X134464511Y-72613294D01*
X134413000Y-72624500D01*
X122762000Y-72624500D01*
X122694961Y-72604815D01*
X122649206Y-72552011D01*
X122638000Y-72500500D01*
X122638000Y-67665091D01*
X122657685Y-67598052D01*
X122710489Y-67552297D01*
X122779647Y-67542353D01*
X122834883Y-67564772D01*
X122905712Y-67616232D01*
X123060055Y-67694873D01*
X123224799Y-67748402D01*
X123395889Y-67775500D01*
X123395890Y-67775500D01*
X123569110Y-67775500D01*
X123569111Y-67775500D01*
X123740201Y-67748402D01*
X123904945Y-67694873D01*
X124059288Y-67616232D01*
X124199428Y-67514414D01*
X124321914Y-67391928D01*
X124423732Y-67251788D01*
X124502373Y-67097445D01*
X124555902Y-66932701D01*
X124583000Y-66761611D01*
X124583000Y-66588389D01*
X124555902Y-66417299D01*
X124502373Y-66252555D01*
X124423732Y-66098212D01*
X124321914Y-65958072D01*
X124199428Y-65835586D01*
X124059288Y-65733768D01*
X123904945Y-65655127D01*
X123740201Y-65601598D01*
X123740199Y-65601597D01*
X123740198Y-65601597D01*
X123608771Y-65580781D01*
X123569111Y-65574500D01*
X123395889Y-65574500D01*
X123356228Y-65580781D01*
X123224802Y-65601597D01*
X123224799Y-65601598D01*
X123095107Y-65643738D01*
X123060052Y-65655128D01*
X122905708Y-65733770D01*
X122834885Y-65785226D01*
X122769079Y-65808706D01*
X122701025Y-65792880D01*
X122652330Y-65742775D01*
X122638000Y-65684908D01*
X122638000Y-60849500D01*
X122657685Y-60782461D01*
X122710489Y-60736706D01*
X122762000Y-60725500D01*
X123599403Y-60725500D01*
X123666442Y-60745185D01*
G37*
%TD.AperFunction*%
%TA.AperFunction,Conductor*%
G36*
X319415039Y-64095185D02*
G01*
X319460794Y-64147989D01*
X319472000Y-64199500D01*
X319472000Y-71850500D01*
X319452315Y-71917539D01*
X319399511Y-71963294D01*
X319348000Y-71974500D01*
X318224500Y-71974500D01*
X318157461Y-71954815D01*
X318111706Y-71902011D01*
X318100500Y-71850500D01*
X318100500Y-70150465D01*
X318120185Y-70083426D01*
X318121398Y-70081574D01*
X318209390Y-69949885D01*
X318209390Y-69949884D01*
X318209394Y-69949879D01*
X318269737Y-69804197D01*
X318300500Y-69649542D01*
X318300500Y-69491858D01*
X318300500Y-69491855D01*
X318300499Y-69491853D01*
X318280398Y-69390801D01*
X318269737Y-69337203D01*
X318242817Y-69272211D01*
X318209397Y-69191527D01*
X318209390Y-69191514D01*
X318121789Y-69060411D01*
X318121786Y-69060407D01*
X318010292Y-68948913D01*
X318010288Y-68948910D01*
X317879185Y-68861309D01*
X317879172Y-68861302D01*
X317733501Y-68800964D01*
X317733489Y-68800961D01*
X317578845Y-68770200D01*
X317578842Y-68770200D01*
X317421158Y-68770200D01*
X317421155Y-68770200D01*
X317266510Y-68800961D01*
X317266498Y-68800964D01*
X317120827Y-68861302D01*
X317120814Y-68861309D01*
X316989711Y-68948910D01*
X316989707Y-68948913D01*
X316878213Y-69060407D01*
X316878210Y-69060411D01*
X316790609Y-69191514D01*
X316790602Y-69191527D01*
X316758864Y-69268152D01*
X316715023Y-69322556D01*
X316648729Y-69344621D01*
X316644303Y-69344700D01*
X316216300Y-69344700D01*
X316149261Y-69325015D01*
X316103506Y-69272211D01*
X316092300Y-69220700D01*
X316092300Y-66670396D01*
X316111985Y-66603357D01*
X316128614Y-66582720D01*
X317905306Y-64806027D01*
X317905311Y-64806024D01*
X317915514Y-64795820D01*
X317915516Y-64795820D01*
X318027320Y-64684016D01*
X318081904Y-64589473D01*
X318106377Y-64547085D01*
X318147301Y-64394357D01*
X318147301Y-64236243D01*
X318147301Y-64228648D01*
X318147300Y-64228630D01*
X318147300Y-64199500D01*
X318166985Y-64132461D01*
X318219789Y-64086706D01*
X318271300Y-64075500D01*
X319348000Y-64075500D01*
X319415039Y-64095185D01*
G37*
%TD.AperFunction*%
%TA.AperFunction,Conductor*%
G36*
X319142539Y-46596985D02*
G01*
X319188294Y-46649789D01*
X319199500Y-46701300D01*
X319199500Y-54352300D01*
X319179815Y-54419339D01*
X319127011Y-54465094D01*
X319075500Y-54476300D01*
X318271300Y-54476300D01*
X318204261Y-54456615D01*
X318158506Y-54403811D01*
X318147300Y-54352300D01*
X318147300Y-52322245D01*
X318147300Y-52322243D01*
X318122450Y-52229500D01*
X318106377Y-52169515D01*
X318077439Y-52119395D01*
X318027320Y-52032584D01*
X317915516Y-51920780D01*
X317915515Y-51920779D01*
X317911185Y-51916449D01*
X317911174Y-51916439D01*
X317411319Y-51416584D01*
X317377834Y-51355261D01*
X317375000Y-51328903D01*
X317375000Y-49596406D01*
X317394685Y-49529367D01*
X317430107Y-49493305D01*
X317493289Y-49451089D01*
X317604789Y-49339589D01*
X317692394Y-49208479D01*
X317752737Y-49062797D01*
X317783500Y-48908142D01*
X317783500Y-48750458D01*
X317783500Y-48750455D01*
X317783499Y-48750453D01*
X317779267Y-48729179D01*
X317752737Y-48595803D01*
X317741753Y-48569285D01*
X317692397Y-48450127D01*
X317692390Y-48450114D01*
X317604789Y-48319011D01*
X317604786Y-48319007D01*
X317493292Y-48207513D01*
X317493288Y-48207510D01*
X317362185Y-48119909D01*
X317362172Y-48119902D01*
X317216501Y-48059564D01*
X317216489Y-48059561D01*
X317061845Y-48028800D01*
X317061842Y-48028800D01*
X316904158Y-48028800D01*
X316904155Y-48028800D01*
X316749510Y-48059561D01*
X316749498Y-48059564D01*
X316603827Y-48119902D01*
X316603814Y-48119909D01*
X316472711Y-48207510D01*
X316472707Y-48207513D01*
X316361213Y-48319007D01*
X316361210Y-48319011D01*
X316273609Y-48450114D01*
X316273602Y-48450127D01*
X316213264Y-48595798D01*
X316213261Y-48595810D01*
X316182500Y-48750453D01*
X316182500Y-48910691D01*
X316182404Y-48915563D01*
X316181859Y-48929404D01*
X316173999Y-48958743D01*
X316173999Y-49116857D01*
X316174000Y-49116860D01*
X316174000Y-49129289D01*
X316174000Y-50904500D01*
X316154315Y-50971539D01*
X316101511Y-51017294D01*
X316050000Y-51028500D01*
X315794466Y-51028500D01*
X315727427Y-51008815D01*
X315725575Y-51007602D01*
X315593885Y-50919609D01*
X315593872Y-50919602D01*
X315448201Y-50859264D01*
X315448191Y-50859261D01*
X315313308Y-50832431D01*
X315251397Y-50800046D01*
X315216823Y-50739330D01*
X315213500Y-50710814D01*
X315213500Y-46701300D01*
X315233185Y-46634261D01*
X315285989Y-46588506D01*
X315337500Y-46577300D01*
X319075500Y-46577300D01*
X319142539Y-46596985D01*
G37*
%TD.AperFunction*%
%TA.AperFunction,Conductor*%
G36*
X97570141Y-39195185D02*
G01*
X97590783Y-39211819D01*
X98781525Y-40402560D01*
X98815010Y-40463883D01*
X98815461Y-40466049D01*
X98846361Y-40621391D01*
X98846364Y-40621401D01*
X98906702Y-40767072D01*
X98906709Y-40767085D01*
X98994310Y-40898188D01*
X98994313Y-40898192D01*
X99105807Y-41009686D01*
X99105811Y-41009689D01*
X99236914Y-41097290D01*
X99236927Y-41097297D01*
X99369829Y-41152346D01*
X99382603Y-41157637D01*
X99537253Y-41188399D01*
X99537256Y-41188400D01*
X99537258Y-41188400D01*
X99694944Y-41188400D01*
X99694945Y-41188399D01*
X99849597Y-41157637D01*
X99967025Y-41108997D01*
X99995272Y-41097297D01*
X99995272Y-41097296D01*
X99995279Y-41097294D01*
X100126389Y-41009689D01*
X100237889Y-40898189D01*
X100325494Y-40767079D01*
X100385837Y-40621397D01*
X100416600Y-40466742D01*
X100416600Y-40309058D01*
X100416600Y-40309055D01*
X100416599Y-40309053D01*
X100398226Y-40216685D01*
X100385837Y-40154403D01*
X100372322Y-40121774D01*
X100325497Y-40008727D01*
X100325490Y-40008714D01*
X100237889Y-39877611D01*
X100237886Y-39877607D01*
X100126392Y-39766113D01*
X100126388Y-39766110D01*
X99995285Y-39678509D01*
X99995272Y-39678502D01*
X99849601Y-39618164D01*
X99849591Y-39618161D01*
X99694251Y-39587262D01*
X99677494Y-39578496D01*
X99659016Y-39574477D01*
X99633977Y-39555732D01*
X99632341Y-39554877D01*
X99630762Y-39553326D01*
X99464617Y-39387181D01*
X99431132Y-39325858D01*
X99436116Y-39256166D01*
X99477988Y-39200233D01*
X99543452Y-39175816D01*
X99552298Y-39175500D01*
X106613700Y-39175500D01*
X106680739Y-39195185D01*
X106726494Y-39247989D01*
X106737700Y-39299500D01*
X106737700Y-53450500D01*
X106718015Y-53517539D01*
X106665211Y-53563294D01*
X106613700Y-53574500D01*
X103317200Y-53574500D01*
X103250161Y-53554815D01*
X103204406Y-53502011D01*
X103193200Y-53450500D01*
X103193200Y-49084759D01*
X103193201Y-49084746D01*
X103193201Y-48916645D01*
X103193201Y-48916643D01*
X103152277Y-48763915D01*
X103114105Y-48697800D01*
X103114105Y-48697799D01*
X103073222Y-48626987D01*
X103073221Y-48626986D01*
X103073220Y-48626984D01*
X102961416Y-48515180D01*
X102961415Y-48515179D01*
X102957085Y-48510849D01*
X102957074Y-48510839D01*
X101984624Y-47538389D01*
X103967000Y-47538389D01*
X103967000Y-47711610D01*
X103993121Y-47876537D01*
X103994098Y-47882701D01*
X104047627Y-48047445D01*
X104126268Y-48201788D01*
X104228086Y-48341928D01*
X104350572Y-48464414D01*
X104490712Y-48566232D01*
X104645055Y-48644873D01*
X104809799Y-48698402D01*
X104980889Y-48725500D01*
X104980890Y-48725500D01*
X105154110Y-48725500D01*
X105154111Y-48725500D01*
X105325201Y-48698402D01*
X105489945Y-48644873D01*
X105644288Y-48566232D01*
X105784428Y-48464414D01*
X105906914Y-48341928D01*
X106008732Y-48201788D01*
X106087373Y-48047445D01*
X106140902Y-47882701D01*
X106168000Y-47711611D01*
X106168000Y-47538389D01*
X106140902Y-47367299D01*
X106087373Y-47202555D01*
X106008732Y-47048212D01*
X105906914Y-46908072D01*
X105784428Y-46785586D01*
X105644288Y-46683768D01*
X105519129Y-46619997D01*
X105489947Y-46605128D01*
X105489946Y-46605127D01*
X105489945Y-46605127D01*
X105325201Y-46551598D01*
X105325199Y-46551597D01*
X105325198Y-46551597D01*
X105193771Y-46530781D01*
X105154111Y-46524500D01*
X104980889Y-46524500D01*
X104941228Y-46530781D01*
X104809802Y-46551597D01*
X104645052Y-46605128D01*
X104490711Y-46683768D01*
X104430345Y-46727627D01*
X104350572Y-46785586D01*
X104350570Y-46785588D01*
X104350569Y-46785588D01*
X104228088Y-46908069D01*
X104228088Y-46908070D01*
X104228086Y-46908072D01*
X104204598Y-46940401D01*
X104126268Y-47048211D01*
X104047628Y-47202552D01*
X103994097Y-47367302D01*
X103967000Y-47538389D01*
X101984624Y-47538389D01*
X100818074Y-46371839D01*
X100784589Y-46310516D01*
X100784138Y-46308349D01*
X100760395Y-46188989D01*
X100753237Y-46153003D01*
X100744676Y-46132335D01*
X100692897Y-46007327D01*
X100692890Y-46007314D01*
X100605289Y-45876211D01*
X100605286Y-45876207D01*
X100493792Y-45764713D01*
X100493788Y-45764710D01*
X100362685Y-45677109D01*
X100362672Y-45677102D01*
X100217001Y-45616764D01*
X100216991Y-45616761D01*
X100061651Y-45585862D01*
X99999741Y-45553477D01*
X99998162Y-45551926D01*
X94099319Y-39653083D01*
X94065834Y-39591760D01*
X94063000Y-39565402D01*
X94063000Y-39299500D01*
X94082685Y-39232461D01*
X94135489Y-39186706D01*
X94187000Y-39175500D01*
X97503102Y-39175500D01*
X97570141Y-39195185D01*
G37*
%TD.AperFunction*%
%TA.AperFunction,Conductor*%
G36*
X132775739Y-41695185D02*
G01*
X132821494Y-41747989D01*
X132832700Y-41799500D01*
X132832700Y-43291130D01*
X132832699Y-43291148D01*
X132832699Y-43456854D01*
X132832698Y-43456854D01*
X132838272Y-43477657D01*
X132867437Y-43586500D01*
X132873624Y-43609587D01*
X132885631Y-43630383D01*
X132885632Y-43630385D01*
X132952677Y-43746512D01*
X132952681Y-43746517D01*
X133071549Y-43865385D01*
X133071555Y-43865390D01*
X134977525Y-45771360D01*
X135011010Y-45832683D01*
X135011461Y-45834849D01*
X135042361Y-45990191D01*
X135042364Y-45990201D01*
X135102702Y-46135872D01*
X135102709Y-46135885D01*
X135190310Y-46266988D01*
X135190313Y-46266992D01*
X135301807Y-46378486D01*
X135301811Y-46378489D01*
X135432914Y-46466090D01*
X135432927Y-46466097D01*
X135578598Y-46526435D01*
X135578603Y-46526437D01*
X135705090Y-46551597D01*
X135733253Y-46557199D01*
X135733256Y-46557200D01*
X135733258Y-46557200D01*
X135890944Y-46557200D01*
X135890945Y-46557199D01*
X136045597Y-46526437D01*
X136158266Y-46479767D01*
X136191272Y-46466097D01*
X136191272Y-46466096D01*
X136191279Y-46466094D01*
X136322389Y-46378489D01*
X136433889Y-46266989D01*
X136521494Y-46135879D01*
X136581837Y-45990197D01*
X136612600Y-45835542D01*
X136612600Y-45677858D01*
X136612600Y-45677855D01*
X136612599Y-45677853D01*
X136603292Y-45631065D01*
X136581837Y-45523203D01*
X136579988Y-45518741D01*
X136572520Y-45449272D01*
X136603795Y-45386793D01*
X136663884Y-45351141D01*
X136670320Y-45349680D01*
X136736897Y-45336437D01*
X136882579Y-45276094D01*
X137013689Y-45188489D01*
X137125189Y-45076989D01*
X137212794Y-44945879D01*
X137218866Y-44931221D01*
X137246800Y-44863781D01*
X137273137Y-44800197D01*
X137303900Y-44645542D01*
X137303900Y-44487858D01*
X137303900Y-44487855D01*
X137303899Y-44487853D01*
X137277473Y-44355003D01*
X137273137Y-44333203D01*
X137245236Y-44265844D01*
X137212797Y-44187527D01*
X137212790Y-44187514D01*
X137125189Y-44056411D01*
X137125186Y-44056407D01*
X137013692Y-43944913D01*
X137013688Y-43944910D01*
X136882585Y-43857309D01*
X136882572Y-43857302D01*
X136736901Y-43796964D01*
X136736891Y-43796961D01*
X136581549Y-43766061D01*
X136519638Y-43733676D01*
X136518060Y-43732125D01*
X135972119Y-43186184D01*
X135938634Y-43124861D01*
X135935800Y-43098503D01*
X135935800Y-41799500D01*
X135955485Y-41732461D01*
X136008289Y-41686706D01*
X136059800Y-41675500D01*
X143938000Y-41675500D01*
X144005039Y-41695185D01*
X144050794Y-41747989D01*
X144062000Y-41799500D01*
X144062000Y-46671236D01*
X144042315Y-46738275D01*
X143989511Y-46784030D01*
X143920353Y-46793974D01*
X143865115Y-46771554D01*
X143744288Y-46683768D01*
X143619129Y-46619997D01*
X143589947Y-46605128D01*
X143589946Y-46605127D01*
X143589945Y-46605127D01*
X143425201Y-46551598D01*
X143425199Y-46551597D01*
X143425198Y-46551597D01*
X143293771Y-46530781D01*
X143254111Y-46524500D01*
X143080889Y-46524500D01*
X143041228Y-46530781D01*
X142909802Y-46551597D01*
X142745052Y-46605128D01*
X142590711Y-46683768D01*
X142530345Y-46727627D01*
X142450572Y-46785586D01*
X142450570Y-46785588D01*
X142450569Y-46785588D01*
X142328088Y-46908069D01*
X142328088Y-46908070D01*
X142328086Y-46908072D01*
X142304598Y-46940401D01*
X142226268Y-47048211D01*
X142147628Y-47202552D01*
X142094097Y-47367302D01*
X142067000Y-47538389D01*
X142067000Y-47711610D01*
X142093121Y-47876537D01*
X142094098Y-47882701D01*
X142147627Y-48047445D01*
X142226268Y-48201788D01*
X142328086Y-48341928D01*
X142450572Y-48464414D01*
X142590712Y-48566232D01*
X142745055Y-48644873D01*
X142909799Y-48698402D01*
X143080889Y-48725500D01*
X143080890Y-48725500D01*
X143254110Y-48725500D01*
X143254111Y-48725500D01*
X143425201Y-48698402D01*
X143589945Y-48644873D01*
X143744288Y-48566232D01*
X143865115Y-48478445D01*
X143930920Y-48454965D01*
X143998974Y-48470790D01*
X144047669Y-48520895D01*
X144062000Y-48578763D01*
X144062000Y-53450500D01*
X144042315Y-53517539D01*
X143989511Y-53563294D01*
X143938000Y-53574500D01*
X132287000Y-53574500D01*
X132219961Y-53554815D01*
X132174206Y-53502011D01*
X132163000Y-53450500D01*
X132163000Y-48615091D01*
X132182685Y-48548052D01*
X132235489Y-48502297D01*
X132304647Y-48492353D01*
X132359883Y-48514772D01*
X132430712Y-48566232D01*
X132585055Y-48644873D01*
X132749799Y-48698402D01*
X132920889Y-48725500D01*
X132920890Y-48725500D01*
X133094110Y-48725500D01*
X133094111Y-48725500D01*
X133265201Y-48698402D01*
X133429945Y-48644873D01*
X133584288Y-48566232D01*
X133724428Y-48464414D01*
X133846914Y-48341928D01*
X133948732Y-48201788D01*
X134027373Y-48047445D01*
X134080902Y-47882701D01*
X134108000Y-47711611D01*
X134108000Y-47538389D01*
X134080902Y-47367299D01*
X134027373Y-47202555D01*
X133948732Y-47048212D01*
X133846914Y-46908072D01*
X133724428Y-46785586D01*
X133584288Y-46683768D01*
X133459129Y-46619997D01*
X133429947Y-46605128D01*
X133429946Y-46605127D01*
X133429945Y-46605127D01*
X133265201Y-46551598D01*
X133265199Y-46551597D01*
X133265198Y-46551597D01*
X133133771Y-46530781D01*
X133094111Y-46524500D01*
X132920889Y-46524500D01*
X132881228Y-46530781D01*
X132749802Y-46551597D01*
X132585052Y-46605128D01*
X132430708Y-46683770D01*
X132359885Y-46735226D01*
X132294079Y-46758706D01*
X132226025Y-46742880D01*
X132177330Y-46692775D01*
X132163000Y-46634908D01*
X132163000Y-41799500D01*
X132182685Y-41732461D01*
X132235489Y-41686706D01*
X132287000Y-41675500D01*
X132708700Y-41675500D01*
X132775739Y-41695185D01*
G37*
%TD.AperFunction*%
%TA.AperFunction,Conductor*%
G36*
X319415039Y-31595185D02*
G01*
X319460794Y-31647989D01*
X319472000Y-31699500D01*
X319472000Y-39350500D01*
X319452315Y-39417539D01*
X319399511Y-39463294D01*
X319348000Y-39474500D01*
X316629700Y-39474500D01*
X316562661Y-39454815D01*
X316516906Y-39402011D01*
X316505700Y-39350500D01*
X316505700Y-31998865D01*
X316525385Y-31931826D01*
X316526598Y-31929974D01*
X316614590Y-31798285D01*
X316614590Y-31798284D01*
X316614594Y-31798279D01*
X316623846Y-31775943D01*
X316675165Y-31652048D01*
X316719006Y-31597644D01*
X316785300Y-31575579D01*
X316789726Y-31575500D01*
X319348000Y-31575500D01*
X319415039Y-31595185D01*
G37*
%TD.AperFunction*%
%TA.AperFunction,Conductor*%
G36*
X216974239Y-20145185D02*
G01*
X217019994Y-20197989D01*
X217031200Y-20249500D01*
X217031200Y-34400500D01*
X217011515Y-34467539D01*
X216958711Y-34513294D01*
X216907200Y-34524500D01*
X213477200Y-34524500D01*
X213410161Y-34504815D01*
X213364406Y-34452011D01*
X213353200Y-34400500D01*
X213353200Y-30841859D01*
X213353201Y-30841846D01*
X213353201Y-30673745D01*
X213353201Y-30673743D01*
X213312277Y-30521015D01*
X213274673Y-30455884D01*
X213274673Y-30455882D01*
X213233224Y-30384090D01*
X213233221Y-30384086D01*
X213233220Y-30384084D01*
X213121416Y-30272280D01*
X213121415Y-30272279D01*
X213117085Y-30267949D01*
X213117074Y-30267939D01*
X211337524Y-28488389D01*
X213504500Y-28488389D01*
X213504500Y-28661610D01*
X213521265Y-28767465D01*
X213531598Y-28832701D01*
X213585127Y-28997445D01*
X213663768Y-29151788D01*
X213765586Y-29291928D01*
X213888072Y-29414414D01*
X214028212Y-29516232D01*
X214182555Y-29594873D01*
X214347299Y-29648402D01*
X214518389Y-29675500D01*
X214518390Y-29675500D01*
X214691610Y-29675500D01*
X214691611Y-29675500D01*
X214862701Y-29648402D01*
X215027445Y-29594873D01*
X215181788Y-29516232D01*
X215321928Y-29414414D01*
X215444414Y-29291928D01*
X215546232Y-29151788D01*
X215624873Y-28997445D01*
X215678402Y-28832701D01*
X215705500Y-28661611D01*
X215705500Y-28488389D01*
X215678402Y-28317299D01*
X215624873Y-28152555D01*
X215546232Y-27998212D01*
X215444414Y-27858072D01*
X215321928Y-27735586D01*
X215181788Y-27633768D01*
X215044300Y-27563715D01*
X215027447Y-27555128D01*
X215027446Y-27555127D01*
X215027445Y-27555127D01*
X214862701Y-27501598D01*
X214862699Y-27501597D01*
X214862698Y-27501597D01*
X214715641Y-27478306D01*
X214691611Y-27474500D01*
X214518389Y-27474500D01*
X214494359Y-27478306D01*
X214347302Y-27501597D01*
X214182552Y-27555128D01*
X214028211Y-27633768D01*
X213957386Y-27685226D01*
X213888072Y-27735586D01*
X213888070Y-27735588D01*
X213888069Y-27735588D01*
X213765588Y-27858069D01*
X213765588Y-27858070D01*
X213765586Y-27858072D01*
X213728966Y-27908475D01*
X213663768Y-27998211D01*
X213585128Y-28152552D01*
X213531597Y-28317302D01*
X213504500Y-28488389D01*
X211337524Y-28488389D01*
X210355574Y-27506439D01*
X210322089Y-27445116D01*
X210321638Y-27442949D01*
X210298473Y-27326494D01*
X210290737Y-27287603D01*
X210249823Y-27188827D01*
X210230397Y-27141927D01*
X210230390Y-27141914D01*
X210142789Y-27010811D01*
X210142786Y-27010807D01*
X210031291Y-26899312D01*
X210031288Y-26899310D01*
X209900185Y-26811709D01*
X209900172Y-26811702D01*
X209754501Y-26751364D01*
X209754489Y-26751361D01*
X209599845Y-26720600D01*
X209599842Y-26720600D01*
X209442158Y-26720600D01*
X209442155Y-26720600D01*
X209287510Y-26751361D01*
X209287498Y-26751364D01*
X209141827Y-26811702D01*
X209141814Y-26811709D01*
X209010711Y-26899310D01*
X209010709Y-26899312D01*
X208899213Y-27010807D01*
X208899210Y-27010811D01*
X208811609Y-27141914D01*
X208811602Y-27141927D01*
X208751264Y-27287598D01*
X208751261Y-27287610D01*
X208720500Y-27442253D01*
X208720500Y-27599946D01*
X208751261Y-27754589D01*
X208751264Y-27754601D01*
X208811602Y-27900272D01*
X208811609Y-27900285D01*
X208899210Y-28031388D01*
X208899213Y-28031392D01*
X209010707Y-28142886D01*
X209010711Y-28142889D01*
X209141814Y-28230490D01*
X209141827Y-28230497D01*
X209282930Y-28288943D01*
X209287503Y-28290837D01*
X209352147Y-28303695D01*
X209442849Y-28321738D01*
X209504760Y-28354123D01*
X209506339Y-28355674D01*
X212115881Y-30965216D01*
X212149366Y-31026539D01*
X212152200Y-31052897D01*
X212152200Y-34400500D01*
X212132515Y-34467539D01*
X212079711Y-34513294D01*
X212028200Y-34524500D01*
X211255900Y-34524500D01*
X211188861Y-34504815D01*
X211143106Y-34452011D01*
X211131900Y-34400500D01*
X211131900Y-32107660D01*
X211131901Y-32107647D01*
X211131901Y-31939544D01*
X211131458Y-31937890D01*
X211090977Y-31786816D01*
X211077248Y-31763037D01*
X211011924Y-31649890D01*
X211011918Y-31649882D01*
X205964473Y-26602437D01*
X205930988Y-26541114D01*
X205930537Y-26538947D01*
X205901971Y-26395337D01*
X205899637Y-26383603D01*
X205879501Y-26334990D01*
X205839297Y-26237927D01*
X205839290Y-26237914D01*
X205751689Y-26106811D01*
X205751686Y-26106807D01*
X205640192Y-25995313D01*
X205640188Y-25995310D01*
X205509085Y-25907709D01*
X205509072Y-25907702D01*
X205363401Y-25847364D01*
X205363389Y-25847361D01*
X205208745Y-25816600D01*
X205208742Y-25816600D01*
X205051058Y-25816600D01*
X205051055Y-25816600D01*
X204896410Y-25847361D01*
X204896398Y-25847364D01*
X204750727Y-25907702D01*
X204750714Y-25907709D01*
X204619611Y-25995310D01*
X204619607Y-25995313D01*
X204508113Y-26106807D01*
X204508110Y-26106811D01*
X204420509Y-26237914D01*
X204420502Y-26237927D01*
X204360164Y-26383598D01*
X204360161Y-26383610D01*
X204329400Y-26538253D01*
X204329400Y-26695946D01*
X204360161Y-26850589D01*
X204360164Y-26850601D01*
X204420502Y-26996272D01*
X204420509Y-26996285D01*
X204508110Y-27127388D01*
X204508113Y-27127392D01*
X204619607Y-27238886D01*
X204619611Y-27238889D01*
X204639207Y-27251983D01*
X204684012Y-27305595D01*
X204692719Y-27374920D01*
X204662565Y-27437948D01*
X204603121Y-27474667D01*
X204550918Y-27477558D01*
X204531611Y-27474500D01*
X204358389Y-27474500D01*
X204334359Y-27478306D01*
X204187302Y-27501597D01*
X204022552Y-27555128D01*
X203868208Y-27633770D01*
X203797385Y-27685226D01*
X203731579Y-27708706D01*
X203663525Y-27692880D01*
X203614830Y-27642775D01*
X203600500Y-27584908D01*
X203600500Y-20249500D01*
X203620185Y-20182461D01*
X203672989Y-20136706D01*
X203724500Y-20125500D01*
X216907200Y-20125500D01*
X216974239Y-20145185D01*
G37*
%TD.AperFunction*%
%TA.AperFunction,Conductor*%
G36*
X170317539Y-1095185D02*
G01*
X170363294Y-1147989D01*
X170374500Y-1199500D01*
X170374500Y-5469003D01*
X170354815Y-5536042D01*
X170302011Y-5581797D01*
X170232853Y-5591741D01*
X170169297Y-5562716D01*
X170162819Y-5556684D01*
X169635174Y-5029039D01*
X169601689Y-4967716D01*
X169601238Y-4965549D01*
X169570338Y-4810210D01*
X169570337Y-4810203D01*
X169538356Y-4732993D01*
X169509997Y-4664527D01*
X169509990Y-4664514D01*
X169422389Y-4533411D01*
X169422386Y-4533407D01*
X169310892Y-4421913D01*
X169310888Y-4421910D01*
X169179785Y-4334309D01*
X169179772Y-4334302D01*
X169034101Y-4273964D01*
X169034089Y-4273961D01*
X168879445Y-4243200D01*
X168879442Y-4243200D01*
X168721758Y-4243200D01*
X168721755Y-4243200D01*
X168567110Y-4273961D01*
X168567098Y-4273964D01*
X168421427Y-4334302D01*
X168421414Y-4334309D01*
X168290311Y-4421910D01*
X168290307Y-4421913D01*
X168178813Y-4533407D01*
X168178810Y-4533411D01*
X168091209Y-4664514D01*
X168091202Y-4664527D01*
X168030864Y-4810198D01*
X168030861Y-4810210D01*
X168000100Y-4964853D01*
X168000100Y-5122546D01*
X168030861Y-5277189D01*
X168030864Y-5277201D01*
X168091202Y-5422872D01*
X168091209Y-5422885D01*
X168178810Y-5553988D01*
X168178813Y-5553992D01*
X168290307Y-5665486D01*
X168290311Y-5665489D01*
X168421414Y-5753090D01*
X168421427Y-5753097D01*
X168515262Y-5791964D01*
X168567103Y-5813437D01*
X168631747Y-5826295D01*
X168722449Y-5844338D01*
X168784360Y-5876723D01*
X168785939Y-5878274D01*
X170338181Y-7430516D01*
X170371666Y-7491839D01*
X170374500Y-7518197D01*
X170374500Y-15350500D01*
X170354815Y-15417539D01*
X170302011Y-15463294D01*
X170250500Y-15474500D01*
X163094000Y-15474500D01*
X163026961Y-15454815D01*
X162981206Y-15402011D01*
X162970000Y-15350500D01*
X162970000Y-10666660D01*
X162970001Y-10666647D01*
X162970001Y-10498544D01*
X162967411Y-10488879D01*
X162929077Y-10345816D01*
X162927560Y-10343189D01*
X162850024Y-10208890D01*
X162850018Y-10208882D01*
X162079525Y-9438389D01*
X165879500Y-9438389D01*
X165879500Y-9611610D01*
X165906511Y-9782155D01*
X165906598Y-9782701D01*
X165958999Y-9943974D01*
X165960128Y-9947447D01*
X166002336Y-10030286D01*
X166038768Y-10101788D01*
X166140586Y-10241928D01*
X166263072Y-10364414D01*
X166403212Y-10466232D01*
X166557555Y-10544873D01*
X166722299Y-10598402D01*
X166893389Y-10625500D01*
X166893390Y-10625500D01*
X167066610Y-10625500D01*
X167066611Y-10625500D01*
X167237701Y-10598402D01*
X167402445Y-10544873D01*
X167556788Y-10466232D01*
X167696928Y-10364414D01*
X167819414Y-10241928D01*
X167921232Y-10101788D01*
X167999873Y-9947445D01*
X168053402Y-9782701D01*
X168080500Y-9611611D01*
X168080500Y-9438389D01*
X168053402Y-9267299D01*
X167999873Y-9102555D01*
X167921232Y-8948212D01*
X167819414Y-8808072D01*
X167696928Y-8685586D01*
X167556788Y-8583768D01*
X167402445Y-8505127D01*
X167237701Y-8451598D01*
X167237699Y-8451597D01*
X167237698Y-8451597D01*
X167083639Y-8427197D01*
X167066611Y-8424500D01*
X166893389Y-8424500D01*
X166876361Y-8427197D01*
X166722302Y-8451597D01*
X166557552Y-8505128D01*
X166403211Y-8583768D01*
X166366969Y-8610100D01*
X166263072Y-8685586D01*
X166263070Y-8685588D01*
X166263069Y-8685588D01*
X166140588Y-8808069D01*
X166140588Y-8808070D01*
X166140586Y-8808072D01*
X166117497Y-8839851D01*
X166038768Y-8948211D01*
X165960128Y-9102552D01*
X165906597Y-9267302D01*
X165879500Y-9438389D01*
X162079525Y-9438389D01*
X162050773Y-9409637D01*
X162017288Y-9348314D01*
X162016837Y-9346147D01*
X162013557Y-9329658D01*
X161985937Y-9190803D01*
X161979395Y-9175008D01*
X161925597Y-9045127D01*
X161925590Y-9045114D01*
X161837989Y-8914011D01*
X161837986Y-8914007D01*
X161726492Y-8802513D01*
X161726488Y-8802510D01*
X161595385Y-8714909D01*
X161595372Y-8714902D01*
X161449701Y-8654564D01*
X161449689Y-8654561D01*
X161295045Y-8623800D01*
X161295042Y-8623800D01*
X161137358Y-8623800D01*
X161137355Y-8623800D01*
X160982710Y-8654561D01*
X160982698Y-8654564D01*
X160837027Y-8714902D01*
X160837014Y-8714909D01*
X160705911Y-8802510D01*
X160705907Y-8802513D01*
X160594413Y-8914007D01*
X160594410Y-8914011D01*
X160506809Y-9045114D01*
X160506802Y-9045127D01*
X160446464Y-9190798D01*
X160446461Y-9190810D01*
X160415700Y-9345453D01*
X160415700Y-9503146D01*
X160446461Y-9657789D01*
X160446464Y-9657801D01*
X160506802Y-9803472D01*
X160506809Y-9803485D01*
X160594410Y-9934588D01*
X160594413Y-9934592D01*
X160705907Y-10046086D01*
X160705911Y-10046089D01*
X160837014Y-10133690D01*
X160837027Y-10133697D01*
X160969446Y-10188546D01*
X160982703Y-10194037D01*
X161047347Y-10206895D01*
X161138049Y-10224938D01*
X161199960Y-10257323D01*
X161201539Y-10258874D01*
X161732681Y-10790016D01*
X161766166Y-10851339D01*
X161769000Y-10877697D01*
X161769000Y-15350500D01*
X161749315Y-15417539D01*
X161696511Y-15463294D01*
X161645000Y-15474500D01*
X156099500Y-15474500D01*
X156032461Y-15454815D01*
X155986706Y-15402011D01*
X155975500Y-15350500D01*
X155975500Y-10515091D01*
X155995185Y-10448052D01*
X156047989Y-10402297D01*
X156117147Y-10392353D01*
X156172383Y-10414772D01*
X156243212Y-10466232D01*
X156397555Y-10544873D01*
X156562299Y-10598402D01*
X156733389Y-10625500D01*
X156733390Y-10625500D01*
X156906610Y-10625500D01*
X156906611Y-10625500D01*
X157077701Y-10598402D01*
X157242445Y-10544873D01*
X157396788Y-10466232D01*
X157536928Y-10364414D01*
X157659414Y-10241928D01*
X157761232Y-10101788D01*
X157839873Y-9947445D01*
X157893402Y-9782701D01*
X157920500Y-9611611D01*
X157920500Y-9438389D01*
X157893402Y-9267299D01*
X157839873Y-9102555D01*
X157761232Y-8948212D01*
X157659414Y-8808072D01*
X157536928Y-8685586D01*
X157396788Y-8583768D01*
X157242445Y-8505127D01*
X157077701Y-8451598D01*
X157077699Y-8451597D01*
X157077698Y-8451597D01*
X156923639Y-8427197D01*
X156906611Y-8424500D01*
X156733389Y-8424500D01*
X156716361Y-8427197D01*
X156562302Y-8451597D01*
X156397552Y-8505128D01*
X156243208Y-8583770D01*
X156172385Y-8635226D01*
X156106579Y-8658706D01*
X156038525Y-8642880D01*
X155989830Y-8592775D01*
X155975500Y-8534908D01*
X155975500Y-1199500D01*
X155995185Y-1132461D01*
X156047989Y-1086706D01*
X156099500Y-1075500D01*
X170250500Y-1075500D01*
X170317539Y-1095185D01*
G37*
%TD.AperFunction*%
%TA.AperFunction,Conductor*%
G36*
X308322539Y-730185D02*
G01*
X308368294Y-782989D01*
X308379500Y-834500D01*
X308379500Y-1466714D01*
X308359815Y-1533753D01*
X308307011Y-1579508D01*
X308237853Y-1589452D01*
X308174297Y-1560427D01*
X308150604Y-1530758D01*
X308150017Y-1531151D01*
X308037139Y-1362218D01*
X308037136Y-1362214D01*
X307897785Y-1222863D01*
X307897781Y-1222860D01*
X307733920Y-1113371D01*
X307733907Y-1113364D01*
X307551839Y-1037950D01*
X307551829Y-1037947D01*
X307358543Y-999500D01*
X307358541Y-999500D01*
X307161459Y-999500D01*
X307161457Y-999500D01*
X306968170Y-1037947D01*
X306968160Y-1037950D01*
X306786092Y-1113364D01*
X306786079Y-1113371D01*
X306622218Y-1222860D01*
X306622214Y-1222863D01*
X306482863Y-1362214D01*
X306482860Y-1362218D01*
X306373371Y-1526079D01*
X306373364Y-1526092D01*
X306297950Y-1708160D01*
X306297947Y-1708170D01*
X306259500Y-1901456D01*
X306259500Y-1901459D01*
X306259500Y-2098541D01*
X306259500Y-2098543D01*
X306259499Y-2098543D01*
X306297947Y-2291829D01*
X306297950Y-2291839D01*
X306373364Y-2473907D01*
X306373371Y-2473920D01*
X306482860Y-2637781D01*
X306482863Y-2637785D01*
X306622214Y-2777136D01*
X306622218Y-2777139D01*
X306786079Y-2886628D01*
X306786092Y-2886635D01*
X306945167Y-2952525D01*
X306968165Y-2962051D01*
X306968169Y-2962051D01*
X306968170Y-2962052D01*
X307161456Y-3000500D01*
X307161459Y-3000500D01*
X307358543Y-3000500D01*
X307488582Y-2974632D01*
X307551835Y-2962051D01*
X307733914Y-2886632D01*
X307897782Y-2777139D01*
X308037139Y-2637782D01*
X308106962Y-2533285D01*
X308150017Y-2468849D01*
X308151226Y-2469657D01*
X308195100Y-2424990D01*
X308263237Y-2409527D01*
X308328917Y-2433355D01*
X308371288Y-2488911D01*
X308379500Y-2533285D01*
X308379500Y-3592372D01*
X308359815Y-3659411D01*
X308307011Y-3705166D01*
X308237853Y-3715110D01*
X308174297Y-3686085D01*
X308167819Y-3680053D01*
X308074321Y-3586555D01*
X307915143Y-3470904D01*
X307739835Y-3381581D01*
X307552705Y-3320778D01*
X307358382Y-3290000D01*
X307010000Y-3290000D01*
X307010000Y-4106988D01*
X306952993Y-4139901D01*
X306859901Y-4232993D01*
X306794075Y-4347007D01*
X306760000Y-4474174D01*
X306760000Y-4540000D01*
X306634000Y-4540000D01*
X306566961Y-4520315D01*
X306521206Y-4467511D01*
X306510000Y-4416000D01*
X306510000Y-3290000D01*
X306161616Y-3290000D01*
X306073897Y-3303893D01*
X306004604Y-3294938D01*
X305951152Y-3249942D01*
X305930513Y-3183190D01*
X305930500Y-3181420D01*
X305930500Y-834500D01*
X305950185Y-767461D01*
X306002989Y-721706D01*
X306054500Y-710500D01*
X308255500Y-710500D01*
X308322539Y-730185D01*
G37*
%TD.AperFunction*%
%TD*%
M02*
