%TF.GenerationSoftware,KiCad,Pcbnew,9.0.8*%
%TF.CreationDate,2026-04-17T23:09:53-04:00*%
%TF.ProjectId,routed,726f7574-6564-42e6-9b69-6361645f7063,rev?*%
%TF.SameCoordinates,Original*%
%TF.FileFunction,Soldermask,Top*%
%TF.FilePolarity,Negative*%
%FSLAX46Y46*%
G04 Gerber Fmt 4.6, Leading zero omitted, Abs format (unit mm)*
G04 Created by KiCad (PCBNEW 9.0.8) date 2026-04-17 23:09:53*
%MOMM*%
%LPD*%
G01*
G04 APERTURE LIST*
G04 Aperture macros list*
%AMRoundRect*
0 Rectangle with rounded corners*
0 $1 Rounding radius*
0 $2 $3 $4 $5 $6 $7 $8 $9 X,Y pos of 4 corners*
0 Add a 4 corners polygon primitive as box body*
4,1,4,$2,$3,$4,$5,$6,$7,$8,$9,$2,$3,0*
0 Add four circle primitives for the rounded corners*
1,1,$1+$1,$2,$3*
1,1,$1+$1,$4,$5*
1,1,$1+$1,$6,$7*
1,1,$1+$1,$8,$9*
0 Add four rect primitives between the rounded corners*
20,1,$1+$1,$2,$3,$4,$5,0*
20,1,$1+$1,$4,$5,$6,$7,0*
20,1,$1+$1,$6,$7,$8,$9,0*
20,1,$1+$1,$8,$9,$2,$3,0*%
G04 Aperture macros list end*
%ADD10O,2.500000X1.500000*%
%ADD11O,1.500000X2.500000*%
%ADD12C,1.700000*%
%ADD13R,0.558800X1.270000*%
%ADD14R,0.558800X1.320800*%
%ADD15R,0.812800X0.254000*%
%ADD16R,0.254000X0.812800*%
%ADD17RoundRect,0.200000X0.275000X-0.200000X0.275000X0.200000X-0.275000X0.200000X-0.275000X-0.200000X0*%
%ADD18R,1.676400X1.676400*%
G04 APERTURE END LIST*
D10*
%TO.C,R0*%
X323000000Y-2000000D03*
X323000000Y-4540000D03*
X323000000Y-7080000D03*
X323000000Y-9620000D03*
X323000000Y-12160000D03*
X323000000Y-14700000D03*
X323000000Y-17240000D03*
X323000000Y-19780000D03*
X323000000Y-22320000D03*
D11*
X319960000Y-22820000D03*
X317420000Y-22820000D03*
X314880000Y-22820000D03*
X312340000Y-22820000D03*
X309800000Y-22820000D03*
D10*
X306760000Y-22320000D03*
X306760000Y-19780000D03*
X306760000Y-17240000D03*
X306760000Y-14700000D03*
X306760000Y-12160000D03*
X306760000Y-9620000D03*
X306760000Y-7080000D03*
X306760000Y-4540000D03*
X306760000Y-2000000D03*
%TD*%
D12*
%TO.C,R1*%
X14580000Y-9525000D03*
X4420000Y-9525000D03*
D13*
X10446001Y-8264400D03*
X8545999Y-8264400D03*
X9496000Y-10702800D03*
D14*
X17435001Y-1499000D03*
X15534999Y-1499000D03*
X16485000Y-3531000D03*
%TD*%
D12*
%TO.C,R2*%
X33630000Y-9525000D03*
X23470000Y-9525000D03*
D13*
X29496001Y-8264400D03*
X27595999Y-8264400D03*
X28546000Y-10702800D03*
%TD*%
D12*
%TO.C,R3*%
X52680000Y-9525000D03*
X42520000Y-9525000D03*
D13*
X48546001Y-8264400D03*
X46645999Y-8264400D03*
X47596000Y-10702800D03*
%TD*%
D12*
%TO.C,R4*%
X71730000Y-9525000D03*
X61570000Y-9525000D03*
D13*
X67596001Y-8264400D03*
X65695999Y-8264400D03*
X66646000Y-10702800D03*
%TD*%
D12*
%TO.C,R5*%
X90780000Y-9525000D03*
X80620000Y-9525000D03*
D13*
X86646001Y-8264400D03*
X84745999Y-8264400D03*
X85696000Y-10702800D03*
%TD*%
D12*
%TO.C,R6*%
X109830000Y-9525000D03*
X99670000Y-9525000D03*
D13*
X105696001Y-8264400D03*
X103795999Y-8264400D03*
X104746000Y-10702800D03*
%TD*%
D12*
%TO.C,R7*%
X128880000Y-9525000D03*
X118720000Y-9525000D03*
D13*
X124746001Y-8264400D03*
X122845999Y-8264400D03*
X123796000Y-10702800D03*
%TD*%
D12*
%TO.C,R8*%
X147930000Y-9525000D03*
X137770000Y-9525000D03*
D13*
X143796001Y-8264400D03*
X141895999Y-8264400D03*
X142846000Y-10702800D03*
%TD*%
D12*
%TO.C,R9*%
X166980000Y-9525000D03*
X156820000Y-9525000D03*
D13*
X162846001Y-8264400D03*
X160945999Y-8264400D03*
X161896000Y-10702800D03*
D14*
X169835001Y-1499000D03*
X167934999Y-1499000D03*
X168885000Y-3531000D03*
%TD*%
D12*
%TO.C,R10*%
X186030000Y-9525000D03*
X175870000Y-9525000D03*
D13*
X181896001Y-8264400D03*
X179995999Y-8264400D03*
X180946000Y-10702800D03*
%TD*%
D12*
%TO.C,R11*%
X205080000Y-9525000D03*
X194920000Y-9525000D03*
D13*
X200946001Y-8264400D03*
X199045999Y-8264400D03*
X199996000Y-10702800D03*
%TD*%
D12*
%TO.C,R12*%
X224130000Y-9525000D03*
X213970000Y-9525000D03*
D13*
X219996001Y-8264400D03*
X218095999Y-8264400D03*
X219046000Y-10702800D03*
%TD*%
D12*
%TO.C,R13*%
X243180000Y-9525000D03*
X233020000Y-9525000D03*
D13*
X239046001Y-8264400D03*
X237145999Y-8264400D03*
X238096000Y-10702800D03*
%TD*%
D12*
%TO.C,R14*%
X271755000Y-9525000D03*
X261595000Y-9525000D03*
D13*
X267621001Y-8264400D03*
X265720999Y-8264400D03*
X266671000Y-10702800D03*
%TD*%
D12*
%TO.C,R15*%
X19342500Y-28575000D03*
X9182500Y-28575000D03*
D13*
X15208501Y-27314400D03*
X13308499Y-27314400D03*
X14258500Y-29752800D03*
%TD*%
D12*
%TO.C,R16*%
X43155000Y-28575000D03*
X32995000Y-28575000D03*
D13*
X39021001Y-27314400D03*
X37120999Y-27314400D03*
X38071000Y-29752800D03*
%TD*%
D12*
%TO.C,R17*%
X62205000Y-28575000D03*
X52045000Y-28575000D03*
D13*
X58071001Y-27314400D03*
X56170999Y-27314400D03*
X57121000Y-29752800D03*
D14*
X65060001Y-20549000D03*
X63159999Y-20549000D03*
X64110000Y-22581000D03*
%TD*%
D12*
%TO.C,R18*%
X81255000Y-28575000D03*
X71095000Y-28575000D03*
D13*
X77121001Y-27314400D03*
X75220999Y-27314400D03*
X76171000Y-29752800D03*
%TD*%
D12*
%TO.C,R19*%
X100305000Y-28575000D03*
X90145000Y-28575000D03*
D13*
X96171001Y-27314400D03*
X94270999Y-27314400D03*
X95221000Y-29752800D03*
%TD*%
D12*
%TO.C,R20*%
X119355000Y-28575000D03*
X109195000Y-28575000D03*
D13*
X115221001Y-27314400D03*
X113320999Y-27314400D03*
X114271000Y-29752800D03*
%TD*%
D12*
%TO.C,R21*%
X138405000Y-28575000D03*
X128245000Y-28575000D03*
D13*
X134271001Y-27314400D03*
X132370999Y-27314400D03*
X133321000Y-29752800D03*
%TD*%
D12*
%TO.C,R22*%
X157455000Y-28575000D03*
X147295000Y-28575000D03*
D13*
X153321001Y-27314400D03*
X151420999Y-27314400D03*
X152371000Y-29752800D03*
%TD*%
D12*
%TO.C,R23*%
X176505000Y-28575000D03*
X166345000Y-28575000D03*
D13*
X172371001Y-27314400D03*
X170470999Y-27314400D03*
X171421000Y-29752800D03*
%TD*%
D12*
%TO.C,R24*%
X195555000Y-28575000D03*
X185395000Y-28575000D03*
D13*
X191421001Y-27314400D03*
X189520999Y-27314400D03*
X190471000Y-29752800D03*
%TD*%
D12*
%TO.C,R25*%
X214605000Y-28575000D03*
X204445000Y-28575000D03*
D13*
X210471001Y-27314400D03*
X208570999Y-27314400D03*
X209521000Y-29752800D03*
D14*
X217460001Y-20549000D03*
X215559999Y-20549000D03*
X216510000Y-22581000D03*
%TD*%
D12*
%TO.C,R26*%
X233655000Y-28575000D03*
X223495000Y-28575000D03*
D13*
X229521001Y-27314400D03*
X227620999Y-27314400D03*
X228571000Y-29752800D03*
%TD*%
D12*
%TO.C,R27*%
X252705000Y-28575000D03*
X242545000Y-28575000D03*
D13*
X248571001Y-27314400D03*
X246670999Y-27314400D03*
X247621000Y-29752800D03*
%TD*%
D12*
%TO.C,R28*%
X276517500Y-28575000D03*
X266357500Y-28575000D03*
D13*
X272383501Y-27314400D03*
X270483499Y-27314400D03*
X271433500Y-29752800D03*
%TD*%
D12*
%TO.C,R29*%
X21723800Y-47625000D03*
X11563800Y-47625000D03*
D13*
X17589801Y-46364400D03*
X15689799Y-46364400D03*
X16639800Y-48802800D03*
%TD*%
D12*
%TO.C,R30*%
X47917500Y-47625000D03*
X37757500Y-47625000D03*
D13*
X43783501Y-46364400D03*
X41883499Y-46364400D03*
X42833500Y-48802800D03*
%TD*%
D12*
%TO.C,R31*%
X66967500Y-47625000D03*
X56807500Y-47625000D03*
D13*
X62833501Y-46364400D03*
X60933499Y-46364400D03*
X61883500Y-48802800D03*
%TD*%
D12*
%TO.C,R32*%
X86017500Y-47625000D03*
X75857500Y-47625000D03*
D13*
X81883501Y-46364400D03*
X79983499Y-46364400D03*
X80933500Y-48802800D03*
%TD*%
D12*
%TO.C,R33*%
X105067500Y-47625000D03*
X94907500Y-47625000D03*
D13*
X100933501Y-46364400D03*
X99033499Y-46364400D03*
X99983500Y-48802800D03*
D14*
X107922501Y-39599000D03*
X106022499Y-39599000D03*
X106972500Y-41631000D03*
%TD*%
D12*
%TO.C,R34*%
X124117500Y-47625000D03*
X113957500Y-47625000D03*
D13*
X119983501Y-46364400D03*
X118083499Y-46364400D03*
X119033500Y-48802800D03*
%TD*%
D12*
%TO.C,R35*%
X143167500Y-47625000D03*
X133007500Y-47625000D03*
D13*
X139033501Y-46364400D03*
X137133499Y-46364400D03*
X138083500Y-48802800D03*
%TD*%
D12*
%TO.C,R36*%
X162217500Y-47625000D03*
X152057500Y-47625000D03*
D13*
X158083501Y-46364400D03*
X156183499Y-46364400D03*
X157133500Y-48802800D03*
%TD*%
D12*
%TO.C,R37*%
X181267500Y-47625000D03*
X171107500Y-47625000D03*
D13*
X177133501Y-46364400D03*
X175233499Y-46364400D03*
X176183500Y-48802800D03*
%TD*%
D12*
%TO.C,R38*%
X200317500Y-47625000D03*
X190157500Y-47625000D03*
D13*
X196183501Y-46364400D03*
X194283499Y-46364400D03*
X195233500Y-48802800D03*
%TD*%
D12*
%TO.C,R39*%
X219367500Y-47625000D03*
X209207500Y-47625000D03*
D13*
X215233501Y-46364400D03*
X213333499Y-46364400D03*
X214283500Y-48802800D03*
%TD*%
D12*
%TO.C,R40*%
X238417500Y-47625000D03*
X228257500Y-47625000D03*
D13*
X234283501Y-46364400D03*
X232383499Y-46364400D03*
X233333500Y-48802800D03*
%TD*%
D12*
%TO.C,R41*%
X269373800Y-47625000D03*
X259213800Y-47625000D03*
D13*
X265239801Y-46364400D03*
X263339799Y-46364400D03*
X264289800Y-48802800D03*
D14*
X272228801Y-39599000D03*
X270328799Y-39599000D03*
X271278800Y-41631000D03*
%TD*%
D12*
%TO.C,R42*%
X26486300Y-66675000D03*
X16326300Y-66675000D03*
D13*
X22352301Y-65414400D03*
X20452299Y-65414400D03*
X21402300Y-67852800D03*
%TD*%
D12*
%TO.C,R43*%
X57442500Y-66675000D03*
X47282500Y-66675000D03*
D13*
X53308501Y-65414400D03*
X51408499Y-65414400D03*
X52358500Y-67852800D03*
%TD*%
D12*
%TO.C,R44*%
X76492500Y-66675000D03*
X66332500Y-66675000D03*
D13*
X72358501Y-65414400D03*
X70458499Y-65414400D03*
X71408500Y-67852800D03*
%TD*%
D12*
%TO.C,R45*%
X95542500Y-66675000D03*
X85382500Y-66675000D03*
D13*
X91408501Y-65414400D03*
X89508499Y-65414400D03*
X90458500Y-67852800D03*
%TD*%
D12*
%TO.C,R46*%
X114592500Y-66675000D03*
X104432500Y-66675000D03*
D13*
X110458501Y-65414400D03*
X108558499Y-65414400D03*
X109508500Y-67852800D03*
%TD*%
D12*
%TO.C,R47*%
X133642500Y-66675000D03*
X123482500Y-66675000D03*
D13*
X129508501Y-65414400D03*
X127608499Y-65414400D03*
X128558500Y-67852800D03*
%TD*%
D12*
%TO.C,R48*%
X152692500Y-66675000D03*
X142532500Y-66675000D03*
D13*
X148558501Y-65414400D03*
X146658499Y-65414400D03*
X147608500Y-67852800D03*
%TD*%
D12*
%TO.C,R49*%
X171742500Y-66675000D03*
X161582500Y-66675000D03*
D13*
X167608501Y-65414400D03*
X165708499Y-65414400D03*
X166658500Y-67852800D03*
D14*
X174597501Y-58649000D03*
X172697499Y-58649000D03*
X173647500Y-60681000D03*
%TD*%
D12*
%TO.C,R50*%
X190792500Y-66675000D03*
X180632500Y-66675000D03*
D13*
X186658501Y-65414400D03*
X184758499Y-65414400D03*
X185708500Y-67852800D03*
%TD*%
D12*
%TO.C,R51*%
X209842500Y-66675000D03*
X199682500Y-66675000D03*
D13*
X205708501Y-65414400D03*
X203808499Y-65414400D03*
X204758500Y-67852800D03*
%TD*%
D12*
%TO.C,R52*%
X228892500Y-66675000D03*
X218732500Y-66675000D03*
D13*
X224758501Y-65414400D03*
X222858499Y-65414400D03*
X223808500Y-67852800D03*
%TD*%
D12*
%TO.C,R53*%
X255086300Y-66675000D03*
X244926300Y-66675000D03*
D13*
X250952301Y-65414400D03*
X249052299Y-65414400D03*
X250002300Y-67852800D03*
%TD*%
D12*
%TO.C,R54*%
X16961300Y-85725000D03*
X6801300Y-85725000D03*
D13*
X12827301Y-84464400D03*
X10927299Y-84464400D03*
X11877300Y-86902800D03*
%TD*%
D12*
%TO.C,R55*%
X40773800Y-85725000D03*
X30613800Y-85725000D03*
D13*
X36639801Y-84464400D03*
X34739799Y-84464400D03*
X35689800Y-86902800D03*
%TD*%
D12*
%TO.C,R56*%
X64586300Y-85725000D03*
X54426300Y-85725000D03*
D13*
X60452301Y-84464400D03*
X58552299Y-84464400D03*
X59502300Y-86902800D03*
%TD*%
D12*
%TO.C,R57*%
X86017500Y-85725000D03*
X75857500Y-85725000D03*
D13*
X81883501Y-84464400D03*
X79983499Y-84464400D03*
X80933500Y-86902800D03*
%TD*%
D12*
%TO.C,R58*%
X186030000Y-85725000D03*
X175870000Y-85725000D03*
D13*
X181896001Y-84464400D03*
X179995999Y-84464400D03*
X180946000Y-86902800D03*
%TD*%
D12*
%TO.C,R59*%
X136023800Y-85725000D03*
X125863800Y-85725000D03*
D13*
X131889801Y-84464400D03*
X129989799Y-84464400D03*
X130939800Y-86902800D03*
D14*
X138878801Y-77699000D03*
X136978799Y-77699000D03*
X137928800Y-79731000D03*
%TD*%
D12*
%TO.C,R60*%
X205080000Y-85725000D03*
X194920000Y-85725000D03*
D13*
X200946001Y-84464400D03*
X199045999Y-84464400D03*
X199996000Y-86902800D03*
%TD*%
D12*
%TO.C,R61*%
X224130000Y-85725000D03*
X213970000Y-85725000D03*
D13*
X219996001Y-84464400D03*
X218095999Y-84464400D03*
X219046000Y-86902800D03*
%TD*%
D12*
%TO.C,R62*%
X243180000Y-85725000D03*
X233020000Y-85725000D03*
D13*
X239046001Y-84464400D03*
X237145999Y-84464400D03*
X238096000Y-86902800D03*
%TD*%
D12*
%TO.C,R63*%
X281280000Y-66675000D03*
X271120000Y-66675000D03*
D13*
X277146001Y-65414400D03*
X275245999Y-65414400D03*
X276196000Y-67852800D03*
%TD*%
D12*
%TO.C,R64*%
X262230000Y-85725000D03*
X252070000Y-85725000D03*
D13*
X258096001Y-84464400D03*
X256195999Y-84464400D03*
X257146000Y-86902800D03*
%TD*%
D12*
%TO.C,R65*%
X281280000Y-85725000D03*
X271120000Y-85725000D03*
D13*
X277146001Y-84464400D03*
X275245999Y-84464400D03*
X276196000Y-86902800D03*
%TD*%
D12*
%TO.C,R66*%
X300330000Y-85725000D03*
X290170000Y-85725000D03*
D13*
X296196001Y-84464400D03*
X294295999Y-84464400D03*
X295246000Y-86902800D03*
%TD*%
D15*
%TO.C,R67*%
X313049300Y-65274999D03*
X313049300Y-65775000D03*
X313049300Y-66275000D03*
X313049300Y-66775001D03*
D16*
X313772499Y-67498200D03*
X314272500Y-67498200D03*
X314772500Y-67498200D03*
X315272501Y-67498200D03*
D15*
X315995700Y-66775001D03*
X315995700Y-66275000D03*
X315995700Y-65775000D03*
X315995700Y-65274999D03*
D16*
X315272501Y-64551800D03*
X314772500Y-64551800D03*
X314272500Y-64551800D03*
X313772499Y-64551800D03*
D17*
X312500000Y-71150000D03*
D18*
X314522500Y-66025000D03*
D17*
X312500000Y-69500000D03*
X314500000Y-71150000D03*
X314500000Y-69500000D03*
X316500000Y-71150000D03*
X316500000Y-69500000D03*
X318500000Y-71150000D03*
X318500000Y-69500000D03*
%TD*%
D15*
%TO.C,R68*%
X313049300Y-32774999D03*
X313049300Y-33275000D03*
X313049300Y-33775000D03*
X313049300Y-34275001D03*
D16*
X313772499Y-34998200D03*
X314272500Y-34998200D03*
X314772500Y-34998200D03*
X315272501Y-34998200D03*
D15*
X315995700Y-34275001D03*
X315995700Y-33775000D03*
X315995700Y-33275000D03*
X315995700Y-32774999D03*
D16*
X315272501Y-32051800D03*
X314772500Y-32051800D03*
X314272500Y-32051800D03*
X313772499Y-32051800D03*
D17*
X312500000Y-38650000D03*
D18*
X314522500Y-33525000D03*
D17*
X312500000Y-37000000D03*
X314500000Y-38650000D03*
X314500000Y-37000000D03*
X316500000Y-38650000D03*
X316500000Y-37000000D03*
X318500000Y-38650000D03*
X318500000Y-37000000D03*
%TD*%
D12*
%TO.C,R69*%
X300330000Y-47625000D03*
X290170000Y-47625000D03*
D13*
X296196001Y-46364400D03*
X294295999Y-46364400D03*
X295246000Y-48802800D03*
D14*
X303185001Y-39599000D03*
X301284999Y-39599000D03*
X302235000Y-41631000D03*
%TD*%
D12*
%TO.C,R70*%
X300330000Y-66675000D03*
X290170000Y-66675000D03*
D13*
X296196001Y-65414400D03*
X294295999Y-65414400D03*
X295246000Y-67852800D03*
%TD*%
D12*
%TO.C,R71*%
X300330000Y-9525000D03*
X290170000Y-9525000D03*
D13*
X296196001Y-8264400D03*
X294295999Y-8264400D03*
X295246000Y-10702800D03*
%TD*%
D12*
%TO.C,R72*%
X300330000Y-28575000D03*
X290170000Y-28575000D03*
D13*
X296196001Y-27314400D03*
X294295999Y-27314400D03*
X295246000Y-29752800D03*
%TD*%
D15*
%TO.C,R73*%
X312776800Y-47776799D03*
X312776800Y-48276800D03*
X312776800Y-48776800D03*
X312776800Y-49276801D03*
D16*
X313499999Y-50000000D03*
X314000000Y-50000000D03*
X314500000Y-50000000D03*
X315000001Y-50000000D03*
D15*
X315723200Y-49276801D03*
X315723200Y-48776800D03*
X315723200Y-48276800D03*
X315723200Y-47776799D03*
D16*
X315000001Y-47053600D03*
X314500000Y-47053600D03*
X314000000Y-47053600D03*
X313499999Y-47053600D03*
D17*
X312227500Y-53651800D03*
D18*
X314250000Y-48526800D03*
D17*
X312227500Y-52001800D03*
X314227500Y-53651800D03*
X314227500Y-52001800D03*
X316227500Y-53651800D03*
X316227500Y-52001800D03*
X318227500Y-53651800D03*
X318227500Y-52001800D03*
%TD*%
D15*
%TO.C,R74*%
X311053600Y-83499999D03*
X311053600Y-84000000D03*
X311053600Y-84500000D03*
X311053600Y-85000001D03*
D16*
X311776799Y-85723200D03*
X312276800Y-85723200D03*
X312776800Y-85723200D03*
X313276801Y-85723200D03*
D15*
X314000000Y-85000001D03*
X314000000Y-84500000D03*
X314000000Y-84000000D03*
X314000000Y-83499999D03*
D16*
X313276801Y-82776800D03*
X312776800Y-82776800D03*
X312276800Y-82776800D03*
X311776799Y-82776800D03*
D17*
X310504300Y-89375000D03*
D18*
X312526800Y-84250000D03*
D17*
X310504300Y-87725000D03*
X312504300Y-89375000D03*
X312504300Y-87725000D03*
X314504300Y-89375000D03*
X314504300Y-87725000D03*
X316504300Y-89375000D03*
X316504300Y-87725000D03*
%TD*%
M02*
