%TF.GenerationSoftware,KiCad,Pcbnew,9.0.8*%
%TF.CreationDate,2026-04-20T19:34:18-04:00*%
%TF.ProjectId,routed,726f7574-6564-42e6-9b69-6361645f7063,rev?*%
%TF.SameCoordinates,Original*%
%TF.FileFunction,Copper,L2,Bot*%
%TF.FilePolarity,Positive*%
%FSLAX46Y46*%
G04 Gerber Fmt 4.6, Leading zero omitted, Abs format (unit mm)*
G04 Created by KiCad (PCBNEW 9.0.8) date 2026-04-20 19:34:18*
%MOMM*%
%LPD*%
G01*
G04 APERTURE LIST*
%TA.AperFunction,ComponentPad*%
%ADD10O,2.500000X1.500000*%
%TD*%
%TA.AperFunction,ViaPad*%
%ADD11C,0.600000*%
%TD*%
%TA.AperFunction,Conductor*%
%ADD12C,0.200000*%
%TD*%
G04 APERTURE END LIST*
D10*
%TO.P,R0,1*%
%TO.N,SDA*%
X113000000Y-1000000D03*
%TO.P,R0,2*%
%TO.N,SCL*%
X113000000Y-3540000D03*
%TO.P,R0,21*%
%TO.N,+3.3v*%
X96760000Y-6080000D03*
%TO.P,R0,22*%
%TO.N,GND*%
X96760000Y-3540000D03*
%TD*%
D11*
%TO.N,addr10*%
X149138400Y-11226100D03*
X150183000Y-14265800D03*
%TO.N,m0r1MOS*%
X61319500Y-11122200D03*
X67391700Y-72935400D03*
X190121700Y-34991900D03*
X191184900Y-9483600D03*
X67391700Y-38054700D03*
%TO.N,m0r0MOS*%
X26808100Y-75509200D03*
X20286600Y-38058600D03*
X139199900Y-73019800D03*
X136005900Y-38139400D03*
%TO.N,m0r2*%
X77906000Y-48156700D03*
X64945500Y-14099900D03*
%TO.N,m0r1*%
X64314900Y-26512600D03*
X64218800Y-12525900D03*
%TO.N,m0r0*%
X58501400Y-11801800D03*
X58324100Y-29419300D03*
%TO.N,m0c7*%
X133321000Y-37664400D03*
X124222900Y-70113100D03*
X145681700Y-14501900D03*
%TO.N,m0c6*%
X141953100Y-73785200D03*
X143503600Y-13474700D03*
X169805900Y-7303700D03*
X167149100Y-18806200D03*
X143853900Y-18825600D03*
%TO.N,m0c5*%
X178140100Y-73083500D03*
X171034800Y-9342300D03*
X166847500Y-17902400D03*
%TO.N,m0c4*%
X28370100Y-74088400D03*
X36664800Y-9448300D03*
%TO.N,m0c3*%
X17838900Y-9712600D03*
X27571300Y-32791100D03*
X141617500Y-13650300D03*
X139130400Y-32325900D03*
%TO.N,m0c2*%
X141298000Y-33892700D03*
X70260100Y-35230000D03*
X68622300Y-29419300D03*
X141298000Y-31609000D03*
X143088800Y-11228000D03*
%TO.N,m0c1*%
X40655600Y-55738900D03*
X36629500Y-38058600D03*
X145439600Y-34637700D03*
X142873100Y-58486300D03*
X144340600Y-10546200D03*
%TO.N,m0c0*%
X145363300Y-9629300D03*
X149019100Y-36043500D03*
%TO.N,SCL*%
X87539900Y-12668900D03*
X111994200Y-23049800D03*
X88278100Y-23605900D03*
%TO.N,SDA*%
X147550200Y-9843700D03*
X148186100Y-6165700D03*
X88020400Y-11721500D03*
X92756100Y-24541200D03*
X110250200Y-24541200D03*
%TO.N,GND*%
X118232100Y-49766200D03*
X116117400Y-56042800D03*
X24219700Y-14928200D03*
X26099700Y-28689800D03*
X113561500Y-77601700D03*
X121227500Y-39866700D03*
X154176900Y-38533600D03*
X153590500Y-31334000D03*
X154176900Y-17071400D03*
X94034500Y-17898600D03*
X94430100Y-49605000D03*
X94034500Y-41533900D03*
X69167700Y-15917400D03*
X63909500Y-17792500D03*
%TO.N,+3.3v*%
X148045800Y-32106000D03*
X148112300Y-14152400D03*
X143478500Y-45323000D03*
X97264300Y-50462300D03*
X98311700Y-32326000D03*
X148518800Y-12275000D03*
%TD*%
D12*
%TO.N,addr10*%
X149138400Y-13221200D02*
X150183000Y-14265800D01*
X149138400Y-11226100D02*
X149138400Y-13221200D01*
%TO.N,m0r1MOS*%
X190121700Y-10546800D02*
X191184900Y-9483600D01*
X190121700Y-34991900D02*
X190121700Y-10546800D01*
X67391700Y-38054700D02*
X67391700Y-72935400D01*
X61319500Y-31982500D02*
X67391700Y-38054700D01*
X61319500Y-11122200D02*
X61319500Y-31982500D01*
%TO.N,m0r0MOS*%
X20286600Y-68987700D02*
X26808100Y-75509200D01*
X20286600Y-38058600D02*
X20286600Y-68987700D01*
X136005900Y-69825800D02*
X136005900Y-38139400D01*
X139199900Y-73019800D02*
X136005900Y-69825800D01*
%TO.N,m0r2*%
X77906000Y-27060400D02*
X77906000Y-48156700D01*
X64945500Y-14099900D02*
X77906000Y-27060400D01*
%TO.N,m0r1*%
X63278800Y-13465900D02*
X64218800Y-12525900D01*
X63278800Y-25476500D02*
X63278800Y-13465900D01*
X64314900Y-26512600D02*
X63278800Y-25476500D01*
%TO.N,m0r0*%
X58324100Y-11979100D02*
X58501400Y-11801800D01*
X58324100Y-29419300D02*
X58324100Y-11979100D01*
%TO.N,m0c7*%
X124222900Y-46762500D02*
X124222900Y-70113100D01*
X133321000Y-37664400D02*
X124222900Y-46762500D01*
X133321000Y-20145000D02*
X133321000Y-37664400D01*
X144449100Y-9016900D02*
X133321000Y-20145000D01*
X145621800Y-9016900D02*
X144449100Y-9016900D01*
X146023700Y-9418800D02*
X145621800Y-9016900D01*
X146023700Y-14159900D02*
X146023700Y-9418800D01*
X145681700Y-14501900D02*
X146023700Y-14159900D01*
%TO.N,m0c6*%
X166900100Y-18806200D02*
X167149100Y-18806200D01*
X166232200Y-18138300D02*
X166900100Y-18806200D01*
X166232200Y-15200100D02*
X166232200Y-18138300D01*
X169805900Y-11626400D02*
X166232200Y-15200100D01*
X169805900Y-7303700D02*
X169805900Y-11626400D01*
X143503600Y-18475300D02*
X143503600Y-13474700D01*
X143853900Y-18825600D02*
X143503600Y-18475300D01*
X143853900Y-18825600D02*
X143503600Y-18825600D01*
X143503600Y-18825600D02*
X143853900Y-18825600D01*
X141953100Y-15025200D02*
X143503600Y-13474700D01*
X141953100Y-73785200D02*
X141953100Y-15025200D01*
%TO.N,m0c5*%
X166847500Y-17902500D02*
X166847500Y-17902400D01*
X167096300Y-17902500D02*
X166847500Y-17902500D01*
X178140100Y-28946300D02*
X167096300Y-17902500D01*
X178140100Y-73083500D02*
X178140100Y-28946300D01*
X171034800Y-13715100D02*
X171034800Y-9342300D01*
X166847500Y-17902400D02*
X171034800Y-13715100D01*
%TO.N,m0c4*%
X28370100Y-17743000D02*
X36664800Y-9448300D01*
X28370100Y-74088400D02*
X28370100Y-17743000D01*
%TO.N,m0c3*%
X17838900Y-23058700D02*
X17838900Y-9712600D01*
X27571300Y-32791100D02*
X17838900Y-23058700D01*
X139130400Y-32325900D02*
X136351000Y-35105300D01*
X136351000Y-35105300D02*
X139130400Y-32325900D01*
X139130400Y-16137400D02*
X139130400Y-32325900D01*
X141617500Y-13650300D02*
X139130400Y-16137400D01*
%TO.N,m0c2*%
X70260100Y-31057100D02*
X68622300Y-29419300D01*
X70260100Y-35230000D02*
X70260100Y-31057100D01*
X141298000Y-31609000D02*
X141298000Y-33892700D01*
X141298000Y-14837200D02*
X141298000Y-31609000D01*
X142520600Y-13614600D02*
X141298000Y-14837200D01*
X142520600Y-11796200D02*
X142520600Y-13614600D01*
X143088800Y-11228000D02*
X142520600Y-11796200D01*
%TO.N,m0c1*%
X36629600Y-38058600D02*
X36629500Y-38058600D01*
X36629600Y-51712900D02*
X36629600Y-38058600D01*
X40655600Y-55738900D02*
X36629600Y-51712900D01*
X142873100Y-37204200D02*
X142873100Y-58486300D01*
X145439600Y-34637700D02*
X142873100Y-37204200D01*
X144455600Y-10661200D02*
X144340600Y-10546200D01*
X144455600Y-33653700D02*
X144455600Y-10661200D01*
X145439600Y-34637700D02*
X144455600Y-33653700D01*
%TO.N,m0c0*%
X145080000Y-32104400D02*
X149019100Y-36043500D01*
X145080000Y-9912600D02*
X145080000Y-32104400D01*
X145363300Y-9629300D02*
X145080000Y-9912600D01*
%TO.N,SCL*%
X112374000Y-22670000D02*
X111994200Y-23049800D01*
X113674600Y-22670000D02*
X112374000Y-22670000D01*
X114551700Y-21792900D02*
X113674600Y-22670000D01*
X114551700Y-3540000D02*
X114551700Y-21792900D01*
X87539900Y-22867700D02*
X87539900Y-12668900D01*
X88278100Y-23605900D02*
X87539900Y-22867700D01*
X112500000Y-3540000D02*
X114551700Y-3540000D01*
%TO.N,SDA*%
X148186100Y-9207800D02*
X147550200Y-9843700D01*
X148186100Y-6165700D02*
X148186100Y-9207800D01*
X92756100Y-16457200D02*
X92756100Y-24541200D01*
X88020400Y-11721500D02*
X92756100Y-16457200D01*
X112500000Y-1000000D02*
X114551700Y-1000000D01*
X114953400Y-1401700D02*
X114551700Y-1000000D01*
X114953400Y-21959200D02*
X114953400Y-1401700D01*
X112371400Y-24541200D02*
X114953400Y-21959200D01*
X110250200Y-24541200D02*
X112371400Y-24541200D01*
%TO.N,GND*%
X116117400Y-75045800D02*
X116117400Y-56042800D01*
X113561500Y-77601700D02*
X116117400Y-75045800D01*
X116117400Y-51880900D02*
X118232100Y-49766200D01*
X116117400Y-56042800D02*
X116117400Y-51880900D01*
X121227500Y-46770800D02*
X121227500Y-39866700D01*
X118232100Y-49766200D02*
X121227500Y-46770800D01*
X154176900Y-31920400D02*
X153590500Y-31334000D01*
X154176900Y-38533600D02*
X154176900Y-31920400D01*
X153590500Y-17657800D02*
X153590500Y-31334000D01*
X154176900Y-17071400D02*
X153590500Y-17657800D01*
X95208300Y-16724800D02*
X94034500Y-17898600D01*
X95208300Y-3540000D02*
X95208300Y-16724800D01*
X97260000Y-3540000D02*
X95208300Y-3540000D01*
X94034500Y-49209400D02*
X94034500Y-41533900D01*
X94430100Y-49605000D02*
X94034500Y-49209400D01*
X94034500Y-41533900D02*
X94034500Y-17898600D01*
X24219700Y-26809800D02*
X24219700Y-14928200D01*
X26099700Y-28689800D02*
X24219700Y-26809800D01*
X66735900Y-13485600D02*
X69167700Y-15917400D01*
X64667300Y-13485600D02*
X66735900Y-13485600D01*
X63909500Y-14243400D02*
X64667300Y-13485600D01*
X63909500Y-17792500D02*
X63909500Y-14243400D01*
%TO.N,+3.3v*%
X149623300Y-39178200D02*
X143478500Y-45323000D01*
X149623300Y-33683500D02*
X149623300Y-39178200D01*
X148045800Y-32106000D02*
X149623300Y-33683500D01*
X148112300Y-32039500D02*
X148045800Y-32106000D01*
X148112300Y-14152400D02*
X148112300Y-32039500D01*
X97260000Y-6080000D02*
X98311700Y-6080000D01*
X98311700Y-49414900D02*
X97264300Y-50462300D01*
X98311700Y-32326000D02*
X98311700Y-49414900D01*
X98311700Y-6080000D02*
X98311700Y-32326000D01*
X148518800Y-13745900D02*
X148518800Y-12275000D01*
X148112300Y-14152400D02*
X148518800Y-13745900D01*
%TD*%
%TA.AperFunction,Conductor*%
%TO.N,GND*%
G36*
X24942539Y-3595185D02*
G01*
X24988294Y-3647989D01*
X24999500Y-3699500D01*
X24999500Y-8571236D01*
X24979815Y-8638275D01*
X24927011Y-8684030D01*
X24857853Y-8693974D01*
X24802615Y-8671554D01*
X24681788Y-8583768D01*
X24527445Y-8505127D01*
X24362701Y-8451598D01*
X24362699Y-8451597D01*
X24362698Y-8451597D01*
X24231271Y-8430781D01*
X24191611Y-8424500D01*
X24018389Y-8424500D01*
X23978728Y-8430781D01*
X23847302Y-8451597D01*
X23682552Y-8505128D01*
X23528211Y-8583768D01*
X23460575Y-8632909D01*
X23388072Y-8685586D01*
X23388070Y-8685588D01*
X23388069Y-8685588D01*
X23265588Y-8808069D01*
X23265588Y-8808070D01*
X23265586Y-8808072D01*
X23241005Y-8841905D01*
X23163768Y-8948211D01*
X23085128Y-9102552D01*
X23031597Y-9267302D01*
X23015308Y-9370150D01*
X23004500Y-9438389D01*
X23004500Y-9611611D01*
X23031598Y-9782701D01*
X23085127Y-9947445D01*
X23163768Y-10101788D01*
X23265586Y-10241928D01*
X23388072Y-10364414D01*
X23528212Y-10466232D01*
X23682555Y-10544873D01*
X23847299Y-10598402D01*
X24018389Y-10625500D01*
X24018390Y-10625500D01*
X24191610Y-10625500D01*
X24191611Y-10625500D01*
X24362701Y-10598402D01*
X24527445Y-10544873D01*
X24681788Y-10466232D01*
X24802615Y-10378445D01*
X24868420Y-10354965D01*
X24936474Y-10370790D01*
X24985169Y-10420895D01*
X24999500Y-10478763D01*
X24999500Y-15350500D01*
X24979815Y-15417539D01*
X24927011Y-15463294D01*
X24875500Y-15474500D01*
X18563400Y-15474500D01*
X18496361Y-15454815D01*
X18450606Y-15402011D01*
X18439400Y-15350500D01*
X18439400Y-10292365D01*
X18459085Y-10225326D01*
X18460298Y-10223474D01*
X18548290Y-10091785D01*
X18548290Y-10091784D01*
X18548294Y-10091779D01*
X18557280Y-10070086D01*
X18603461Y-9958592D01*
X18608637Y-9946097D01*
X18639400Y-9791442D01*
X18639400Y-9633758D01*
X18639400Y-9633755D01*
X18639399Y-9633753D01*
X18628878Y-9580863D01*
X18608637Y-9479103D01*
X18590313Y-9434865D01*
X18548297Y-9333427D01*
X18548290Y-9333414D01*
X18460689Y-9202311D01*
X18460686Y-9202307D01*
X18349192Y-9090813D01*
X18349188Y-9090810D01*
X18218085Y-9003209D01*
X18218072Y-9003202D01*
X18072401Y-8942864D01*
X18072389Y-8942861D01*
X17917745Y-8912100D01*
X17917742Y-8912100D01*
X17760058Y-8912100D01*
X17760055Y-8912100D01*
X17605410Y-8942861D01*
X17605398Y-8942864D01*
X17459727Y-9003202D01*
X17459714Y-9003209D01*
X17328611Y-9090810D01*
X17328607Y-9090813D01*
X17217113Y-9202307D01*
X17217110Y-9202311D01*
X17129509Y-9333414D01*
X17129502Y-9333427D01*
X17069164Y-9479098D01*
X17069161Y-9479110D01*
X17038400Y-9633753D01*
X17038400Y-9791446D01*
X17069161Y-9946089D01*
X17069164Y-9946101D01*
X17129502Y-10091772D01*
X17129509Y-10091785D01*
X17217502Y-10223474D01*
X17238380Y-10290151D01*
X17238400Y-10292365D01*
X17238400Y-15350500D01*
X17218715Y-15417539D01*
X17165911Y-15463294D01*
X17114400Y-15474500D01*
X13224500Y-15474500D01*
X13157461Y-15454815D01*
X13111706Y-15402011D01*
X13100500Y-15350500D01*
X13100500Y-10515091D01*
X13120185Y-10448052D01*
X13172989Y-10402297D01*
X13242147Y-10392353D01*
X13297383Y-10414772D01*
X13368212Y-10466232D01*
X13522555Y-10544873D01*
X13687299Y-10598402D01*
X13858389Y-10625500D01*
X13858390Y-10625500D01*
X14031610Y-10625500D01*
X14031611Y-10625500D01*
X14202701Y-10598402D01*
X14367445Y-10544873D01*
X14521788Y-10466232D01*
X14661928Y-10364414D01*
X14784414Y-10241928D01*
X14886232Y-10101788D01*
X14964873Y-9947445D01*
X15018402Y-9782701D01*
X15045500Y-9611611D01*
X15045500Y-9438389D01*
X15018402Y-9267299D01*
X14964873Y-9102555D01*
X14886232Y-8948212D01*
X14784414Y-8808072D01*
X14661928Y-8685586D01*
X14521788Y-8583768D01*
X14367445Y-8505127D01*
X14202701Y-8451598D01*
X14202699Y-8451597D01*
X14202698Y-8451597D01*
X14071271Y-8430781D01*
X14031611Y-8424500D01*
X13858389Y-8424500D01*
X13818728Y-8430781D01*
X13687302Y-8451597D01*
X13522552Y-8505128D01*
X13368208Y-8583770D01*
X13297385Y-8635226D01*
X13231579Y-8658706D01*
X13163525Y-8642880D01*
X13114830Y-8592775D01*
X13100500Y-8534908D01*
X13100500Y-3699500D01*
X13120185Y-3632461D01*
X13172989Y-3586706D01*
X13224500Y-3575500D01*
X24875500Y-3575500D01*
X24942539Y-3595185D01*
G37*
%TD.AperFunction*%
%TA.AperFunction,Conductor*%
G36*
X122692539Y-48720185D02*
G01*
X122738294Y-48772989D01*
X122749500Y-48824500D01*
X122749500Y-62975500D01*
X122729815Y-63042539D01*
X122677011Y-63088294D01*
X122625500Y-63099500D01*
X108474500Y-63099500D01*
X108407461Y-63079815D01*
X108361706Y-63027011D01*
X108350500Y-62975500D01*
X108350500Y-58140091D01*
X108370185Y-58073052D01*
X108422989Y-58027297D01*
X108492147Y-58017353D01*
X108547383Y-58039772D01*
X108618212Y-58091232D01*
X108772555Y-58169873D01*
X108937299Y-58223402D01*
X109108389Y-58250500D01*
X109108390Y-58250500D01*
X109281610Y-58250500D01*
X109281611Y-58250500D01*
X109452701Y-58223402D01*
X109617445Y-58169873D01*
X109771788Y-58091232D01*
X109911928Y-57989414D01*
X110034414Y-57866928D01*
X110136232Y-57726788D01*
X110214873Y-57572445D01*
X110268402Y-57407701D01*
X110295500Y-57236611D01*
X110295500Y-57063389D01*
X118254500Y-57063389D01*
X118254500Y-57236611D01*
X118281598Y-57407701D01*
X118335127Y-57572445D01*
X118413768Y-57726788D01*
X118515586Y-57866928D01*
X118638072Y-57989414D01*
X118778212Y-58091232D01*
X118932555Y-58169873D01*
X119097299Y-58223402D01*
X119268389Y-58250500D01*
X119268390Y-58250500D01*
X119441610Y-58250500D01*
X119441611Y-58250500D01*
X119612701Y-58223402D01*
X119777445Y-58169873D01*
X119931788Y-58091232D01*
X120071928Y-57989414D01*
X120194414Y-57866928D01*
X120296232Y-57726788D01*
X120374873Y-57572445D01*
X120428402Y-57407701D01*
X120455500Y-57236611D01*
X120455500Y-57063389D01*
X120428402Y-56892299D01*
X120374873Y-56727555D01*
X120296232Y-56573212D01*
X120194414Y-56433072D01*
X120071928Y-56310586D01*
X119931788Y-56208768D01*
X119777445Y-56130127D01*
X119612701Y-56076598D01*
X119612699Y-56076597D01*
X119612698Y-56076597D01*
X119481271Y-56055781D01*
X119441611Y-56049500D01*
X119268389Y-56049500D01*
X119228728Y-56055781D01*
X119097302Y-56076597D01*
X118932552Y-56130128D01*
X118778211Y-56208768D01*
X118722579Y-56249188D01*
X118638072Y-56310586D01*
X118638070Y-56310588D01*
X118638069Y-56310588D01*
X118515588Y-56433069D01*
X118515588Y-56433070D01*
X118515586Y-56433072D01*
X118471859Y-56493256D01*
X118413768Y-56573211D01*
X118335128Y-56727552D01*
X118281597Y-56892302D01*
X118254500Y-57063389D01*
X110295500Y-57063389D01*
X110268402Y-56892299D01*
X110214873Y-56727555D01*
X110136232Y-56573212D01*
X110034414Y-56433072D01*
X109911928Y-56310586D01*
X109771788Y-56208768D01*
X109617445Y-56130127D01*
X109452701Y-56076598D01*
X109452699Y-56076597D01*
X109452698Y-56076597D01*
X109321271Y-56055781D01*
X109281611Y-56049500D01*
X109108389Y-56049500D01*
X109068728Y-56055781D01*
X108937302Y-56076597D01*
X108772552Y-56130128D01*
X108618208Y-56208770D01*
X108547385Y-56260226D01*
X108481579Y-56283706D01*
X108413525Y-56267880D01*
X108364830Y-56217775D01*
X108350500Y-56159908D01*
X108350500Y-48824500D01*
X108370185Y-48757461D01*
X108422989Y-48711706D01*
X108474500Y-48700500D01*
X122625500Y-48700500D01*
X122692539Y-48720185D01*
G37*
%TD.AperFunction*%
%TA.AperFunction,Conductor*%
G36*
X160792539Y-29670185D02*
G01*
X160838294Y-29722989D01*
X160849500Y-29774500D01*
X160849500Y-43925500D01*
X160829815Y-43992539D01*
X160777011Y-44038294D01*
X160725500Y-44049500D01*
X146574500Y-44049500D01*
X146507461Y-44029815D01*
X146461706Y-43977011D01*
X146450500Y-43925500D01*
X146450500Y-43251596D01*
X146470185Y-43184557D01*
X146486814Y-43163920D01*
X149981806Y-39668927D01*
X149981811Y-39668924D01*
X149992014Y-39658720D01*
X149992016Y-39658720D01*
X150103820Y-39546916D01*
X150182877Y-39409984D01*
X150223800Y-39257257D01*
X150223800Y-38013389D01*
X156354500Y-38013389D01*
X156354500Y-38186611D01*
X156362677Y-38238239D01*
X156370589Y-38288197D01*
X156381598Y-38357701D01*
X156435127Y-38522445D01*
X156513768Y-38676788D01*
X156615586Y-38816928D01*
X156738072Y-38939414D01*
X156878212Y-39041232D01*
X157032555Y-39119873D01*
X157197299Y-39173402D01*
X157368389Y-39200500D01*
X157368390Y-39200500D01*
X157541610Y-39200500D01*
X157541611Y-39200500D01*
X157712701Y-39173402D01*
X157877445Y-39119873D01*
X158031788Y-39041232D01*
X158171928Y-38939414D01*
X158294414Y-38816928D01*
X158396232Y-38676788D01*
X158474873Y-38522445D01*
X158528402Y-38357701D01*
X158555500Y-38186611D01*
X158555500Y-38013389D01*
X158528402Y-37842299D01*
X158474873Y-37677555D01*
X158396232Y-37523212D01*
X158294414Y-37383072D01*
X158171928Y-37260586D01*
X158031788Y-37158768D01*
X157877445Y-37080127D01*
X157712701Y-37026598D01*
X157712699Y-37026597D01*
X157712698Y-37026597D01*
X157581271Y-37005781D01*
X157541611Y-36999500D01*
X157368389Y-36999500D01*
X157328728Y-37005781D01*
X157197302Y-37026597D01*
X157032552Y-37080128D01*
X156878211Y-37158768D01*
X156807386Y-37210226D01*
X156738072Y-37260586D01*
X156738070Y-37260588D01*
X156738069Y-37260588D01*
X156615588Y-37383069D01*
X156615588Y-37383070D01*
X156615586Y-37383072D01*
X156579376Y-37432911D01*
X156513768Y-37523211D01*
X156435128Y-37677552D01*
X156381597Y-37842302D01*
X156371525Y-37905898D01*
X156354500Y-38013389D01*
X150223800Y-38013389D01*
X150223800Y-33772559D01*
X150223801Y-33772546D01*
X150223801Y-33604445D01*
X150223801Y-33604443D01*
X150182877Y-33451715D01*
X150142864Y-33382411D01*
X150103820Y-33314784D01*
X149992016Y-33202980D01*
X149992015Y-33202979D01*
X149987685Y-33198649D01*
X149987674Y-33198639D01*
X148880374Y-32091339D01*
X148846889Y-32030016D01*
X148846438Y-32027849D01*
X148815538Y-31872510D01*
X148815537Y-31872503D01*
X148792013Y-31815711D01*
X148755197Y-31726828D01*
X148755196Y-31726827D01*
X148755194Y-31726821D01*
X148755188Y-31726812D01*
X148733697Y-31694647D01*
X148712820Y-31627970D01*
X148712800Y-31625758D01*
X148712800Y-29774500D01*
X148732485Y-29707461D01*
X148785289Y-29661706D01*
X148836800Y-29650500D01*
X160725500Y-29650500D01*
X160792539Y-29670185D01*
G37*
%TD.AperFunction*%
%TA.AperFunction,Conductor*%
G36*
X72392539Y-12070185D02*
G01*
X72438294Y-12122989D01*
X72449500Y-12174500D01*
X72449500Y-19825500D01*
X72429815Y-19892539D01*
X72377011Y-19938294D01*
X72325500Y-19949500D01*
X71695697Y-19949500D01*
X71628658Y-19929815D01*
X71608016Y-19913181D01*
X65780074Y-14085239D01*
X65746589Y-14023916D01*
X65746138Y-14021749D01*
X65725679Y-13918898D01*
X65715237Y-13866403D01*
X65687128Y-13798541D01*
X65654897Y-13720727D01*
X65654890Y-13720714D01*
X65567289Y-13589611D01*
X65567286Y-13589607D01*
X65455792Y-13478113D01*
X65455788Y-13478110D01*
X65324685Y-13390509D01*
X65324672Y-13390502D01*
X65179001Y-13330164D01*
X65178989Y-13330161D01*
X65024345Y-13299400D01*
X65024342Y-13299400D01*
X64876741Y-13299400D01*
X64809702Y-13279715D01*
X64763947Y-13226911D01*
X64754003Y-13157753D01*
X64783028Y-13094197D01*
X64789060Y-13087719D01*
X64840586Y-13036192D01*
X64840589Y-13036189D01*
X64928194Y-12905079D01*
X64988537Y-12759397D01*
X65019300Y-12604742D01*
X65019300Y-12447058D01*
X65019300Y-12447055D01*
X65019299Y-12447053D01*
X64992453Y-12312092D01*
X64988537Y-12292403D01*
X64959434Y-12222141D01*
X64959356Y-12221952D01*
X64951887Y-12152483D01*
X64983163Y-12090004D01*
X65043252Y-12054352D01*
X65073917Y-12050500D01*
X72325500Y-12050500D01*
X72392539Y-12070185D01*
G37*
%TD.AperFunction*%
%TA.AperFunction,Conductor*%
G36*
X94772539Y479815D02*
G01*
X94818294Y427011D01*
X94829500Y375500D01*
X94829500Y-23232475D01*
X94862407Y-23355285D01*
X94867017Y-23372488D01*
X94939488Y-23498011D01*
X94939490Y-23498013D01*
X94939491Y-23498015D01*
X95041985Y-23600509D01*
X95041986Y-23600510D01*
X95041988Y-23600511D01*
X95167511Y-23672982D01*
X95167512Y-23672982D01*
X95167515Y-23672984D01*
X95307525Y-23710500D01*
X95452475Y-23710500D01*
X97587200Y-23710500D01*
X97654239Y-23730185D01*
X97699994Y-23782989D01*
X97711200Y-23834500D01*
X97711200Y-31746234D01*
X97691515Y-31813273D01*
X97690302Y-31815125D01*
X97602309Y-31946814D01*
X97602302Y-31946827D01*
X97541964Y-32092498D01*
X97541961Y-32092510D01*
X97511200Y-32247153D01*
X97511200Y-32404846D01*
X97541961Y-32559489D01*
X97541964Y-32559501D01*
X97602302Y-32705172D01*
X97602309Y-32705185D01*
X97690302Y-32836874D01*
X97711180Y-32903551D01*
X97711200Y-32905765D01*
X97711200Y-49114803D01*
X97691515Y-49181842D01*
X97674881Y-49202484D01*
X97249639Y-49627725D01*
X97188316Y-49661210D01*
X97186150Y-49661661D01*
X97030808Y-49692561D01*
X97030798Y-49692564D01*
X96885127Y-49752902D01*
X96885114Y-49752909D01*
X96754011Y-49840510D01*
X96754007Y-49840513D01*
X96642513Y-49952007D01*
X96642510Y-49952011D01*
X96580784Y-50044391D01*
X96527172Y-50089196D01*
X96477682Y-50099500D01*
X88822475Y-50099500D01*
X88677525Y-50099500D01*
X88548993Y-50133940D01*
X88537511Y-50137017D01*
X88411988Y-50209488D01*
X88411982Y-50209493D01*
X88309493Y-50311982D01*
X88309488Y-50311988D01*
X88237017Y-50437511D01*
X88237016Y-50437515D01*
X88199500Y-50577525D01*
X88199500Y-63722475D01*
X88237016Y-63862485D01*
X88237017Y-63862488D01*
X88309488Y-63988011D01*
X88309490Y-63988013D01*
X88309491Y-63988015D01*
X88411985Y-64090509D01*
X88411986Y-64090510D01*
X88411988Y-64090511D01*
X88537511Y-64162982D01*
X88537512Y-64162982D01*
X88537515Y-64162984D01*
X88677525Y-64200500D01*
X88677528Y-64200500D01*
X101822472Y-64200500D01*
X101822475Y-64200500D01*
X101962485Y-64162984D01*
X102088015Y-64090509D01*
X102190509Y-63988015D01*
X102262984Y-63862485D01*
X102300500Y-63722475D01*
X102300500Y-50577525D01*
X102262984Y-50437515D01*
X102190509Y-50311985D01*
X102088015Y-50209491D01*
X102088013Y-50209490D01*
X102088011Y-50209488D01*
X101962488Y-50137017D01*
X101962489Y-50137017D01*
X101951006Y-50133940D01*
X101822475Y-50099500D01*
X101822472Y-50099500D01*
X98775698Y-50099500D01*
X98708659Y-50079815D01*
X98662904Y-50027011D01*
X98652960Y-49957853D01*
X98681985Y-49894297D01*
X98688017Y-49887819D01*
X98735326Y-49840510D01*
X98792220Y-49783616D01*
X98862549Y-49661802D01*
X98862550Y-49661801D01*
X98866091Y-49655666D01*
X98871277Y-49646685D01*
X98912200Y-49493958D01*
X98912200Y-49335843D01*
X98912200Y-48077525D01*
X107249500Y-48077525D01*
X107249500Y-63722475D01*
X107287016Y-63862485D01*
X107287017Y-63862488D01*
X107359488Y-63988011D01*
X107359490Y-63988013D01*
X107359491Y-63988015D01*
X107461985Y-64090509D01*
X107461986Y-64090510D01*
X107461988Y-64090511D01*
X107587511Y-64162982D01*
X107587512Y-64162982D01*
X107587515Y-64162984D01*
X107727525Y-64200500D01*
X107727528Y-64200500D01*
X123372472Y-64200500D01*
X123372475Y-64200500D01*
X123466308Y-64175357D01*
X123536156Y-64177020D01*
X123594019Y-64216182D01*
X123621523Y-64280410D01*
X123622400Y-64295132D01*
X123622400Y-69533334D01*
X123602715Y-69600373D01*
X123601502Y-69602225D01*
X123513509Y-69733914D01*
X123513502Y-69733927D01*
X123453164Y-69879598D01*
X123453161Y-69879610D01*
X123422400Y-70034253D01*
X123422400Y-70191946D01*
X123453161Y-70346589D01*
X123453164Y-70346601D01*
X123513502Y-70492272D01*
X123513509Y-70492285D01*
X123601110Y-70623388D01*
X123601113Y-70623392D01*
X123712607Y-70734886D01*
X123712611Y-70734889D01*
X123843714Y-70822490D01*
X123843727Y-70822497D01*
X123989398Y-70882835D01*
X123989403Y-70882837D01*
X124144053Y-70913599D01*
X124144056Y-70913600D01*
X124144058Y-70913600D01*
X124301744Y-70913600D01*
X124301745Y-70913599D01*
X124456397Y-70882837D01*
X124602079Y-70822494D01*
X124733189Y-70734889D01*
X124844689Y-70623389D01*
X124932294Y-70492279D01*
X124992637Y-70346597D01*
X125023400Y-70191942D01*
X125023400Y-70034258D01*
X125023400Y-70034255D01*
X125023399Y-70034253D01*
X124997660Y-69904857D01*
X124992637Y-69879603D01*
X124937605Y-69746743D01*
X124932297Y-69733927D01*
X124932290Y-69733914D01*
X124844298Y-69602225D01*
X124823420Y-69535547D01*
X124823400Y-69533334D01*
X124823400Y-47062596D01*
X124843085Y-46995557D01*
X124859714Y-46974920D01*
X126653249Y-45181384D01*
X126714570Y-45147901D01*
X126773023Y-45149293D01*
X126777525Y-45150500D01*
X126922475Y-45150500D01*
X135281400Y-45150500D01*
X135348439Y-45170185D01*
X135394194Y-45222989D01*
X135405400Y-45274500D01*
X135405400Y-69739130D01*
X135405399Y-69739148D01*
X135405399Y-69904854D01*
X135405398Y-69904854D01*
X135446323Y-70057585D01*
X135475258Y-70107700D01*
X135475259Y-70107704D01*
X135475260Y-70107704D01*
X135525379Y-70194514D01*
X135525381Y-70194517D01*
X135644249Y-70313385D01*
X135644255Y-70313390D01*
X135788181Y-70457316D01*
X135821666Y-70518639D01*
X135824500Y-70544997D01*
X135824500Y-82772475D01*
X135862016Y-82912485D01*
X135862017Y-82912488D01*
X135934488Y-83038011D01*
X135934490Y-83038013D01*
X135934491Y-83038015D01*
X136036985Y-83140509D01*
X136036986Y-83140510D01*
X136036988Y-83140511D01*
X136162511Y-83212982D01*
X136162512Y-83212982D01*
X136162515Y-83212984D01*
X136302525Y-83250500D01*
X136302528Y-83250500D01*
X149447472Y-83250500D01*
X149447475Y-83250500D01*
X149587485Y-83212984D01*
X149713015Y-83140509D01*
X149815509Y-83038015D01*
X149887984Y-82912485D01*
X149925500Y-82772475D01*
X149925500Y-69627525D01*
X149887984Y-69487515D01*
X149861031Y-69440832D01*
X149815511Y-69361988D01*
X149815506Y-69361982D01*
X149713017Y-69259493D01*
X149713011Y-69259488D01*
X149587488Y-69187017D01*
X149587489Y-69187017D01*
X149576006Y-69183940D01*
X149447475Y-69149500D01*
X149447472Y-69149500D01*
X142677600Y-69149500D01*
X142610561Y-69129815D01*
X142564806Y-69077011D01*
X142553600Y-69025500D01*
X142553600Y-59390024D01*
X142573285Y-59322985D01*
X142626089Y-59277230D01*
X142695247Y-59267286D01*
X142701783Y-59268405D01*
X142737013Y-59275413D01*
X142794256Y-59286800D01*
X142794258Y-59286800D01*
X142951944Y-59286800D01*
X142951945Y-59286799D01*
X143106597Y-59256037D01*
X143252279Y-59195694D01*
X143383389Y-59108089D01*
X143494889Y-58996589D01*
X143582494Y-58865479D01*
X143642837Y-58719797D01*
X143673600Y-58565142D01*
X143673600Y-58407458D01*
X143673600Y-58407455D01*
X143673599Y-58407453D01*
X143642838Y-58252810D01*
X143642837Y-58252803D01*
X143596151Y-58140091D01*
X143582497Y-58107127D01*
X143582490Y-58107114D01*
X143494498Y-57975425D01*
X143473620Y-57908747D01*
X143473600Y-57906534D01*
X143473600Y-46241921D01*
X143493285Y-46174882D01*
X143546089Y-46129127D01*
X143573409Y-46120304D01*
X143711997Y-46092737D01*
X143857679Y-46032394D01*
X143988789Y-45944789D01*
X144100289Y-45833289D01*
X144187894Y-45702179D01*
X144248237Y-45556497D01*
X144279000Y-45401842D01*
X144279138Y-45401150D01*
X144311523Y-45339239D01*
X144313018Y-45337716D01*
X145137819Y-44512916D01*
X145199142Y-44479431D01*
X145268834Y-44484415D01*
X145324767Y-44526287D01*
X145349184Y-44591751D01*
X145349500Y-44600597D01*
X145349500Y-44672475D01*
X145387016Y-44812485D01*
X145387017Y-44812488D01*
X145459488Y-44938011D01*
X145459490Y-44938013D01*
X145459491Y-44938015D01*
X145561985Y-45040509D01*
X145561986Y-45040510D01*
X145561988Y-45040511D01*
X145687511Y-45112982D01*
X145687512Y-45112982D01*
X145687515Y-45112984D01*
X145827525Y-45150500D01*
X145827528Y-45150500D01*
X161472472Y-45150500D01*
X161472475Y-45150500D01*
X161612485Y-45112984D01*
X161738015Y-45040509D01*
X161840509Y-44938015D01*
X161912984Y-44812485D01*
X161950500Y-44672475D01*
X161950500Y-29027525D01*
X161912984Y-28887515D01*
X161901280Y-28867244D01*
X161840511Y-28761988D01*
X161840506Y-28761982D01*
X161738017Y-28659493D01*
X161738011Y-28659488D01*
X161612488Y-28587017D01*
X161612489Y-28587017D01*
X161577307Y-28577590D01*
X161472475Y-28549500D01*
X161472472Y-28549500D01*
X148836800Y-28549500D01*
X148769761Y-28529815D01*
X148724006Y-28477011D01*
X148712800Y-28425500D01*
X148712800Y-19199500D01*
X148732485Y-19132461D01*
X148785289Y-19086706D01*
X148836800Y-19075500D01*
X151594972Y-19075500D01*
X151594975Y-19075500D01*
X151734985Y-19037984D01*
X151860515Y-18965509D01*
X151963009Y-18863015D01*
X152035484Y-18737485D01*
X152073000Y-18597475D01*
X152073000Y-9452525D01*
X152035484Y-9312515D01*
X152009378Y-9267299D01*
X151963011Y-9186988D01*
X151963006Y-9186982D01*
X151860517Y-9084493D01*
X151860511Y-9084488D01*
X151734988Y-9012017D01*
X151734989Y-9012017D01*
X151702091Y-9003202D01*
X151594975Y-8974500D01*
X151594972Y-8974500D01*
X148910600Y-8974500D01*
X148843561Y-8954815D01*
X148797806Y-8902011D01*
X148786600Y-8850500D01*
X148786600Y-6745465D01*
X148806285Y-6678426D01*
X148807498Y-6676574D01*
X148849787Y-6613285D01*
X148895494Y-6544879D01*
X148955837Y-6399197D01*
X148986600Y-6244542D01*
X148986600Y-6086858D01*
X148986600Y-6086855D01*
X148986599Y-6086853D01*
X148955837Y-5932203D01*
X148955835Y-5932198D01*
X148895497Y-5786527D01*
X148895490Y-5786514D01*
X148807889Y-5655411D01*
X148807886Y-5655407D01*
X148696392Y-5543913D01*
X148696388Y-5543910D01*
X148565285Y-5456309D01*
X148565272Y-5456302D01*
X148419601Y-5395964D01*
X148419589Y-5395961D01*
X148264945Y-5365200D01*
X148264942Y-5365200D01*
X148107258Y-5365200D01*
X148107255Y-5365200D01*
X147952610Y-5395961D01*
X147952598Y-5395964D01*
X147806927Y-5456302D01*
X147806914Y-5456309D01*
X147675811Y-5543910D01*
X147675807Y-5543913D01*
X147564313Y-5655407D01*
X147564310Y-5655411D01*
X147476709Y-5786514D01*
X147476702Y-5786527D01*
X147416364Y-5932198D01*
X147416361Y-5932210D01*
X147385600Y-6086853D01*
X147385600Y-6244546D01*
X147416361Y-6399189D01*
X147416364Y-6399201D01*
X147476702Y-6544872D01*
X147476709Y-6544885D01*
X147564702Y-6676574D01*
X147585580Y-6743251D01*
X147585600Y-6745465D01*
X147585600Y-8850500D01*
X147565915Y-8917539D01*
X147513111Y-8963294D01*
X147461600Y-8974500D01*
X146479999Y-8974500D01*
X146450571Y-8965859D01*
X146420598Y-8959346D01*
X146415566Y-8955580D01*
X146412960Y-8954815D01*
X146396416Y-8941487D01*
X146396384Y-8941527D01*
X146396372Y-8941517D01*
X146395766Y-8940963D01*
X146392338Y-8938202D01*
X146390216Y-8936081D01*
X146388093Y-8933958D01*
X146388091Y-8933954D01*
X146388074Y-8933939D01*
X146109390Y-8655255D01*
X146109388Y-8655252D01*
X145990517Y-8536381D01*
X145990516Y-8536380D01*
X145903704Y-8486260D01*
X145903704Y-8486259D01*
X145903700Y-8486258D01*
X145853585Y-8457323D01*
X145700857Y-8416399D01*
X145542743Y-8416399D01*
X145535147Y-8416399D01*
X145535131Y-8416400D01*
X144535769Y-8416400D01*
X144535753Y-8416399D01*
X144528157Y-8416399D01*
X144370043Y-8416399D01*
X144262687Y-8445165D01*
X144217310Y-8457324D01*
X144217309Y-8457325D01*
X144167196Y-8486259D01*
X144167195Y-8486260D01*
X144123789Y-8511320D01*
X144080385Y-8536379D01*
X144080382Y-8536381D01*
X144023989Y-8592775D01*
X143968580Y-8648184D01*
X143968578Y-8648186D01*
X143808693Y-8808072D01*
X143678584Y-8938181D01*
X143617261Y-8971666D01*
X143590903Y-8974500D01*
X142594975Y-8974500D01*
X142450025Y-8974500D01*
X142342909Y-9003202D01*
X142310011Y-9012017D01*
X142184488Y-9084488D01*
X142184482Y-9084493D01*
X142081993Y-9186982D01*
X142081988Y-9186988D01*
X142009517Y-9312511D01*
X142009516Y-9312515D01*
X141972000Y-9452525D01*
X141972000Y-9452527D01*
X141972000Y-10593402D01*
X141952315Y-10660441D01*
X141935681Y-10681083D01*
X132840481Y-19776282D01*
X132840480Y-19776284D01*
X132796081Y-19853186D01*
X132787047Y-19868834D01*
X132761443Y-19913181D01*
X132761423Y-19913215D01*
X132720499Y-20065943D01*
X132720499Y-20065945D01*
X132720499Y-20234046D01*
X132720500Y-20234059D01*
X132720500Y-30925500D01*
X132700815Y-30992539D01*
X132648011Y-31038294D01*
X132596500Y-31049500D01*
X126922475Y-31049500D01*
X126777525Y-31049500D01*
X126673320Y-31077422D01*
X126637511Y-31087017D01*
X126511988Y-31159488D01*
X126511982Y-31159493D01*
X126409493Y-31261982D01*
X126409488Y-31261988D01*
X126337017Y-31387511D01*
X126337016Y-31387515D01*
X126299500Y-31527525D01*
X126299500Y-31527527D01*
X126299500Y-43785302D01*
X126279815Y-43852341D01*
X126263181Y-43872983D01*
X123742381Y-46393782D01*
X123742379Y-46393785D01*
X123692261Y-46480594D01*
X123692259Y-46480596D01*
X123663325Y-46530709D01*
X123663324Y-46530710D01*
X123663323Y-46530715D01*
X123622399Y-46683443D01*
X123622399Y-46683445D01*
X123622399Y-46851546D01*
X123622400Y-46851559D01*
X123622400Y-47504867D01*
X123602715Y-47571906D01*
X123549911Y-47617661D01*
X123480753Y-47627605D01*
X123466307Y-47624642D01*
X123405248Y-47608281D01*
X123372475Y-47599500D01*
X107872475Y-47599500D01*
X107727525Y-47599500D01*
X107622637Y-47627605D01*
X107587511Y-47637017D01*
X107461988Y-47709488D01*
X107461982Y-47709493D01*
X107359493Y-47811982D01*
X107359488Y-47811988D01*
X107287017Y-47937511D01*
X107287016Y-47937515D01*
X107249500Y-48077525D01*
X98912200Y-48077525D01*
X98912200Y-32905765D01*
X98931885Y-32838726D01*
X98933098Y-32836874D01*
X99021090Y-32705185D01*
X99021090Y-32705184D01*
X99021094Y-32705179D01*
X99081437Y-32559497D01*
X99112200Y-32404842D01*
X99112200Y-32247158D01*
X99112200Y-32247155D01*
X99112199Y-32247153D01*
X99081438Y-32092510D01*
X99081437Y-32092503D01*
X99054657Y-32027849D01*
X99021097Y-31946827D01*
X99021090Y-31946814D01*
X98933098Y-31815125D01*
X98912220Y-31748447D01*
X98912200Y-31746234D01*
X98912200Y-23834500D01*
X98931885Y-23767461D01*
X98984689Y-23721706D01*
X99036200Y-23710500D01*
X109649459Y-23710500D01*
X109716498Y-23730185D01*
X109762253Y-23782989D01*
X109772197Y-23852147D01*
X109743172Y-23915703D01*
X109737140Y-23922181D01*
X109628413Y-24030907D01*
X109628410Y-24030911D01*
X109540809Y-24162014D01*
X109540802Y-24162027D01*
X109480464Y-24307698D01*
X109480461Y-24307710D01*
X109449700Y-24462353D01*
X109449700Y-24620046D01*
X109480461Y-24774689D01*
X109480464Y-24774701D01*
X109540802Y-24920372D01*
X109540809Y-24920385D01*
X109628410Y-25051488D01*
X109628413Y-25051492D01*
X109739907Y-25162986D01*
X109739911Y-25162989D01*
X109871014Y-25250590D01*
X109871027Y-25250597D01*
X110016698Y-25310935D01*
X110016703Y-25310937D01*
X110171353Y-25341699D01*
X110171356Y-25341700D01*
X110171358Y-25341700D01*
X110329044Y-25341700D01*
X110329045Y-25341699D01*
X110483697Y-25310937D01*
X110629379Y-25250594D01*
X110629385Y-25250590D01*
X110761075Y-25162598D01*
X110827753Y-25141720D01*
X110829966Y-25141700D01*
X112284731Y-25141700D01*
X112284747Y-25141701D01*
X112292343Y-25141701D01*
X112450454Y-25141701D01*
X112450457Y-25141701D01*
X112603185Y-25100777D01*
X112653304Y-25071839D01*
X112740116Y-25021720D01*
X112851920Y-24909916D01*
X112851920Y-24909914D01*
X112862128Y-24899707D01*
X112862129Y-24899704D01*
X114015016Y-23746819D01*
X114076339Y-23713334D01*
X114102697Y-23710500D01*
X114452472Y-23710500D01*
X114452475Y-23710500D01*
X114592485Y-23672984D01*
X114718015Y-23600509D01*
X114820509Y-23498015D01*
X114892984Y-23372485D01*
X114930500Y-23232475D01*
X114930500Y-22882696D01*
X114950185Y-22815657D01*
X114966815Y-22795019D01*
X115311906Y-22449927D01*
X115311911Y-22449924D01*
X115322114Y-22439720D01*
X115322116Y-22439720D01*
X115433920Y-22327916D01*
X115512977Y-22190984D01*
X115542934Y-22079181D01*
X115553900Y-22038258D01*
X115553900Y-21880143D01*
X115553900Y-2952525D01*
X164399500Y-2952525D01*
X164399500Y-16097475D01*
X164437016Y-16237485D01*
X164437017Y-16237488D01*
X164509488Y-16363011D01*
X164509490Y-16363013D01*
X164509491Y-16363015D01*
X164611985Y-16465509D01*
X164611986Y-16465510D01*
X164611988Y-16465511D01*
X164737511Y-16537982D01*
X164737512Y-16537982D01*
X164737515Y-16537984D01*
X164877525Y-16575500D01*
X165022475Y-16575500D01*
X165507700Y-16575500D01*
X165574739Y-16595185D01*
X165620494Y-16647989D01*
X165631700Y-16699500D01*
X165631700Y-18051630D01*
X165631699Y-18051648D01*
X165631699Y-18217354D01*
X165631698Y-18217354D01*
X165651452Y-18291077D01*
X165672623Y-18370085D01*
X165696206Y-18410931D01*
X165751679Y-18507014D01*
X165751681Y-18507017D01*
X165870549Y-18625885D01*
X165870555Y-18625890D01*
X166419578Y-19174913D01*
X166419580Y-19174916D01*
X166433233Y-19188569D01*
X166450526Y-19205862D01*
X166465948Y-19224653D01*
X166527310Y-19316489D01*
X166638807Y-19427986D01*
X166638811Y-19427989D01*
X166769914Y-19515590D01*
X166769927Y-19515597D01*
X166870213Y-19557136D01*
X166915603Y-19575937D01*
X167070253Y-19606699D01*
X167070256Y-19606700D01*
X167070258Y-19606700D01*
X167227944Y-19606700D01*
X167227945Y-19606699D01*
X167382597Y-19575937D01*
X167528279Y-19515594D01*
X167642615Y-19439196D01*
X167709288Y-19418320D01*
X167776669Y-19436804D01*
X167799184Y-19454619D01*
X177503281Y-29158716D01*
X177536766Y-29220039D01*
X177539600Y-29246397D01*
X177539600Y-30925500D01*
X177519915Y-30992539D01*
X177467111Y-31038294D01*
X177415600Y-31049500D01*
X165022475Y-31049500D01*
X164877525Y-31049500D01*
X164773320Y-31077422D01*
X164737511Y-31087017D01*
X164611988Y-31159488D01*
X164611982Y-31159493D01*
X164509493Y-31261982D01*
X164509488Y-31261988D01*
X164437017Y-31387511D01*
X164437016Y-31387515D01*
X164399500Y-31527525D01*
X164399500Y-44672475D01*
X164437016Y-44812485D01*
X164437017Y-44812488D01*
X164509488Y-44938011D01*
X164509490Y-44938013D01*
X164509491Y-44938015D01*
X164611985Y-45040509D01*
X164611986Y-45040510D01*
X164611988Y-45040511D01*
X164737511Y-45112982D01*
X164737512Y-45112982D01*
X164737515Y-45112984D01*
X164877525Y-45150500D01*
X165022475Y-45150500D01*
X177415600Y-45150500D01*
X177482639Y-45170185D01*
X177528394Y-45222989D01*
X177539600Y-45274500D01*
X177539600Y-69025500D01*
X177519915Y-69092539D01*
X177467111Y-69138294D01*
X177415600Y-69149500D01*
X174547475Y-69149500D01*
X174402525Y-69149500D01*
X174273993Y-69183940D01*
X174262511Y-69187017D01*
X174136988Y-69259488D01*
X174136982Y-69259493D01*
X174034493Y-69361982D01*
X174034488Y-69361988D01*
X173962017Y-69487511D01*
X173962016Y-69487515D01*
X173924500Y-69627525D01*
X173924500Y-82772475D01*
X173962016Y-82912485D01*
X173962017Y-82912488D01*
X174034488Y-83038011D01*
X174034490Y-83038013D01*
X174034491Y-83038015D01*
X174136985Y-83140509D01*
X174136986Y-83140510D01*
X174136988Y-83140511D01*
X174262511Y-83212982D01*
X174262512Y-83212982D01*
X174262515Y-83212984D01*
X174402525Y-83250500D01*
X174402528Y-83250500D01*
X187547472Y-83250500D01*
X187547475Y-83250500D01*
X187687485Y-83212984D01*
X187813015Y-83140509D01*
X187915509Y-83038015D01*
X187987984Y-82912485D01*
X188025500Y-82772475D01*
X188025500Y-69627525D01*
X187987984Y-69487515D01*
X187961031Y-69440832D01*
X187915511Y-69361988D01*
X187915506Y-69361982D01*
X187813017Y-69259493D01*
X187813011Y-69259488D01*
X187687488Y-69187017D01*
X187687489Y-69187017D01*
X187676006Y-69183940D01*
X187547475Y-69149500D01*
X187547472Y-69149500D01*
X178864600Y-69149500D01*
X178797561Y-69129815D01*
X178751806Y-69077011D01*
X178740600Y-69025500D01*
X178740600Y-29035360D01*
X178740601Y-29035347D01*
X178740601Y-28867244D01*
X178721916Y-28797511D01*
X178699677Y-28714516D01*
X178667907Y-28659488D01*
X178620624Y-28577590D01*
X178620618Y-28577582D01*
X167908766Y-17865730D01*
X167875281Y-17804407D01*
X167880265Y-17734715D01*
X167908766Y-17690368D01*
X168987316Y-16611819D01*
X169048639Y-16578334D01*
X169074997Y-16575500D01*
X178022472Y-16575500D01*
X178022475Y-16575500D01*
X178162485Y-16537984D01*
X178288015Y-16465509D01*
X178390509Y-16363015D01*
X178462984Y-16237485D01*
X178500500Y-16097475D01*
X178500500Y-2952525D01*
X183449500Y-2952525D01*
X183449500Y-16097475D01*
X183487016Y-16237485D01*
X183487017Y-16237488D01*
X183559488Y-16363011D01*
X183559490Y-16363013D01*
X183559491Y-16363015D01*
X183661985Y-16465509D01*
X183661986Y-16465510D01*
X183661988Y-16465511D01*
X183787511Y-16537982D01*
X183787512Y-16537982D01*
X183787515Y-16537984D01*
X183927525Y-16575500D01*
X184072475Y-16575500D01*
X189397200Y-16575500D01*
X189464239Y-16595185D01*
X189509994Y-16647989D01*
X189521200Y-16699500D01*
X189521200Y-30925500D01*
X189501515Y-30992539D01*
X189448711Y-31038294D01*
X189397200Y-31049500D01*
X184072475Y-31049500D01*
X183927525Y-31049500D01*
X183823320Y-31077422D01*
X183787511Y-31087017D01*
X183661988Y-31159488D01*
X183661982Y-31159493D01*
X183559493Y-31261982D01*
X183559488Y-31261988D01*
X183487017Y-31387511D01*
X183487016Y-31387515D01*
X183449500Y-31527525D01*
X183449500Y-44672475D01*
X183487016Y-44812485D01*
X183487017Y-44812488D01*
X183559488Y-44938011D01*
X183559490Y-44938013D01*
X183559491Y-44938015D01*
X183661985Y-45040509D01*
X183661986Y-45040510D01*
X183661988Y-45040511D01*
X183787511Y-45112982D01*
X183787512Y-45112982D01*
X183787515Y-45112984D01*
X183927525Y-45150500D01*
X183927528Y-45150500D01*
X197072472Y-45150500D01*
X197072475Y-45150500D01*
X197212485Y-45112984D01*
X197338015Y-45040509D01*
X197440509Y-44938015D01*
X197512984Y-44812485D01*
X197550500Y-44672475D01*
X197550500Y-31527525D01*
X197512984Y-31387515D01*
X197440509Y-31261985D01*
X197338015Y-31159491D01*
X197338013Y-31159490D01*
X197338011Y-31159488D01*
X197212488Y-31087017D01*
X197212489Y-31087017D01*
X197176680Y-31077422D01*
X197072475Y-31049500D01*
X197072472Y-31049500D01*
X190846200Y-31049500D01*
X190779161Y-31029815D01*
X190733406Y-30977011D01*
X190722200Y-30925500D01*
X190722200Y-16699500D01*
X190741885Y-16632461D01*
X190794689Y-16586706D01*
X190846200Y-16575500D01*
X197072472Y-16575500D01*
X197072475Y-16575500D01*
X197212485Y-16537984D01*
X197338015Y-16465509D01*
X197440509Y-16363015D01*
X197512984Y-16237485D01*
X197550500Y-16097475D01*
X197550500Y-2952525D01*
X197512984Y-2812515D01*
X197462661Y-2725354D01*
X197440511Y-2686988D01*
X197440506Y-2686982D01*
X197338017Y-2584493D01*
X197338011Y-2584488D01*
X197212488Y-2512017D01*
X197212489Y-2512017D01*
X197201006Y-2508940D01*
X197072475Y-2474500D01*
X184072475Y-2474500D01*
X183927525Y-2474500D01*
X183798993Y-2508940D01*
X183787511Y-2512017D01*
X183661988Y-2584488D01*
X183661982Y-2584493D01*
X183559493Y-2686982D01*
X183559488Y-2686988D01*
X183487017Y-2812511D01*
X183487016Y-2812515D01*
X183449500Y-2952525D01*
X178500500Y-2952525D01*
X178462984Y-2812515D01*
X178412661Y-2725354D01*
X178390511Y-2686988D01*
X178390506Y-2686982D01*
X178288017Y-2584493D01*
X178288011Y-2584488D01*
X178162488Y-2512017D01*
X178162489Y-2512017D01*
X178151006Y-2508940D01*
X178022475Y-2474500D01*
X165022475Y-2474500D01*
X164877525Y-2474500D01*
X164748993Y-2508940D01*
X164737511Y-2512017D01*
X164611988Y-2584488D01*
X164611982Y-2584493D01*
X164509493Y-2686982D01*
X164509488Y-2686988D01*
X164437017Y-2812511D01*
X164437016Y-2812515D01*
X164399500Y-2952525D01*
X115553900Y-2952525D01*
X115553900Y-1490760D01*
X115553901Y-1490747D01*
X115553901Y-1322644D01*
X115512976Y-1169914D01*
X115512973Y-1169909D01*
X115433924Y-1032990D01*
X115433918Y-1032982D01*
X114966819Y-565883D01*
X114933334Y-504560D01*
X114930500Y-478202D01*
X114930500Y375500D01*
X114950185Y442539D01*
X115002989Y488294D01*
X115054500Y499500D01*
X199875500Y499500D01*
X199942539Y479815D01*
X199988294Y427011D01*
X199999500Y375500D01*
X199999500Y-85375500D01*
X199979815Y-85442539D01*
X199927011Y-85488294D01*
X199875500Y-85499500D01*
X9624500Y-85499500D01*
X9557461Y-85479815D01*
X9511706Y-85427011D01*
X9500500Y-85375500D01*
X9500500Y-2952525D01*
X11999500Y-2952525D01*
X11999500Y-16097475D01*
X12037016Y-16237485D01*
X12037017Y-16237488D01*
X12109488Y-16363011D01*
X12109490Y-16363013D01*
X12109491Y-16363015D01*
X12211985Y-16465509D01*
X12211986Y-16465510D01*
X12211988Y-16465511D01*
X12337511Y-16537982D01*
X12337512Y-16537982D01*
X12337515Y-16537984D01*
X12477525Y-16575500D01*
X12622475Y-16575500D01*
X17114400Y-16575500D01*
X17181439Y-16595185D01*
X17227194Y-16647989D01*
X17238400Y-16699500D01*
X17238400Y-22972030D01*
X17238399Y-22972048D01*
X17238399Y-23137754D01*
X17238398Y-23137754D01*
X17238399Y-23137757D01*
X17279323Y-23290485D01*
X17283526Y-23297764D01*
X17283528Y-23297774D01*
X17283531Y-23297773D01*
X17358377Y-23427412D01*
X17358381Y-23427417D01*
X17477249Y-23546285D01*
X17477255Y-23546290D01*
X22268784Y-28337819D01*
X22302269Y-28399142D01*
X22297285Y-28468834D01*
X22255413Y-28524767D01*
X22189949Y-28549184D01*
X22181103Y-28549500D01*
X12622475Y-28549500D01*
X12477525Y-28549500D01*
X12372693Y-28577590D01*
X12337511Y-28587017D01*
X12211988Y-28659488D01*
X12211982Y-28659493D01*
X12109493Y-28761982D01*
X12109488Y-28761988D01*
X12037017Y-28887511D01*
X12032583Y-28904055D01*
X11999500Y-29027525D01*
X11999500Y-44672475D01*
X12037016Y-44812485D01*
X12037017Y-44812488D01*
X12109488Y-44938011D01*
X12109490Y-44938013D01*
X12109491Y-44938015D01*
X12211985Y-45040509D01*
X12211986Y-45040510D01*
X12211988Y-45040511D01*
X12337511Y-45112982D01*
X12337512Y-45112982D01*
X12337515Y-45112984D01*
X12477525Y-45150500D01*
X12622475Y-45150500D01*
X19562100Y-45150500D01*
X19629139Y-45170185D01*
X19674894Y-45222989D01*
X19686100Y-45274500D01*
X19686100Y-68901030D01*
X19686099Y-68901048D01*
X19686099Y-69066754D01*
X19686098Y-69066754D01*
X19708270Y-69149500D01*
X19727023Y-69219485D01*
X19750122Y-69259493D01*
X19755958Y-69269600D01*
X19755959Y-69269604D01*
X19755960Y-69269604D01*
X19806079Y-69356414D01*
X19806081Y-69356417D01*
X19924949Y-69475285D01*
X19924955Y-69475290D01*
X21488181Y-71038516D01*
X21521666Y-71099839D01*
X21524500Y-71126197D01*
X21524500Y-82772475D01*
X21562016Y-82912485D01*
X21562017Y-82912488D01*
X21634488Y-83038011D01*
X21634490Y-83038013D01*
X21634491Y-83038015D01*
X21736985Y-83140509D01*
X21736986Y-83140510D01*
X21736988Y-83140511D01*
X21862511Y-83212982D01*
X21862512Y-83212982D01*
X21862515Y-83212984D01*
X22002525Y-83250500D01*
X22002528Y-83250500D01*
X35147472Y-83250500D01*
X35147475Y-83250500D01*
X35287485Y-83212984D01*
X35413015Y-83140509D01*
X35515509Y-83038015D01*
X35587984Y-82912485D01*
X35625500Y-82772475D01*
X35625500Y-69627525D01*
X35587984Y-69487515D01*
X35561031Y-69440832D01*
X35515511Y-69361988D01*
X35515506Y-69361982D01*
X35413017Y-69259493D01*
X35413011Y-69259488D01*
X35287488Y-69187017D01*
X35287489Y-69187017D01*
X35276006Y-69183940D01*
X35147475Y-69149500D01*
X35147472Y-69149500D01*
X29094600Y-69149500D01*
X29027561Y-69129815D01*
X28981806Y-69077011D01*
X28970600Y-69025500D01*
X28970600Y-31527525D01*
X31049500Y-31527525D01*
X31049500Y-44672475D01*
X31087016Y-44812485D01*
X31087017Y-44812488D01*
X31159488Y-44938011D01*
X31159490Y-44938013D01*
X31159491Y-44938015D01*
X31261985Y-45040509D01*
X31261986Y-45040510D01*
X31261988Y-45040511D01*
X31387511Y-45112982D01*
X31387512Y-45112982D01*
X31387515Y-45112984D01*
X31527525Y-45150500D01*
X31672475Y-45150500D01*
X35905100Y-45150500D01*
X35972139Y-45170185D01*
X36017894Y-45222989D01*
X36029100Y-45274500D01*
X36029100Y-51626230D01*
X36029099Y-51626248D01*
X36029099Y-51791954D01*
X36029098Y-51791954D01*
X36070023Y-51944685D01*
X36098958Y-51994800D01*
X36098959Y-51994804D01*
X36098960Y-51994804D01*
X36149079Y-52081614D01*
X36149081Y-52081617D01*
X36267949Y-52200485D01*
X36267955Y-52200490D01*
X39821025Y-55753560D01*
X39854510Y-55814883D01*
X39854961Y-55817049D01*
X39885861Y-55972391D01*
X39885864Y-55972401D01*
X39946202Y-56118072D01*
X39946209Y-56118085D01*
X40033810Y-56249188D01*
X40033813Y-56249192D01*
X40145307Y-56360686D01*
X40145311Y-56360689D01*
X40276414Y-56448290D01*
X40276427Y-56448297D01*
X40422098Y-56508635D01*
X40422103Y-56508637D01*
X40576753Y-56539399D01*
X40576756Y-56539400D01*
X40576758Y-56539400D01*
X40734444Y-56539400D01*
X40734445Y-56539399D01*
X40889097Y-56508637D01*
X41034779Y-56448294D01*
X41165889Y-56360689D01*
X41277389Y-56249189D01*
X41364994Y-56118079D01*
X41425337Y-55972397D01*
X41456100Y-55817742D01*
X41456100Y-55660058D01*
X41456100Y-55660055D01*
X41456099Y-55660053D01*
X41425338Y-55505410D01*
X41425337Y-55505403D01*
X41425335Y-55505398D01*
X41364997Y-55359727D01*
X41364990Y-55359714D01*
X41277389Y-55228611D01*
X41277386Y-55228607D01*
X41165892Y-55117113D01*
X41165888Y-55117110D01*
X41034785Y-55029509D01*
X41034772Y-55029502D01*
X40889101Y-54969164D01*
X40889091Y-54969161D01*
X40733751Y-54938262D01*
X40671841Y-54905877D01*
X40670262Y-54904326D01*
X37266419Y-51500483D01*
X37232934Y-51439160D01*
X37230100Y-51412802D01*
X37230100Y-45274500D01*
X37249785Y-45207461D01*
X37302589Y-45161706D01*
X37354100Y-45150500D01*
X44672472Y-45150500D01*
X44672475Y-45150500D01*
X44812485Y-45112984D01*
X44938015Y-45040509D01*
X45040509Y-44938015D01*
X45112984Y-44812485D01*
X45150500Y-44672475D01*
X45150500Y-31527525D01*
X50099500Y-31527525D01*
X50099500Y-44672475D01*
X50137016Y-44812485D01*
X50137017Y-44812488D01*
X50209488Y-44938011D01*
X50209490Y-44938013D01*
X50209491Y-44938015D01*
X50311985Y-45040509D01*
X50311986Y-45040510D01*
X50311988Y-45040511D01*
X50437511Y-45112982D01*
X50437512Y-45112982D01*
X50437515Y-45112984D01*
X50577525Y-45150500D01*
X50577528Y-45150500D01*
X63722472Y-45150500D01*
X63722475Y-45150500D01*
X63862485Y-45112984D01*
X63988015Y-45040509D01*
X64090509Y-44938015D01*
X64162984Y-44812485D01*
X64200500Y-44672475D01*
X64200500Y-36012097D01*
X64220185Y-35945058D01*
X64272989Y-35899303D01*
X64342147Y-35889359D01*
X64405703Y-35918384D01*
X64412181Y-35924416D01*
X66557125Y-38069360D01*
X66590610Y-38130683D01*
X66591061Y-38132849D01*
X66621961Y-38288191D01*
X66621964Y-38288201D01*
X66682302Y-38433872D01*
X66682309Y-38433885D01*
X66770302Y-38565574D01*
X66791180Y-38632251D01*
X66791200Y-38634465D01*
X66791200Y-69025500D01*
X66771515Y-69092539D01*
X66718711Y-69138294D01*
X66667200Y-69149500D01*
X60247475Y-69149500D01*
X60102525Y-69149500D01*
X59973993Y-69183940D01*
X59962511Y-69187017D01*
X59836988Y-69259488D01*
X59836982Y-69259493D01*
X59734493Y-69361982D01*
X59734488Y-69361988D01*
X59662017Y-69487511D01*
X59662016Y-69487515D01*
X59624500Y-69627525D01*
X59624500Y-82772475D01*
X59662016Y-82912485D01*
X59662017Y-82912488D01*
X59734488Y-83038011D01*
X59734490Y-83038013D01*
X59734491Y-83038015D01*
X59836985Y-83140509D01*
X59836986Y-83140510D01*
X59836988Y-83140511D01*
X59962511Y-83212982D01*
X59962512Y-83212982D01*
X59962515Y-83212984D01*
X60102525Y-83250500D01*
X60102528Y-83250500D01*
X73247472Y-83250500D01*
X73247475Y-83250500D01*
X73387485Y-83212984D01*
X73513015Y-83140509D01*
X73615509Y-83038015D01*
X73687984Y-82912485D01*
X73725500Y-82772475D01*
X73725500Y-69627525D01*
X73687984Y-69487515D01*
X73661031Y-69440832D01*
X73615511Y-69361988D01*
X73615506Y-69361982D01*
X73513017Y-69259493D01*
X73513011Y-69259488D01*
X73387488Y-69187017D01*
X73387489Y-69187017D01*
X73376006Y-69183940D01*
X73247475Y-69149500D01*
X73247472Y-69149500D01*
X68116200Y-69149500D01*
X68049161Y-69129815D01*
X68003406Y-69077011D01*
X67992200Y-69025500D01*
X67992200Y-38634465D01*
X68011885Y-38567426D01*
X68013098Y-38565574D01*
X68101090Y-38433885D01*
X68101090Y-38433884D01*
X68101094Y-38433879D01*
X68161437Y-38288197D01*
X68192200Y-38133542D01*
X68192200Y-37975858D01*
X68192200Y-37975855D01*
X68192199Y-37975853D01*
X68162214Y-37825110D01*
X68161437Y-37821203D01*
X68136175Y-37760214D01*
X68101097Y-37675527D01*
X68101090Y-37675514D01*
X68013489Y-37544411D01*
X68013486Y-37544407D01*
X67901992Y-37432913D01*
X67901988Y-37432910D01*
X67770885Y-37345309D01*
X67770872Y-37345302D01*
X67625201Y-37284964D01*
X67625191Y-37284961D01*
X67469851Y-37254062D01*
X67407941Y-37221677D01*
X67406362Y-37220126D01*
X64236819Y-34050583D01*
X64203334Y-33989260D01*
X64200500Y-33962902D01*
X64200500Y-31527527D01*
X64200500Y-31527525D01*
X64162984Y-31387515D01*
X64090509Y-31261985D01*
X63988015Y-31159491D01*
X63988013Y-31159490D01*
X63988011Y-31159488D01*
X63862488Y-31087017D01*
X63862489Y-31087017D01*
X63826680Y-31077422D01*
X63722475Y-31049500D01*
X63722472Y-31049500D01*
X62044000Y-31049500D01*
X61976961Y-31029815D01*
X61931206Y-30977011D01*
X61920000Y-30925500D01*
X61920000Y-13386843D01*
X62678299Y-13386843D01*
X62678299Y-13544957D01*
X62678299Y-13544959D01*
X62678300Y-13554953D01*
X62678300Y-25389830D01*
X62678299Y-25389848D01*
X62678299Y-25555556D01*
X62719221Y-25708281D01*
X62719222Y-25708283D01*
X62719223Y-25708285D01*
X62721426Y-25712100D01*
X62721429Y-25712106D01*
X62721431Y-25712109D01*
X62798277Y-25845212D01*
X62798281Y-25845217D01*
X62917149Y-25964085D01*
X62917155Y-25964090D01*
X63480325Y-26527260D01*
X63513810Y-26588583D01*
X63514261Y-26590749D01*
X63545161Y-26746091D01*
X63545164Y-26746101D01*
X63605502Y-26891772D01*
X63605509Y-26891785D01*
X63693110Y-27022888D01*
X63693113Y-27022892D01*
X63804607Y-27134386D01*
X63804611Y-27134389D01*
X63935714Y-27221990D01*
X63935727Y-27221997D01*
X64058417Y-27272816D01*
X64081403Y-27282337D01*
X64216125Y-27309135D01*
X64236053Y-27313099D01*
X64236056Y-27313100D01*
X64236058Y-27313100D01*
X64393744Y-27313100D01*
X64393745Y-27313099D01*
X64548397Y-27282337D01*
X64694079Y-27221994D01*
X64825189Y-27134389D01*
X64936689Y-27022889D01*
X65024294Y-26891779D01*
X65084637Y-26746097D01*
X65115400Y-26591442D01*
X65115400Y-26433758D01*
X65115400Y-26433755D01*
X65115399Y-26433753D01*
X65084638Y-26279110D01*
X65084637Y-26279103D01*
X65084635Y-26279098D01*
X65024297Y-26133427D01*
X65024290Y-26133414D01*
X64936689Y-26002311D01*
X64936686Y-26002307D01*
X64825192Y-25890813D01*
X64825188Y-25890810D01*
X64694085Y-25803209D01*
X64694072Y-25803202D01*
X64548401Y-25742864D01*
X64548391Y-25742861D01*
X64393051Y-25711962D01*
X64331141Y-25679577D01*
X64329562Y-25678026D01*
X63915619Y-25264083D01*
X63882134Y-25202760D01*
X63879300Y-25176402D01*
X63879300Y-21174500D01*
X63898985Y-21107461D01*
X63951789Y-21061706D01*
X64003300Y-21050500D01*
X64072475Y-21050500D01*
X70995503Y-21050500D01*
X71062542Y-21070185D01*
X71083184Y-21086819D01*
X77269181Y-27272816D01*
X77302666Y-27334139D01*
X77305500Y-27360497D01*
X77305500Y-30925500D01*
X77285815Y-30992539D01*
X77233011Y-31038294D01*
X77181500Y-31049500D01*
X70974896Y-31049500D01*
X70953072Y-31043091D01*
X70930400Y-31041242D01*
X70920186Y-31033435D01*
X70907857Y-31029815D01*
X70892964Y-31012627D01*
X70874889Y-30998812D01*
X70867323Y-30983036D01*
X70862102Y-30977011D01*
X70858286Y-30967667D01*
X70856489Y-30962698D01*
X70819677Y-30825315D01*
X70790739Y-30775195D01*
X70740620Y-30688384D01*
X70628816Y-30576580D01*
X70628815Y-30576579D01*
X70624485Y-30572249D01*
X70624474Y-30572239D01*
X69456874Y-29404639D01*
X69423389Y-29343316D01*
X69422938Y-29341149D01*
X69392038Y-29185810D01*
X69392037Y-29185803D01*
X69380817Y-29158716D01*
X69331697Y-29040127D01*
X69331690Y-29040114D01*
X69244089Y-28909011D01*
X69244086Y-28909007D01*
X69132592Y-28797513D01*
X69132588Y-28797510D01*
X69001485Y-28709909D01*
X69001472Y-28709902D01*
X68855801Y-28649564D01*
X68855789Y-28649561D01*
X68701145Y-28618800D01*
X68701142Y-28618800D01*
X68543458Y-28618800D01*
X68543455Y-28618800D01*
X68388810Y-28649561D01*
X68388798Y-28649564D01*
X68243127Y-28709902D01*
X68243114Y-28709909D01*
X68112011Y-28797510D01*
X68112007Y-28797513D01*
X68000513Y-28909007D01*
X68000510Y-28909011D01*
X67912909Y-29040114D01*
X67912902Y-29040127D01*
X67852564Y-29185798D01*
X67852561Y-29185810D01*
X67821800Y-29340453D01*
X67821800Y-29498146D01*
X67852561Y-29652789D01*
X67852564Y-29652801D01*
X67912902Y-29798472D01*
X67912909Y-29798485D01*
X68000510Y-29929588D01*
X68000513Y-29929592D01*
X68112007Y-30041086D01*
X68112011Y-30041089D01*
X68243114Y-30128690D01*
X68243127Y-30128697D01*
X68388798Y-30189035D01*
X68388803Y-30189037D01*
X68453447Y-30201895D01*
X68544149Y-30219938D01*
X68606060Y-30252323D01*
X68607639Y-30253874D01*
X69349939Y-30996174D01*
X69383424Y-31057497D01*
X69378440Y-31127189D01*
X69349940Y-31171536D01*
X69259488Y-31261988D01*
X69187017Y-31387511D01*
X69187016Y-31387515D01*
X69149500Y-31527525D01*
X69149500Y-44672475D01*
X69187016Y-44812485D01*
X69187017Y-44812488D01*
X69259488Y-44938011D01*
X69259490Y-44938013D01*
X69259491Y-44938015D01*
X69361985Y-45040509D01*
X69361986Y-45040510D01*
X69361988Y-45040511D01*
X69487511Y-45112982D01*
X69487512Y-45112982D01*
X69487515Y-45112984D01*
X69627525Y-45150500D01*
X69772475Y-45150500D01*
X77181500Y-45150500D01*
X77248539Y-45170185D01*
X77294294Y-45222989D01*
X77305500Y-45274500D01*
X77305500Y-47576934D01*
X77285815Y-47643973D01*
X77284602Y-47645825D01*
X77196609Y-47777514D01*
X77196602Y-47777527D01*
X77136264Y-47923198D01*
X77136261Y-47923210D01*
X77105500Y-48077853D01*
X77105500Y-48235546D01*
X77136261Y-48390189D01*
X77136264Y-48390201D01*
X77196602Y-48535872D01*
X77196609Y-48535885D01*
X77284210Y-48666988D01*
X77284213Y-48666992D01*
X77395707Y-48778486D01*
X77395711Y-48778489D01*
X77526814Y-48866090D01*
X77526827Y-48866097D01*
X77672498Y-48926435D01*
X77672503Y-48926437D01*
X77827153Y-48957199D01*
X77827156Y-48957200D01*
X77827158Y-48957200D01*
X77984844Y-48957200D01*
X77984845Y-48957199D01*
X78139497Y-48926437D01*
X78285179Y-48866094D01*
X78416289Y-48778489D01*
X78527789Y-48666989D01*
X78615394Y-48535879D01*
X78675737Y-48390197D01*
X78706500Y-48235542D01*
X78706500Y-48077858D01*
X78706500Y-48077855D01*
X78706499Y-48077853D01*
X78706434Y-48077525D01*
X78675737Y-47923203D01*
X78629671Y-47811988D01*
X78615397Y-47777527D01*
X78615390Y-47777514D01*
X78527398Y-47645825D01*
X78506520Y-47579147D01*
X78506500Y-47576934D01*
X78506500Y-45274500D01*
X78526185Y-45207461D01*
X78578989Y-45161706D01*
X78630500Y-45150500D01*
X82772472Y-45150500D01*
X82772475Y-45150500D01*
X82912485Y-45112984D01*
X83038015Y-45040509D01*
X83140509Y-44938015D01*
X83212984Y-44812485D01*
X83250500Y-44672475D01*
X83250500Y-31527525D01*
X83212984Y-31387515D01*
X83140509Y-31261985D01*
X83038015Y-31159491D01*
X83038013Y-31159490D01*
X83038011Y-31159488D01*
X82912488Y-31087017D01*
X82912489Y-31087017D01*
X82876680Y-31077422D01*
X82772475Y-31049500D01*
X82772472Y-31049500D01*
X78630500Y-31049500D01*
X78563461Y-31029815D01*
X78517706Y-30977011D01*
X78506500Y-30925500D01*
X78506500Y-27149459D01*
X78506501Y-27149446D01*
X78506501Y-26981345D01*
X78506501Y-26981343D01*
X78465577Y-26828615D01*
X78417935Y-26746097D01*
X78386520Y-26691684D01*
X78274716Y-26579880D01*
X78274715Y-26579879D01*
X78270385Y-26575549D01*
X78270374Y-26575539D01*
X72957016Y-21262181D01*
X72923531Y-21200858D01*
X72928515Y-21131166D01*
X72970387Y-21075233D01*
X73035851Y-21050816D01*
X73044697Y-21050500D01*
X73072472Y-21050500D01*
X73072475Y-21050500D01*
X73212485Y-21012984D01*
X73338015Y-20940509D01*
X73440509Y-20838015D01*
X73512984Y-20712485D01*
X73550500Y-20572475D01*
X73550500Y-12590053D01*
X86739400Y-12590053D01*
X86739400Y-12747746D01*
X86770161Y-12902389D01*
X86770164Y-12902401D01*
X86830502Y-13048072D01*
X86830509Y-13048085D01*
X86918502Y-13179774D01*
X86939380Y-13246451D01*
X86939400Y-13248665D01*
X86939400Y-22781030D01*
X86939399Y-22781048D01*
X86939399Y-22946754D01*
X86939398Y-22946754D01*
X86980323Y-23099485D01*
X86980983Y-23100627D01*
X86980997Y-23100652D01*
X87059377Y-23236412D01*
X87059381Y-23236417D01*
X87178249Y-23355285D01*
X87178255Y-23355290D01*
X87443525Y-23620560D01*
X87477010Y-23681883D01*
X87477461Y-23684049D01*
X87508361Y-23839391D01*
X87508364Y-23839401D01*
X87568702Y-23985072D01*
X87568709Y-23985085D01*
X87656310Y-24116188D01*
X87656313Y-24116192D01*
X87767807Y-24227686D01*
X87767811Y-24227689D01*
X87898914Y-24315290D01*
X87898927Y-24315297D01*
X88044598Y-24375635D01*
X88044603Y-24375637D01*
X88199253Y-24406399D01*
X88199256Y-24406400D01*
X88199258Y-24406400D01*
X88356944Y-24406400D01*
X88356945Y-24406399D01*
X88511597Y-24375637D01*
X88657279Y-24315294D01*
X88788389Y-24227689D01*
X88899889Y-24116189D01*
X88987494Y-23985079D01*
X89047837Y-23839397D01*
X89078600Y-23684742D01*
X89078600Y-23527058D01*
X89078600Y-23527055D01*
X89078599Y-23527053D01*
X89047838Y-23372410D01*
X89047837Y-23372403D01*
X89016925Y-23297774D01*
X88987497Y-23226727D01*
X88987490Y-23226714D01*
X88899889Y-23095611D01*
X88899886Y-23095607D01*
X88788392Y-22984113D01*
X88788388Y-22984110D01*
X88657285Y-22896509D01*
X88657272Y-22896502D01*
X88511601Y-22836164D01*
X88511591Y-22836161D01*
X88356249Y-22805261D01*
X88339492Y-22796495D01*
X88321014Y-22792476D01*
X88295977Y-22773733D01*
X88294338Y-22772876D01*
X88292760Y-22771325D01*
X88176719Y-22655284D01*
X88143234Y-22593961D01*
X88140400Y-22567603D01*
X88140400Y-13248665D01*
X88160085Y-13181626D01*
X88161298Y-13179774D01*
X88170025Y-13166714D01*
X88249294Y-13048079D01*
X88251042Y-13043856D01*
X88294878Y-12989452D01*
X88361170Y-12967382D01*
X88428871Y-12984656D01*
X88453287Y-13003622D01*
X92119281Y-16669616D01*
X92152766Y-16730939D01*
X92155600Y-16757297D01*
X92155600Y-23961434D01*
X92135915Y-24028473D01*
X92134702Y-24030325D01*
X92046709Y-24162014D01*
X92046702Y-24162027D01*
X91986364Y-24307698D01*
X91986361Y-24307710D01*
X91955600Y-24462353D01*
X91955600Y-24620046D01*
X91986361Y-24774689D01*
X91986364Y-24774701D01*
X92046702Y-24920372D01*
X92046709Y-24920385D01*
X92134310Y-25051488D01*
X92134313Y-25051492D01*
X92245807Y-25162986D01*
X92245811Y-25162989D01*
X92376914Y-25250590D01*
X92376927Y-25250597D01*
X92522598Y-25310935D01*
X92522603Y-25310937D01*
X92677253Y-25341699D01*
X92677256Y-25341700D01*
X92677258Y-25341700D01*
X92834944Y-25341700D01*
X92834945Y-25341699D01*
X92989597Y-25310937D01*
X93135279Y-25250594D01*
X93266389Y-25162989D01*
X93377889Y-25051489D01*
X93465494Y-24920379D01*
X93525837Y-24774697D01*
X93556600Y-24620042D01*
X93556600Y-24462358D01*
X93556600Y-24462355D01*
X93556599Y-24462353D01*
X93539350Y-24375637D01*
X93525837Y-24307703D01*
X93525835Y-24307698D01*
X93465497Y-24162027D01*
X93465490Y-24162014D01*
X93377498Y-24030325D01*
X93356620Y-23963647D01*
X93356600Y-23961434D01*
X93356600Y-16378145D01*
X93356600Y-16378143D01*
X93315677Y-16225416D01*
X93315677Y-16225415D01*
X93315677Y-16225414D01*
X93286739Y-16175295D01*
X93286737Y-16175292D01*
X93267204Y-16141459D01*
X93236620Y-16088484D01*
X93124816Y-15976680D01*
X93124815Y-15976679D01*
X93120485Y-15972349D01*
X93120474Y-15972339D01*
X88854974Y-11706839D01*
X88821489Y-11645516D01*
X88821038Y-11643349D01*
X88801940Y-11547339D01*
X88790137Y-11488003D01*
X88778368Y-11459589D01*
X88729797Y-11342327D01*
X88729790Y-11342314D01*
X88642189Y-11211211D01*
X88642186Y-11211207D01*
X88530692Y-11099713D01*
X88530688Y-11099710D01*
X88399585Y-11012109D01*
X88399572Y-11012102D01*
X88253901Y-10951764D01*
X88253889Y-10951761D01*
X88099245Y-10921000D01*
X88099242Y-10921000D01*
X87941558Y-10921000D01*
X87941555Y-10921000D01*
X87786910Y-10951761D01*
X87786898Y-10951764D01*
X87641227Y-11012102D01*
X87641214Y-11012109D01*
X87510111Y-11099710D01*
X87510107Y-11099713D01*
X87398613Y-11211207D01*
X87398610Y-11211211D01*
X87311009Y-11342314D01*
X87311002Y-11342327D01*
X87250664Y-11487998D01*
X87250661Y-11488010D01*
X87219900Y-11642653D01*
X87219900Y-11800343D01*
X87224888Y-11825422D01*
X87218659Y-11895014D01*
X87175795Y-11950190D01*
X87161743Y-11958959D01*
X87160721Y-11959504D01*
X87029615Y-12047107D01*
X87029607Y-12047113D01*
X86918113Y-12158607D01*
X86918110Y-12158611D01*
X86830509Y-12289714D01*
X86830502Y-12289727D01*
X86770164Y-12435398D01*
X86770161Y-12435410D01*
X86739400Y-12590053D01*
X73550500Y-12590053D01*
X73550500Y-11427525D01*
X73512984Y-11287515D01*
X73468927Y-11211207D01*
X73440511Y-11161988D01*
X73440506Y-11161982D01*
X73338017Y-11059493D01*
X73338011Y-11059488D01*
X73212488Y-10987017D01*
X73212489Y-10987017D01*
X73201006Y-10983940D01*
X73072475Y-10949500D01*
X64072475Y-10949500D01*
X63927525Y-10949500D01*
X63798993Y-10983940D01*
X63787511Y-10987017D01*
X63661988Y-11059488D01*
X63661982Y-11059493D01*
X63559493Y-11161982D01*
X63559488Y-11161988D01*
X63487017Y-11287511D01*
X63487016Y-11287515D01*
X63449500Y-11427525D01*
X63449500Y-11427527D01*
X63449500Y-12277992D01*
X63447117Y-12302184D01*
X63418162Y-12447748D01*
X63385777Y-12509659D01*
X63384226Y-12511237D01*
X62910086Y-12985378D01*
X62798281Y-13097182D01*
X62798280Y-13097184D01*
X62766978Y-13151401D01*
X62763311Y-13157753D01*
X62723859Y-13226086D01*
X62719223Y-13234115D01*
X62678299Y-13386843D01*
X61920000Y-13386843D01*
X61920000Y-11701965D01*
X61939685Y-11634926D01*
X61940898Y-11633074D01*
X61943459Y-11629242D01*
X62028894Y-11501379D01*
X62034435Y-11488003D01*
X62073644Y-11393341D01*
X62089237Y-11355697D01*
X62120000Y-11201042D01*
X62120000Y-11043358D01*
X62120000Y-11043355D01*
X62119999Y-11043353D01*
X62113784Y-11012109D01*
X62089237Y-10888703D01*
X62071933Y-10846927D01*
X62028897Y-10743027D01*
X62028890Y-10743014D01*
X61941289Y-10611911D01*
X61941286Y-10611907D01*
X61829792Y-10500413D01*
X61829788Y-10500410D01*
X61698685Y-10412809D01*
X61698672Y-10412802D01*
X61553001Y-10352464D01*
X61552989Y-10352461D01*
X61398345Y-10321700D01*
X61398342Y-10321700D01*
X61240658Y-10321700D01*
X61240655Y-10321700D01*
X61086010Y-10352461D01*
X61085998Y-10352464D01*
X60940327Y-10412802D01*
X60940314Y-10412809D01*
X60809211Y-10500410D01*
X60809207Y-10500413D01*
X60697713Y-10611907D01*
X60697710Y-10611911D01*
X60610109Y-10743014D01*
X60610102Y-10743027D01*
X60549764Y-10888698D01*
X60549761Y-10888710D01*
X60519000Y-11043353D01*
X60519000Y-11201046D01*
X60549761Y-11355689D01*
X60549764Y-11355701D01*
X60610102Y-11501372D01*
X60610109Y-11501385D01*
X60679525Y-11605272D01*
X60695541Y-11629242D01*
X60698102Y-11633074D01*
X60718980Y-11699751D01*
X60719000Y-11701965D01*
X60719000Y-30925500D01*
X60699315Y-30992539D01*
X60646511Y-31038294D01*
X60595000Y-31049500D01*
X50722475Y-31049500D01*
X50577525Y-31049500D01*
X50473320Y-31077422D01*
X50437511Y-31087017D01*
X50311988Y-31159488D01*
X50311982Y-31159493D01*
X50209493Y-31261982D01*
X50209488Y-31261988D01*
X50137017Y-31387511D01*
X50137016Y-31387515D01*
X50099500Y-31527525D01*
X45150500Y-31527525D01*
X45112984Y-31387515D01*
X45040509Y-31261985D01*
X44938015Y-31159491D01*
X44938013Y-31159490D01*
X44938011Y-31159488D01*
X44812488Y-31087017D01*
X44812489Y-31087017D01*
X44776680Y-31077422D01*
X44672475Y-31049500D01*
X31672475Y-31049500D01*
X31527525Y-31049500D01*
X31423320Y-31077422D01*
X31387511Y-31087017D01*
X31261988Y-31159488D01*
X31261982Y-31159493D01*
X31159493Y-31261982D01*
X31159488Y-31261988D01*
X31087017Y-31387511D01*
X31087016Y-31387515D01*
X31049500Y-31527525D01*
X28970600Y-31527525D01*
X28970600Y-29340453D01*
X57523600Y-29340453D01*
X57523600Y-29498146D01*
X57554361Y-29652789D01*
X57554364Y-29652801D01*
X57614702Y-29798472D01*
X57614709Y-29798485D01*
X57702310Y-29929588D01*
X57702313Y-29929592D01*
X57813807Y-30041086D01*
X57813811Y-30041089D01*
X57944914Y-30128690D01*
X57944927Y-30128697D01*
X58090598Y-30189035D01*
X58090603Y-30189037D01*
X58245253Y-30219799D01*
X58245256Y-30219800D01*
X58245258Y-30219800D01*
X58402944Y-30219800D01*
X58402945Y-30219799D01*
X58557597Y-30189037D01*
X58703279Y-30128694D01*
X58834389Y-30041089D01*
X58945889Y-29929589D01*
X59033494Y-29798479D01*
X59093837Y-29652797D01*
X59124600Y-29498142D01*
X59124600Y-29340458D01*
X59124600Y-29340455D01*
X59124599Y-29340453D01*
X59093838Y-29185810D01*
X59093837Y-29185803D01*
X59082617Y-29158716D01*
X59033497Y-29040127D01*
X59033490Y-29040114D01*
X58945498Y-28908425D01*
X58924620Y-28841747D01*
X58924600Y-28839534D01*
X58924600Y-12548059D01*
X58944285Y-12481020D01*
X58979711Y-12444956D01*
X59011689Y-12423589D01*
X59123189Y-12312089D01*
X59210794Y-12180979D01*
X59271137Y-12035297D01*
X59301900Y-11880642D01*
X59301900Y-11722958D01*
X59301900Y-11722955D01*
X59301899Y-11722953D01*
X59286496Y-11645516D01*
X59271137Y-11568303D01*
X59262455Y-11547343D01*
X59210797Y-11422627D01*
X59210790Y-11422614D01*
X59123189Y-11291511D01*
X59123186Y-11291507D01*
X59011692Y-11180013D01*
X59011688Y-11180010D01*
X58880585Y-11092409D01*
X58880572Y-11092402D01*
X58734901Y-11032064D01*
X58734889Y-11032061D01*
X58580245Y-11001300D01*
X58580242Y-11001300D01*
X58422558Y-11001300D01*
X58422555Y-11001300D01*
X58267910Y-11032061D01*
X58267898Y-11032064D01*
X58122227Y-11092402D01*
X58122214Y-11092409D01*
X57991111Y-11180010D01*
X57991107Y-11180013D01*
X57879613Y-11291507D01*
X57879610Y-11291511D01*
X57792009Y-11422614D01*
X57792002Y-11422627D01*
X57731664Y-11568298D01*
X57731661Y-11568310D01*
X57700900Y-11722953D01*
X57700900Y-11722958D01*
X57700900Y-11880642D01*
X57700900Y-11880644D01*
X57700899Y-11880644D01*
X57721216Y-11982776D01*
X57723599Y-12006966D01*
X57723599Y-12058157D01*
X57723599Y-12058159D01*
X57723600Y-12068153D01*
X57723600Y-28839534D01*
X57703915Y-28906573D01*
X57702702Y-28908425D01*
X57614709Y-29040114D01*
X57614702Y-29040127D01*
X57554364Y-29185798D01*
X57554361Y-29185810D01*
X57523600Y-29340453D01*
X28970600Y-29340453D01*
X28970600Y-18043097D01*
X28990285Y-17976058D01*
X29006919Y-17955416D01*
X29894370Y-17067965D01*
X30858615Y-16103719D01*
X30919936Y-16070236D01*
X30989628Y-16075220D01*
X31045561Y-16117092D01*
X31066067Y-16159304D01*
X31087016Y-16237485D01*
X31087017Y-16237488D01*
X31159488Y-16363011D01*
X31159490Y-16363013D01*
X31159491Y-16363015D01*
X31261985Y-16465509D01*
X31261986Y-16465510D01*
X31261988Y-16465511D01*
X31387511Y-16537982D01*
X31387512Y-16537982D01*
X31387515Y-16537984D01*
X31527525Y-16575500D01*
X31527528Y-16575500D01*
X44672472Y-16575500D01*
X44672475Y-16575500D01*
X44812485Y-16537984D01*
X44938015Y-16465509D01*
X45040509Y-16363015D01*
X45112984Y-16237485D01*
X45150500Y-16097475D01*
X45150500Y-2952525D01*
X45112984Y-2812515D01*
X45062661Y-2725354D01*
X45040511Y-2686988D01*
X45040506Y-2686982D01*
X44938017Y-2584493D01*
X44938011Y-2584488D01*
X44812488Y-2512017D01*
X44812489Y-2512017D01*
X44801006Y-2508940D01*
X44672475Y-2474500D01*
X31672475Y-2474500D01*
X31527525Y-2474500D01*
X31398993Y-2508940D01*
X31387511Y-2512017D01*
X31261988Y-2584488D01*
X31261982Y-2584493D01*
X31159493Y-2686982D01*
X31159488Y-2686988D01*
X31087017Y-2812511D01*
X31087016Y-2812515D01*
X31049500Y-2952525D01*
X31049500Y-2952527D01*
X31049500Y-14163002D01*
X31029815Y-14230041D01*
X31013181Y-14250683D01*
X27889581Y-17374282D01*
X27889579Y-17374285D01*
X27839461Y-17461094D01*
X27839459Y-17461096D01*
X27810525Y-17511209D01*
X27810524Y-17511210D01*
X27810523Y-17511215D01*
X27769599Y-17663943D01*
X27769599Y-17663945D01*
X27769599Y-17832046D01*
X27769600Y-17832059D01*
X27769600Y-28425500D01*
X27749915Y-28492539D01*
X27697111Y-28538294D01*
X27645600Y-28549500D01*
X24230297Y-28549500D01*
X24163258Y-28529815D01*
X24142616Y-28513181D01*
X18475719Y-22846284D01*
X18442234Y-22784961D01*
X18439400Y-22758603D01*
X18439400Y-16699500D01*
X18459085Y-16632461D01*
X18511889Y-16586706D01*
X18563400Y-16575500D01*
X25622472Y-16575500D01*
X25622475Y-16575500D01*
X25762485Y-16537984D01*
X25888015Y-16465509D01*
X25990509Y-16363015D01*
X26062984Y-16237485D01*
X26100500Y-16097475D01*
X26100500Y-2952525D01*
X26062984Y-2812515D01*
X26012661Y-2725354D01*
X25990511Y-2686988D01*
X25990506Y-2686982D01*
X25888017Y-2584493D01*
X25888011Y-2584488D01*
X25762488Y-2512017D01*
X25762489Y-2512017D01*
X25751006Y-2508940D01*
X25622475Y-2474500D01*
X12622475Y-2474500D01*
X12477525Y-2474500D01*
X12348993Y-2508940D01*
X12337511Y-2512017D01*
X12211988Y-2584488D01*
X12211982Y-2584493D01*
X12109493Y-2686982D01*
X12109488Y-2686988D01*
X12037017Y-2812511D01*
X12037016Y-2812515D01*
X11999500Y-2952525D01*
X9500500Y-2952525D01*
X9500500Y375500D01*
X9520185Y442539D01*
X9572989Y488294D01*
X9624500Y499500D01*
X94705500Y499500D01*
X94772539Y479815D01*
G37*
%TD.AperFunction*%
%TA.AperFunction,Conductor*%
G36*
X98322539Y269815D02*
G01*
X98368294Y217011D01*
X98379500Y165500D01*
X98379500Y-466714D01*
X98359815Y-533753D01*
X98307011Y-579508D01*
X98237853Y-589452D01*
X98174297Y-560427D01*
X98150604Y-530758D01*
X98150017Y-531151D01*
X98037139Y-362218D01*
X98037136Y-362214D01*
X97897785Y-222863D01*
X97897781Y-222860D01*
X97733920Y-113371D01*
X97733907Y-113364D01*
X97551839Y-37950D01*
X97551829Y-37947D01*
X97358543Y500D01*
X97358541Y500D01*
X97161459Y500D01*
X97161457Y500D01*
X96968170Y-37947D01*
X96968160Y-37950D01*
X96786092Y-113364D01*
X96786079Y-113371D01*
X96622218Y-222860D01*
X96622214Y-222863D01*
X96482863Y-362214D01*
X96482860Y-362218D01*
X96373371Y-526079D01*
X96373364Y-526092D01*
X96297950Y-708160D01*
X96297947Y-708170D01*
X96259500Y-901456D01*
X96259500Y-901459D01*
X96259500Y-1098541D01*
X96259500Y-1098543D01*
X96259499Y-1098543D01*
X96297947Y-1291829D01*
X96297950Y-1291839D01*
X96373364Y-1473907D01*
X96373371Y-1473920D01*
X96482860Y-1637781D01*
X96482863Y-1637785D01*
X96622214Y-1777136D01*
X96622218Y-1777139D01*
X96786079Y-1886628D01*
X96786092Y-1886635D01*
X96968160Y-1962049D01*
X96968165Y-1962051D01*
X96968169Y-1962051D01*
X96968170Y-1962052D01*
X97161456Y-2000500D01*
X97161459Y-2000500D01*
X97358543Y-2000500D01*
X97488582Y-1974632D01*
X97551835Y-1962051D01*
X97733914Y-1886632D01*
X97897782Y-1777139D01*
X98037139Y-1637782D01*
X98135385Y-1490747D01*
X98150017Y-1468849D01*
X98151226Y-1469657D01*
X98195100Y-1424990D01*
X98263237Y-1409527D01*
X98328917Y-1433355D01*
X98371288Y-1488911D01*
X98379500Y-1533285D01*
X98379500Y-2592372D01*
X98359815Y-2659411D01*
X98307011Y-2705166D01*
X98237853Y-2715110D01*
X98174297Y-2686085D01*
X98167819Y-2680053D01*
X98074321Y-2586555D01*
X97915143Y-2470904D01*
X97739835Y-2381581D01*
X97552705Y-2320778D01*
X97358382Y-2290000D01*
X97010000Y-2290000D01*
X97010000Y-3106988D01*
X96952993Y-3139901D01*
X96859901Y-3232993D01*
X96794075Y-3347007D01*
X96760000Y-3474174D01*
X96760000Y-3540000D01*
X96634000Y-3540000D01*
X96566961Y-3520315D01*
X96521206Y-3467511D01*
X96510000Y-3416000D01*
X96510000Y-2290000D01*
X96161616Y-2290000D01*
X96073897Y-2303893D01*
X96004604Y-2294938D01*
X95951152Y-2249942D01*
X95930513Y-2183190D01*
X95930500Y-2181420D01*
X95930500Y165500D01*
X95950185Y232539D01*
X96002989Y278294D01*
X96054500Y289500D01*
X98255500Y289500D01*
X98322539Y269815D01*
G37*
%TD.AperFunction*%
%TD*%
M02*
