M48
; DRILL file {KiCad 9.0.8} date 2026-04-20T19:34:21-0400
; FORMAT={-:-/ absolute / metric / decimal}
; #@! TF.CreationDate,2026-04-20T19:34:21-04:00
; #@! TF.GenerationSoftware,Kicad,Pcbnew,9.0.8
; #@! TF.FileFunction,NonPlated,1,2,NPTH
FMAT,2
METRIC
; #@! TA.AperFunction,NonPlated,NPTH,ComponentDrill
T1C1.700
%
G90
G05
T1
X13.945Y-9.525
X13.945Y-38.1
X23.47Y-76.2
X24.105Y-9.525
X24.105Y-38.1
X32.995Y-9.525
X32.995Y-38.1
X33.63Y-76.2
X43.155Y-9.525
X43.155Y-38.1
X52.045Y-38.1
X61.57Y-76.2
X62.205Y-38.1
X71.095Y-38.1
X71.73Y-76.2
X81.255Y-38.1
X90.145Y-57.15
X100.305Y-57.15
X109.195Y-57.15
X119.355Y-57.15
X128.245Y-38.1
X137.77Y-76.2
X138.405Y-38.1
X147.295Y-38.1
X147.93Y-76.2
X157.455Y-38.1
X166.345Y-9.525
X166.345Y-38.1
X175.87Y-76.2
X176.505Y-9.525
X176.505Y-38.1
X185.395Y-9.525
X185.395Y-38.1
X186.03Y-76.2
X195.555Y-9.525
X195.555Y-38.1
M30
