M48
; DRILL file {KiCad 9.0.8} date 2026-04-20T19:34:21-0400
; FORMAT={-:-/ absolute / metric / decimal}
; #@! TF.CreationDate,2026-04-20T19:34:21-04:00
; #@! TF.GenerationSoftware,Kicad,Pcbnew,9.0.8
; #@! TF.FileFunction,Plated,1,2,PTH
FMAT,2
METRIC
; #@! TA.AperFunction,Plated,PTH,ViaDrill
T1C0.300
; #@! TA.AperFunction,Plated,PTH,ComponentDrill
T2C1.000
%
G90
G05
T1
X17.839Y-9.713
X20.287Y-38.059
X24.22Y-14.928
X26.1Y-28.69
X26.808Y-75.509
X27.571Y-32.791
X28.37Y-74.088
X36.63Y-38.059
X36.665Y-9.448
X40.656Y-55.739
X58.324Y-29.419
X58.501Y-11.802
X61.319Y-11.122
X63.909Y-17.793
X64.219Y-12.526
X64.315Y-26.513
X64.945Y-14.1
X67.392Y-38.055
X67.392Y-72.935
X68.622Y-29.419
X69.168Y-15.917
X70.26Y-35.23
X77.906Y-48.157
X87.54Y-12.669
X88.02Y-11.721
X88.278Y-23.606
X92.756Y-24.541
X94.034Y-17.899
X94.034Y-41.534
X94.43Y-49.605
X97.264Y-50.462
X98.312Y-32.326
X110.25Y-24.541
X111.994Y-23.05
X113.561Y-77.602
X116.117Y-56.043
X118.232Y-49.766
X121.227Y-39.867
X124.223Y-70.113
X133.321Y-37.664
X136.006Y-38.139
X139.13Y-32.326
X139.2Y-73.02
X141.298Y-31.609
X141.298Y-33.893
X141.618Y-13.65
X141.953Y-73.785
X142.873Y-58.486
X143.089Y-11.228
X143.478Y-45.323
X143.504Y-13.475
X143.854Y-18.826
X144.341Y-10.546
X145.363Y-9.629
X145.44Y-34.638
X145.682Y-14.502
X147.55Y-9.844
X148.046Y-32.106
X148.112Y-14.152
X148.186Y-6.166
X148.519Y-12.275
X149.019Y-36.044
X149.138Y-11.226
X150.183Y-14.266
X153.59Y-31.334
X154.177Y-17.071
X154.177Y-38.534
X166.847Y-17.902
X167.149Y-18.806
X169.806Y-7.304
X171.035Y-9.342
X178.14Y-73.084
X190.122Y-34.992
X191.185Y-9.484
T2
X97.26Y-1.0
X97.26Y-3.54
X97.26Y-6.08
X97.26Y-8.62
X97.26Y-11.16
X97.26Y-13.7
X97.26Y-16.24
X97.26Y-18.78
X97.26Y-21.32
X99.8Y-21.32
X102.34Y-21.32
X104.88Y-21.32
X107.42Y-21.32
X109.96Y-21.32
X112.5Y-1.0
X112.5Y-3.54
X112.5Y-6.08
X112.5Y-8.62
X112.5Y-11.16
X112.5Y-13.7
X112.5Y-16.24
X112.5Y-18.78
X112.5Y-21.32
M30
