%TF.GenerationSoftware,KiCad,Pcbnew,9.0.8*%
%TF.CreationDate,2026-04-20T19:34:18-04:00*%
%TF.ProjectId,routed,726f7574-6564-42e6-9b69-6361645f7063,rev?*%
%TF.SameCoordinates,Original*%
%TF.FileFunction,Legend,Top*%
%TF.FilePolarity,Positive*%
%FSLAX46Y46*%
G04 Gerber Fmt 4.6, Leading zero omitted, Abs format (unit mm)*
G04 Created by KiCad (PCBNEW 9.0.8) date 2026-04-20 19:34:18*
%MOMM*%
%LPD*%
G01*
G04 APERTURE LIST*
%ADD10C,0.150000*%
%ADD11C,0.100000*%
%ADD12C,0.152400*%
%ADD13C,0.120000*%
G04 APERTURE END LIST*
D10*
X104668333Y-11739726D02*
X104244999Y-11134964D01*
X103942618Y-11739726D02*
X103942618Y-10469726D01*
X103942618Y-10469726D02*
X104426428Y-10469726D01*
X104426428Y-10469726D02*
X104547380Y-10530202D01*
X104547380Y-10530202D02*
X104607857Y-10590678D01*
X104607857Y-10590678D02*
X104668333Y-10711630D01*
X104668333Y-10711630D02*
X104668333Y-10893059D01*
X104668333Y-10893059D02*
X104607857Y-11014011D01*
X104607857Y-11014011D02*
X104547380Y-11074488D01*
X104547380Y-11074488D02*
X104426428Y-11134964D01*
X104426428Y-11134964D02*
X103942618Y-11134964D01*
X105454523Y-10469726D02*
X105575476Y-10469726D01*
X105575476Y-10469726D02*
X105696428Y-10530202D01*
X105696428Y-10530202D02*
X105756904Y-10590678D01*
X105756904Y-10590678D02*
X105817380Y-10711630D01*
X105817380Y-10711630D02*
X105877857Y-10953535D01*
X105877857Y-10953535D02*
X105877857Y-11255916D01*
X105877857Y-11255916D02*
X105817380Y-11497821D01*
X105817380Y-11497821D02*
X105756904Y-11618773D01*
X105756904Y-11618773D02*
X105696428Y-11679250D01*
X105696428Y-11679250D02*
X105575476Y-11739726D01*
X105575476Y-11739726D02*
X105454523Y-11739726D01*
X105454523Y-11739726D02*
X105333571Y-11679250D01*
X105333571Y-11679250D02*
X105273095Y-11618773D01*
X105273095Y-11618773D02*
X105212618Y-11497821D01*
X105212618Y-11497821D02*
X105152142Y-11255916D01*
X105152142Y-11255916D02*
X105152142Y-10953535D01*
X105152142Y-10953535D02*
X105212618Y-10711630D01*
X105212618Y-10711630D02*
X105273095Y-10590678D01*
X105273095Y-10590678D02*
X105333571Y-10530202D01*
X105333571Y-10530202D02*
X105454523Y-10469726D01*
X-19261666Y37520273D02*
X-19685000Y38125035D01*
X-19987381Y37520273D02*
X-19987381Y38790273D01*
X-19987381Y38790273D02*
X-19503571Y38790273D01*
X-19503571Y38790273D02*
X-19382619Y38729797D01*
X-19382619Y38729797D02*
X-19322142Y38669321D01*
X-19322142Y38669321D02*
X-19261666Y38548369D01*
X-19261666Y38548369D02*
X-19261666Y38366940D01*
X-19261666Y38366940D02*
X-19322142Y38245988D01*
X-19322142Y38245988D02*
X-19382619Y38185511D01*
X-19382619Y38185511D02*
X-19503571Y38125035D01*
X-19503571Y38125035D02*
X-19987381Y38125035D01*
X-18052142Y37520273D02*
X-18777857Y37520273D01*
X-18415000Y37520273D02*
X-18415000Y38790273D01*
X-18415000Y38790273D02*
X-18535952Y38608845D01*
X-18535952Y38608845D02*
X-18656904Y38487892D01*
X-18656904Y38487892D02*
X-18777857Y38427416D01*
X-38311666Y37520273D02*
X-38735000Y38125035D01*
X-39037381Y37520273D02*
X-39037381Y38790273D01*
X-39037381Y38790273D02*
X-38553571Y38790273D01*
X-38553571Y38790273D02*
X-38432619Y38729797D01*
X-38432619Y38729797D02*
X-38372142Y38669321D01*
X-38372142Y38669321D02*
X-38311666Y38548369D01*
X-38311666Y38548369D02*
X-38311666Y38366940D01*
X-38311666Y38366940D02*
X-38372142Y38245988D01*
X-38372142Y38245988D02*
X-38432619Y38185511D01*
X-38432619Y38185511D02*
X-38553571Y38125035D01*
X-38553571Y38125035D02*
X-39037381Y38125035D01*
X-37827857Y38669321D02*
X-37767381Y38729797D01*
X-37767381Y38729797D02*
X-37646428Y38790273D01*
X-37646428Y38790273D02*
X-37344047Y38790273D01*
X-37344047Y38790273D02*
X-37223095Y38729797D01*
X-37223095Y38729797D02*
X-37162619Y38669321D01*
X-37162619Y38669321D02*
X-37102142Y38548369D01*
X-37102142Y38548369D02*
X-37102142Y38427416D01*
X-37102142Y38427416D02*
X-37162619Y38245988D01*
X-37162619Y38245988D02*
X-37888333Y37520273D01*
X-37888333Y37520273D02*
X-37102142Y37520273D01*
X-57361666Y37520273D02*
X-57785000Y38125035D01*
X-58087381Y37520273D02*
X-58087381Y38790273D01*
X-58087381Y38790273D02*
X-57603571Y38790273D01*
X-57603571Y38790273D02*
X-57482619Y38729797D01*
X-57482619Y38729797D02*
X-57422142Y38669321D01*
X-57422142Y38669321D02*
X-57361666Y38548369D01*
X-57361666Y38548369D02*
X-57361666Y38366940D01*
X-57361666Y38366940D02*
X-57422142Y38245988D01*
X-57422142Y38245988D02*
X-57482619Y38185511D01*
X-57482619Y38185511D02*
X-57603571Y38125035D01*
X-57603571Y38125035D02*
X-58087381Y38125035D01*
X-56938333Y38790273D02*
X-56152142Y38790273D01*
X-56152142Y38790273D02*
X-56575476Y38306464D01*
X-56575476Y38306464D02*
X-56394047Y38306464D01*
X-56394047Y38306464D02*
X-56273095Y38245988D01*
X-56273095Y38245988D02*
X-56212619Y38185511D01*
X-56212619Y38185511D02*
X-56152142Y38064559D01*
X-56152142Y38064559D02*
X-56152142Y37762178D01*
X-56152142Y37762178D02*
X-56212619Y37641226D01*
X-56212619Y37641226D02*
X-56273095Y37580750D01*
X-56273095Y37580750D02*
X-56394047Y37520273D01*
X-56394047Y37520273D02*
X-56756904Y37520273D01*
X-56756904Y37520273D02*
X-56877857Y37580750D01*
X-56877857Y37580750D02*
X-56938333Y37641226D01*
X-76411666Y37520273D02*
X-76835000Y38125035D01*
X-77137381Y37520273D02*
X-77137381Y38790273D01*
X-77137381Y38790273D02*
X-76653571Y38790273D01*
X-76653571Y38790273D02*
X-76532619Y38729797D01*
X-76532619Y38729797D02*
X-76472142Y38669321D01*
X-76472142Y38669321D02*
X-76411666Y38548369D01*
X-76411666Y38548369D02*
X-76411666Y38366940D01*
X-76411666Y38366940D02*
X-76472142Y38245988D01*
X-76472142Y38245988D02*
X-76532619Y38185511D01*
X-76532619Y38185511D02*
X-76653571Y38125035D01*
X-76653571Y38125035D02*
X-77137381Y38125035D01*
X-75323095Y38366940D02*
X-75323095Y37520273D01*
X-75625476Y38850750D02*
X-75927857Y37943607D01*
X-75927857Y37943607D02*
X-75141666Y37943607D01*
X-28786666Y75620273D02*
X-29210000Y76225035D01*
X-29512381Y75620273D02*
X-29512381Y76890273D01*
X-29512381Y76890273D02*
X-29028571Y76890273D01*
X-29028571Y76890273D02*
X-28907619Y76829797D01*
X-28907619Y76829797D02*
X-28847142Y76769321D01*
X-28847142Y76769321D02*
X-28786666Y76648369D01*
X-28786666Y76648369D02*
X-28786666Y76466940D01*
X-28786666Y76466940D02*
X-28847142Y76345988D01*
X-28847142Y76345988D02*
X-28907619Y76285511D01*
X-28907619Y76285511D02*
X-29028571Y76225035D01*
X-29028571Y76225035D02*
X-29512381Y76225035D01*
X-27637619Y76890273D02*
X-28242381Y76890273D01*
X-28242381Y76890273D02*
X-28302857Y76285511D01*
X-28302857Y76285511D02*
X-28242381Y76345988D01*
X-28242381Y76345988D02*
X-28121428Y76406464D01*
X-28121428Y76406464D02*
X-27819047Y76406464D01*
X-27819047Y76406464D02*
X-27698095Y76345988D01*
X-27698095Y76345988D02*
X-27637619Y76285511D01*
X-27637619Y76285511D02*
X-27577142Y76164559D01*
X-27577142Y76164559D02*
X-27577142Y75862178D01*
X-27577142Y75862178D02*
X-27637619Y75741226D01*
X-27637619Y75741226D02*
X-27698095Y75680750D01*
X-27698095Y75680750D02*
X-27819047Y75620273D01*
X-27819047Y75620273D02*
X-28121428Y75620273D01*
X-28121428Y75620273D02*
X-28242381Y75680750D01*
X-28242381Y75680750D02*
X-28302857Y75741226D01*
X-181186666Y75620273D02*
X-181610000Y76225035D01*
X-181912381Y75620273D02*
X-181912381Y76890273D01*
X-181912381Y76890273D02*
X-181428571Y76890273D01*
X-181428571Y76890273D02*
X-181307619Y76829797D01*
X-181307619Y76829797D02*
X-181247142Y76769321D01*
X-181247142Y76769321D02*
X-181186666Y76648369D01*
X-181186666Y76648369D02*
X-181186666Y76466940D01*
X-181186666Y76466940D02*
X-181247142Y76345988D01*
X-181247142Y76345988D02*
X-181307619Y76285511D01*
X-181307619Y76285511D02*
X-181428571Y76225035D01*
X-181428571Y76225035D02*
X-181912381Y76225035D01*
X-180098095Y76890273D02*
X-180340000Y76890273D01*
X-180340000Y76890273D02*
X-180460952Y76829797D01*
X-180460952Y76829797D02*
X-180521428Y76769321D01*
X-180521428Y76769321D02*
X-180642381Y76587892D01*
X-180642381Y76587892D02*
X-180702857Y76345988D01*
X-180702857Y76345988D02*
X-180702857Y75862178D01*
X-180702857Y75862178D02*
X-180642381Y75741226D01*
X-180642381Y75741226D02*
X-180581904Y75680750D01*
X-180581904Y75680750D02*
X-180460952Y75620273D01*
X-180460952Y75620273D02*
X-180219047Y75620273D01*
X-180219047Y75620273D02*
X-180098095Y75680750D01*
X-180098095Y75680750D02*
X-180037619Y75741226D01*
X-180037619Y75741226D02*
X-179977142Y75862178D01*
X-179977142Y75862178D02*
X-179977142Y76164559D01*
X-179977142Y76164559D02*
X-180037619Y76285511D01*
X-180037619Y76285511D02*
X-180098095Y76345988D01*
X-180098095Y76345988D02*
X-180219047Y76406464D01*
X-180219047Y76406464D02*
X-180460952Y76406464D01*
X-180460952Y76406464D02*
X-180581904Y76345988D01*
X-180581904Y76345988D02*
X-180642381Y76285511D01*
X-180642381Y76285511D02*
X-180702857Y76164559D01*
X-143086666Y75620273D02*
X-143510000Y76225035D01*
X-143812381Y75620273D02*
X-143812381Y76890273D01*
X-143812381Y76890273D02*
X-143328571Y76890273D01*
X-143328571Y76890273D02*
X-143207619Y76829797D01*
X-143207619Y76829797D02*
X-143147142Y76769321D01*
X-143147142Y76769321D02*
X-143086666Y76648369D01*
X-143086666Y76648369D02*
X-143086666Y76466940D01*
X-143086666Y76466940D02*
X-143147142Y76345988D01*
X-143147142Y76345988D02*
X-143207619Y76285511D01*
X-143207619Y76285511D02*
X-143328571Y76225035D01*
X-143328571Y76225035D02*
X-143812381Y76225035D01*
X-142663333Y76890273D02*
X-141816666Y76890273D01*
X-141816666Y76890273D02*
X-142360952Y75620273D01*
X-133561666Y37520273D02*
X-133985000Y38125035D01*
X-134287381Y37520273D02*
X-134287381Y38790273D01*
X-134287381Y38790273D02*
X-133803571Y38790273D01*
X-133803571Y38790273D02*
X-133682619Y38729797D01*
X-133682619Y38729797D02*
X-133622142Y38669321D01*
X-133622142Y38669321D02*
X-133561666Y38548369D01*
X-133561666Y38548369D02*
X-133561666Y38366940D01*
X-133561666Y38366940D02*
X-133622142Y38245988D01*
X-133622142Y38245988D02*
X-133682619Y38185511D01*
X-133682619Y38185511D02*
X-133803571Y38125035D01*
X-133803571Y38125035D02*
X-134287381Y38125035D01*
X-132835952Y38245988D02*
X-132956904Y38306464D01*
X-132956904Y38306464D02*
X-133017381Y38366940D01*
X-133017381Y38366940D02*
X-133077857Y38487892D01*
X-133077857Y38487892D02*
X-133077857Y38548369D01*
X-133077857Y38548369D02*
X-133017381Y38669321D01*
X-133017381Y38669321D02*
X-132956904Y38729797D01*
X-132956904Y38729797D02*
X-132835952Y38790273D01*
X-132835952Y38790273D02*
X-132594047Y38790273D01*
X-132594047Y38790273D02*
X-132473095Y38729797D01*
X-132473095Y38729797D02*
X-132412619Y38669321D01*
X-132412619Y38669321D02*
X-132352142Y38548369D01*
X-132352142Y38548369D02*
X-132352142Y38487892D01*
X-132352142Y38487892D02*
X-132412619Y38366940D01*
X-132412619Y38366940D02*
X-132473095Y38306464D01*
X-132473095Y38306464D02*
X-132594047Y38245988D01*
X-132594047Y38245988D02*
X-132835952Y38245988D01*
X-132835952Y38245988D02*
X-132956904Y38185511D01*
X-132956904Y38185511D02*
X-133017381Y38125035D01*
X-133017381Y38125035D02*
X-133077857Y38004083D01*
X-133077857Y38004083D02*
X-133077857Y37762178D01*
X-133077857Y37762178D02*
X-133017381Y37641226D01*
X-133017381Y37641226D02*
X-132956904Y37580750D01*
X-132956904Y37580750D02*
X-132835952Y37520273D01*
X-132835952Y37520273D02*
X-132594047Y37520273D01*
X-132594047Y37520273D02*
X-132473095Y37580750D01*
X-132473095Y37580750D02*
X-132412619Y37641226D01*
X-132412619Y37641226D02*
X-132352142Y37762178D01*
X-132352142Y37762178D02*
X-132352142Y38004083D01*
X-132352142Y38004083D02*
X-132412619Y38125035D01*
X-132412619Y38125035D02*
X-132473095Y38185511D01*
X-132473095Y38185511D02*
X-132594047Y38245988D01*
X-152611666Y37520273D02*
X-153035000Y38125035D01*
X-153337381Y37520273D02*
X-153337381Y38790273D01*
X-153337381Y38790273D02*
X-152853571Y38790273D01*
X-152853571Y38790273D02*
X-152732619Y38729797D01*
X-152732619Y38729797D02*
X-152672142Y38669321D01*
X-152672142Y38669321D02*
X-152611666Y38548369D01*
X-152611666Y38548369D02*
X-152611666Y38366940D01*
X-152611666Y38366940D02*
X-152672142Y38245988D01*
X-152672142Y38245988D02*
X-152732619Y38185511D01*
X-152732619Y38185511D02*
X-152853571Y38125035D01*
X-152853571Y38125035D02*
X-153337381Y38125035D01*
X-152006904Y37520273D02*
X-151765000Y37520273D01*
X-151765000Y37520273D02*
X-151644047Y37580750D01*
X-151644047Y37580750D02*
X-151583571Y37641226D01*
X-151583571Y37641226D02*
X-151462619Y37822654D01*
X-151462619Y37822654D02*
X-151402142Y38064559D01*
X-151402142Y38064559D02*
X-151402142Y38548369D01*
X-151402142Y38548369D02*
X-151462619Y38669321D01*
X-151462619Y38669321D02*
X-151523095Y38729797D01*
X-151523095Y38729797D02*
X-151644047Y38790273D01*
X-151644047Y38790273D02*
X-151885952Y38790273D01*
X-151885952Y38790273D02*
X-152006904Y38729797D01*
X-152006904Y38729797D02*
X-152067381Y38669321D01*
X-152067381Y38669321D02*
X-152127857Y38548369D01*
X-152127857Y38548369D02*
X-152127857Y38245988D01*
X-152127857Y38245988D02*
X-152067381Y38125035D01*
X-152067381Y38125035D02*
X-152006904Y38064559D01*
X-152006904Y38064559D02*
X-151885952Y38004083D01*
X-151885952Y38004083D02*
X-151644047Y38004083D01*
X-151644047Y38004083D02*
X-151523095Y38064559D01*
X-151523095Y38064559D02*
X-151462619Y38125035D01*
X-151462619Y38125035D02*
X-151402142Y38245988D01*
X-172266428Y37520273D02*
X-172689762Y38125035D01*
X-172992143Y37520273D02*
X-172992143Y38790273D01*
X-172992143Y38790273D02*
X-172508333Y38790273D01*
X-172508333Y38790273D02*
X-172387381Y38729797D01*
X-172387381Y38729797D02*
X-172326904Y38669321D01*
X-172326904Y38669321D02*
X-172266428Y38548369D01*
X-172266428Y38548369D02*
X-172266428Y38366940D01*
X-172266428Y38366940D02*
X-172326904Y38245988D01*
X-172326904Y38245988D02*
X-172387381Y38185511D01*
X-172387381Y38185511D02*
X-172508333Y38125035D01*
X-172508333Y38125035D02*
X-172992143Y38125035D01*
X-171056904Y37520273D02*
X-171782619Y37520273D01*
X-171419762Y37520273D02*
X-171419762Y38790273D01*
X-171419762Y38790273D02*
X-171540714Y38608845D01*
X-171540714Y38608845D02*
X-171661666Y38487892D01*
X-171661666Y38487892D02*
X-171782619Y38427416D01*
X-170270714Y38790273D02*
X-170149761Y38790273D01*
X-170149761Y38790273D02*
X-170028809Y38729797D01*
X-170028809Y38729797D02*
X-169968333Y38669321D01*
X-169968333Y38669321D02*
X-169907857Y38548369D01*
X-169907857Y38548369D02*
X-169847380Y38306464D01*
X-169847380Y38306464D02*
X-169847380Y38004083D01*
X-169847380Y38004083D02*
X-169907857Y37762178D01*
X-169907857Y37762178D02*
X-169968333Y37641226D01*
X-169968333Y37641226D02*
X-170028809Y37580750D01*
X-170028809Y37580750D02*
X-170149761Y37520273D01*
X-170149761Y37520273D02*
X-170270714Y37520273D01*
X-170270714Y37520273D02*
X-170391666Y37580750D01*
X-170391666Y37580750D02*
X-170452142Y37641226D01*
X-170452142Y37641226D02*
X-170512619Y37762178D01*
X-170512619Y37762178D02*
X-170573095Y38004083D01*
X-170573095Y38004083D02*
X-170573095Y38306464D01*
X-170573095Y38306464D02*
X-170512619Y38548369D01*
X-170512619Y38548369D02*
X-170452142Y38669321D01*
X-170452142Y38669321D02*
X-170391666Y38729797D01*
X-170391666Y38729797D02*
X-170270714Y38790273D01*
X-191316428Y37520273D02*
X-191739762Y38125035D01*
X-192042143Y37520273D02*
X-192042143Y38790273D01*
X-192042143Y38790273D02*
X-191558333Y38790273D01*
X-191558333Y38790273D02*
X-191437381Y38729797D01*
X-191437381Y38729797D02*
X-191376904Y38669321D01*
X-191376904Y38669321D02*
X-191316428Y38548369D01*
X-191316428Y38548369D02*
X-191316428Y38366940D01*
X-191316428Y38366940D02*
X-191376904Y38245988D01*
X-191376904Y38245988D02*
X-191437381Y38185511D01*
X-191437381Y38185511D02*
X-191558333Y38125035D01*
X-191558333Y38125035D02*
X-192042143Y38125035D01*
X-190106904Y37520273D02*
X-190832619Y37520273D01*
X-190469762Y37520273D02*
X-190469762Y38790273D01*
X-190469762Y38790273D02*
X-190590714Y38608845D01*
X-190590714Y38608845D02*
X-190711666Y38487892D01*
X-190711666Y38487892D02*
X-190832619Y38427416D01*
X-188897380Y37520273D02*
X-189623095Y37520273D01*
X-189260238Y37520273D02*
X-189260238Y38790273D01*
X-189260238Y38790273D02*
X-189381190Y38608845D01*
X-189381190Y38608845D02*
X-189502142Y38487892D01*
X-189502142Y38487892D02*
X-189623095Y38427416D01*
X-19866428Y8945273D02*
X-20289762Y9550035D01*
X-20592143Y8945273D02*
X-20592143Y10215273D01*
X-20592143Y10215273D02*
X-20108333Y10215273D01*
X-20108333Y10215273D02*
X-19987381Y10154797D01*
X-19987381Y10154797D02*
X-19926904Y10094321D01*
X-19926904Y10094321D02*
X-19866428Y9973369D01*
X-19866428Y9973369D02*
X-19866428Y9791940D01*
X-19866428Y9791940D02*
X-19926904Y9670988D01*
X-19926904Y9670988D02*
X-19987381Y9610511D01*
X-19987381Y9610511D02*
X-20108333Y9550035D01*
X-20108333Y9550035D02*
X-20592143Y9550035D01*
X-18656904Y8945273D02*
X-19382619Y8945273D01*
X-19019762Y8945273D02*
X-19019762Y10215273D01*
X-19019762Y10215273D02*
X-19140714Y10033845D01*
X-19140714Y10033845D02*
X-19261666Y9912892D01*
X-19261666Y9912892D02*
X-19382619Y9852416D01*
X-18173095Y10094321D02*
X-18112619Y10154797D01*
X-18112619Y10154797D02*
X-17991666Y10215273D01*
X-17991666Y10215273D02*
X-17689285Y10215273D01*
X-17689285Y10215273D02*
X-17568333Y10154797D01*
X-17568333Y10154797D02*
X-17507857Y10094321D01*
X-17507857Y10094321D02*
X-17447380Y9973369D01*
X-17447380Y9973369D02*
X-17447380Y9852416D01*
X-17447380Y9852416D02*
X-17507857Y9670988D01*
X-17507857Y9670988D02*
X-18233571Y8945273D01*
X-18233571Y8945273D02*
X-17447380Y8945273D01*
X-38916428Y8945273D02*
X-39339762Y9550035D01*
X-39642143Y8945273D02*
X-39642143Y10215273D01*
X-39642143Y10215273D02*
X-39158333Y10215273D01*
X-39158333Y10215273D02*
X-39037381Y10154797D01*
X-39037381Y10154797D02*
X-38976904Y10094321D01*
X-38976904Y10094321D02*
X-38916428Y9973369D01*
X-38916428Y9973369D02*
X-38916428Y9791940D01*
X-38916428Y9791940D02*
X-38976904Y9670988D01*
X-38976904Y9670988D02*
X-39037381Y9610511D01*
X-39037381Y9610511D02*
X-39158333Y9550035D01*
X-39158333Y9550035D02*
X-39642143Y9550035D01*
X-37706904Y8945273D02*
X-38432619Y8945273D01*
X-38069762Y8945273D02*
X-38069762Y10215273D01*
X-38069762Y10215273D02*
X-38190714Y10033845D01*
X-38190714Y10033845D02*
X-38311666Y9912892D01*
X-38311666Y9912892D02*
X-38432619Y9852416D01*
X-37283571Y10215273D02*
X-36497380Y10215273D01*
X-36497380Y10215273D02*
X-36920714Y9731464D01*
X-36920714Y9731464D02*
X-36739285Y9731464D01*
X-36739285Y9731464D02*
X-36618333Y9670988D01*
X-36618333Y9670988D02*
X-36557857Y9610511D01*
X-36557857Y9610511D02*
X-36497380Y9489559D01*
X-36497380Y9489559D02*
X-36497380Y9187178D01*
X-36497380Y9187178D02*
X-36557857Y9066226D01*
X-36557857Y9066226D02*
X-36618333Y9005750D01*
X-36618333Y9005750D02*
X-36739285Y8945273D01*
X-36739285Y8945273D02*
X-37102142Y8945273D01*
X-37102142Y8945273D02*
X-37223095Y9005750D01*
X-37223095Y9005750D02*
X-37283571Y9066226D01*
X-172266428Y8945273D02*
X-172689762Y9550035D01*
X-172992143Y8945273D02*
X-172992143Y10215273D01*
X-172992143Y10215273D02*
X-172508333Y10215273D01*
X-172508333Y10215273D02*
X-172387381Y10154797D01*
X-172387381Y10154797D02*
X-172326904Y10094321D01*
X-172326904Y10094321D02*
X-172266428Y9973369D01*
X-172266428Y9973369D02*
X-172266428Y9791940D01*
X-172266428Y9791940D02*
X-172326904Y9670988D01*
X-172326904Y9670988D02*
X-172387381Y9610511D01*
X-172387381Y9610511D02*
X-172508333Y9550035D01*
X-172508333Y9550035D02*
X-172992143Y9550035D01*
X-171056904Y8945273D02*
X-171782619Y8945273D01*
X-171419762Y8945273D02*
X-171419762Y10215273D01*
X-171419762Y10215273D02*
X-171540714Y10033845D01*
X-171540714Y10033845D02*
X-171661666Y9912892D01*
X-171661666Y9912892D02*
X-171782619Y9852416D01*
X-169968333Y9791940D02*
X-169968333Y8945273D01*
X-170270714Y10275750D02*
X-170573095Y9368607D01*
X-170573095Y9368607D02*
X-169786904Y9368607D01*
X-191316428Y8945273D02*
X-191739762Y9550035D01*
X-192042143Y8945273D02*
X-192042143Y10215273D01*
X-192042143Y10215273D02*
X-191558333Y10215273D01*
X-191558333Y10215273D02*
X-191437381Y10154797D01*
X-191437381Y10154797D02*
X-191376904Y10094321D01*
X-191376904Y10094321D02*
X-191316428Y9973369D01*
X-191316428Y9973369D02*
X-191316428Y9791940D01*
X-191316428Y9791940D02*
X-191376904Y9670988D01*
X-191376904Y9670988D02*
X-191437381Y9610511D01*
X-191437381Y9610511D02*
X-191558333Y9550035D01*
X-191558333Y9550035D02*
X-192042143Y9550035D01*
X-190106904Y8945273D02*
X-190832619Y8945273D01*
X-190469762Y8945273D02*
X-190469762Y10215273D01*
X-190469762Y10215273D02*
X-190590714Y10033845D01*
X-190590714Y10033845D02*
X-190711666Y9912892D01*
X-190711666Y9912892D02*
X-190832619Y9852416D01*
X-188957857Y10215273D02*
X-189562619Y10215273D01*
X-189562619Y10215273D02*
X-189623095Y9610511D01*
X-189623095Y9610511D02*
X-189562619Y9670988D01*
X-189562619Y9670988D02*
X-189441666Y9731464D01*
X-189441666Y9731464D02*
X-189139285Y9731464D01*
X-189139285Y9731464D02*
X-189018333Y9670988D01*
X-189018333Y9670988D02*
X-188957857Y9610511D01*
X-188957857Y9610511D02*
X-188897380Y9489559D01*
X-188897380Y9489559D02*
X-188897380Y9187178D01*
X-188897380Y9187178D02*
X-188957857Y9066226D01*
X-188957857Y9066226D02*
X-189018333Y9005750D01*
X-189018333Y9005750D02*
X-189139285Y8945273D01*
X-189139285Y8945273D02*
X-189441666Y8945273D01*
X-189441666Y8945273D02*
X-189562619Y9005750D01*
X-189562619Y9005750D02*
X-189623095Y9066226D01*
X-67491428Y75620273D02*
X-67914762Y76225035D01*
X-68217143Y75620273D02*
X-68217143Y76890273D01*
X-68217143Y76890273D02*
X-67733333Y76890273D01*
X-67733333Y76890273D02*
X-67612381Y76829797D01*
X-67612381Y76829797D02*
X-67551904Y76769321D01*
X-67551904Y76769321D02*
X-67491428Y76648369D01*
X-67491428Y76648369D02*
X-67491428Y76466940D01*
X-67491428Y76466940D02*
X-67551904Y76345988D01*
X-67551904Y76345988D02*
X-67612381Y76285511D01*
X-67612381Y76285511D02*
X-67733333Y76225035D01*
X-67733333Y76225035D02*
X-68217143Y76225035D01*
X-66281904Y75620273D02*
X-67007619Y75620273D01*
X-66644762Y75620273D02*
X-66644762Y76890273D01*
X-66644762Y76890273D02*
X-66765714Y76708845D01*
X-66765714Y76708845D02*
X-66886666Y76587892D01*
X-66886666Y76587892D02*
X-67007619Y76527416D01*
X-65193333Y76890273D02*
X-65435238Y76890273D01*
X-65435238Y76890273D02*
X-65556190Y76829797D01*
X-65556190Y76829797D02*
X-65616666Y76769321D01*
X-65616666Y76769321D02*
X-65737619Y76587892D01*
X-65737619Y76587892D02*
X-65798095Y76345988D01*
X-65798095Y76345988D02*
X-65798095Y75862178D01*
X-65798095Y75862178D02*
X-65737619Y75741226D01*
X-65737619Y75741226D02*
X-65677142Y75680750D01*
X-65677142Y75680750D02*
X-65556190Y75620273D01*
X-65556190Y75620273D02*
X-65314285Y75620273D01*
X-65314285Y75620273D02*
X-65193333Y75680750D01*
X-65193333Y75680750D02*
X-65132857Y75741226D01*
X-65132857Y75741226D02*
X-65072380Y75862178D01*
X-65072380Y75862178D02*
X-65072380Y76164559D01*
X-65072380Y76164559D02*
X-65132857Y76285511D01*
X-65132857Y76285511D02*
X-65193333Y76345988D01*
X-65193333Y76345988D02*
X-65314285Y76406464D01*
X-65314285Y76406464D02*
X-65556190Y76406464D01*
X-65556190Y76406464D02*
X-65677142Y76345988D01*
X-65677142Y76345988D02*
X-65737619Y76285511D01*
X-65737619Y76285511D02*
X-65798095Y76164559D01*
X-115116428Y56570273D02*
X-115539762Y57175035D01*
X-115842143Y56570273D02*
X-115842143Y57840273D01*
X-115842143Y57840273D02*
X-115358333Y57840273D01*
X-115358333Y57840273D02*
X-115237381Y57779797D01*
X-115237381Y57779797D02*
X-115176904Y57719321D01*
X-115176904Y57719321D02*
X-115116428Y57598369D01*
X-115116428Y57598369D02*
X-115116428Y57416940D01*
X-115116428Y57416940D02*
X-115176904Y57295988D01*
X-115176904Y57295988D02*
X-115237381Y57235511D01*
X-115237381Y57235511D02*
X-115358333Y57175035D01*
X-115358333Y57175035D02*
X-115842143Y57175035D01*
X-113906904Y56570273D02*
X-114632619Y56570273D01*
X-114269762Y56570273D02*
X-114269762Y57840273D01*
X-114269762Y57840273D02*
X-114390714Y57658845D01*
X-114390714Y57658845D02*
X-114511666Y57537892D01*
X-114511666Y57537892D02*
X-114632619Y57477416D01*
X-113483571Y57840273D02*
X-112636904Y57840273D01*
X-112636904Y57840273D02*
X-113181190Y56570273D01*
X-96066428Y56570273D02*
X-96489762Y57175035D01*
X-96792143Y56570273D02*
X-96792143Y57840273D01*
X-96792143Y57840273D02*
X-96308333Y57840273D01*
X-96308333Y57840273D02*
X-96187381Y57779797D01*
X-96187381Y57779797D02*
X-96126904Y57719321D01*
X-96126904Y57719321D02*
X-96066428Y57598369D01*
X-96066428Y57598369D02*
X-96066428Y57416940D01*
X-96066428Y57416940D02*
X-96126904Y57295988D01*
X-96126904Y57295988D02*
X-96187381Y57235511D01*
X-96187381Y57235511D02*
X-96308333Y57175035D01*
X-96308333Y57175035D02*
X-96792143Y57175035D01*
X-94856904Y56570273D02*
X-95582619Y56570273D01*
X-95219762Y56570273D02*
X-95219762Y57840273D01*
X-95219762Y57840273D02*
X-95340714Y57658845D01*
X-95340714Y57658845D02*
X-95461666Y57537892D01*
X-95461666Y57537892D02*
X-95582619Y57477416D01*
X-94131190Y57295988D02*
X-94252142Y57356464D01*
X-94252142Y57356464D02*
X-94312619Y57416940D01*
X-94312619Y57416940D02*
X-94373095Y57537892D01*
X-94373095Y57537892D02*
X-94373095Y57598369D01*
X-94373095Y57598369D02*
X-94312619Y57719321D01*
X-94312619Y57719321D02*
X-94252142Y57779797D01*
X-94252142Y57779797D02*
X-94131190Y57840273D01*
X-94131190Y57840273D02*
X-93889285Y57840273D01*
X-93889285Y57840273D02*
X-93768333Y57779797D01*
X-93768333Y57779797D02*
X-93707857Y57719321D01*
X-93707857Y57719321D02*
X-93647380Y57598369D01*
X-93647380Y57598369D02*
X-93647380Y57537892D01*
X-93647380Y57537892D02*
X-93707857Y57416940D01*
X-93707857Y57416940D02*
X-93768333Y57356464D01*
X-93768333Y57356464D02*
X-93889285Y57295988D01*
X-93889285Y57295988D02*
X-94131190Y57295988D01*
X-94131190Y57295988D02*
X-94252142Y57235511D01*
X-94252142Y57235511D02*
X-94312619Y57175035D01*
X-94312619Y57175035D02*
X-94373095Y57054083D01*
X-94373095Y57054083D02*
X-94373095Y56812178D01*
X-94373095Y56812178D02*
X-94312619Y56691226D01*
X-94312619Y56691226D02*
X-94252142Y56630750D01*
X-94252142Y56630750D02*
X-94131190Y56570273D01*
X-94131190Y56570273D02*
X-93889285Y56570273D01*
X-93889285Y56570273D02*
X-93768333Y56630750D01*
X-93768333Y56630750D02*
X-93707857Y56691226D01*
X-93707857Y56691226D02*
X-93647380Y56812178D01*
X-93647380Y56812178D02*
X-93647380Y57054083D01*
X-93647380Y57054083D02*
X-93707857Y57175035D01*
X-93707857Y57175035D02*
X-93768333Y57235511D01*
X-93768333Y57235511D02*
X-93889285Y57295988D01*
X145206071Y-12604726D02*
X144782737Y-11999964D01*
X144480356Y-12604726D02*
X144480356Y-11334726D01*
X144480356Y-11334726D02*
X144964166Y-11334726D01*
X144964166Y-11334726D02*
X145085118Y-11395202D01*
X145085118Y-11395202D02*
X145145595Y-11455678D01*
X145145595Y-11455678D02*
X145206071Y-11576630D01*
X145206071Y-11576630D02*
X145206071Y-11758059D01*
X145206071Y-11758059D02*
X145145595Y-11879011D01*
X145145595Y-11879011D02*
X145085118Y-11939488D01*
X145085118Y-11939488D02*
X144964166Y-11999964D01*
X144964166Y-11999964D02*
X144480356Y-11999964D01*
X146415595Y-12604726D02*
X145689880Y-12604726D01*
X146052737Y-12604726D02*
X146052737Y-11334726D01*
X146052737Y-11334726D02*
X145931785Y-11516154D01*
X145931785Y-11516154D02*
X145810833Y-11637107D01*
X145810833Y-11637107D02*
X145689880Y-11697583D01*
X147020357Y-12604726D02*
X147262261Y-12604726D01*
X147262261Y-12604726D02*
X147383214Y-12544250D01*
X147383214Y-12544250D02*
X147443690Y-12483773D01*
X147443690Y-12483773D02*
X147564642Y-12302345D01*
X147564642Y-12302345D02*
X147625119Y-12060440D01*
X147625119Y-12060440D02*
X147625119Y-11576630D01*
X147625119Y-11576630D02*
X147564642Y-11455678D01*
X147564642Y-11455678D02*
X147504166Y-11395202D01*
X147504166Y-11395202D02*
X147383214Y-11334726D01*
X147383214Y-11334726D02*
X147141309Y-11334726D01*
X147141309Y-11334726D02*
X147020357Y-11395202D01*
X147020357Y-11395202D02*
X146959880Y-11455678D01*
X146959880Y-11455678D02*
X146899404Y-11576630D01*
X146899404Y-11576630D02*
X146899404Y-11879011D01*
X146899404Y-11879011D02*
X146959880Y-11999964D01*
X146959880Y-11999964D02*
X147020357Y-12060440D01*
X147020357Y-12060440D02*
X147141309Y-12120916D01*
X147141309Y-12120916D02*
X147383214Y-12120916D01*
X147383214Y-12120916D02*
X147504166Y-12060440D01*
X147504166Y-12060440D02*
X147564642Y-11999964D01*
X147564642Y-11999964D02*
X147625119Y-11879011D01*
D11*
X144397812Y-14802180D02*
X144350193Y-14849800D01*
X144350193Y-14849800D02*
X144207336Y-14897419D01*
X144207336Y-14897419D02*
X144112098Y-14897419D01*
X144112098Y-14897419D02*
X143969241Y-14849800D01*
X143969241Y-14849800D02*
X143874003Y-14754561D01*
X143874003Y-14754561D02*
X143826384Y-14659323D01*
X143826384Y-14659323D02*
X143778765Y-14468847D01*
X143778765Y-14468847D02*
X143778765Y-14325990D01*
X143778765Y-14325990D02*
X143826384Y-14135514D01*
X143826384Y-14135514D02*
X143874003Y-14040276D01*
X143874003Y-14040276D02*
X143969241Y-13945038D01*
X143969241Y-13945038D02*
X144112098Y-13897419D01*
X144112098Y-13897419D02*
X144207336Y-13897419D01*
X144207336Y-13897419D02*
X144350193Y-13945038D01*
X144350193Y-13945038D02*
X144397812Y-13992657D01*
X146159717Y-14802180D02*
X146112098Y-14849800D01*
X146112098Y-14849800D02*
X145969241Y-14897419D01*
X145969241Y-14897419D02*
X145874003Y-14897419D01*
X145874003Y-14897419D02*
X145731146Y-14849800D01*
X145731146Y-14849800D02*
X145635908Y-14754561D01*
X145635908Y-14754561D02*
X145588289Y-14659323D01*
X145588289Y-14659323D02*
X145540670Y-14468847D01*
X145540670Y-14468847D02*
X145540670Y-14325990D01*
X145540670Y-14325990D02*
X145588289Y-14135514D01*
X145588289Y-14135514D02*
X145635908Y-14040276D01*
X145635908Y-14040276D02*
X145731146Y-13945038D01*
X145731146Y-13945038D02*
X145874003Y-13897419D01*
X145874003Y-13897419D02*
X145969241Y-13897419D01*
X145969241Y-13897419D02*
X146112098Y-13945038D01*
X146112098Y-13945038D02*
X146159717Y-13992657D01*
X147921622Y-14897419D02*
X147588289Y-14421228D01*
X147350194Y-14897419D02*
X147350194Y-13897419D01*
X147350194Y-13897419D02*
X147731146Y-13897419D01*
X147731146Y-13897419D02*
X147826384Y-13945038D01*
X147826384Y-13945038D02*
X147874003Y-13992657D01*
X147874003Y-13992657D02*
X147921622Y-14087895D01*
X147921622Y-14087895D02*
X147921622Y-14230752D01*
X147921622Y-14230752D02*
X147874003Y-14325990D01*
X147874003Y-14325990D02*
X147826384Y-14373609D01*
X147826384Y-14373609D02*
X147731146Y-14421228D01*
X147731146Y-14421228D02*
X147350194Y-14421228D01*
X149683527Y-14897419D02*
X149350194Y-14421228D01*
X149112099Y-14897419D02*
X149112099Y-13897419D01*
X149112099Y-13897419D02*
X149493051Y-13897419D01*
X149493051Y-13897419D02*
X149588289Y-13945038D01*
X149588289Y-13945038D02*
X149635908Y-13992657D01*
X149635908Y-13992657D02*
X149683527Y-14087895D01*
X149683527Y-14087895D02*
X149683527Y-14230752D01*
X149683527Y-14230752D02*
X149635908Y-14325990D01*
X149635908Y-14325990D02*
X149588289Y-14373609D01*
X149588289Y-14373609D02*
X149493051Y-14421228D01*
X149493051Y-14421228D02*
X149112099Y-14421228D01*
X140278765Y-17492657D02*
X140326384Y-17445038D01*
X140326384Y-17445038D02*
X140421622Y-17397419D01*
X140421622Y-17397419D02*
X140659717Y-17397419D01*
X140659717Y-17397419D02*
X140754955Y-17445038D01*
X140754955Y-17445038D02*
X140802574Y-17492657D01*
X140802574Y-17492657D02*
X140850193Y-17587895D01*
X140850193Y-17587895D02*
X140850193Y-17683133D01*
X140850193Y-17683133D02*
X140802574Y-17825990D01*
X140802574Y-17825990D02*
X140231146Y-18397419D01*
X140231146Y-18397419D02*
X140850193Y-18397419D01*
X141707336Y-17730752D02*
X141707336Y-18397419D01*
X141278765Y-17730752D02*
X141278765Y-18254561D01*
X141278765Y-18254561D02*
X141326384Y-18349800D01*
X141326384Y-18349800D02*
X141421622Y-18397419D01*
X141421622Y-18397419D02*
X141564479Y-18397419D01*
X141564479Y-18397419D02*
X141659717Y-18349800D01*
X141659717Y-18349800D02*
X141707336Y-18302180D01*
X142516860Y-17873609D02*
X142183527Y-17873609D01*
X142183527Y-18397419D02*
X142183527Y-17397419D01*
X142183527Y-17397419D02*
X142659717Y-17397419D01*
X143754956Y-17492657D02*
X143802575Y-17445038D01*
X143802575Y-17445038D02*
X143897813Y-17397419D01*
X143897813Y-17397419D02*
X144135908Y-17397419D01*
X144135908Y-17397419D02*
X144231146Y-17445038D01*
X144231146Y-17445038D02*
X144278765Y-17492657D01*
X144278765Y-17492657D02*
X144326384Y-17587895D01*
X144326384Y-17587895D02*
X144326384Y-17683133D01*
X144326384Y-17683133D02*
X144278765Y-17825990D01*
X144278765Y-17825990D02*
X143707337Y-18397419D01*
X143707337Y-18397419D02*
X144326384Y-18397419D01*
X145183527Y-17730752D02*
X145183527Y-18397419D01*
X144754956Y-17730752D02*
X144754956Y-18254561D01*
X144754956Y-18254561D02*
X144802575Y-18349800D01*
X144802575Y-18349800D02*
X144897813Y-18397419D01*
X144897813Y-18397419D02*
X145040670Y-18397419D01*
X145040670Y-18397419D02*
X145135908Y-18349800D01*
X145135908Y-18349800D02*
X145183527Y-18302180D01*
X145993051Y-17873609D02*
X145659718Y-17873609D01*
X145659718Y-18397419D02*
X145659718Y-17397419D01*
X145659718Y-17397419D02*
X146135908Y-17397419D01*
X147469242Y-17397419D02*
X147564480Y-17397419D01*
X147564480Y-17397419D02*
X147659718Y-17445038D01*
X147659718Y-17445038D02*
X147707337Y-17492657D01*
X147707337Y-17492657D02*
X147754956Y-17587895D01*
X147754956Y-17587895D02*
X147802575Y-17778371D01*
X147802575Y-17778371D02*
X147802575Y-18016466D01*
X147802575Y-18016466D02*
X147754956Y-18206942D01*
X147754956Y-18206942D02*
X147707337Y-18302180D01*
X147707337Y-18302180D02*
X147659718Y-18349800D01*
X147659718Y-18349800D02*
X147564480Y-18397419D01*
X147564480Y-18397419D02*
X147469242Y-18397419D01*
X147469242Y-18397419D02*
X147374004Y-18349800D01*
X147374004Y-18349800D02*
X147326385Y-18302180D01*
X147326385Y-18302180D02*
X147278766Y-18206942D01*
X147278766Y-18206942D02*
X147231147Y-18016466D01*
X147231147Y-18016466D02*
X147231147Y-17778371D01*
X147231147Y-17778371D02*
X147278766Y-17587895D01*
X147278766Y-17587895D02*
X147326385Y-17492657D01*
X147326385Y-17492657D02*
X147374004Y-17445038D01*
X147374004Y-17445038D02*
X147469242Y-17397419D01*
X148993052Y-18397419D02*
X148993052Y-17397419D01*
X148993052Y-17397419D02*
X149231147Y-17397419D01*
X149231147Y-17397419D02*
X149374004Y-17445038D01*
X149374004Y-17445038D02*
X149469242Y-17540276D01*
X149469242Y-17540276D02*
X149516861Y-17635514D01*
X149516861Y-17635514D02*
X149564480Y-17825990D01*
X149564480Y-17825990D02*
X149564480Y-17968847D01*
X149564480Y-17968847D02*
X149516861Y-18159323D01*
X149516861Y-18159323D02*
X149469242Y-18254561D01*
X149469242Y-18254561D02*
X149374004Y-18349800D01*
X149374004Y-18349800D02*
X149231147Y-18397419D01*
X149231147Y-18397419D02*
X148993052Y-18397419D01*
X149993052Y-18397419D02*
X149993052Y-17397419D01*
X149993052Y-17397419D02*
X150564480Y-18397419D01*
X150564480Y-18397419D02*
X150564480Y-17397419D01*
X151040671Y-18397419D02*
X151040671Y-17397419D01*
X151040671Y-17397419D02*
X151421623Y-17397419D01*
X151421623Y-17397419D02*
X151516861Y-17445038D01*
X151516861Y-17445038D02*
X151564480Y-17492657D01*
X151564480Y-17492657D02*
X151612099Y-17587895D01*
X151612099Y-17587895D02*
X151612099Y-17730752D01*
X151612099Y-17730752D02*
X151564480Y-17825990D01*
X151564480Y-17825990D02*
X151516861Y-17873609D01*
X151516861Y-17873609D02*
X151421623Y-17921228D01*
X151421623Y-17921228D02*
X151040671Y-17921228D01*
D10*
X66683571Y-14579726D02*
X66260237Y-13974964D01*
X65957856Y-14579726D02*
X65957856Y-13309726D01*
X65957856Y-13309726D02*
X66441666Y-13309726D01*
X66441666Y-13309726D02*
X66562618Y-13370202D01*
X66562618Y-13370202D02*
X66623095Y-13430678D01*
X66623095Y-13430678D02*
X66683571Y-13551630D01*
X66683571Y-13551630D02*
X66683571Y-13733059D01*
X66683571Y-13733059D02*
X66623095Y-13854011D01*
X66623095Y-13854011D02*
X66562618Y-13914488D01*
X66562618Y-13914488D02*
X66441666Y-13974964D01*
X66441666Y-13974964D02*
X65957856Y-13974964D01*
X67167380Y-13430678D02*
X67227856Y-13370202D01*
X67227856Y-13370202D02*
X67348809Y-13309726D01*
X67348809Y-13309726D02*
X67651190Y-13309726D01*
X67651190Y-13309726D02*
X67772142Y-13370202D01*
X67772142Y-13370202D02*
X67832618Y-13430678D01*
X67832618Y-13430678D02*
X67893095Y-13551630D01*
X67893095Y-13551630D02*
X67893095Y-13672583D01*
X67893095Y-13672583D02*
X67832618Y-13854011D01*
X67832618Y-13854011D02*
X67106904Y-14579726D01*
X67106904Y-14579726D02*
X67893095Y-14579726D01*
X68679285Y-13309726D02*
X68800238Y-13309726D01*
X68800238Y-13309726D02*
X68921190Y-13370202D01*
X68921190Y-13370202D02*
X68981666Y-13430678D01*
X68981666Y-13430678D02*
X69042142Y-13551630D01*
X69042142Y-13551630D02*
X69102619Y-13793535D01*
X69102619Y-13793535D02*
X69102619Y-14095916D01*
X69102619Y-14095916D02*
X69042142Y-14337821D01*
X69042142Y-14337821D02*
X68981666Y-14458773D01*
X68981666Y-14458773D02*
X68921190Y-14519250D01*
X68921190Y-14519250D02*
X68800238Y-14579726D01*
X68800238Y-14579726D02*
X68679285Y-14579726D01*
X68679285Y-14579726D02*
X68558333Y-14519250D01*
X68558333Y-14519250D02*
X68497857Y-14458773D01*
X68497857Y-14458773D02*
X68437380Y-14337821D01*
X68437380Y-14337821D02*
X68376904Y-14095916D01*
X68376904Y-14095916D02*
X68376904Y-13793535D01*
X68376904Y-13793535D02*
X68437380Y-13551630D01*
X68437380Y-13551630D02*
X68497857Y-13430678D01*
X68497857Y-13430678D02*
X68558333Y-13370202D01*
X68558333Y-13370202D02*
X68679285Y-13309726D01*
D11*
X65875312Y-16777180D02*
X65827693Y-16824800D01*
X65827693Y-16824800D02*
X65684836Y-16872419D01*
X65684836Y-16872419D02*
X65589598Y-16872419D01*
X65589598Y-16872419D02*
X65446741Y-16824800D01*
X65446741Y-16824800D02*
X65351503Y-16729561D01*
X65351503Y-16729561D02*
X65303884Y-16634323D01*
X65303884Y-16634323D02*
X65256265Y-16443847D01*
X65256265Y-16443847D02*
X65256265Y-16300990D01*
X65256265Y-16300990D02*
X65303884Y-16110514D01*
X65303884Y-16110514D02*
X65351503Y-16015276D01*
X65351503Y-16015276D02*
X65446741Y-15920038D01*
X65446741Y-15920038D02*
X65589598Y-15872419D01*
X65589598Y-15872419D02*
X65684836Y-15872419D01*
X65684836Y-15872419D02*
X65827693Y-15920038D01*
X65827693Y-15920038D02*
X65875312Y-15967657D01*
X67637217Y-16777180D02*
X67589598Y-16824800D01*
X67589598Y-16824800D02*
X67446741Y-16872419D01*
X67446741Y-16872419D02*
X67351503Y-16872419D01*
X67351503Y-16872419D02*
X67208646Y-16824800D01*
X67208646Y-16824800D02*
X67113408Y-16729561D01*
X67113408Y-16729561D02*
X67065789Y-16634323D01*
X67065789Y-16634323D02*
X67018170Y-16443847D01*
X67018170Y-16443847D02*
X67018170Y-16300990D01*
X67018170Y-16300990D02*
X67065789Y-16110514D01*
X67065789Y-16110514D02*
X67113408Y-16015276D01*
X67113408Y-16015276D02*
X67208646Y-15920038D01*
X67208646Y-15920038D02*
X67351503Y-15872419D01*
X67351503Y-15872419D02*
X67446741Y-15872419D01*
X67446741Y-15872419D02*
X67589598Y-15920038D01*
X67589598Y-15920038D02*
X67637217Y-15967657D01*
X69399122Y-16872419D02*
X69065789Y-16396228D01*
X68827694Y-16872419D02*
X68827694Y-15872419D01*
X68827694Y-15872419D02*
X69208646Y-15872419D01*
X69208646Y-15872419D02*
X69303884Y-15920038D01*
X69303884Y-15920038D02*
X69351503Y-15967657D01*
X69351503Y-15967657D02*
X69399122Y-16062895D01*
X69399122Y-16062895D02*
X69399122Y-16205752D01*
X69399122Y-16205752D02*
X69351503Y-16300990D01*
X69351503Y-16300990D02*
X69303884Y-16348609D01*
X69303884Y-16348609D02*
X69208646Y-16396228D01*
X69208646Y-16396228D02*
X68827694Y-16396228D01*
X71161027Y-16872419D02*
X70827694Y-16396228D01*
X70589599Y-16872419D02*
X70589599Y-15872419D01*
X70589599Y-15872419D02*
X70970551Y-15872419D01*
X70970551Y-15872419D02*
X71065789Y-15920038D01*
X71065789Y-15920038D02*
X71113408Y-15967657D01*
X71113408Y-15967657D02*
X71161027Y-16062895D01*
X71161027Y-16062895D02*
X71161027Y-16205752D01*
X71161027Y-16205752D02*
X71113408Y-16300990D01*
X71113408Y-16300990D02*
X71065789Y-16348609D01*
X71065789Y-16348609D02*
X70970551Y-16396228D01*
X70970551Y-16396228D02*
X70589599Y-16396228D01*
X61756265Y-19467657D02*
X61803884Y-19420038D01*
X61803884Y-19420038D02*
X61899122Y-19372419D01*
X61899122Y-19372419D02*
X62137217Y-19372419D01*
X62137217Y-19372419D02*
X62232455Y-19420038D01*
X62232455Y-19420038D02*
X62280074Y-19467657D01*
X62280074Y-19467657D02*
X62327693Y-19562895D01*
X62327693Y-19562895D02*
X62327693Y-19658133D01*
X62327693Y-19658133D02*
X62280074Y-19800990D01*
X62280074Y-19800990D02*
X61708646Y-20372419D01*
X61708646Y-20372419D02*
X62327693Y-20372419D01*
X63184836Y-19705752D02*
X63184836Y-20372419D01*
X62756265Y-19705752D02*
X62756265Y-20229561D01*
X62756265Y-20229561D02*
X62803884Y-20324800D01*
X62803884Y-20324800D02*
X62899122Y-20372419D01*
X62899122Y-20372419D02*
X63041979Y-20372419D01*
X63041979Y-20372419D02*
X63137217Y-20324800D01*
X63137217Y-20324800D02*
X63184836Y-20277180D01*
X63994360Y-19848609D02*
X63661027Y-19848609D01*
X63661027Y-20372419D02*
X63661027Y-19372419D01*
X63661027Y-19372419D02*
X64137217Y-19372419D01*
X65232456Y-19467657D02*
X65280075Y-19420038D01*
X65280075Y-19420038D02*
X65375313Y-19372419D01*
X65375313Y-19372419D02*
X65613408Y-19372419D01*
X65613408Y-19372419D02*
X65708646Y-19420038D01*
X65708646Y-19420038D02*
X65756265Y-19467657D01*
X65756265Y-19467657D02*
X65803884Y-19562895D01*
X65803884Y-19562895D02*
X65803884Y-19658133D01*
X65803884Y-19658133D02*
X65756265Y-19800990D01*
X65756265Y-19800990D02*
X65184837Y-20372419D01*
X65184837Y-20372419D02*
X65803884Y-20372419D01*
X66661027Y-19705752D02*
X66661027Y-20372419D01*
X66232456Y-19705752D02*
X66232456Y-20229561D01*
X66232456Y-20229561D02*
X66280075Y-20324800D01*
X66280075Y-20324800D02*
X66375313Y-20372419D01*
X66375313Y-20372419D02*
X66518170Y-20372419D01*
X66518170Y-20372419D02*
X66613408Y-20324800D01*
X66613408Y-20324800D02*
X66661027Y-20277180D01*
X67470551Y-19848609D02*
X67137218Y-19848609D01*
X67137218Y-20372419D02*
X67137218Y-19372419D01*
X67137218Y-19372419D02*
X67613408Y-19372419D01*
X69280075Y-20372419D02*
X68708647Y-20372419D01*
X68994361Y-20372419D02*
X68994361Y-19372419D01*
X68994361Y-19372419D02*
X68899123Y-19515276D01*
X68899123Y-19515276D02*
X68803885Y-19610514D01*
X68803885Y-19610514D02*
X68708647Y-19658133D01*
X70232456Y-20372419D02*
X69661028Y-20372419D01*
X69946742Y-20372419D02*
X69946742Y-19372419D01*
X69946742Y-19372419D02*
X69851504Y-19515276D01*
X69851504Y-19515276D02*
X69756266Y-19610514D01*
X69756266Y-19610514D02*
X69661028Y-19658133D01*
X70661028Y-20372419D02*
X70661028Y-19372419D01*
X70756266Y-19991466D02*
X71041980Y-20372419D01*
X71041980Y-19705752D02*
X70661028Y-20086704D01*
X72232457Y-20372419D02*
X72232457Y-19372419D01*
X72232457Y-19372419D02*
X72470552Y-19372419D01*
X72470552Y-19372419D02*
X72613409Y-19420038D01*
X72613409Y-19420038D02*
X72708647Y-19515276D01*
X72708647Y-19515276D02*
X72756266Y-19610514D01*
X72756266Y-19610514D02*
X72803885Y-19800990D01*
X72803885Y-19800990D02*
X72803885Y-19943847D01*
X72803885Y-19943847D02*
X72756266Y-20134323D01*
X72756266Y-20134323D02*
X72708647Y-20229561D01*
X72708647Y-20229561D02*
X72613409Y-20324800D01*
X72613409Y-20324800D02*
X72470552Y-20372419D01*
X72470552Y-20372419D02*
X72232457Y-20372419D01*
X73232457Y-20372419D02*
X73232457Y-19372419D01*
X73232457Y-19372419D02*
X73803885Y-20372419D01*
X73803885Y-20372419D02*
X73803885Y-19372419D01*
X74280076Y-20372419D02*
X74280076Y-19372419D01*
X74280076Y-19372419D02*
X74661028Y-19372419D01*
X74661028Y-19372419D02*
X74756266Y-19420038D01*
X74756266Y-19420038D02*
X74803885Y-19467657D01*
X74803885Y-19467657D02*
X74851504Y-19562895D01*
X74851504Y-19562895D02*
X74851504Y-19705752D01*
X74851504Y-19705752D02*
X74803885Y-19800990D01*
X74803885Y-19800990D02*
X74756266Y-19848609D01*
X74756266Y-19848609D02*
X74661028Y-19896228D01*
X74661028Y-19896228D02*
X74280076Y-19896228D01*
%TO.C,R0*%
X95380000Y840000D02*
X114380000Y840000D01*
X114380000Y-23160000D01*
X95380000Y-23160000D01*
X95380000Y840000D01*
D12*
%TO.C,R1*%
X27661000Y-31915500D02*
X27661000Y-30264500D01*
X26622140Y-31915500D02*
X27661000Y-31915500D01*
X26347861Y-30264500D02*
X25672139Y-30264500D01*
D13*
X26010000Y-45060000D02*
X12040000Y-45060000D01*
X26010000Y-34100000D02*
X26010000Y-45060000D01*
D12*
X24359000Y-31915500D02*
X25397860Y-31915500D01*
X24359000Y-30264500D02*
X24359000Y-31915500D01*
X20697400Y-39036500D02*
X20697400Y-37080700D01*
X19633140Y-39036500D02*
X20697400Y-39036500D01*
X19358861Y-37080700D02*
X18683139Y-37080700D01*
X17344600Y-39036500D02*
X18408860Y-39036500D01*
X17344600Y-37080700D02*
X17344600Y-39036500D01*
D13*
X12040000Y-45060000D02*
X12040000Y-31090000D01*
X12040000Y-31090000D02*
X26010000Y-31090000D01*
D12*
X21967400Y-36560000D02*
G75*
G02*
X21713400Y-36560000I-127000J0D01*
G01*
X21713400Y-36560000D02*
G75*
G02*
X21967400Y-36560000I127000J0D01*
G01*
D13*
%TO.C,R2*%
X45060000Y-45060000D02*
X31090000Y-45060000D01*
X45060000Y-34100000D02*
X45060000Y-45060000D01*
D12*
X39747400Y-39036500D02*
X39747400Y-37080700D01*
X38683140Y-39036500D02*
X39747400Y-39036500D01*
X38408861Y-37080700D02*
X37733139Y-37080700D01*
X36394600Y-39036500D02*
X37458860Y-39036500D01*
X36394600Y-37080700D02*
X36394600Y-39036500D01*
D13*
X31090000Y-45060000D02*
X31090000Y-31090000D01*
X31090000Y-31090000D02*
X45060000Y-31090000D01*
D12*
X41017400Y-36560000D02*
G75*
G02*
X40763400Y-36560000I-127000J0D01*
G01*
X40763400Y-36560000D02*
G75*
G02*
X41017400Y-36560000I127000J0D01*
G01*
D13*
%TO.C,R3*%
X64110000Y-45060000D02*
X50140000Y-45060000D01*
X64110000Y-34100000D02*
X64110000Y-45060000D01*
D12*
X58797400Y-39036500D02*
X58797400Y-37080700D01*
X57733140Y-39036500D02*
X58797400Y-39036500D01*
X57458861Y-37080700D02*
X56783139Y-37080700D01*
X55444600Y-39036500D02*
X56508860Y-39036500D01*
X55444600Y-37080700D02*
X55444600Y-39036500D01*
D13*
X50140000Y-45060000D02*
X50140000Y-31090000D01*
X50140000Y-31090000D02*
X64110000Y-31090000D01*
D12*
X60067400Y-36560000D02*
G75*
G02*
X59813400Y-36560000I-127000J0D01*
G01*
X59813400Y-36560000D02*
G75*
G02*
X60067400Y-36560000I127000J0D01*
G01*
D13*
%TO.C,R4*%
X83160000Y-45060000D02*
X69190000Y-45060000D01*
X83160000Y-34100000D02*
X83160000Y-45060000D01*
D12*
X77847400Y-39036500D02*
X77847400Y-37080700D01*
X76783140Y-39036500D02*
X77847400Y-39036500D01*
X76508861Y-37080700D02*
X75833139Y-37080700D01*
X74494600Y-39036500D02*
X75558860Y-39036500D01*
X74494600Y-37080700D02*
X74494600Y-39036500D01*
D13*
X69190000Y-45060000D02*
X69190000Y-31090000D01*
X69190000Y-31090000D02*
X83160000Y-31090000D01*
D12*
X79117400Y-36560000D02*
G75*
G02*
X78863400Y-36560000I-127000J0D01*
G01*
X78863400Y-36560000D02*
G75*
G02*
X79117400Y-36560000I127000J0D01*
G01*
D13*
%TO.C,R5*%
X35535000Y-83160000D02*
X21565000Y-83160000D01*
X35535000Y-72200000D02*
X35535000Y-83160000D01*
D12*
X30222400Y-77136500D02*
X30222400Y-75180700D01*
X29158140Y-77136500D02*
X30222400Y-77136500D01*
X28883861Y-75180700D02*
X28208139Y-75180700D01*
X26869600Y-77136500D02*
X27933860Y-77136500D01*
X26869600Y-75180700D02*
X26869600Y-77136500D01*
D13*
X21565000Y-83160000D02*
X21565000Y-69190000D01*
X21565000Y-69190000D02*
X35535000Y-69190000D01*
D12*
X31492400Y-74660000D02*
G75*
G02*
X31238400Y-74660000I-127000J0D01*
G01*
X31238400Y-74660000D02*
G75*
G02*
X31492400Y-74660000I127000J0D01*
G01*
D13*
%TO.C,R6*%
X187935000Y-83160000D02*
X173965000Y-83160000D01*
X187935000Y-72200000D02*
X187935000Y-83160000D01*
D12*
X182622400Y-77136500D02*
X182622400Y-75180700D01*
X181558140Y-77136500D02*
X182622400Y-77136500D01*
X181283861Y-75180700D02*
X180608139Y-75180700D01*
X179269600Y-77136500D02*
X180333860Y-77136500D01*
X179269600Y-75180700D02*
X179269600Y-77136500D01*
D13*
X173965000Y-83160000D02*
X173965000Y-69190000D01*
X173965000Y-69190000D02*
X187935000Y-69190000D01*
D12*
X183892400Y-74660000D02*
G75*
G02*
X183638400Y-74660000I-127000J0D01*
G01*
X183638400Y-74660000D02*
G75*
G02*
X183892400Y-74660000I127000J0D01*
G01*
D13*
%TO.C,R7*%
X149835000Y-83160000D02*
X135865000Y-83160000D01*
X149835000Y-72200000D02*
X149835000Y-83160000D01*
D12*
X144522400Y-77136500D02*
X144522400Y-75180700D01*
X143458140Y-77136500D02*
X144522400Y-77136500D01*
X143183861Y-75180700D02*
X142508139Y-75180700D01*
X141169600Y-77136500D02*
X142233860Y-77136500D01*
X141169600Y-75180700D02*
X141169600Y-77136500D01*
D13*
X135865000Y-83160000D02*
X135865000Y-69190000D01*
X135865000Y-69190000D02*
X149835000Y-69190000D01*
D12*
X145792400Y-74660000D02*
G75*
G02*
X145538400Y-74660000I-127000J0D01*
G01*
X145538400Y-74660000D02*
G75*
G02*
X145792400Y-74660000I127000J0D01*
G01*
D13*
%TO.C,R8*%
X140310000Y-45060000D02*
X126340000Y-45060000D01*
X140310000Y-34100000D02*
X140310000Y-45060000D01*
D12*
X134997400Y-39036500D02*
X134997400Y-37080700D01*
X133933140Y-39036500D02*
X134997400Y-39036500D01*
X133658861Y-37080700D02*
X132983139Y-37080700D01*
X131644600Y-39036500D02*
X132708860Y-39036500D01*
X131644600Y-37080700D02*
X131644600Y-39036500D01*
D13*
X126340000Y-45060000D02*
X126340000Y-31090000D01*
X126340000Y-31090000D02*
X140310000Y-31090000D01*
D12*
X136267400Y-36560000D02*
G75*
G02*
X136013400Y-36560000I-127000J0D01*
G01*
X136013400Y-36560000D02*
G75*
G02*
X136267400Y-36560000I127000J0D01*
G01*
%TO.C,R9*%
X161011000Y-31915500D02*
X161011000Y-30264500D01*
X159972140Y-31915500D02*
X161011000Y-31915500D01*
X159697861Y-30264500D02*
X159022139Y-30264500D01*
D13*
X159360000Y-45060000D02*
X145390000Y-45060000D01*
X159360000Y-34100000D02*
X159360000Y-45060000D01*
D12*
X157709000Y-31915500D02*
X158747860Y-31915500D01*
X157709000Y-30264500D02*
X157709000Y-31915500D01*
X154047400Y-39036500D02*
X154047400Y-37080700D01*
X152983140Y-39036500D02*
X154047400Y-39036500D01*
X152708861Y-37080700D02*
X152033139Y-37080700D01*
X150694600Y-39036500D02*
X151758860Y-39036500D01*
X150694600Y-37080700D02*
X150694600Y-39036500D01*
D13*
X145390000Y-45060000D02*
X145390000Y-31090000D01*
X145390000Y-31090000D02*
X159360000Y-31090000D01*
D12*
X155317400Y-36560000D02*
G75*
G02*
X155063400Y-36560000I-127000J0D01*
G01*
X155063400Y-36560000D02*
G75*
G02*
X155317400Y-36560000I127000J0D01*
G01*
D13*
%TO.C,R10*%
X178410000Y-45060000D02*
X164440000Y-45060000D01*
X178410000Y-34100000D02*
X178410000Y-45060000D01*
D12*
X173097400Y-39036500D02*
X173097400Y-37080700D01*
X172033140Y-39036500D02*
X173097400Y-39036500D01*
X171758861Y-37080700D02*
X171083139Y-37080700D01*
X169744600Y-39036500D02*
X170808860Y-39036500D01*
X169744600Y-37080700D02*
X169744600Y-39036500D01*
D13*
X164440000Y-45060000D02*
X164440000Y-31090000D01*
X164440000Y-31090000D02*
X178410000Y-31090000D01*
D12*
X174367400Y-36560000D02*
G75*
G02*
X174113400Y-36560000I-127000J0D01*
G01*
X174113400Y-36560000D02*
G75*
G02*
X174367400Y-36560000I127000J0D01*
G01*
D13*
%TO.C,R11*%
X197460000Y-45060000D02*
X183490000Y-45060000D01*
X197460000Y-34100000D02*
X197460000Y-45060000D01*
D12*
X192147400Y-39036500D02*
X192147400Y-37080700D01*
X191083140Y-39036500D02*
X192147400Y-39036500D01*
X190808861Y-37080700D02*
X190133139Y-37080700D01*
X188794600Y-39036500D02*
X189858860Y-39036500D01*
X188794600Y-37080700D02*
X188794600Y-39036500D01*
D13*
X183490000Y-45060000D02*
X183490000Y-31090000D01*
X183490000Y-31090000D02*
X197460000Y-31090000D01*
D12*
X193417400Y-36560000D02*
G75*
G02*
X193163400Y-36560000I-127000J0D01*
G01*
X193163400Y-36560000D02*
G75*
G02*
X193417400Y-36560000I127000J0D01*
G01*
D13*
%TO.C,R12*%
X26010000Y-16485000D02*
X12040000Y-16485000D01*
X26010000Y-5525000D02*
X26010000Y-16485000D01*
D12*
X20697400Y-10461500D02*
X20697400Y-8505700D01*
X19633140Y-10461500D02*
X20697400Y-10461500D01*
X19358861Y-8505700D02*
X18683139Y-8505700D01*
X17344600Y-10461500D02*
X18408860Y-10461500D01*
X17344600Y-8505700D02*
X17344600Y-10461500D01*
D13*
X12040000Y-16485000D02*
X12040000Y-2515000D01*
X12040000Y-2515000D02*
X26010000Y-2515000D01*
D12*
X21967400Y-7985000D02*
G75*
G02*
X21713400Y-7985000I-127000J0D01*
G01*
X21713400Y-7985000D02*
G75*
G02*
X21967400Y-7985000I127000J0D01*
G01*
D13*
%TO.C,R13*%
X45060000Y-16485000D02*
X31090000Y-16485000D01*
X45060000Y-5525000D02*
X45060000Y-16485000D01*
D12*
X39747400Y-10461500D02*
X39747400Y-8505700D01*
X38683140Y-10461500D02*
X39747400Y-10461500D01*
X38408861Y-8505700D02*
X37733139Y-8505700D01*
X36394600Y-10461500D02*
X37458860Y-10461500D01*
X36394600Y-8505700D02*
X36394600Y-10461500D01*
D13*
X31090000Y-16485000D02*
X31090000Y-2515000D01*
X31090000Y-2515000D02*
X45060000Y-2515000D01*
D12*
X41017400Y-7985000D02*
G75*
G02*
X40763400Y-7985000I-127000J0D01*
G01*
X40763400Y-7985000D02*
G75*
G02*
X41017400Y-7985000I127000J0D01*
G01*
D13*
%TO.C,R14*%
X178410000Y-16485000D02*
X164440000Y-16485000D01*
X178410000Y-5525000D02*
X178410000Y-16485000D01*
D12*
X173097400Y-10461500D02*
X173097400Y-8505700D01*
X172033140Y-10461500D02*
X173097400Y-10461500D01*
X171758861Y-8505700D02*
X171083139Y-8505700D01*
X169744600Y-10461500D02*
X170808860Y-10461500D01*
X169744600Y-8505700D02*
X169744600Y-10461500D01*
D13*
X164440000Y-16485000D02*
X164440000Y-2515000D01*
X164440000Y-2515000D02*
X178410000Y-2515000D01*
D12*
X174367400Y-7985000D02*
G75*
G02*
X174113400Y-7985000I-127000J0D01*
G01*
X174113400Y-7985000D02*
G75*
G02*
X174367400Y-7985000I127000J0D01*
G01*
D13*
%TO.C,R15*%
X197460000Y-16485000D02*
X183490000Y-16485000D01*
X197460000Y-5525000D02*
X197460000Y-16485000D01*
D12*
X192147400Y-10461500D02*
X192147400Y-8505700D01*
X191083140Y-10461500D02*
X192147400Y-10461500D01*
X190808861Y-8505700D02*
X190133139Y-8505700D01*
X188794600Y-10461500D02*
X189858860Y-10461500D01*
X188794600Y-8505700D02*
X188794600Y-10461500D01*
D13*
X183490000Y-16485000D02*
X183490000Y-2515000D01*
X183490000Y-2515000D02*
X197460000Y-2515000D01*
D12*
X193417400Y-7985000D02*
G75*
G02*
X193163400Y-7985000I-127000J0D01*
G01*
X193163400Y-7985000D02*
G75*
G02*
X193417400Y-7985000I127000J0D01*
G01*
D13*
%TO.C,R16*%
X73635000Y-83160000D02*
X59665000Y-83160000D01*
X73635000Y-72200000D02*
X73635000Y-83160000D01*
D12*
X68322400Y-77136500D02*
X68322400Y-75180700D01*
X67258140Y-77136500D02*
X68322400Y-77136500D01*
X66983861Y-75180700D02*
X66308139Y-75180700D01*
X64969600Y-77136500D02*
X66033860Y-77136500D01*
X64969600Y-75180700D02*
X64969600Y-77136500D01*
D13*
X59665000Y-83160000D02*
X59665000Y-69190000D01*
X59665000Y-69190000D02*
X73635000Y-69190000D01*
D12*
X69592400Y-74660000D02*
G75*
G02*
X69338400Y-74660000I-127000J0D01*
G01*
X69338400Y-74660000D02*
G75*
G02*
X69592400Y-74660000I127000J0D01*
G01*
%TO.C,R17*%
X122911000Y-50965500D02*
X122911000Y-49314500D01*
X121872140Y-50965500D02*
X122911000Y-50965500D01*
X121597861Y-49314500D02*
X120922139Y-49314500D01*
D13*
X121260000Y-64110000D02*
X107290000Y-64110000D01*
X121260000Y-53150000D02*
X121260000Y-64110000D01*
D12*
X119609000Y-50965500D02*
X120647860Y-50965500D01*
X119609000Y-49314500D02*
X119609000Y-50965500D01*
X115947400Y-58086500D02*
X115947400Y-56130700D01*
X114883140Y-58086500D02*
X115947400Y-58086500D01*
X114608861Y-56130700D02*
X113933139Y-56130700D01*
X112594600Y-58086500D02*
X113658860Y-58086500D01*
X112594600Y-56130700D02*
X112594600Y-58086500D01*
D13*
X107290000Y-64110000D02*
X107290000Y-50140000D01*
X107290000Y-50140000D02*
X121260000Y-50140000D01*
D12*
X117217400Y-55610000D02*
G75*
G02*
X116963400Y-55610000I-127000J0D01*
G01*
X116963400Y-55610000D02*
G75*
G02*
X117217400Y-55610000I127000J0D01*
G01*
D13*
%TO.C,R18*%
X102210000Y-64110000D02*
X88240000Y-64110000D01*
X102210000Y-53150000D02*
X102210000Y-64110000D01*
D12*
X96897400Y-58086500D02*
X96897400Y-56130700D01*
X95833140Y-58086500D02*
X96897400Y-58086500D01*
X95558861Y-56130700D02*
X94883139Y-56130700D01*
X93544600Y-58086500D02*
X94608860Y-58086500D01*
X93544600Y-56130700D02*
X93544600Y-58086500D01*
D13*
X88240000Y-64110000D02*
X88240000Y-50140000D01*
X88240000Y-50140000D02*
X102210000Y-50140000D01*
D12*
X98167400Y-55610000D02*
G75*
G02*
X97913400Y-55610000I-127000J0D01*
G01*
X97913400Y-55610000D02*
G75*
G02*
X98167400Y-55610000I127000J0D01*
G01*
D13*
%TO.C,R19*%
X143477500Y-16562258D02*
X143477500Y-16087742D01*
D12*
X144320700Y-10323200D02*
X144320700Y-10815259D01*
X144320700Y-13234741D02*
X144320700Y-13726800D01*
X144320700Y-13726800D02*
X144812759Y-13726800D01*
D13*
X144522500Y-16562258D02*
X144522500Y-16087742D01*
D12*
X144812759Y-10323200D02*
X144320700Y-10323200D01*
D13*
X145477500Y-16562258D02*
X145477500Y-16087742D01*
X146522500Y-16562258D02*
X146522500Y-16087742D01*
D12*
X147232241Y-13726800D02*
X147724300Y-13726800D01*
D13*
X147477500Y-16562258D02*
X147477500Y-16087742D01*
D12*
X147724300Y-10323200D02*
X147232241Y-10323200D01*
X147724300Y-10815259D02*
X147724300Y-10323200D01*
X147724300Y-13726800D02*
X147724300Y-13234741D01*
D13*
X148522500Y-16562258D02*
X148522500Y-16087742D01*
X149477500Y-16562258D02*
X149477500Y-16087742D01*
X150522500Y-16562258D02*
X150522500Y-16087742D01*
G36*
X148156100Y-12084499D02*
G01*
X148410100Y-12084499D01*
X148410100Y-12465500D01*
X148156100Y-12465500D01*
X148156100Y-12084499D01*
G37*
%TO.C,R20*%
X64955000Y-18537258D02*
X64955000Y-18062742D01*
D12*
X65798200Y-12298200D02*
X65798200Y-12790259D01*
X65798200Y-15209741D02*
X65798200Y-15701800D01*
X65798200Y-15701800D02*
X66290259Y-15701800D01*
D13*
X66000000Y-18537258D02*
X66000000Y-18062742D01*
D12*
X66290259Y-12298200D02*
X65798200Y-12298200D01*
D13*
X66955000Y-18537258D02*
X66955000Y-18062742D01*
X68000000Y-18537258D02*
X68000000Y-18062742D01*
D12*
X68709741Y-15701800D02*
X69201800Y-15701800D01*
D13*
X68955000Y-18537258D02*
X68955000Y-18062742D01*
D12*
X69201800Y-12298200D02*
X68709741Y-12298200D01*
X69201800Y-12790259D02*
X69201800Y-12298200D01*
X69201800Y-15701800D02*
X69201800Y-15209741D01*
D13*
X70000000Y-18537258D02*
X70000000Y-18062742D01*
X70955000Y-18537258D02*
X70955000Y-18062742D01*
X72000000Y-18537258D02*
X72000000Y-18062742D01*
G36*
X69633600Y-14059499D02*
G01*
X69887600Y-14059499D01*
X69887600Y-14440500D01*
X69633600Y-14440500D01*
X69633600Y-14059499D01*
G37*
%TD*%
M02*
