%TF.GenerationSoftware,KiCad,Pcbnew,9.0.8*%
%TF.CreationDate,2026-04-20T19:34:19-04:00*%
%TF.ProjectId,routed,726f7574-6564-42e6-9b69-6361645f7063,rev?*%
%TF.SameCoordinates,Original*%
%TF.FileFunction,Soldermask,Top*%
%TF.FilePolarity,Negative*%
%FSLAX46Y46*%
G04 Gerber Fmt 4.6, Leading zero omitted, Abs format (unit mm)*
G04 Created by KiCad (PCBNEW 9.0.8) date 2026-04-20 19:34:19*
%MOMM*%
%LPD*%
G01*
G04 APERTURE LIST*
G04 Aperture macros list*
%AMRoundRect*
0 Rectangle with rounded corners*
0 $1 Rounding radius*
0 $2 $3 $4 $5 $6 $7 $8 $9 X,Y pos of 4 corners*
0 Add a 4 corners polygon primitive as box body*
4,1,4,$2,$3,$4,$5,$6,$7,$8,$9,$2,$3,0*
0 Add four circle primitives for the rounded corners*
1,1,$1+$1,$2,$3*
1,1,$1+$1,$4,$5*
1,1,$1+$1,$6,$7*
1,1,$1+$1,$8,$9*
0 Add four rect primitives between the rounded corners*
20,1,$1+$1,$2,$3,$4,$5,0*
20,1,$1+$1,$4,$5,$6,$7,0*
20,1,$1+$1,$6,$7,$8,$9,0*
20,1,$1+$1,$8,$9,$2,$3,0*%
G04 Aperture macros list end*
%ADD10O,2.500000X1.500000*%
%ADD11O,1.500000X2.500000*%
%ADD12C,1.700000*%
%ADD13R,0.558800X1.270000*%
%ADD14R,0.558800X1.320800*%
%ADD15R,0.812800X0.254000*%
%ADD16R,0.254000X0.812800*%
%ADD17RoundRect,0.200000X0.275000X-0.200000X0.275000X0.200000X-0.275000X0.200000X-0.275000X-0.200000X0*%
%ADD18R,1.676400X1.676400*%
G04 APERTURE END LIST*
D10*
%TO.C,R0*%
X113000000Y-1000000D03*
X113000000Y-3540000D03*
X113000000Y-6080000D03*
X113000000Y-8620000D03*
X113000000Y-11160000D03*
X113000000Y-13700000D03*
X113000000Y-16240000D03*
X113000000Y-18780000D03*
X113000000Y-21320000D03*
D11*
X109960000Y-21820000D03*
X107420000Y-21820000D03*
X104880000Y-21820000D03*
X102340000Y-21820000D03*
X99800000Y-21820000D03*
D10*
X96760000Y-21320000D03*
X96760000Y-18780000D03*
X96760000Y-16240000D03*
X96760000Y-13700000D03*
X96760000Y-11160000D03*
X96760000Y-8620000D03*
X96760000Y-6080000D03*
X96760000Y-3540000D03*
X96760000Y-1000000D03*
%TD*%
D12*
%TO.C,R1*%
X24105000Y-38100000D03*
X13945000Y-38100000D03*
D13*
X19971001Y-36839400D03*
X18070999Y-36839400D03*
X19021000Y-39277800D03*
D14*
X26960001Y-30074000D03*
X25059999Y-30074000D03*
X26010000Y-32106000D03*
%TD*%
D12*
%TO.C,R2*%
X43155000Y-38100000D03*
X32995000Y-38100000D03*
D13*
X39021001Y-36839400D03*
X37120999Y-36839400D03*
X38071000Y-39277800D03*
%TD*%
D12*
%TO.C,R3*%
X62205000Y-38100000D03*
X52045000Y-38100000D03*
D13*
X58071001Y-36839400D03*
X56170999Y-36839400D03*
X57121000Y-39277800D03*
%TD*%
D12*
%TO.C,R4*%
X81255000Y-38100000D03*
X71095000Y-38100000D03*
D13*
X77121001Y-36839400D03*
X75220999Y-36839400D03*
X76171000Y-39277800D03*
%TD*%
D12*
%TO.C,R5*%
X33630000Y-76200000D03*
X23470000Y-76200000D03*
D13*
X29496001Y-74939400D03*
X27595999Y-74939400D03*
X28546000Y-77377800D03*
%TD*%
D12*
%TO.C,R6*%
X186030000Y-76200000D03*
X175870000Y-76200000D03*
D13*
X181896001Y-74939400D03*
X179995999Y-74939400D03*
X180946000Y-77377800D03*
%TD*%
D12*
%TO.C,R7*%
X147930000Y-76200000D03*
X137770000Y-76200000D03*
D13*
X143796001Y-74939400D03*
X141895999Y-74939400D03*
X142846000Y-77377800D03*
%TD*%
D12*
%TO.C,R8*%
X138405000Y-38100000D03*
X128245000Y-38100000D03*
D13*
X134271001Y-36839400D03*
X132370999Y-36839400D03*
X133321000Y-39277800D03*
%TD*%
D12*
%TO.C,R9*%
X157455000Y-38100000D03*
X147295000Y-38100000D03*
D13*
X153321001Y-36839400D03*
X151420999Y-36839400D03*
X152371000Y-39277800D03*
D14*
X160310001Y-30074000D03*
X158409999Y-30074000D03*
X159360000Y-32106000D03*
%TD*%
D12*
%TO.C,R10*%
X176505000Y-38100000D03*
X166345000Y-38100000D03*
D13*
X172371001Y-36839400D03*
X170470999Y-36839400D03*
X171421000Y-39277800D03*
%TD*%
D12*
%TO.C,R11*%
X195555000Y-38100000D03*
X185395000Y-38100000D03*
D13*
X191421001Y-36839400D03*
X189520999Y-36839400D03*
X190471000Y-39277800D03*
%TD*%
D12*
%TO.C,R12*%
X24105000Y-9525000D03*
X13945000Y-9525000D03*
D13*
X19971001Y-8264400D03*
X18070999Y-8264400D03*
X19021000Y-10702800D03*
%TD*%
D12*
%TO.C,R13*%
X43155000Y-9525000D03*
X32995000Y-9525000D03*
D13*
X39021001Y-8264400D03*
X37120999Y-8264400D03*
X38071000Y-10702800D03*
%TD*%
D12*
%TO.C,R14*%
X176505000Y-9525000D03*
X166345000Y-9525000D03*
D13*
X172371001Y-8264400D03*
X170470999Y-8264400D03*
X171421000Y-10702800D03*
%TD*%
D12*
%TO.C,R15*%
X195555000Y-9525000D03*
X185395000Y-9525000D03*
D13*
X191421001Y-8264400D03*
X189520999Y-8264400D03*
X190471000Y-10702800D03*
%TD*%
D12*
%TO.C,R16*%
X71730000Y-76200000D03*
X61570000Y-76200000D03*
D13*
X67596001Y-74939400D03*
X65695999Y-74939400D03*
X66646000Y-77377800D03*
%TD*%
D12*
%TO.C,R17*%
X119355000Y-57150000D03*
X109195000Y-57150000D03*
D13*
X115221001Y-55889400D03*
X113320999Y-55889400D03*
X114271000Y-58327800D03*
D14*
X122210001Y-49124000D03*
X120309999Y-49124000D03*
X121260000Y-51156000D03*
%TD*%
D12*
%TO.C,R18*%
X100305000Y-57150000D03*
X90145000Y-57150000D03*
D13*
X96171001Y-55889400D03*
X94270999Y-55889400D03*
X95221000Y-58327800D03*
%TD*%
D15*
%TO.C,R19*%
X144549300Y-11274999D03*
X144549300Y-11775000D03*
X144549300Y-12275000D03*
X144549300Y-12775001D03*
D16*
X145272499Y-13498200D03*
X145772500Y-13498200D03*
X146272500Y-13498200D03*
X146772501Y-13498200D03*
D15*
X147495700Y-12775001D03*
X147495700Y-12275000D03*
X147495700Y-11775000D03*
X147495700Y-11274999D03*
D16*
X146772501Y-10551800D03*
X146272500Y-10551800D03*
X145772500Y-10551800D03*
X145272499Y-10551800D03*
D17*
X144000000Y-17150000D03*
D18*
X146022500Y-12025000D03*
D17*
X144000000Y-15500000D03*
X146000000Y-17150000D03*
X146000000Y-15500000D03*
X148000000Y-17150000D03*
X148000000Y-15500000D03*
X150000000Y-17150000D03*
X150000000Y-15500000D03*
%TD*%
D15*
%TO.C,R20*%
X66026800Y-13249999D03*
X66026800Y-13750000D03*
X66026800Y-14250000D03*
X66026800Y-14750001D03*
D16*
X66749999Y-15473200D03*
X67250000Y-15473200D03*
X67750000Y-15473200D03*
X68250001Y-15473200D03*
D15*
X68973200Y-14750001D03*
X68973200Y-14250000D03*
X68973200Y-13750000D03*
X68973200Y-13249999D03*
D16*
X68250001Y-12526800D03*
X67750000Y-12526800D03*
X67250000Y-12526800D03*
X66749999Y-12526800D03*
D17*
X65477500Y-19125000D03*
D18*
X67500000Y-14000000D03*
D17*
X65477500Y-17475000D03*
X67477500Y-19125000D03*
X67477500Y-17475000D03*
X69477500Y-19125000D03*
X69477500Y-17475000D03*
X71477500Y-19125000D03*
X71477500Y-17475000D03*
%TD*%
M02*
