M48
; DRILL file {KiCad 9.0.8} date 2026-04-20T21:53:53-0400
; FORMAT={-:-/ absolute / metric / decimal}
; #@! TF.CreationDate,2026-04-20T21:53:53-04:00
; #@! TF.GenerationSoftware,Kicad,Pcbnew,9.0.8
; #@! TF.FileFunction,NonPlated,1,2,NPTH
FMAT,2
METRIC
; #@! TA.AperFunction,NonPlated,NPTH,ComponentDrill
T1C1.700
%
G90
G05
T1
X9.182Y-19.05
X11.564Y-95.25
X19.342Y-19.05
X21.089Y-76.2
X21.724Y-95.25
X25.851Y-57.15
X28.232Y-19.05
X28.232Y-38.1
X31.249Y-76.2
X35.376Y-95.25
X36.011Y-57.15
X38.392Y-19.05
X38.392Y-38.1
X45.536Y-95.25
X47.282Y-19.05
X52.045Y-38.1
X52.045Y-57.15
X52.045Y-76.2
X57.442Y-19.05
X59.189Y-95.25
X62.205Y-38.1
X62.205Y-57.15
X62.205Y-76.2
X66.332Y-19.05
X69.349Y-95.25
X71.114Y-37.655
X71.114Y-56.705
X71.114Y-75.755
X76.492Y-19.05
X81.236Y-38.541
X81.236Y-57.591
X81.236Y-76.641
X85.402Y-18.605
X90.223Y-41.976
X90.223Y-61.026
X90.223Y-80.076
X95.523Y-19.491
X100.228Y-43.74
X100.228Y-62.79
X100.228Y-81.84
X104.51Y-22.926
X104.544Y-103.714
X109.273Y-46.739
X109.273Y-65.789
X109.273Y-84.839
X114.482Y-105.826
X114.516Y-24.69
X119.278Y-48.503
X119.278Y-67.553
X119.278Y-86.603
X123.56Y-27.689
X128.323Y-51.501
X128.323Y-70.551
X128.323Y-89.601
X133.566Y-29.453
X138.328Y-53.265
X138.328Y-72.315
X138.328Y-91.365
X142.61Y-32.451
X142.706Y-108.216
X147.373Y-56.264
X147.373Y-75.314
X152.52Y-110.846
X152.616Y-34.215
X157.378Y-58.028
X157.378Y-77.078
X185.473Y-58.036
X190.235Y-77.086
X194.998Y-34.224
X195.478Y-56.272
X199.99Y-111.284
X200.241Y-75.322
X204.523Y-53.274
X205.003Y-32.46
X209.285Y-72.324
X209.538Y-107.809
X214.048Y-29.461
X214.048Y-91.374
X214.528Y-51.51
X219.291Y-70.56
X223.573Y-48.511
X224.053Y-27.697
X224.053Y-89.61
X228.335Y-67.561
X233.098Y-24.699
X233.098Y-86.611
X233.578Y-46.747
X237.913Y-105.923
X238.341Y-65.797
X242.623Y-43.749
X243.103Y-22.935
X243.103Y-84.847
X247.385Y-62.799
X247.813Y-103.638
X252.089Y-19.495
X252.148Y-81.849
X252.628Y-41.985
X257.391Y-61.035
X261.614Y-38.545
X262.153Y-80.085
X262.211Y-18.609
X266.377Y-57.595
X271.12Y-19.05
X271.139Y-76.645
X271.736Y-37.659
X276.498Y-56.709
X280.645Y-38.1
X280.645Y-95.25
X281.261Y-75.759
X281.28Y-19.05
X285.407Y-57.15
X290.17Y-19.05
X290.17Y-76.2
X290.805Y-38.1
X290.805Y-95.25
X295.567Y-57.15
X299.695Y-38.1
X299.695Y-95.25
X300.33Y-19.05
X300.33Y-76.2
X304.457Y-57.15
X309.22Y-19.05
X309.855Y-38.1
X309.855Y-95.25
X314.618Y-57.15
X318.745Y-38.1
X318.745Y-76.2
X318.745Y-95.25
X319.38Y-19.05
X328.905Y-38.1
X328.905Y-76.2
X328.905Y-95.25
X335.414Y-57.15
X337.795Y-19.05
X337.795Y-95.25
X342.558Y-38.1
X345.574Y-57.15
X347.32Y-76.2
X347.955Y-19.05
X347.955Y-95.25
X352.717Y-38.1
X357.48Y-76.2
M30
