%TF.GenerationSoftware,KiCad,Pcbnew,9.0.8*%
%TF.CreationDate,2026-04-20T21:53:52-04:00*%
%TF.ProjectId,routed,726f7574-6564-42e6-9b69-6361645f7063,rev?*%
%TF.SameCoordinates,Original*%
%TF.FileFunction,Soldermask,Top*%
%TF.FilePolarity,Negative*%
%FSLAX46Y46*%
G04 Gerber Fmt 4.6, Leading zero omitted, Abs format (unit mm)*
G04 Created by KiCad (PCBNEW 9.0.8) date 2026-04-20 21:53:52*
%MOMM*%
%LPD*%
G01*
G04 APERTURE LIST*
G04 Aperture macros list*
%AMRoundRect*
0 Rectangle with rounded corners*
0 $1 Rounding radius*
0 $2 $3 $4 $5 $6 $7 $8 $9 X,Y pos of 4 corners*
0 Add a 4 corners polygon primitive as box body*
4,1,4,$2,$3,$4,$5,$6,$7,$8,$9,$2,$3,0*
0 Add four circle primitives for the rounded corners*
1,1,$1+$1,$2,$3*
1,1,$1+$1,$4,$5*
1,1,$1+$1,$6,$7*
1,1,$1+$1,$8,$9*
0 Add four rect primitives between the rounded corners*
20,1,$1+$1,$2,$3,$4,$5,0*
20,1,$1+$1,$4,$5,$6,$7,0*
20,1,$1+$1,$6,$7,$8,$9,0*
20,1,$1+$1,$8,$9,$2,$3,0*%
%AMRotRect*
0 Rectangle, with rotation*
0 The origin of the aperture is its center*
0 $1 length*
0 $2 width*
0 $3 Rotation angle, in degrees counterclockwise*
0 Add horizontal line*
21,1,$1,$2,0,0,$3*%
G04 Aperture macros list end*
%ADD10O,2.500000X1.500000*%
%ADD11O,1.500000X2.500000*%
%ADD12C,1.700000*%
%ADD13R,0.558800X1.270000*%
%ADD14R,0.558800X1.320800*%
%ADD15RotRect,0.558800X1.270000X0.500000*%
%ADD16R,0.812800X0.254000*%
%ADD17R,0.254000X0.812800*%
%ADD18RoundRect,0.200000X0.275000X-0.200000X0.275000X0.200000X-0.275000X0.200000X-0.275000X-0.200000X0*%
%ADD19R,1.676400X1.676400*%
G04 APERTURE END LIST*
D10*
%TO.C,R0*%
X182000000Y-10960000D03*
X182000000Y-13500000D03*
X182000000Y-16040000D03*
X182000000Y-18580000D03*
X182000000Y-21120000D03*
X182000000Y-23660000D03*
X182000000Y-26200000D03*
X182000000Y-28740000D03*
X182000000Y-31280000D03*
D11*
X178960000Y-31780000D03*
X176420000Y-31780000D03*
X173880000Y-31780000D03*
X171340000Y-31780000D03*
X168800000Y-31780000D03*
D10*
X165760000Y-31280000D03*
X165760000Y-28740000D03*
X165760000Y-26200000D03*
X165760000Y-23660000D03*
X165760000Y-21120000D03*
X165760000Y-18580000D03*
X165760000Y-16040000D03*
X165760000Y-13500000D03*
X165760000Y-10960000D03*
%TD*%
D12*
%TO.C,R1*%
X38392500Y-19050000D03*
X28232500Y-19050000D03*
D13*
X34258501Y-17789400D03*
X32358499Y-17789400D03*
X33308500Y-20227800D03*
D14*
X41247501Y-11024000D03*
X39347499Y-11024000D03*
X40297500Y-13056000D03*
%TD*%
D12*
%TO.C,R2*%
X57442500Y-19050000D03*
X47282500Y-19050000D03*
D13*
X53308501Y-17789400D03*
X51408499Y-17789400D03*
X52358500Y-20227800D03*
%TD*%
D12*
%TO.C,R3*%
X76492500Y-19050000D03*
X66332500Y-19050000D03*
D13*
X72358501Y-17789400D03*
X70458499Y-17789400D03*
X71408500Y-20227800D03*
%TD*%
D12*
%TO.C,R4*%
X95523264Y-19490572D03*
X85401926Y-18605070D03*
D13*
X91514865Y-17874467D03*
X89622093Y-17708871D03*
X90355958Y-20220791D03*
%TD*%
D12*
%TO.C,R5*%
X133565703Y-29452792D03*
X123560056Y-27688526D03*
D13*
X129713410Y-27493481D03*
X127842273Y-27163550D03*
X128354418Y-29729871D03*
%TD*%
D12*
%TO.C,R6*%
X152615703Y-34215292D03*
X142610056Y-32451026D03*
D13*
X148763410Y-32255981D03*
X146892273Y-31926050D03*
X147404418Y-34492371D03*
%TD*%
D12*
%TO.C,R7*%
X262210764Y-18609428D03*
X252089426Y-19494930D03*
D13*
X257982628Y-17713926D03*
X256089856Y-17879523D03*
X257248762Y-20225846D03*
%TD*%
D12*
%TO.C,R8*%
X281280000Y-19050000D03*
X271120000Y-19050000D03*
D13*
X277146001Y-17789400D03*
X275245999Y-17789400D03*
X276196000Y-20227800D03*
%TD*%
D12*
%TO.C,R9*%
X300330000Y-19050000D03*
X290170000Y-19050000D03*
D13*
X296196001Y-17789400D03*
X294295999Y-17789400D03*
X295246000Y-20227800D03*
D14*
X303185001Y-11024000D03*
X301284999Y-11024000D03*
X302235000Y-13056000D03*
%TD*%
D12*
%TO.C,R10*%
X319380000Y-19050000D03*
X309220000Y-19050000D03*
D13*
X315246001Y-17789400D03*
X313345999Y-17789400D03*
X314296000Y-20227800D03*
%TD*%
D12*
%TO.C,R11*%
X347955000Y-19050000D03*
X337795000Y-19050000D03*
D13*
X343821001Y-17789400D03*
X341920999Y-17789400D03*
X342871000Y-20227800D03*
%TD*%
D12*
%TO.C,R12*%
X38392500Y-38100000D03*
X28232500Y-38100000D03*
D13*
X34258501Y-36839400D03*
X32358499Y-36839400D03*
X33308500Y-39277800D03*
%TD*%
D12*
%TO.C,R13*%
X62205000Y-38100000D03*
X52045000Y-38100000D03*
D13*
X58071001Y-36839400D03*
X56170999Y-36839400D03*
X57121000Y-39277800D03*
%TD*%
D12*
%TO.C,R14*%
X81235764Y-38540572D03*
X71114426Y-37655070D03*
D13*
X77227365Y-36924467D03*
X75334593Y-36758871D03*
X76068458Y-39270791D03*
%TD*%
D12*
%TO.C,R15*%
X100228203Y-43740292D03*
X90222556Y-41976026D03*
D13*
X96375910Y-41780981D03*
X94504773Y-41451050D03*
X95016918Y-44017371D03*
%TD*%
D12*
%TO.C,R16*%
X119278203Y-48502792D03*
X109272556Y-46738526D03*
D13*
X115425910Y-46543481D03*
X113554773Y-46213550D03*
X114066918Y-48779871D03*
%TD*%
D12*
%TO.C,R17*%
X138328203Y-53265292D03*
X128322556Y-51501026D03*
D13*
X134475910Y-51305981D03*
X132604773Y-50976050D03*
X133116918Y-53542371D03*
D14*
X142533531Y-45856990D03*
X140662394Y-45527058D03*
X141245109Y-47693154D03*
%TD*%
D12*
%TO.C,R18*%
X214528203Y-51509708D03*
X204522556Y-53273974D03*
D13*
X210238108Y-50986121D03*
X208366971Y-51316053D03*
X209725963Y-53552442D03*
%TD*%
D12*
%TO.C,R19*%
X357480000Y-76200000D03*
X347320000Y-76200000D03*
D13*
X353346001Y-74939400D03*
X351445999Y-74939400D03*
X352396000Y-77377800D03*
%TD*%
D12*
%TO.C,R20*%
X271735764Y-37659428D03*
X261614426Y-38544930D03*
D13*
X267507628Y-36763926D03*
X265614856Y-36929523D03*
X266773762Y-39275846D03*
%TD*%
D12*
%TO.C,R21*%
X309855000Y-38100000D03*
X299695000Y-38100000D03*
D13*
X305721001Y-36839400D03*
X303820999Y-36839400D03*
X304771000Y-39277800D03*
%TD*%
D12*
%TO.C,R22*%
X328905000Y-38100000D03*
X318745000Y-38100000D03*
D13*
X324771001Y-36839400D03*
X322870999Y-36839400D03*
X323821000Y-39277800D03*
%TD*%
D12*
%TO.C,R23*%
X352717500Y-38100000D03*
X342557500Y-38100000D03*
D13*
X348583501Y-36839400D03*
X346683499Y-36839400D03*
X347633500Y-39277800D03*
%TD*%
D12*
%TO.C,R24*%
X36011300Y-57150000D03*
X25851300Y-57150000D03*
D13*
X31877301Y-55889400D03*
X29977299Y-55889400D03*
X30927300Y-58327800D03*
%TD*%
D12*
%TO.C,R25*%
X62205000Y-57150000D03*
X52045000Y-57150000D03*
D13*
X58071001Y-55889400D03*
X56170999Y-55889400D03*
X57121000Y-58327800D03*
D14*
X65060001Y-49124000D03*
X63159999Y-49124000D03*
X64110000Y-51156000D03*
%TD*%
D12*
%TO.C,R26*%
X81235764Y-57590572D03*
X71114426Y-56705070D03*
D13*
X77227365Y-55974467D03*
X75334593Y-55808871D03*
X76068458Y-58320791D03*
%TD*%
D12*
%TO.C,R27*%
X100228203Y-62790292D03*
X90222556Y-61026026D03*
D13*
X96375910Y-60830981D03*
X94504773Y-60501050D03*
X95016918Y-63067371D03*
%TD*%
D12*
%TO.C,R28*%
X119278203Y-67552792D03*
X109272556Y-65788526D03*
D13*
X115425910Y-65593481D03*
X113554773Y-65263550D03*
X114066918Y-67829871D03*
%TD*%
D12*
%TO.C,R29*%
X138328203Y-72315292D03*
X128322556Y-70551026D03*
D13*
X134475910Y-70355981D03*
X132604773Y-70026050D03*
X133116918Y-72592371D03*
%TD*%
D12*
%TO.C,R30*%
X219290703Y-70559708D03*
X209285056Y-72323974D03*
D13*
X215000608Y-70036121D03*
X213129471Y-70366053D03*
X214488463Y-72602442D03*
%TD*%
D12*
%TO.C,R31*%
X238340703Y-65797208D03*
X228335056Y-67561474D03*
D13*
X234050608Y-65273621D03*
X232179471Y-65603553D03*
X233538463Y-67839942D03*
%TD*%
D12*
%TO.C,R32*%
X257390703Y-61034708D03*
X247385056Y-62798974D03*
D13*
X253100608Y-60511121D03*
X251229471Y-60841053D03*
X252588463Y-63077442D03*
%TD*%
D12*
%TO.C,R33*%
X276498264Y-56709428D03*
X266376926Y-57594930D03*
D13*
X272270128Y-55813926D03*
X270377356Y-55979523D03*
X271536262Y-58325846D03*
D14*
X278642889Y-48465139D03*
X276750117Y-48630735D03*
X277873604Y-50572205D03*
%TD*%
D12*
%TO.C,R34*%
X295567500Y-57150000D03*
X285407500Y-57150000D03*
D13*
X291433501Y-55889400D03*
X289533499Y-55889400D03*
X290483500Y-58327800D03*
%TD*%
D12*
%TO.C,R35*%
X314617500Y-57150000D03*
X304457500Y-57150000D03*
D13*
X310483501Y-55889400D03*
X308583499Y-55889400D03*
X309533500Y-58327800D03*
%TD*%
D12*
%TO.C,R36*%
X345573800Y-57150000D03*
X335413800Y-57150000D03*
D13*
X341439801Y-55889400D03*
X339539799Y-55889400D03*
X340489800Y-58327800D03*
%TD*%
D12*
%TO.C,R37*%
X31248800Y-76200000D03*
X21088800Y-76200000D03*
D13*
X27114801Y-74939400D03*
X25214799Y-74939400D03*
X26164800Y-77377800D03*
%TD*%
D12*
%TO.C,R38*%
X62205000Y-76200000D03*
X52045000Y-76200000D03*
D13*
X58071001Y-74939400D03*
X56170999Y-74939400D03*
X57121000Y-77377800D03*
%TD*%
D12*
%TO.C,R39*%
X81235764Y-76640572D03*
X71114426Y-75755070D03*
D13*
X77227365Y-75024467D03*
X75334593Y-74858871D03*
X76068458Y-77370791D03*
%TD*%
D12*
%TO.C,R40*%
X100228203Y-81840292D03*
X90222556Y-80076026D03*
D13*
X96375910Y-79880981D03*
X94504773Y-79551050D03*
X95016918Y-82117371D03*
%TD*%
D12*
%TO.C,R41*%
X119278203Y-86602792D03*
X109272556Y-84838526D03*
D13*
X115425910Y-84643481D03*
X113554773Y-84313550D03*
X114066918Y-86879871D03*
D14*
X123483531Y-79194490D03*
X121612394Y-78864558D03*
X122195109Y-81030654D03*
%TD*%
D12*
%TO.C,R42*%
X138328203Y-91365292D03*
X128322556Y-89601026D03*
D13*
X134475910Y-89405981D03*
X132604773Y-89076050D03*
X133116918Y-91642371D03*
%TD*%
D12*
%TO.C,R43*%
X224053203Y-89609708D03*
X214047556Y-91373974D03*
D13*
X219763108Y-89086121D03*
X217891971Y-89416053D03*
X219250963Y-91652442D03*
%TD*%
D12*
%TO.C,R44*%
X243103203Y-84847208D03*
X233097556Y-86611474D03*
D13*
X238813108Y-84323621D03*
X236941971Y-84653553D03*
X238300963Y-86889942D03*
%TD*%
D12*
%TO.C,R45*%
X262153203Y-80084708D03*
X252147556Y-81848974D03*
D13*
X257863108Y-79561121D03*
X255991971Y-79891053D03*
X257350963Y-82127442D03*
%TD*%
D12*
%TO.C,R46*%
X281260764Y-75759428D03*
X271139426Y-76644930D03*
D13*
X277032628Y-74863926D03*
X275139856Y-75029523D03*
X276298762Y-77375846D03*
%TD*%
D12*
%TO.C,R47*%
X300330000Y-76200000D03*
X290170000Y-76200000D03*
D13*
X296196001Y-74939400D03*
X294295999Y-74939400D03*
X295246000Y-77377800D03*
%TD*%
D12*
%TO.C,R48*%
X328905000Y-76200000D03*
X318745000Y-76200000D03*
D13*
X324771001Y-74939400D03*
X322870999Y-74939400D03*
X323821000Y-77377800D03*
%TD*%
D12*
%TO.C,R49*%
X21723800Y-95250000D03*
X11563800Y-95250000D03*
D13*
X17589801Y-93989400D03*
X15689799Y-93989400D03*
X16639800Y-96427800D03*
D14*
X24578801Y-87224000D03*
X22678799Y-87224000D03*
X23628800Y-89256000D03*
%TD*%
D12*
%TO.C,R50*%
X45536300Y-95250000D03*
X35376300Y-95250000D03*
D13*
X41402301Y-93989400D03*
X39502299Y-93989400D03*
X40452300Y-96427800D03*
%TD*%
D12*
%TO.C,R51*%
X69348800Y-95250000D03*
X59188800Y-95250000D03*
D13*
X65214801Y-93989400D03*
X63314799Y-93989400D03*
X64264800Y-96427800D03*
%TD*%
D12*
%TO.C,R52*%
X290805000Y-95250000D03*
X280645000Y-95250000D03*
D13*
X286671001Y-93989400D03*
X284770999Y-93989400D03*
X285721000Y-96427800D03*
%TD*%
D12*
%TO.C,R53*%
X19342500Y-19050000D03*
X9182500Y-19050000D03*
D13*
X15208501Y-17789400D03*
X13308499Y-17789400D03*
X14258500Y-20227800D03*
%TD*%
D12*
%TO.C,R54*%
X114515703Y-24690292D03*
X104510056Y-22926026D03*
D13*
X110663410Y-22730981D03*
X108792273Y-22401050D03*
X109304418Y-24967371D03*
%TD*%
D12*
%TO.C,R55*%
X224053203Y-27697208D03*
X214047556Y-29461474D03*
D13*
X219763108Y-27173621D03*
X217891971Y-27503553D03*
X219250963Y-29739942D03*
%TD*%
D12*
%TO.C,R56*%
X243103203Y-22934708D03*
X233097556Y-24698974D03*
D13*
X238813108Y-22411121D03*
X236941971Y-22741053D03*
X238300963Y-24977442D03*
%TD*%
D12*
%TO.C,R57*%
X233578203Y-46747208D03*
X223572556Y-48511474D03*
D13*
X229288108Y-46223621D03*
X227416971Y-46553553D03*
X228775963Y-48789942D03*
D14*
X234996130Y-38347376D03*
X233124993Y-38677308D03*
X234413415Y-40513471D03*
%TD*%
D12*
%TO.C,R58*%
X252628203Y-41984708D03*
X242622556Y-43748974D03*
D13*
X248338108Y-41461121D03*
X246466971Y-41791053D03*
X247825963Y-44027442D03*
%TD*%
D12*
%TO.C,R59*%
X290805000Y-38100000D03*
X280645000Y-38100000D03*
D13*
X286671001Y-36839400D03*
X284770999Y-36839400D03*
X285721000Y-39277800D03*
%TD*%
D12*
%TO.C,R60*%
X247812940Y-103637873D03*
X237913341Y-105923375D03*
D15*
X243501323Y-103339529D03*
X241650017Y-103766937D03*
X243124191Y-105929136D03*
%TD*%
D12*
%TO.C,R61*%
X114482036Y-105825993D03*
X104544057Y-103713611D03*
D15*
X110700468Y-103733434D03*
X108841986Y-103338402D03*
X109264255Y-105921033D03*
%TD*%
D12*
%TO.C,R62*%
X328905000Y-95250000D03*
X318745000Y-95250000D03*
D13*
X324771001Y-93989400D03*
X322870999Y-93989400D03*
X323821000Y-96427800D03*
%TD*%
D12*
%TO.C,R63*%
X347955000Y-95250000D03*
X337795000Y-95250000D03*
D13*
X343821001Y-93989400D03*
X341920999Y-93989400D03*
X342871000Y-96427800D03*
%TD*%
D12*
%TO.C,R64*%
X309855000Y-95250000D03*
X299695000Y-95250000D03*
D13*
X305721001Y-93989400D03*
X303820999Y-93989400D03*
X304771000Y-96427800D03*
%TD*%
D16*
%TO.C,R65*%
X172553600Y-42499999D03*
X172553600Y-43000000D03*
X172553600Y-43500000D03*
X172553600Y-44000001D03*
D17*
X173276799Y-44723200D03*
X173776800Y-44723200D03*
X174276800Y-44723200D03*
X174776801Y-44723200D03*
D16*
X175500000Y-44000001D03*
X175500000Y-43500000D03*
X175500000Y-43000000D03*
X175500000Y-42499999D03*
D17*
X174776801Y-41776800D03*
X174276800Y-41776800D03*
X173776800Y-41776800D03*
X173276799Y-41776800D03*
D18*
X172004300Y-48375000D03*
D19*
X174026800Y-43250000D03*
D18*
X172004300Y-46725000D03*
X174004300Y-48375000D03*
X174004300Y-46725000D03*
X176004300Y-48375000D03*
X176004300Y-46725000D03*
X178004300Y-48375000D03*
X178004300Y-46725000D03*
%TD*%
D16*
%TO.C,R66*%
X172776800Y-59223199D03*
X172776800Y-59723200D03*
X172776800Y-60223200D03*
X172776800Y-60723201D03*
D17*
X173499999Y-61446400D03*
X174000000Y-61446400D03*
X174500000Y-61446400D03*
X175000001Y-61446400D03*
D16*
X175723200Y-60723201D03*
X175723200Y-60223200D03*
X175723200Y-59723200D03*
X175723200Y-59223199D03*
D17*
X175000001Y-58500000D03*
X174500000Y-58500000D03*
X174000000Y-58500000D03*
X173499999Y-58500000D03*
D18*
X172227500Y-65098200D03*
D19*
X174250000Y-59973200D03*
D18*
X172227500Y-63448200D03*
X174227500Y-65098200D03*
X174227500Y-63448200D03*
X176227500Y-65098200D03*
X176227500Y-63448200D03*
X178227500Y-65098200D03*
X178227500Y-63448200D03*
%TD*%
D12*
%TO.C,R67*%
X209537646Y-107808588D03*
X199990369Y-111283513D03*
D13*
X205221807Y-108037923D03*
X203436389Y-108687762D03*
X205163080Y-110654189D03*
D14*
X209475416Y-99290147D03*
X207689998Y-99939986D03*
X209277692Y-101524522D03*
%TD*%
D12*
%TO.C,R68*%
X157378203Y-77077792D03*
X147372556Y-75313526D03*
D13*
X153525910Y-75118481D03*
X151654773Y-74788550D03*
X152166918Y-77354871D03*
%TD*%
D12*
%TO.C,R69*%
X200240703Y-75322208D03*
X190235056Y-77086474D03*
D13*
X195950608Y-74798621D03*
X194079471Y-75128553D03*
X195438463Y-77364942D03*
%TD*%
D12*
%TO.C,R70*%
X157378203Y-58027792D03*
X147372556Y-56263526D03*
D13*
X153525910Y-56068481D03*
X151654773Y-55738550D03*
X152166918Y-58304871D03*
%TD*%
D12*
%TO.C,R71*%
X195478203Y-56272208D03*
X185472556Y-58036474D03*
D13*
X191188108Y-55748621D03*
X189316971Y-56078553D03*
X190675963Y-58314942D03*
%TD*%
D12*
%TO.C,R72*%
X152520255Y-110845830D03*
X142706449Y-108216229D03*
D13*
X148853386Y-108558227D03*
X147018125Y-108066470D03*
X147304651Y-110667662D03*
%TD*%
D12*
%TO.C,R74*%
X205003203Y-32459708D03*
X194997556Y-34223974D03*
D13*
X200713108Y-31936121D03*
X198841971Y-32266053D03*
X200200963Y-34502442D03*
%TD*%
D16*
%TO.C,R75*%
X171529900Y-95724999D03*
X171529900Y-96225000D03*
X171529900Y-96725000D03*
X171529900Y-97225001D03*
D17*
X172253099Y-97948200D03*
X172753100Y-97948200D03*
X173253100Y-97948200D03*
X173753101Y-97948200D03*
D16*
X174476300Y-97225001D03*
X174476300Y-96725000D03*
X174476300Y-96225000D03*
X174476300Y-95724999D03*
D17*
X173753101Y-95001800D03*
X173253100Y-95001800D03*
X172753100Y-95001800D03*
X172253099Y-95001800D03*
D18*
X170980600Y-101600000D03*
D19*
X173003100Y-96475000D03*
D18*
X170980600Y-99950000D03*
X172980600Y-101600000D03*
X172980600Y-99950000D03*
X174980600Y-101600000D03*
X174980600Y-99950000D03*
X176980600Y-101600000D03*
X176980600Y-99950000D03*
%TD*%
D16*
%TO.C,R76*%
X171553600Y-76499999D03*
X171553600Y-77000000D03*
X171553600Y-77500000D03*
X171553600Y-78000001D03*
D17*
X172276799Y-78723200D03*
X172776800Y-78723200D03*
X173276800Y-78723200D03*
X173776801Y-78723200D03*
D16*
X174500000Y-78000001D03*
X174500000Y-77500000D03*
X174500000Y-77000000D03*
X174500000Y-76499999D03*
D17*
X173776801Y-75776800D03*
X173276800Y-75776800D03*
X172776800Y-75776800D03*
X172276799Y-75776800D03*
D18*
X171004300Y-82375000D03*
D19*
X173026800Y-77250000D03*
D18*
X171004300Y-80725000D03*
X173004300Y-82375000D03*
X173004300Y-80725000D03*
X175004300Y-82375000D03*
X175004300Y-80725000D03*
X177004300Y-82375000D03*
X177004300Y-80725000D03*
%TD*%
M02*
