M48
; DRILL file {KiCad 9.0.8} date 2026-04-20T21:53:53-0400
; FORMAT={-:-/ absolute / metric / decimal}
; #@! TF.CreationDate,2026-04-20T21:53:53-04:00
; #@! TF.GenerationSoftware,Kicad,Pcbnew,9.0.8
; #@! TF.FileFunction,Plated,1,2,PTH
FMAT,2
METRIC
; #@! TA.AperFunction,Plated,PTH,ViaDrill
T1C0.300
; #@! TA.AperFunction,Plated,PTH,ComponentDrill
T2C1.000
%
G90
G05
T1
X20.529Y-90.916
X30.28Y-19.369
X35.7Y-54.915
X43.625Y-24.336
X44.036Y-93.656
X50.343Y-19.463
X50.604Y-73.229
X53.585Y-87.39
X53.586Y-13.386
X54.11Y-37.322
X59.547Y-52.283
X61.959Y-48.954
X62.293Y-94.174
X65.636Y-58.595
X66.698Y-88.183
X66.753Y-55.324
X70.125Y-59.624
X70.359Y-18.939
X72.3Y-74.414
X74.337Y-36.496
X76.445Y-74.557
X79.587Y-36.431
X80.624Y-40.514
X80.95Y-43.401
X83.61Y-39.616
X96.052Y-82.205
X97.546Y-65.016
X98.298Y-73.229
X98.298Y-79.844
X99.297Y-48.706
X104.053Y-37.115
X104.711Y-54.819
X104.793Y-16.921
X106.446Y-22.361
X107.241Y-38.017
X107.241Y-40.651
X109.887Y-78.878
X111.587Y-61.41
X112.494Y-46.299
X113.203Y-63.692
X114.408Y-60.407
X114.408Y-84.794
X116.184Y-48.862
X116.184Y-87.456
X116.6Y-63.857
X119.165Y-27.92
X119.784Y-52.903
X121.788Y-102.793
X122.402Y-49.119
X127.369Y-28.447
X128.088Y-79.193
X128.107Y-61.29
X129.269Y-81.04
X130.314Y-87.657
X130.668Y-78.787
X132.537Y-110.668
X133.54Y-70.236
X134.069Y-43.5
X134.478Y-91.359
X135.82Y-52.921
X137.05Y-48.63
X137.05Y-58.204
X139.462Y-46.198
X140.031Y-34.492
X151.232Y-35.329
X151.955Y-43.913
X151.955Y-108.692
X152.651Y-75.722
X153.906Y-95.841
X154.193Y-70.626
X155.042Y-55.349
X155.042Y-76.221
X155.765Y-59.078
X157.916Y-48.386
X158.701Y-59.134
X160.897Y-96.518
X163.449Y-13.385
X163.878Y-48.774
X163.878Y-56.11
X163.878Y-76.221
X165.907Y-89.416
X165.939Y-44.987
X166.81Y-45.272
X166.859Y-88.933
X166.859Y-95.032
X168.457Y-42.442
X168.856Y-44.363
X169.234Y-40.697
X169.325Y-96.846
X169.608Y-37.09
X170.429Y-98.115
X170.437Y-60.513
X170.881Y-55.575
X171.02Y-46.7
X171.935Y-41.844
X171.981Y-101.207
X172.221Y-62.505
X172.422Y-67.244
X172.637Y-45.288
X172.724Y-93.637
X172.775Y-30.351
X173.308Y-79.635
X174.163Y-94.134
X174.824Y-75.49
X174.877Y-98.111
X175.155Y-38.868
X175.802Y-108.471
X175.917Y-75.711
X175.976Y-39.365
X176.145Y-97.6
X176.229Y-61.803
X176.322Y-41.662
X176.326Y-79.581
X176.4Y-56.871
X176.486Y-42.73
X176.514Y-44.491
X176.825Y-94.174
X176.826Y-51.002
X176.83Y-45.845
X176.929Y-57.505
X177.139Y-76.221
X177.368Y-40.601
X177.589Y-58.549
X178.0Y-60.134
X178.362Y-41.112
X178.619Y-34.284
X178.865Y-103.173
X179.488Y-63.877
X179.513Y-41.244
X179.577Y-43.5
X179.577Y-49.114
X181.764Y-52.87
X191.471Y-10.062
X192.575Y-74.977
X199.15Y-54.776
X199.778Y-31.472
X202.63Y-47.106
X202.735Y-55.144
X205.611Y-40.012
X205.611Y-45.904
X206.383Y-51.316
X208.605Y-99.582
X226.477Y-42.605
X228.578Y-47.49
X228.681Y-85.21
X228.764Y-52.862
X229.458Y-34.202
X229.458Y-88.19
X229.661Y-49.519
X229.912Y-40.774
X230.192Y-67.244
X232.179Y-64.043
X232.312Y-28.118
X236.535Y-69.038
X236.933Y-50.089
X237.878Y-84.978
X240.947Y-22.56
X241.067Y-93.848
X241.921Y-102.592
X248.618Y-42.598
X249.131Y-49.291
X249.457Y-36.641
X249.529Y-61.373
X250.324Y-24.343
X250.325Y-37.321
X253.305Y-24.977
X253.331Y-47.669
X253.832Y-63.454
X253.992Y-19.369
X256.286Y-31.338
X256.928Y-78.486
X257.036Y-17.809
X263.226Y-39.332
X265.229Y-51.845
X268.469Y-36.795
X270.5Y-59.395
X271.191Y-46.933
X272.219Y-75.029
X274.04Y-55.874
X274.171Y-72.221
X279.06Y-47.296
X286.519Y-38.059
X288.265Y-51.484
X288.645Y-94.174
X289.656Y-46.299
X289.656Y-52.283
X292.057Y-33.9
X292.057Y-72.81
X292.409Y-19.24
X292.409Y-76.113
X295.937Y-19.009
X302.502Y-14.238
X302.999Y-94.157
X303.07Y-55.697
X303.981Y-64.252
X305.736Y-38.146
X306.931Y-55.912
X308.297Y-74.798
X309.942Y-70.236
X310.035Y-22.654
X310.876Y-18.689
X319.869Y-93.893
X321.745Y-71.034
X322.732Y-39.278
X322.802Y-95.99
X322.974Y-38.146
X323.215Y-58.577
X325.219Y-76.646
X333.789Y-88.19
X337.387Y-55.912
X342.871Y-73.229
X342.871Y-94.174
X345.505Y-38.018
X349.524Y-37.234
X354.656Y-73.63
T2
X166.26Y-10.96
X166.26Y-13.5
X166.26Y-16.04
X166.26Y-18.58
X166.26Y-21.12
X166.26Y-23.66
X166.26Y-26.2
X166.26Y-28.74
X166.26Y-31.28
X168.8Y-31.28
X171.34Y-31.28
X173.88Y-31.28
X176.42Y-31.28
X178.96Y-31.28
X181.5Y-10.96
X181.5Y-13.5
X181.5Y-16.04
X181.5Y-18.58
X181.5Y-21.12
X181.5Y-23.66
X181.5Y-26.2
X181.5Y-28.74
X181.5Y-31.28
M30
